<svg width="40" height="40" viewBox="0 0 40 40" fill="none" xmlns="http://www.w3.org/2000/svg">
<path d="M37.0683 6.59644C36.9496 6.59644 36.8337 6.60816 36.7215 6.6298C36.7357 6.50699 36.7439 6.38222 36.7439 6.2555C36.7439 4.47754 35.3026 3.03613 33.5245 3.03613C31.7466 3.03613 30.3052 4.47746 30.3052 6.2555C30.3052 6.38222 30.3133 6.50699 30.3276 6.6298C30.2152 6.60816 30.0994 6.59644 29.9808 6.59644C28.9741 6.59644 28.1582 7.41245 28.1582 8.41901C28.1582 9.42557 28.9742 10.2416 29.9808 10.2416H37.0685C38.0751 10.2416 38.8911 9.42557 38.8911 8.41901C38.8911 7.41245 38.0747 6.59644 37.0683 6.59644Z" fill="#39A5DF"/>
<path d="M37.0679 11.3496H29.9801C28.3637 11.3496 27.0488 10.0346 27.0488 8.41839C27.0488 7.05464 27.9851 5.90534 29.2486 5.57948C29.5739 3.51261 31.3672 1.92676 33.5241 1.92676C35.6811 1.92676 37.4744 3.51261 37.7997 5.57948C39.0632 5.90534 39.9994 7.05464 39.9994 8.41839C39.9991 10.0346 38.6841 11.3496 37.0679 11.3496ZM29.98 7.7044C29.5864 7.7044 29.2662 8.02464 29.2662 8.41823C29.2662 8.81182 29.5865 9.13206 29.98 9.13206H37.0678C37.4614 9.13206 37.7816 8.81182 37.7816 8.41823C37.7817 7.9794 37.3774 7.63206 36.9307 7.71776C36.5836 7.78432 36.2256 7.68206 35.9668 7.44167C35.7078 7.20128 35.579 6.8519 35.6198 6.50089C35.6298 6.41417 35.6347 6.3337 35.6347 6.25464C35.6347 5.09081 34.6879 4.14402 33.524 4.14402C32.3603 4.14402 31.4134 5.09089 31.4134 6.25464C31.4134 6.33355 31.4183 6.41409 31.4284 6.50089C31.4692 6.8519 31.3404 7.20128 31.0814 7.44167C30.8223 7.68206 30.4638 7.78464 30.1175 7.71776C30.0714 7.70901 30.0252 7.7044 29.98 7.7044Z" fill="#0155A0"/>
<path d="M25.0151 9.75293H18.3633V36.9636H25.0151V9.75293Z" fill="#39A5DF"/>
<path d="M11.9494 20.2362C12.1444 19.7683 12.2525 19.2552 12.2525 18.7169C12.2525 16.5347 10.4835 14.7656 8.30124 14.7656C6.11897 14.7656 4.34999 16.5346 4.34999 18.7169C4.34999 19.2553 4.45812 19.7684 4.65312 20.2362C2.66242 20.4401 1.10938 22.1219 1.10938 24.1665C1.10938 26.3487 2.87836 28.1178 5.06062 28.1178C6.40241 28.1178 7.58717 27.4483 8.30131 26.426C9.01545 27.4485 10.2002 28.1178 11.542 28.1178C13.7242 28.1178 15.4933 26.3488 15.4933 24.1665C15.4932 22.1219 13.9401 20.4401 11.9494 20.2362Z" fill="#39A5DF"/>
<path d="M36.0356 27.7617H31.6816V36.9643H36.0356V27.7617Z" fill="#39A5DF"/>
<path d="M38.0156 35.8556H37.2099V27.7618C37.2099 27.1495 36.7134 26.6531 36.1012 26.6531C36.09 26.6531 36.0792 26.6544 36.0679 26.6547C36.0567 26.6544 36.0459 26.6531 36.0346 26.6531H31.681C31.0688 26.6531 30.5723 27.1495 30.5723 27.7618V35.8556H26.1218V18.1158H34.9924V22.5515C34.9924 23.1639 35.4888 23.6603 36.1011 23.6603C36.7134 23.6603 37.2099 23.1639 37.2099 22.5515V17.0071C37.2099 16.3948 36.7134 15.8983 36.1011 15.8983H26.1218V9.75328C26.1218 9.14094 25.6253 8.64453 25.0131 8.64453H18.3613C17.749 8.64453 17.2525 9.14094 17.2525 9.75328V18.726H13.3601C13.3601 18.723 13.3604 18.7201 13.3604 18.7171C13.3604 15.9271 11.0905 13.6572 8.30053 13.6572C5.51054 13.6572 3.24062 15.927 3.24062 18.7171C3.24062 18.9551 3.25695 19.1905 3.28937 19.423C1.34812 20.1418 0 22.0022 0 24.1668C0 26.9568 2.26992 29.2268 5.05991 29.2268C5.90413 29.2268 6.72171 29.0142 7.44624 28.6261V35.8556H6.19671C5.58444 35.8556 5.08796 36.352 5.08796 36.9643C5.08796 37.5767 5.58444 38.0731 6.19671 38.0731H8.55498H18.3613H25.0131H31.681H36.0347H36.1013H38.0157C38.628 38.0731 39.1245 37.5767 39.1245 36.9643C39.1245 36.352 38.628 35.8556 38.0156 35.8556ZM9.20951 25.7911C9.00209 25.4942 8.66272 25.3174 8.30061 25.3174C7.9385 25.3174 7.59913 25.4943 7.3917 25.7911C6.85897 26.5539 5.98725 27.0092 5.06007 27.0092C3.49273 27.0092 2.21757 25.7341 2.21757 24.1667C2.21757 22.7036 3.31304 21.4881 4.76554 21.3393C5.1146 21.3036 5.42601 21.1047 5.60538 20.8033C5.78475 20.5019 5.81093 20.1333 5.67593 19.8096C5.53147 19.4632 5.45819 19.0957 5.45819 18.7172C5.45819 17.1498 6.73335 15.8747 8.30069 15.8747C9.86803 15.8747 11.1432 17.1497 11.1432 18.7172C11.1432 19.0957 11.0699 19.4633 10.9254 19.8096C10.7904 20.1333 10.8165 20.5019 10.996 20.8033C11.1754 21.1048 11.4869 21.3036 11.8358 21.3393C13.2885 21.4881 14.3838 22.7037 14.3838 24.1667C14.3838 25.734 13.1086 27.0092 11.5413 27.0092C10.614 27.0093 9.74225 26.5539 9.20951 25.7911ZM17.2526 35.8556H9.66373V28.8635C10.2535 29.0996 10.8894 29.2268 11.5413 29.2268C14.3313 29.2268 16.6012 26.9569 16.6012 24.1669C16.6012 22.9453 16.1717 21.8208 15.4488 20.9436H17.2527V35.8556H17.2526ZM19.4701 19.8348V10.862H23.9044V17.007V35.8555H19.4701V19.8348ZM32.7898 35.8556V28.8706H34.9259V35.8556H32.7898Z" fill="#0155A0"/>
</svg>
