<svg width="583" height="321" viewBox="0 0 583 321" fill="none" xmlns="http://www.w3.org/2000/svg">
<path d="M129.514 181.787C173.984 181.787 210.033 178.671 210.033 174.828C210.033 170.984 173.984 167.868 129.514 167.868C85.0454 167.868 48.9961 170.984 48.9961 174.828C48.9961 178.671 85.0454 181.787 129.514 181.787Z" fill="#E4F6FF"/>
<path d="M208.91 45.5645C196.248 40.7598 185.778 31.4902 178.999 19.774C171.095 6.1154 155.253 -2.29872 138.238 0.554928C130.168 1.90834 123.085 5.61824 117.573 10.8603C107.542 20.402 94.3311 25.7941 80.539 27.0557C77.9808 27.2895 75.4043 27.6901 72.8222 28.2647C42.2836 35.0613 21.9128 64.6367 26.4157 95.572C31.2892 129.058 62.7199 151.83 95.9452 146.259C99.8843 145.599 103.668 144.57 107.269 143.213C125.414 136.377 145.641 137.149 162.681 146.398C173.931 152.505 187.371 154.796 201.011 151.852C228.462 145.927 247.356 120.039 244.564 92.1191C242.362 70.1262 227.877 52.7609 208.91 45.5645Z" fill="#E4F6FF"/>
<path d="M249.694 25.9062H167.441V170.508H249.694V25.9062Z" fill="#132638"/>
<path d="M167.441 25.9062V170.508H249.694V25.9062H167.441ZM245.864 166.681H171.271V29.7327H245.864V166.681Z" fill="#B77F4B"/>
<path d="M185.922 43.0713V98.2075H204.663V43.0713H185.922ZM201.928 95.4743H188.658V45.8044H201.928V95.4743Z" fill="#B77F4B"/>
<path d="M228.478 45.8044V95.4743H215.208V45.8044H228.478ZM231.213 43.0713H212.473V98.2075H231.213V43.0713Z" fill="#B77F4B"/>
<path d="M201.927 109.725V149.592H188.657V109.725H201.927ZM204.663 106.992H185.922V152.325H204.663V106.992Z" fill="#B77F4B"/>
<path d="M228.478 109.725V149.592H215.208V109.725H228.478ZM231.213 106.992H212.473V152.325H231.213V106.992Z" fill="#B77F4B"/>
<path d="M167.441 25.9062L171.271 29.7327V166.681L167.441 170.508V25.9062Z" fill="#CB9D64"/>
<path d="M249.694 170.508L245.864 166.682H171.271L167.441 170.508H249.694Z" fill="#994D22"/>
<path d="M185.922 43.0713L188.657 45.8044V95.4743L185.922 98.2075V43.0713Z" fill="#CB9D64"/>
<path d="M201.928 95.4746L204.663 98.2078H185.922L188.657 95.4746H201.928Z" fill="#994D22"/>
<path d="M212.473 43.0713L215.208 45.8044V95.4743L212.473 98.2075V43.0713Z" fill="#CB9D64"/>
<path d="M228.478 95.4746L231.213 98.2078H212.473L215.208 95.4746H228.478Z" fill="#994D22"/>
<path d="M185.922 106.992L188.657 109.725V149.592L185.922 152.325V106.992Z" fill="#CB9D64"/>
<path d="M212.473 106.992L215.208 109.725V149.592L212.473 152.325V106.992Z" fill="#CB9D64"/>
<path d="M228.478 149.592L231.213 152.325H212.473L215.208 149.592H228.478Z" fill="#994D22"/>
<path d="M201.928 149.592L204.663 152.325H185.922L188.657 149.592H201.928Z" fill="#994D22"/>
<path d="M180.081 101.02C180.081 102.711 178.708 104.083 177.015 104.083C175.322 104.083 173.949 102.711 173.949 101.02C173.949 99.3278 175.322 97.9561 177.015 97.9561C178.708 97.9569 180.081 99.3286 180.081 101.02Z" fill="#FF965A"/>
<path d="M187.292 102.25H177.017C176.337 102.25 175.785 101.7 175.785 101.021C175.785 100.342 176.336 99.791 177.017 99.791H187.292C187.971 99.791 188.523 100.342 188.523 101.021C188.523 101.7 187.972 102.25 187.292 102.25Z" fill="#FFDC8C"/>
<path d="M208.306 67.4614C209.775 67.4614 210.967 66.271 210.967 64.8025C210.967 63.334 209.775 62.1436 208.306 62.1436C206.836 62.1436 205.645 63.334 205.645 64.8025C205.645 66.271 206.836 67.4614 208.306 67.4614Z" fill="#FFDC8C"/>
<path d="M208.306 65.8733C208.898 65.8733 209.378 65.3938 209.378 64.8024C209.378 64.2109 208.898 63.7314 208.306 63.7314C207.714 63.7314 207.234 64.2109 207.234 64.8024C207.234 65.3938 207.714 65.8733 208.306 65.8733Z" fill="#FF965A"/>
<path d="M214.361 41.7507H202.778C202.296 41.7507 201.906 41.3605 201.906 40.8801V37.5357C201.906 37.0545 202.297 36.665 202.778 36.665H214.361C214.842 36.665 215.232 37.0553 215.232 37.5357V40.8801C215.232 41.3613 214.842 41.7507 214.361 41.7507Z" fill="#994D22"/>
<path d="M214.361 41.2038H202.778C202.296 41.2038 201.906 40.8136 201.906 40.3332V36.9888C201.906 36.5076 202.297 36.1182 202.778 36.1182H214.361C214.842 36.1182 215.232 36.5084 215.232 36.9888V40.3332C215.232 40.8136 214.842 41.2038 214.361 41.2038Z" fill="#FF965A"/>
<path d="M204.923 36.1182H202.774C202.292 36.1182 201.902 36.5084 201.902 36.9888V39.1362L204.923 36.1182Z" fill="#FFE65A"/>
<path d="M209.637 36.1182H208.512C206.815 37.8131 205.118 39.5089 203.422 41.2038H204.547L209.637 36.1182Z" fill="#FFE65A"/>
<path d="M214.36 36.1182H211.547L206.457 41.2038H214.361C214.842 41.2038 215.232 40.8144 215.232 40.3332V36.9888C215.231 36.5076 214.841 36.1182 214.36 36.1182Z" fill="#FFE65A"/>
<path d="M205.672 37.7416L205.517 37.922C205.486 37.9507 205.447 37.9627 205.421 37.9627C205.328 37.9627 205.262 37.8725 205.262 37.7863C205.262 37.7249 205.298 37.6555 205.354 37.6179L205.813 37.2078C205.844 37.179 205.878 37.1631 205.932 37.1631C206.028 37.1631 206.139 37.2165 206.139 37.3067V40.0215C206.139 40.1157 206.02 40.1652 205.905 40.1652C205.786 40.1652 205.672 40.1157 205.672 40.0215V37.7416Z" fill="#994D22"/>
<path d="M206.691 39.2755V38.0825C206.691 37.4185 207.119 37.168 207.679 37.168C208.234 37.168 208.67 37.4177 208.67 38.0825V39.2755C208.67 39.9394 208.234 40.19 207.679 40.19C207.119 40.19 206.691 39.9402 206.691 39.2755ZM208.203 38.0825C208.203 37.7218 208.004 37.5534 207.679 37.5534C207.348 37.5534 207.159 37.7218 207.159 38.0825V39.2755C207.159 39.6362 207.348 39.8046 207.679 39.8046C208.004 39.8046 208.203 39.637 208.203 39.2755V38.0825Z" fill="#994D22"/>
<path d="M209.172 39.2755V38.0825C209.172 37.4185 209.599 37.168 210.159 37.168C210.714 37.168 211.15 37.4177 211.15 38.0825V39.2755C211.15 39.9394 210.714 40.19 210.159 40.19C209.599 40.19 209.172 39.9402 209.172 39.2755ZM210.684 38.0825C210.684 37.7218 210.485 37.5534 210.159 37.5534C209.828 37.5534 209.639 37.7218 209.639 38.0825V39.2755C209.639 39.6362 209.828 39.8046 210.159 39.8046C210.485 39.8046 210.684 39.637 210.684 39.2755V38.0825Z" fill="#994D22"/>
<path d="M237.807 170.263H178.461L183.932 166.445H232.337L237.807 170.263Z" fill="#55C7A6"/>
<path d="M237.807 170.263H178.461V174.424H237.807V170.263Z" fill="#1C9585"/>
<path d="M196.033 167.412C195.856 167.412 195.698 167.428 195.654 167.475L194.263 168.791L193.524 167.945C193.47 167.884 193.218 167.857 192.972 167.856C192.716 167.856 192.465 167.883 192.411 167.943L191.663 168.788L190.287 167.468C190.243 167.422 190.085 167.405 189.908 167.405C189.588 167.405 189.184 167.46 189.184 167.531L189.198 167.561L190.929 169.091C191.007 169.166 191.337 169.198 191.671 169.199C191.992 169.2 192.337 169.167 192.396 169.093L192.97 168.437L193.528 169.094C193.587 169.168 193.932 169.201 194.252 169.202C194.587 169.202 194.912 169.17 195.001 169.095L196.742 167.569L196.757 167.539C196.757 167.47 196.353 167.413 196.033 167.412Z" fill="#1C9585"/>
<path d="M201.079 167.419L197.963 167.416C197.706 167.416 197.465 167.45 197.465 167.515L197.457 169.093C197.457 169.158 197.697 169.192 197.954 169.193L201.07 169.197C201.316 169.197 201.43 169.126 201.43 169.061C201.43 168.986 201.298 168.919 201.072 168.919L198.595 168.916L198.598 168.428L199.927 168.429C200.173 168.429 200.288 168.364 200.288 168.308C200.288 168.243 200.16 168.181 199.929 168.181L198.599 168.179L198.602 167.694L201.078 167.697C201.305 167.697 201.438 167.631 201.438 167.555C201.438 167.489 201.325 167.419 201.079 167.419Z" fill="#1C9585"/>
<path d="M202.779 167.421C202.488 167.421 202.208 167.449 202.207 167.517L202.199 169.097C202.199 169.163 202.445 169.198 202.701 169.198L205.473 169.201C205.705 169.201 205.818 169.13 205.818 169.063C205.818 168.992 205.705 168.924 205.474 168.924L203.337 168.921L203.344 167.518C203.345 167.45 203.059 167.421 202.779 167.421Z" fill="#1C9585"/>
<path d="M208.408 167.427C207.305 167.425 206.384 167.575 206.382 167.981L206.379 168.659C206.377 169.065 207.287 169.217 208.39 169.217C209.616 169.219 210.483 169.034 210.485 168.739C210.486 168.616 210.304 168.584 209.91 168.584C209.614 168.584 209.368 168.606 209.348 168.681C209.324 168.784 209.253 168.942 208.456 168.941C207.851 168.941 207.516 168.85 207.517 168.66L207.52 167.981C207.521 167.791 207.856 167.703 208.443 167.704C209.275 167.704 209.338 167.87 209.352 167.945C209.362 168.018 209.598 168.045 209.923 168.046C210.307 168.047 210.489 168.016 210.49 167.891C210.49 167.609 209.624 167.428 208.408 167.427Z" fill="#1C9585"/>
<path d="M213.337 168.948C212.756 168.947 212.426 168.859 212.427 168.666L212.43 167.988C212.431 167.797 212.762 167.71 213.343 167.71C213.909 167.711 214.258 167.799 214.257 167.99L214.254 168.669C214.253 168.861 213.903 168.948 213.337 168.948ZM213.344 167.433C212.187 167.431 211.29 167.581 211.288 167.986L211.285 168.665C211.283 169.071 212.179 169.223 213.335 169.223C214.488 169.225 215.394 169.076 215.396 168.67L215.399 167.991C215.401 167.586 214.497 167.434 213.344 167.433Z" fill="#1C9585"/>
<path d="M220.978 167.441C220.564 167.441 220.373 167.465 220.086 167.607L219.005 168.152L217.929 167.605C217.639 167.462 217.457 167.438 217.048 167.438C216.757 167.438 216.477 167.478 216.476 167.594L216.469 169.114C216.469 169.18 216.749 169.214 217.04 169.215C217.315 169.215 217.606 169.181 217.607 169.116L217.612 168.05L218.62 168.576C218.713 168.626 218.856 168.639 218.993 168.639C219.136 168.639 219.284 168.626 219.377 168.577L220.404 168.073L220.399 169.119C220.399 169.184 220.679 169.219 220.97 169.219C221.25 169.219 221.541 169.186 221.542 169.12L221.549 167.6C221.549 167.484 221.269 167.442 220.978 167.441Z" fill="#1C9585"/>
<path d="M226.314 167.447L223.197 167.443C222.946 167.443 222.699 167.477 222.699 167.542L222.691 169.12C222.691 169.185 222.937 169.22 223.188 169.22L226.305 169.224C226.551 169.224 226.665 169.153 226.665 169.088C226.665 169.013 226.538 168.947 226.306 168.947L223.83 168.944L223.832 168.455L225.162 168.457C225.408 168.457 225.522 168.391 225.522 168.336C225.522 168.27 225.394 168.208 225.163 168.208L223.833 168.206L223.836 167.721L226.313 167.724C226.544 167.724 226.673 167.658 226.673 167.582C226.674 167.518 226.56 167.448 226.314 167.447Z" fill="#1C9585"/>
<path d="M175.369 138.454H131.777V176.602H175.369V138.454Z" fill="#FFDC64"/>
<path d="M175.368 176.604H194.332V138.455H175.368V176.604Z" fill="#E69632"/>
<path d="M157.031 138.454H148.312V148.968H157.031V138.454Z" fill="#E69632"/>
<path d="M187.89 138.454H181.812V148.968H187.89V138.454Z" fill="#D77D14"/>
<path d="M135.184 142.06V145.063" stroke="#A86538" stroke-width="1.7802" stroke-miterlimit="10"/>
<path d="M133.566 142.504L135.184 140.253L136.8 142.504H133.566Z" fill="#A86538"/>
<path d="M140.143 140.151C138.786 140.151 137.688 141.249 137.688 142.604H142.598C142.598 141.25 141.499 140.151 140.143 140.151Z" fill="#A86538"/>
<path d="M140.144 141.379V144.711C140.144 144.905 139.985 145.063 139.791 145.063C139.596 145.063 139.438 144.905 139.438 144.711V144.185" stroke="#A86538" stroke-width="0.5934" stroke-miterlimit="10"/>
<path d="M144.853 143.711C144.271 143.711 143.801 143.24 143.801 142.66V140.252H145.905V142.66C145.904 143.24 145.433 143.711 144.853 143.711Z" fill="#A86538"/>
<path d="M144.855 141.982V145.063" stroke="#A86538" stroke-width="0.5934" stroke-miterlimit="10"/>
<path d="M144.102 145.063H145.605" stroke="#A86538" stroke-width="0.5934" stroke-miterlimit="10"/>
<path d="M170.654 168.692H154.182C153.847 168.692 153.574 168.421 153.574 168.085V157.284C153.574 156.949 153.847 156.677 154.182 156.677H170.655C170.99 156.677 171.262 156.949 171.262 157.284V168.085C171.261 168.421 170.989 168.692 170.654 168.692Z" fill="white"/>
<path d="M155.629 160.482H159.437" stroke="#CB9D64" stroke-width="1.1868" stroke-miterlimit="10"/>
<path d="M155.629 163.486H168.256" stroke="#CB9D64" stroke-width="1.1868" stroke-miterlimit="10"/>
<path d="M162.418 166.49H168.255" stroke="#CB9D64" stroke-width="1.1868" stroke-miterlimit="10"/>
<path d="M131.473 72.8584C129.796 78.5242 125.126 87.9861 129.143 92.1046C131.69 94.7156 141.047 92.4533 150.378 89.8087" stroke="#F3AD6E" stroke-width="8.6249" stroke-miterlimit="10" stroke-linecap="round"/>
<path d="M126.634 75.1034C127.086 73.8226 127.514 72.6129 127.813 71.5986C128.411 69.5789 130.53 68.4242 132.557 69.0219C134.58 69.6196 135.734 71.7414 135.136 73.762C134.78 74.9646 134.322 76.2645 133.836 77.6411C132.634 81.0453 130.425 87.3056 131.762 89.1259C132.973 89.5696 136.639 89.4211 146.864 86.6473V94.5507C141.185 96.0429 136.742 96.9152 133.326 96.9144C130.235 96.9144 127.982 96.2009 126.411 94.5898C121.525 89.5799 124.357 81.5529 126.634 75.1034Z" fill="#39A5DF"/>
<path d="M121.495 171.722H127.543V131.257H121.495V171.722Z" fill="#FABE9B"/>
<path d="M109.963 171.722H116.012V131.257H109.963V171.722Z" fill="#FABE9B"/>
<path d="M121.495 171.721H127.543V169.075H121.495V171.721Z" fill="#C8A06E"/>
<path d="M109.963 171.721H116.012V169.075H109.963V171.721Z" fill="#C8A06E"/>
<path d="M119.879 164.96H129.738V106.072H119.879V164.96Z" fill="#154767"/>
<path d="M108.355 164.96H118.216V113.277L108.355 106.072V164.96Z" fill="#154767"/>
<path d="M108.356 123.321H129.738V106.071H108.356V123.321Z" fill="#154767"/>
<path d="M119.88 167.328H130.949V163.411H119.88V167.328Z" fill="#35688F"/>
<path d="M108.213 167.328H120.094V163.411H108.213V167.328Z" fill="#427399"/>
<path d="M120.313 176.438H139.152V175.208H120.313V176.438Z" fill="#853111"/>
<path d="M127.901 175.208H109.062V176.438H127.901V175.208Z" fill="#994D22"/>
<path d="M120.77 175.208H137.954V174.203C137.954 172.509 136.581 171.137 134.886 171.137H120.77V175.208Z" fill="#994D22"/>
<path d="M109.891 175.208H127.076V174.203C127.076 172.509 125.702 171.137 124.007 171.137H109.891V175.208Z" fill="#A86538"/>
<path d="M107.481 112.755H131.042V68.8643H109.946C108.584 68.8643 107.48 69.9671 107.48 71.3277V112.755H107.481Z" fill="#0155A0"/>
<path d="M116.703 68.8643V70.26C116.703 73.1958 119.085 75.5754 122.023 75.5754C124.961 75.5754 127.343 73.1958 127.343 70.26V68.8643H116.703Z" fill="#39A5DF"/>
<path d="M122.025 72.8591C123.814 72.8591 125.264 71.4099 125.264 69.6224V62.2178H118.785V69.6224C118.785 71.4099 120.236 72.8591 122.025 72.8591Z" fill="#FABE9B"/>
<path d="M131.04 100.598C128.914 100.161 126.843 99.4399 125.109 98.2868C115.451 91.8605 114.264 76.321 114.253 76.1646C114.124 74.271 112.334 72.28 110.44 72.4029C108.893 72.505 107.48 73.9366 107.48 74.5934V74.595C107.48 77.8867 107.9 81.1338 108.726 84.3202C110.337 90.5358 113.821 99.0281 121.258 103.994C124.167 105.936 127.496 107.155 131.04 107.678V100.598H131.04Z" fill="#363D44"/>
<path d="M139.805 102.007L150.206 97.3331L155.582 79.5098L145.181 84.1837L139.805 102.007Z" fill="white"/>
<path d="M134.293 104.493C129.137 104.493 124.547 103.162 120.567 100.504C108.085 92.1707 106.739 73.9093 106.687 73.1352C106.561 71.2392 107.999 69.6001 109.896 69.474C111.78 69.3359 113.432 70.7811 113.561 72.6756C113.574 72.8639 114.769 88.377 124.416 94.7969C129.549 98.2107 136.408 98.5036 144.808 95.6627C146.61 95.0515 148.565 96.0194 149.175 97.8189C149.785 99.6192 148.819 101.573 147.017 102.182C142.461 103.723 138.213 104.493 134.293 104.493Z" fill="#FABE9B"/>
<path d="M109.789 68.8723C111.882 68.7374 113.712 70.3238 113.851 72.4266C113.862 72.5806 114.98 87.8718 124.519 94.2415C128.517 96.9116 133.607 97.6338 139.688 96.412L141.221 103.887C138.783 104.381 136.441 104.637 134.207 104.637C128.979 104.637 124.32 103.285 120.276 100.585C107.644 92.1491 106.283 73.7105 106.231 72.9301C106.092 70.829 107.685 69.0119 109.789 68.8723Z" fill="#39A5DF"/>
<path d="M125.264 62.2178V66.2397C125.264 67.1606 124.517 67.9067 123.596 67.9067H122.815C121.635 67.9067 120.678 68.8627 120.678 70.0422V72.5583C119.563 72.0467 118.785 70.9279 118.785 69.6224V62.2178H125.264Z" fill="#FAA073"/>
<path d="M128.16 53.5214C128.16 55.3345 129.631 56.8036 131.445 56.8036C133.26 56.8036 134.73 55.3337 134.73 53.5214C134.73 51.7084 133.26 50.2393 131.445 50.2393C129.631 50.2393 128.16 51.7084 128.16 53.5214Z" fill="#FAA073"/>
<path d="M133.25 53.7337C133.974 53.7337 134.562 53.1472 134.562 52.4226V42.9512H131.938V52.4226C131.938 53.1472 132.525 53.7337 133.25 53.7337Z" fill="#433630"/>
<path d="M122.205 34.2363C119.671 34.2363 117.336 34.526 115.374 35.1046C115.293 35.1516 115.21 35.1931 115.122 35.2251C115.041 35.2546 114.959 35.2841 114.879 35.3152C114.85 35.3264 114.825 35.336 114.805 35.3448C114.68 35.4006 114.555 35.4573 114.433 35.5179C114.177 35.6448 113.925 35.7821 113.678 35.9265C113.174 36.2218 112.689 36.5481 112.207 36.8777C111.741 37.1969 111.274 37.5177 110.798 37.8194C110.794 37.8241 110.793 37.8297 110.789 37.8345C110.143 38.6772 109.836 39.6787 109.836 40.847C109.836 45.4562 115.345 49.1924 122.206 49.1924C129.066 49.1924 134.627 45.4562 134.627 40.847C134.627 36.2377 129.065 34.2363 122.205 34.2363Z" fill="#433630"/>
<path d="M122.491 66.487H125.217C129.714 66.487 133.359 62.845 133.359 58.3522V40.5576H111.211V55.2161C111.211 61.4405 116.262 66.487 122.491 66.487Z" fill="#FABE9B"/>
<path d="M123.355 58.8262H129.645C129.975 58.8278 130.175 59.2779 130.005 59.601C129.697 60.1884 129.278 60.6911 128.783 61.0733L124.245 61.0829C123.733 60.6911 123.302 60.17 122.989 59.5611C122.822 59.2356 123.025 58.8238 123.355 58.8262Z" fill="#68482D"/>
<mask id="mask0_198_15911" style="mask-type:luminance" maskUnits="userSpaceOnUse" x="122" y="58" width="9" height="4">
<path d="M129.647 58.8613C129.976 58.8629 130.176 59.2771 130.006 59.601C129.289 60.9648 127.981 61.8745 126.488 61.8666C124.996 61.8578 123.695 60.9337 122.99 59.5611C122.822 59.2356 123.026 58.8238 123.355 58.8262L129.647 58.8613Z" fill="white"/>
</mask>
<g mask="url(#mask0_198_15911)">
<path d="M123.625 63.1219C123.625 64.9374 124.911 66.4089 126.498 66.4089C128.084 66.4089 129.371 64.9374 129.371 63.1219C129.371 61.3065 128.085 59.835 126.498 59.835C124.911 59.835 123.625 61.3065 123.625 63.1219Z" fill="#D64040"/>
</g>
<path d="M113.443 55.1371H114.348V38.9258L109.836 41.007V51.5597C109.836 53.5356 111.465 55.1371 113.443 55.1371Z" fill="#433630"/>
<path d="M113.957 50.2393C114.098 50.2393 114.236 50.2512 114.373 50.268V56.7741C114.236 56.7916 114.098 56.8036 113.957 56.8036C112.142 56.8036 110.672 55.3337 110.672 53.5214C110.672 51.7084 112.143 50.2393 113.957 50.2393Z" fill="#FABE9B"/>
<path d="M131.199 51.5439C131.824 51.5439 132.408 51.9613 132.764 52.6596C132.846 52.8192 132.82 53.0418 132.705 53.1559C132.592 53.27 132.433 53.2333 132.352 53.0737C132.087 52.5534 131.666 52.2558 131.198 52.2558C130.73 52.2558 130.31 52.5542 130.045 53.0737C129.995 53.1711 129.918 53.2229 129.839 53.2229C129.788 53.2229 129.737 53.2014 129.692 53.1567C129.578 53.0426 129.552 52.8199 129.633 52.6603C129.99 51.9613 130.575 51.5439 131.199 51.5439Z" fill="#433630"/>
<path d="M119.684 53.1559C119.524 53.0418 119.487 52.8192 119.602 52.6596C120.102 51.9605 120.924 51.5439 121.801 51.5439C122.678 51.5439 123.499 51.9613 123.999 52.6596C124.114 52.8192 124.077 53.0418 123.917 53.1559C123.757 53.27 123.535 53.2333 123.42 53.0737C123.048 52.5534 122.458 52.2558 121.801 52.2558C121.143 52.2558 120.553 52.5542 120.181 53.0737C120.111 53.1711 120.002 53.2229 119.891 53.2229C119.819 53.2221 119.747 53.2006 119.684 53.1559Z" fill="#433630"/>
<path d="M133.357 40.5576V45.8779H119.967C118.313 45.8779 116.971 47.2177 116.971 48.8712V54.4213C116.971 55.074 116.525 55.6797 115.88 55.7843C115.058 55.9175 114.238 55.2871 114.238 54.4915L114.932 45.8779L115.626 40.5576H133.357Z" fill="#FAA073"/>
<path d="M131.437 39.5791H114.242V53.7971C114.242 54.5935 115.061 55.2239 115.883 55.0898C116.529 54.9853 116.975 54.3796 116.975 53.7268V48.1767C116.975 46.5241 118.316 45.1835 119.971 45.1835H131.437L131.437 39.5791Z" fill="#433630"/>
<path d="M114.276 116.595L113.254 115.573L107.584 121.238L108.606 122.26L114.276 116.595Z" fill="#427399"/>
<path d="M132.348 79.1533H126.117V83.6931H132.348V79.1533Z" fill="white"/>
<path d="M129.947 78.2148H128.492V79.9776H129.947V78.2148Z" fill="#37B2E8"/>
<path d="M122.265 57.4905H118.215V66.4863H126.194C130.149 66.4863 133.357 63.2816 133.357 59.3291V57.3301C133.357 57.3301 123.159 57.4905 122.265 57.4905Z" fill="white"/>
<path d="M116.949 57.4912H118.215V66.4871L116.949 65.6675V57.4912Z" fill="#37B2E8"/>
<path d="M117.585 58.3772C117.424 58.3772 117.272 58.2822 117.206 58.125L113.996 50.4259C113.91 50.2168 114.008 49.9774 114.217 49.8904C114.426 49.8026 114.665 49.9016 114.754 50.1107L117.964 57.8098C118.05 58.0189 117.952 58.2582 117.743 58.3452C117.691 58.3668 117.637 58.3772 117.585 58.3772Z" fill="#37B2E8"/>
<path d="M117.582 65.6112C117.424 65.6112 117.274 65.5194 117.207 65.3654L113.683 57.3143C113.592 57.1069 113.687 56.8651 113.894 56.7741C114.105 56.6847 114.343 56.7781 114.434 56.9856L117.957 65.0366C118.049 65.2441 117.953 65.4859 117.747 65.5768C117.693 65.6 117.637 65.6112 117.582 65.6112Z" fill="#37B2E8"/>
<path d="M124.367 33.6762H120.199C120.199 32.7561 120.945 32.0107 121.866 32.0107H122.7C123.621 32.0107 124.367 32.7561 124.367 33.6762Z" fill="#FF6308"/>
<path d="M134.649 47.7425H109.508V39.5542C109.508 36.2584 112.182 33.5859 115.481 33.5859H128.677C131.975 33.5859 134.65 36.2576 134.65 39.5542L134.649 47.7425Z" fill="#37B2E8"/>
<path d="M135.486 47.7425H119.512V38.3428C119.512 35.7158 121.643 33.5859 124.273 33.5859H130.725C133.354 33.5859 135.486 35.7158 135.486 38.3428V47.7425Z" fill="white"/>
<path d="M142.882 45.7549H116.391V47.8209H142.882V45.7549Z" fill="#FF6308"/>
<path d="M485.23 181.66C522.181 181.66 552.136 179.514 552.136 176.868C552.136 174.222 522.181 172.077 485.23 172.077C448.279 172.077 418.324 174.222 418.324 176.868C418.324 179.514 448.279 181.66 485.23 181.66Z" fill="#D6EED8"/>
<path d="M580.314 76.687C574.02 57.0762 557.432 44.0743 538.746 41.2103C526.271 39.2983 514.923 32.8912 506.459 23.5354C496.594 12.6291 480.517 8.04783 465.569 13.9618C458.48 16.7668 452.749 21.5261 448.75 27.3762C441.471 38.0239 430.486 45.5099 418.164 49.3459C415.879 50.0577 413.61 50.9236 411.369 51.9506C384.869 64.0914 372.077 95.0067 382.214 122.318C393.187 151.881 426.269 166.51 455.457 154.963C458.916 153.594 462.164 151.919 465.18 149.982C480.379 140.219 498.962 136.982 516.292 142.092C527.734 145.466 540.427 144.936 552.282 139.597C576.139 128.851 588.305 101.584 580.314 76.687Z" fill="#E4F6FF"/>
<path d="M439.836 128.245L415.426 104.465C411.977 101.105 407.096 99.1914 401.979 99.1914H400.302H344.642C342.182 99.1914 340.188 101.184 340.188 103.642V141.472C340.188 143.93 342.182 145.923 344.642 145.923H400.302H441.292V131.583C441.292 130.347 440.773 129.157 439.836 128.245Z" fill="white"/>
<path d="M412.088 106.31C411.642 105.896 410.998 105.659 410.32 105.659H404.798C404.454 105.659 404.176 105.885 404.176 106.164V124.253C404.176 124.503 404.426 124.706 404.734 124.706H423.873V117.228L412.088 106.31Z" fill="#599AF2"/>
<path d="M431.088 123.915L425 118.274V124.706H430.646C431.151 124.706 431.421 124.223 431.088 123.915Z" fill="#599AF2"/>
<path d="M421.389 126.167H419.647C419.134 126.167 418.719 125.752 418.719 125.24V119.875C418.719 119.363 419.134 118.948 419.647 118.948H421.389C421.901 118.948 422.316 119.363 422.316 119.875V125.24C422.317 125.752 421.901 126.167 421.389 126.167Z" fill="#3E479B"/>
<path d="M424.27 125.406C424.046 125.63 423.682 125.63 423.458 125.406L421.403 123.352C421.178 123.128 421.178 122.765 421.403 122.541C421.627 122.317 421.991 122.317 422.215 122.541L424.27 124.594C424.494 124.818 424.494 125.182 424.27 125.406Z" fill="#3E479B"/>
<path opacity="0.18" d="M424.27 125.406C424.212 125.464 421.349 122.595 421.403 122.541C421.627 122.317 421.991 122.317 422.215 122.541L424.27 124.594C424.494 124.818 424.494 125.182 424.27 125.406Z" fill="#599AF2"/>
<path d="M440.324 133.544H432.852V131.398C432.852 130.532 433.555 129.829 434.422 129.829H437.965C439.268 129.829 440.324 130.885 440.324 132.187V133.544H440.324Z" fill="#F28393"/>
<path opacity="0.58" d="M440.321 133.544H436.391V131.398C436.391 130.532 437.094 129.829 437.961 129.829C439.264 129.829 440.321 130.885 440.321 132.187V133.544Z" fill="white"/>
<path d="M441.292 133.544H340.188V145.923H441.292V133.544Z" fill="#3D58A3"/>
<path d="M441.292 133.544H340.188V138.175H441.292V133.544Z" fill="#4C65BA"/>
<path d="M350.153 145.923H339.409C338.983 145.923 338.637 145.577 338.637 145.151V140.505C338.637 140.079 338.983 139.733 339.409 139.733H350.153C350.579 139.733 350.925 140.079 350.925 140.505V145.151C350.925 145.578 350.58 145.923 350.153 145.923Z" fill="#2B3882"/>
<path d="M442.491 145.923H434.515C434.088 145.923 433.742 145.577 433.742 145.151V140.505C433.742 140.079 434.088 139.733 434.515 139.733H442.491C442.917 139.733 443.263 140.079 443.263 140.505V145.151C443.263 145.578 442.917 145.923 442.491 145.923Z" fill="#3E479B"/>
<path d="M414.439 129.828H409.796C409.138 129.828 408.605 129.296 408.605 128.639C408.605 127.983 409.138 127.45 409.796 127.45H414.439C415.096 127.45 415.629 127.983 415.629 128.639C415.629 129.296 415.096 129.828 414.439 129.828Z" fill="#4C65BA"/>
<path d="M345.501 128.64H340.188V131.686H345.501V128.64Z" fill="#F28393"/>
<path d="M345.501 131.687H340.188V134.337H345.501V131.687Z" fill="white"/>
<path d="M345.501 133.544H340.188V139.694H345.501V133.544Z" fill="#F28393"/>
<path opacity="0.08" d="M340.215 103.143H400.715H401.532C402.991 103.143 404.175 101.961 404.175 100.503V99.1924H344.141C341.962 99.1924 340.199 100.966 340.215 103.143Z" fill="#599AF2"/>
<path opacity="0.25" d="M388.32 115.117H355.832C355.094 115.117 354.496 114.519 354.496 113.782V110.139C354.496 109.402 355.094 108.804 355.832 108.804H388.32C389.058 108.804 389.656 109.402 389.656 110.139V113.782C389.657 114.519 389.058 115.117 388.32 115.117Z" fill="#599AF2"/>
<path opacity="0.25" d="M379.529 120.545H364.621C363.884 120.545 363.285 119.948 363.285 119.21V118.724C363.285 117.987 363.884 117.389 364.621 117.389H379.529C380.267 117.389 380.865 117.987 380.865 118.724V119.21C380.865 119.948 380.267 120.545 379.529 120.545Z" fill="#599AF2"/>
<path d="M424.438 127.451V138.176" stroke="#599AF2" stroke-miterlimit="10"/>
<path d="M345.652 103.144V133.545" stroke="#599AF2" stroke-miterlimit="10"/>
<path d="M400.301 103.476V145.924" stroke="#599AF2" stroke-miterlimit="10"/>
<path d="M421.697 136.927C416.941 136.927 413.086 140.779 413.086 145.531C413.086 150.283 416.941 154.135 421.697 154.135C426.453 154.135 430.308 150.283 430.308 145.531C430.308 140.779 426.453 136.927 421.697 136.927ZM421.697 150.592C419.008 150.592 416.828 148.414 416.828 145.727C416.828 143.04 419.008 140.862 421.697 140.862C424.386 140.862 426.566 143.04 426.566 145.727C426.566 148.414 424.386 150.592 421.697 150.592Z" fill="#2B3882"/>
<path d="M426.198 147.603C427.235 145.124 426.064 142.274 423.583 141.238C421.102 140.202 418.25 141.372 417.213 143.851C416.176 146.33 417.347 149.18 419.828 150.216C422.309 151.252 425.161 150.082 426.198 147.603Z" fill="white"/>
<path opacity="0.18" d="M423.661 145.727C423.661 146.812 422.781 147.691 421.696 147.691C420.61 147.691 419.73 146.812 419.73 145.727C419.73 144.643 420.61 143.764 421.696 143.764C422.781 143.763 423.661 144.643 423.661 145.727Z" fill="#599AF2"/>
<path d="M365.377 136.927C360.621 136.927 356.766 140.779 356.766 145.531C356.766 150.283 360.621 154.135 365.377 154.135C370.133 154.135 373.988 150.283 373.988 145.531C373.988 140.779 370.133 136.927 365.377 136.927ZM365.377 150.592C362.688 150.592 360.508 148.414 360.508 145.727C360.508 143.04 362.688 140.862 365.377 140.862C368.066 140.862 370.246 143.04 370.246 145.727C370.246 148.414 368.066 150.592 365.377 150.592Z" fill="#2B3882"/>
<path d="M369.87 147.607C370.908 145.128 369.738 142.278 367.258 141.241C364.777 140.204 361.925 141.373 360.887 143.851C359.849 146.33 361.019 149.18 363.499 150.217C365.98 151.254 368.832 150.085 369.87 147.607Z" fill="white"/>
<path opacity="0.18" d="M367.34 145.727C367.34 146.812 366.46 147.691 365.375 147.691C364.29 147.691 363.41 146.812 363.41 145.727C363.41 144.643 364.29 143.764 365.375 143.764C366.461 143.764 367.34 144.643 367.34 145.727Z" fill="#599AF2"/>
<path d="M462.328 85.6582C463.03 91.4429 462.859 97.3803 469.579 101.28C474.752 104.283 481.892 103.582 490.013 101.28" stroke="#F3AD6E" stroke-width="8.6249" stroke-miterlimit="10" stroke-linecap="round"/>
<path d="M485.154 98.7507C478.898 100.116 474.476 99.9083 471.414 98.1312C467.247 95.7132 466.728 92.5667 466.17 87.2133C466.102 86.5487 466.031 85.8834 465.951 85.2202C465.709 83.2237 463.893 81.8001 461.895 82.0425C459.896 82.2849 458.472 84.0994 458.714 86.0959C458.79 86.7188 458.855 87.3438 458.92 87.9674C459.48 93.3424 460.178 100.033 467.752 104.428C470.901 106.256 474.491 106.908 478.081 106.908C480.935 106.908 483.783 106.492 486.413 105.931L485.154 98.7507Z" fill="#39A5DF"/>
<path d="M493.465 102.447C493.695 101.772 493.732 101.023 493.523 100.286C493.508 100.234 493.482 100.191 493.465 100.141V102.447Z" fill="#FF853A"/>
<path d="M454.373 171.69H459.637V136.477H454.373V171.69Z" fill="#F9BC79"/>
<path d="M444.342 171.69H449.605V136.477H444.342V171.69Z" fill="#F9BC79"/>
<path d="M454.373 171.69H459.637V169.388H454.373V171.69Z" fill="#C8A06E"/>
<path d="M444.342 171.69H449.605V169.388H444.342V171.69Z" fill="#C8A06E"/>
<path d="M452.971 165.807H461.551V114.561H452.971V165.807Z" fill="#132638"/>
<path d="M442.941 165.807H451.521V120.831L442.941 114.561V165.807Z" fill="#132638"/>
<path d="M442.944 129.572H461.551V114.561H442.944V129.572Z" fill="#0155A0"/>
<path d="M452.969 167.867H462.602V164.458H452.969V167.867Z" fill="#35688F"/>
<path d="M442.817 167.867H453.156V164.458H442.817V167.867Z" fill="#427399"/>
<path d="M453.344 175.794H469.738V174.724H453.344V175.794Z" fill="#853111"/>
<path d="M459.949 174.725H443.555V175.795H459.949V174.725Z" fill="#994D22"/>
<path d="M453.746 174.724H468.701V173.849C468.701 172.375 467.505 171.181 466.031 171.181H453.746V174.724Z" fill="#994D22"/>
<path d="M444.277 174.724H459.232V173.849C459.232 172.375 458.037 171.181 456.562 171.181H444.277V174.724Z" fill="#A86538"/>
<path d="M442.176 120.376H462.679V82.1816H444.321C443.136 82.1816 442.176 83.1414 442.176 84.3254L442.176 120.376Z" fill="#0155A0"/>
<path d="M450.203 82.1826V83.3972C450.203 85.952 452.276 88.0228 454.833 88.0228C457.39 88.0228 459.462 85.952 459.462 83.3972V82.1826H450.203Z" fill="#39A5DF"/>
<path d="M454.835 85.6568C456.391 85.6568 457.654 84.3957 457.654 82.8402V76.3965H452.016V82.8402C452.016 84.3957 453.278 85.6568 454.835 85.6568Z" fill="#FABE9B"/>
<path d="M464.312 93.1406H458.891V97.0913H464.312V93.1406Z" fill="white"/>
<path d="M462.223 92.3242H460.957V93.8582H462.223V92.3242Z" fill="#37B2E8"/>
<path d="M457.654 76.3965V79.8965C457.654 80.6978 457.004 81.3471 456.202 81.3471H455.523C454.495 81.3471 453.663 82.1791 453.663 83.2054V85.395C452.693 84.9499 452.016 83.9763 452.016 82.8402V76.3965H457.654Z" fill="#FAA073"/>
<path d="M445.185 90.125H411.316V119.765H445.185V90.125Z" fill="#FFDC64"/>
<path d="M445.184 119.764H459.918V90.1237H445.184V119.764Z" fill="#E69632"/>
<path d="M430.938 90.125H424.164V98.2937H430.938V90.125Z" fill="#E69632"/>
<path d="M454.914 90.125H450.191V98.2937H454.914V90.125Z" fill="#D77D14"/>
<path d="M413.961 92.9238V95.2578" stroke="#A86538" stroke-width="1.5894" stroke-miterlimit="10"/>
<path d="M412.707 93.2708L413.964 91.5215L415.22 93.2708H412.707Z" fill="#A86538"/>
<path d="M417.818 91.4434C416.764 91.4434 415.91 92.2968 415.91 93.3496H419.725C419.726 92.2961 418.872 91.4434 417.818 91.4434Z" fill="#A86538"/>
<path d="M417.814 92.3965V94.9853C417.814 95.1367 417.691 95.2589 417.539 95.2589C417.388 95.2589 417.266 95.136 417.266 94.9853V94.577" stroke="#A86538" stroke-width="0.5298" stroke-miterlimit="10"/>
<path d="M421.474 94.2083C421.022 94.2083 420.656 93.8423 420.656 93.3916V91.5215H422.291V93.3916C422.292 93.8423 421.925 94.2083 421.474 94.2083Z" fill="#A86538"/>
<path d="M421.477 92.8643V95.258" stroke="#A86538" stroke-width="0.5298" stroke-miterlimit="10"/>
<path d="M420.891 95.2588H422.058" stroke="#A86538" stroke-width="0.5298" stroke-miterlimit="10"/>
<path d="M441.524 113.618H428.726C428.465 113.618 428.254 113.406 428.254 113.146V104.754C428.254 104.493 428.465 104.282 428.726 104.282H441.524C441.784 104.282 441.996 104.493 441.996 104.754V113.146C441.996 113.406 441.784 113.618 441.524 113.618Z" fill="white"/>
<path d="M429.844 107.238H432.802" stroke="#CB9D64" stroke-width="1.0596" stroke-miterlimit="10"/>
<path d="M429.844 109.573H439.654" stroke="#CB9D64" stroke-width="1.0596" stroke-miterlimit="10"/>
<path d="M435.125 111.906H439.66" stroke="#CB9D64" stroke-width="1.0596" stroke-miterlimit="10"/>
<path d="M460.176 68.8308C460.176 70.4086 461.456 71.687 463.034 71.687C464.613 71.687 465.893 70.4086 465.893 68.8308C465.893 67.2531 464.613 65.9746 463.034 65.9746C461.455 65.9739 460.176 67.2531 460.176 68.8308Z" fill="#FAA073"/>
<path d="M464.607 69.0151C465.237 69.0151 465.749 68.5047 465.749 67.8741V59.6318H463.465V67.8741C463.465 68.5047 463.976 69.0151 464.607 69.0151Z" fill="#433630"/>
<path d="M454.995 52.0479C452.879 52.0479 450.912 52.2708 449.247 52.7326C449.203 52.8006 449.143 52.8631 449.05 52.9096C447.742 53.5659 446.455 54.261 445.174 54.968C445.142 55.0395 445.11 55.1117 445.06 55.1784C444.497 55.9117 444.23 56.7832 444.23 57.7999C444.23 61.8109 449.025 65.0623 454.995 65.0623C460.965 65.0623 465.804 61.8109 465.804 57.7999C465.804 53.7895 460.964 52.0479 454.995 52.0479Z" fill="#433630"/>
<path d="M455.238 80.1122H457.61C461.523 80.1122 464.695 76.9428 464.695 73.0331V57.5479H445.422V70.304C445.423 75.7213 449.817 80.1122 455.238 80.1122Z" fill="#FABE9B"/>
<path d="M455.996 73.4453H461.47C461.757 73.4467 461.931 73.8384 461.783 74.1196C461.514 74.6307 461.151 75.0682 460.719 75.4009L456.77 75.4092C456.324 75.0682 455.95 74.6148 455.677 74.0849C455.531 73.8023 455.708 73.4439 455.996 73.4453Z" fill="#68482D"/>
<mask id="mask1_198_15911" style="mask-type:luminance" maskUnits="userSpaceOnUse" x="455" y="73" width="7" height="4">
<path d="M461.469 73.4768C461.756 73.4782 461.93 73.8386 461.782 74.1206C461.158 75.3074 460.019 76.099 458.721 76.0921C457.423 76.0845 456.291 75.2803 455.677 74.0866C455.532 73.8032 455.708 73.4449 455.995 73.4463L461.469 73.4768Z" fill="white"/>
</mask>
<g mask="url(#mask1_198_15911)">
<path d="M456.23 77.1836C456.23 78.7635 457.349 80.044 458.73 80.044C460.111 80.044 461.23 78.7635 461.23 77.1836C461.23 75.6038 460.111 74.3232 458.73 74.3232C457.349 74.3232 456.23 75.6038 456.23 77.1836Z" fill="#D64040"/>
</g>
<path d="M447.369 70.2364H448.157V56.1289L444.23 57.94V67.1232C444.23 68.842 445.648 70.2364 447.369 70.2364Z" fill="#433630"/>
<path d="M447.816 65.9736C447.939 65.9736 448.059 65.984 448.178 65.9993V71.6611C448.059 71.6763 447.939 71.6868 447.816 71.6868C446.237 71.6868 444.957 70.4083 444.957 68.8305C444.957 67.2528 446.237 65.9736 447.816 65.9736Z" fill="#FABE9B"/>
<path d="M462.822 67.1084C463.365 67.1084 463.874 67.4716 464.184 68.0792C464.255 68.2181 464.232 68.4119 464.132 68.5112C464.034 68.6105 463.895 68.5785 463.825 68.4396C463.594 67.9869 463.228 67.7278 462.821 67.7278C462.414 67.7278 462.048 67.9876 461.817 68.4396C461.774 68.5244 461.707 68.5695 461.638 68.5695C461.594 68.5695 461.549 68.5507 461.51 68.5119C461.411 68.4126 461.388 68.2188 461.459 68.0799C461.769 67.4709 462.278 67.1077 462.822 67.1084Z" fill="#433630"/>
<path d="M452.798 68.5112C452.659 68.4119 452.626 68.2181 452.726 68.0792C453.161 67.4709 453.876 67.1084 454.639 67.1084C455.403 67.1084 456.118 67.4716 456.553 68.0792C456.652 68.2181 456.62 68.4119 456.481 68.5112C456.342 68.6105 456.149 68.5785 456.049 68.4396C455.725 67.9869 455.211 67.7278 454.639 67.7278C454.067 67.7278 453.554 67.9876 453.23 68.4396C453.17 68.5244 453.074 68.5695 452.978 68.5695C452.915 68.5688 452.853 68.5501 452.798 68.5112Z" fill="#433630"/>
<path d="M464.699 57.5479V62.1777H453.047C451.608 62.1777 450.441 63.3436 450.441 64.7825V69.6123C450.441 70.1804 450.052 70.7074 449.491 70.7984C448.776 70.9144 448.062 70.3658 448.062 69.6734L448.666 62.1777L449.27 57.5479H464.699Z" fill="#FAA073"/>
<path d="M464.058 56.6973H448.062V69.07C448.062 69.7631 448.775 70.3117 449.49 70.195C450.052 70.1041 450.44 69.577 450.44 69.0089V64.1791C450.44 62.741 451.607 61.5743 453.047 61.5743H464.058V56.6973Z" fill="#433630"/>
<path d="M456.716 51.9073H453.09C453.09 51.1066 453.739 50.458 454.54 50.458H455.266C456.067 50.458 456.716 51.1066 456.716 51.9073Z" fill="#FF6308"/>
<path d="M465.664 64.1474H443.785V57.0218C443.785 54.1538 446.112 51.8281 448.983 51.8281H460.466C463.336 51.8281 465.663 54.1531 465.663 57.0218L465.664 64.1474Z" fill="#37B2E8"/>
<path d="M466.393 64.1477H452.492V55.9686C452.492 53.6826 454.347 51.8291 456.635 51.8291H462.25C464.538 51.8291 466.393 53.6826 466.393 55.9686L466.393 64.1477Z" fill="white"/>
<path d="M472.83 62.4189H449.777V64.2168H472.83V62.4189Z" fill="#FF6308"/>
<path d="M451.523 72.2845V80.1129H458.467C461.91 80.1129 464.7 77.3241 464.7 73.8845V72.0859L451.523 72.2845Z" fill="white"/>
<path d="M450.422 72.2842H451.523V80.1126L450.422 79.3994V72.2842Z" fill="#37B2E8"/>
<path d="M450.971 73.0558C450.831 73.0558 450.698 72.9731 450.641 72.8363L447.848 66.1364C447.772 65.9545 447.858 65.7461 448.04 65.6704C448.22 65.5941 448.431 65.6802 448.507 65.8621L451.3 72.5613C451.376 72.7433 451.29 72.9516 451.108 73.0273C451.062 73.0468 451.017 73.0558 450.971 73.0558Z" fill="#37B2E8"/>
<path d="M450.974 79.3514C450.836 79.3514 450.705 79.2715 450.646 79.1375L447.58 72.1313C447.502 71.9508 447.585 71.7411 447.765 71.6619C447.945 71.5827 448.156 71.6654 448.234 71.8459L451.3 78.8521C451.379 79.0326 451.296 79.2424 451.116 79.3215C451.069 79.3424 451.022 79.3514 450.974 79.3514Z" fill="#37B2E8"/>
<path d="M429.138 124.327C428.156 124.327 427.192 123.844 426.618 122.957C421.361 114.828 419.942 107.206 422.402 100.301C426.78 88.0037 441.916 82.9781 442.557 82.7697C444.129 82.26 445.822 83.1211 446.332 84.6954C446.843 86.2683 445.981 87.9558 444.408 88.4669C444.185 88.5405 431.399 92.855 428.042 102.331C426.251 107.385 427.466 113.231 431.654 119.705C432.552 121.094 432.153 122.948 430.763 123.846C430.259 124.172 429.696 124.327 429.138 124.327Z" fill="#FABE9B"/>
<path d="M446.816 84.4799C447.375 86.2153 446.425 88.0959 444.679 88.6618C444.552 88.7028 431.877 92.9035 428.53 102.302C427.127 106.242 427.601 110.686 429.928 115.553L423.942 118.438C423.005 116.487 422.29 114.568 421.814 112.684C420.701 108.278 420.849 104.062 422.269 100.076C426.701 87.6306 441.982 82.5557 442.631 82.3452C444.376 81.78 446.25 82.7355 446.816 84.4799Z" fill="#39A5DF"/>
<path d="M498.824 94.0192L497.354 92.4561L493.85 96.2539L490.308 101.78L488.953 106.246L491.024 106.548L494.746 101.41L499.721 99.1747L498.824 94.0192Z" fill="#37B2E8"/>
<path d="M498.25 97.6113L499.721 99.1745L494.746 101.41L491.024 106.547L488.953 106.246L493.149 99.2231L498.25 97.6113Z" fill="#0093CB"/>
<path d="M493.275 99.8469L492.379 94.6915L497.354 92.4561L498.25 97.6116L493.275 99.8469Z" fill="#00578F"/>
<path d="M493.805 98.8782L493.145 95.0741L496.815 93.4248L497.476 97.2289L493.805 98.8782Z" fill="#1A2A67"/>
<path d="M493.273 99.8469L492.376 94.6914L488.234 101.48L488.95 106.246L493.273 99.8469Z" fill="#1A2A67"/>
<path d="M492.108 97.2918L491.966 96.2891L491.633 96.8356L491.775 97.8384L492.108 97.2918Z" fill="#00578F"/>
<path d="M491.44 98.285L491.298 97.2822L490.965 97.8281L491.107 98.8308L491.44 98.285Z" fill="#00578F"/>
<path d="M490.752 99.2323L490.61 98.2295L490.277 98.7753L490.419 99.7781L490.752 99.2323Z" fill="#00578F"/>
<path d="M490.085 100.224L489.943 99.2217L489.609 99.7675L489.751 100.77L490.085 100.224Z" fill="#00578F"/>
<path d="M489.366 101.254L489.224 100.251L488.891 100.798L489.032 101.8L489.366 101.254Z" fill="#69AD47"/>
<path d="M492.362 98.6776L492.22 97.6748L491.887 98.2206L492.028 99.2234L492.362 98.6776Z" fill="#00578F"/>
<path d="M491.693 99.6698L491.552 98.667L491.219 99.2128L491.361 100.216L491.693 99.6698Z" fill="#00578F"/>
<path d="M491.007 100.617L490.864 99.6143L490.531 100.161L490.673 101.164L491.007 100.617Z" fill="#00578F"/>
<path d="M490.338 101.609L490.196 100.606L489.863 101.153L490.005 102.156L490.338 101.609Z" fill="#00578F"/>
<path d="M489.623 102.639L489.481 101.637L489.148 102.183L489.29 103.186L489.623 102.639Z" fill="#00578F"/>
<path d="M492.615 100.049L492.474 99.0459L492.141 99.5917L492.282 100.595L492.615 100.049Z" fill="#00578F"/>
<path d="M491.948 101.04L491.806 100.037L491.473 100.584L491.614 101.586L491.948 101.04Z" fill="#00578F"/>
<path d="M491.26 101.988L491.118 100.985L490.785 101.532L490.927 102.535L491.26 101.988Z" fill="#00578F"/>
<path d="M490.589 102.98L490.447 101.978L490.113 102.524L490.255 103.527L490.589 102.98Z" fill="#00578F"/>
<path d="M489.874 104.011L489.732 103.008L489.398 103.554L489.54 104.556L489.874 104.011Z" fill="#CB4126"/>
<path d="M528.087 86.6035C528.087 86.6035 528.087 98.1034 519.384 99.9325C508.249 102.273 504.008 93.9159 504.008 93.9159" stroke="#F1B06A" stroke-width="9.068" stroke-miterlimit="10" stroke-linecap="round"/>
<path d="M509.682 95.3487C507.922 94.1522 507.088 92.7224 506.933 92.4342C506.113 90.8189 504.139 90.1738 502.524 90.9932C500.908 91.812 500.263 93.7849 501.082 95.3987C501.227 95.6841 502.583 98.2494 505.58 100.445L509.682 95.3487Z" fill="#FA503C"/>
<path d="M528.103 82.9694C528.098 82.9688 528.093 82.9688 528.088 82.9688C526.088 82.9688 524.459 84.5882 524.443 86.5889C524.443 86.6743 524.307 95.1763 518.634 96.3686C514.956 97.1415 512.323 96.4561 510.521 95.4353L507.402 104.265C511.139 105.984 515.213 106.2 519.304 105.341C524.178 104.316 528.573 99.1144 530.44 93.786C531.697 90.2013 531.733 86.9611 531.733 86.6034C531.733 84.5979 530.11 82.9778 528.103 82.9694Z" fill="#CC92E0"/>
<path d="M533.614 127.868H528.371V172.053H533.614V127.868Z" fill="#FAA073"/>
<path d="M543.61 127.868H538.367V172.053H543.61V127.868Z" fill="#FABE9B"/>
<path d="M533.614 163.623H528.371V172.053H533.614V163.623Z" fill="#C7E6D6"/>
<path d="M543.61 163.623H538.367V172.053H543.61V163.623Z" fill="#C7E6D6"/>
<path d="M533.614 127.868H528.371V137.053H533.614V127.868Z" fill="#E88C64"/>
<path d="M543.61 127.868H538.367V137.053H543.61V127.868Z" fill="#FAA073"/>
<path d="M534.637 175.076H518.305V176.142H534.637V175.076Z" fill="#C57420"/>
<path d="M528.055 176.142H544.387V175.076H528.055V176.142Z" fill="#E18619"/>
<path d="M534.238 175.076H519.34V173.913C519.34 172.606 520.4 171.546 521.708 171.546H534.238V175.076Z" fill="#E18619"/>
<path d="M543.672 175.076H528.773V173.913C528.773 172.606 529.834 171.546 531.142 171.546H543.672V175.076Z" fill="#EEA32E"/>
<path d="M540.179 169.09H535.152V171.546H540.179V169.09Z" fill="#C57420"/>
<path d="M530.281 169.09H525.254V171.546H530.281V169.09Z" fill="#A4601F"/>
<path d="M528.045 103.564L521.971 132.147C521.819 132.862 521.998 133.608 522.459 134.176C522.92 134.744 523.613 135.075 524.345 135.075H546.612C547.332 135.075 548.015 134.755 548.477 134.202C548.938 133.648 549.129 132.919 548.998 132.212L543.865 104.363L548.062 88.4752C548.324 87.119 547.967 85.7169 547.087 84.6517C546.207 83.5864 546.153 82.9697 544.772 82.9697H527.884C528.725 83.1961 527.767 88.9058 526.678 90.1988C525.555 92.6995 522.946 95.4738 522.946 98.2758C522.945 101.078 526.417 103.448 528.045 103.564Z" fill="#A875BA"/>
<path d="M553.968 82.6529C551.191 82.6529 548.941 80.4043 548.941 77.63V67.3968C548.941 66.3864 548.119 65.5649 547.108 65.5649H544.688V60.542H547.108C550.891 60.542 553.968 63.617 553.968 67.3968V82.6529Z" fill="#FFA50A"/>
<path d="M547.682 66.9137C546.988 66.9137 546.426 66.3512 546.426 65.6581V60.4762C546.426 59.7825 546.988 59.2207 547.682 59.2207C548.377 59.2207 548.939 59.7832 548.939 60.4762V65.6581C548.938 66.3512 548.376 66.9137 547.682 66.9137Z" fill="#FA503C"/>
<path d="M527.837 103.563H544.401V107.312H527.837C527.321 107.312 526.902 106.894 526.902 106.378V104.498C526.902 103.982 527.321 103.563 527.837 103.563Z" fill="#8B53A7"/>
<path d="M530.754 70.2711C530.754 71.8447 529.477 73.1204 527.902 73.1204C526.328 73.1204 525.051 71.8447 525.051 70.2711C525.051 68.6976 526.328 67.4219 527.902 67.4219C529.477 67.4226 530.754 68.6982 530.754 70.2711Z" fill="#FAA073"/>
<path d="M539.42 82.9688V84.4153C539.42 86.8944 537.409 88.9048 534.927 88.9048C532.446 88.9048 530.434 86.8951 530.434 84.4153V82.9688H539.42Z" fill="#8B53A7"/>
<path d="M534.925 86.623C533.288 86.623 531.961 85.2973 531.961 83.6619V76.8877H537.889V83.6619C537.889 85.2973 536.562 86.623 534.925 86.623Z" fill="#FABE9B"/>
<path d="M531.965 76.8867V80.6707C531.965 81.7651 532.853 82.6526 533.948 82.6526C534.889 82.6526 535.653 83.4151 535.653 84.3554V86.5227C536.938 86.1984 537.892 85.045 537.892 83.661V76.8867H531.965Z" fill="#FAA073"/>
<path d="M535.332 81.5251H533.594C529.531 81.5251 526.238 78.2349 526.238 74.1759V63.1073C526.238 59.1441 529.453 55.9316 533.42 55.9316H538.281C542.247 55.9316 545.462 59.1441 545.462 63.1073V71.4023C545.463 76.9925 540.927 81.5251 535.332 81.5251Z" fill="#FABE9B"/>
<path d="M545.932 70.2711C545.932 68.6976 544.655 67.4219 543.08 67.4219C542.957 67.4219 542.838 67.4323 542.719 67.4469V73.094C542.838 73.1093 542.957 73.119 543.08 73.119C544.656 73.1204 545.932 71.8447 545.932 70.2711Z" fill="#FABE9B"/>
<path d="M541.048 63.3279C540.74 63.471 540.543 63.7793 540.543 64.1189V69.1848C540.543 69.7848 541.03 70.2716 541.631 70.2716C542.231 70.2716 542.718 69.7848 542.718 69.1848V67.448C542.837 67.4327 542.957 67.423 543.08 67.423C544.655 67.423 545.931 68.6987 545.931 70.2723H546.449C546.856 70.2723 547.185 69.9431 547.185 69.5369V60.4766L541.048 63.3279Z" fill="#FFA50A"/>
<path d="M547.133 60.8389C547.133 63.5375 544.944 65.7256 542.242 65.7256C539.542 65.7256 537.352 63.5382 537.352 60.8389C537.352 58.1403 539.542 55.9521 542.242 55.9521C544.944 55.9521 547.133 58.1396 547.133 60.8389Z" fill="#FFA50A"/>
<path d="M544.686 61.1694C545.364 60.1958 545.748 59.0979 545.748 57.9354C545.748 53.9347 541.227 52.1973 535.651 52.1973C530.075 52.1973 525.555 53.9341 525.555 57.9354C525.555 59.0979 525.938 60.1958 526.617 61.1694H544.686Z" fill="#FFA50A"/>
<path d="M528.615 68C528.073 68 527.565 68.3618 527.256 68.9687C527.185 69.1076 527.208 69.3 527.307 69.3993C527.405 69.4986 527.543 69.466 527.613 69.3278C527.843 68.8764 528.208 68.6174 528.614 68.6174C529.02 68.6174 529.385 68.8764 529.615 69.3278C529.658 69.4118 529.725 69.4569 529.794 69.4569C529.839 69.4569 529.883 69.4382 529.922 69.3993C530.021 69.3 530.044 69.1076 529.973 68.9687C529.664 68.3625 529.156 68 528.615 68Z" fill="#68482D"/>
<path d="M538.68 68.9687C538.246 68.3625 537.532 68 536.771 68C536.009 68 535.296 68.3618 534.862 68.9687C534.763 69.1076 534.795 69.3 534.934 69.3993C535.073 69.4986 535.266 69.466 535.365 69.3278C535.687 68.8764 536.2 68.6174 536.771 68.6174C537.342 68.6174 537.854 68.8764 538.177 69.3278C538.238 69.4118 538.332 69.4569 538.429 69.4569C538.49 69.4569 538.554 69.4382 538.608 69.3993C538.747 69.3 538.779 69.1076 538.68 68.9687Z" fill="#68482D"/>
<path d="M541.121 57.292C537.977 61.6343 533.319 64.6419 528.065 65.7204L525.598 66.2266V57.292H541.121Z" fill="#FFA50A"/>
<path d="M522.344 116.767C521.286 116.767 520.203 116.722 519.09 116.632C517.355 116.492 516.062 114.974 516.202 113.241C516.341 111.508 517.856 110.212 519.596 110.356C526.677 110.924 532.188 109.324 535.969 105.598C542.991 98.6751 542.259 86.451 542.25 86.3287C542.134 84.5961 543.444 83.0941 545.177 82.9739C546.909 82.8586 548.414 84.1565 548.537 85.8885C548.581 86.5037 549.505 101.064 540.427 110.049C535.918 114.513 529.844 116.767 522.344 116.767Z" fill="#FABE9B"/>
<path d="M525.048 110.207C523.354 110.376 521.537 110.383 519.602 110.227C517.791 110.075 516.215 111.426 516.069 113.231C515.924 115.036 517.27 116.616 519.076 116.761C520.193 116.851 521.281 116.896 522.341 116.896C523.5 116.896 524.621 116.835 525.712 116.728L525.048 110.207Z" fill="#FA503C"/>
<path d="M548.666 85.88C548.539 84.0766 546.959 82.7197 545.169 82.846C543.365 82.9704 542.001 84.5342 542.122 86.3377C542.13 86.4599 542.858 98.6278 535.878 105.508C534.079 107.281 531.879 108.565 529.305 109.362L530.047 118.815C534.463 117.818 538.217 115.812 541.261 112.798C550.38 103.773 548.711 86.4981 548.666 85.88Z" fill="#CC92E0"/>
<path d="M539.493 73.4893V81.5253H532.365C528.83 81.5253 525.965 78.6628 525.965 75.1316V73.6948L539.493 73.4893Z" fill="white"/>
<path d="M540.622 73.4902H539.492V81.5263L540.622 80.7936V73.4902Z" fill="#37B2E8"/>
<path d="M540.058 74.2814C540.011 74.2814 539.964 74.2724 539.917 74.253C539.73 74.1752 539.642 73.9606 539.72 73.7745L542.588 66.8968C542.667 66.71 542.882 66.6232 543.068 66.6996C543.255 66.7773 543.343 66.9919 543.265 67.178L540.397 74.0557C540.338 74.1967 540.201 74.2814 540.058 74.2814Z" fill="#37B2E8"/>
<path d="M540.058 80.744C540.008 80.744 539.959 80.7343 539.911 80.7127C539.726 80.6322 539.641 80.4162 539.722 80.2308L542.87 73.0385C542.952 72.8531 543.168 72.7691 543.353 72.8503C543.538 72.9316 543.622 73.1468 543.542 73.3323L540.393 80.5245C540.333 80.662 540.198 80.744 540.058 80.744Z" fill="#37B2E8"/>
<path d="M504.551 93.3137L496.743 91.9144C496.315 91.8373 496.03 91.4283 496.106 91.0005L496.949 86.3047C497.026 85.877 497.436 85.5923 497.864 85.6686L505.671 87.0679C506.099 87.145 506.384 87.554 506.308 87.9818L505.465 92.6776C505.389 93.1054 504.979 93.3901 504.551 93.3137Z" fill="#1B444F"/>
<path d="M499.723 91.4614L497.765 91.1107C497.657 91.0912 497.585 90.9884 497.605 90.8815L497.816 89.7037C497.836 89.5961 497.938 89.5253 498.045 89.544L500.004 89.8947C500.112 89.9142 500.183 90.0169 500.164 90.1239L499.953 91.3016C499.934 91.4093 499.831 91.4808 499.723 91.4614Z" fill="#FFC305"/>
<path d="M498.26 87.1124L498.098 88.0146L504.687 89.1952L504.849 88.293L498.26 87.1124Z" fill="#FFC305"/>
<path d="M496.716 83.6981C497.267 83.6981 497.713 83.252 497.713 82.7016C497.713 82.1512 497.267 81.7051 496.716 81.7051C496.165 81.7051 495.719 82.1512 495.719 82.7016C495.719 83.252 496.165 83.6981 496.716 83.6981Z" fill="#37B2E8"/>
<path d="M495.07 81.0587C495.979 80.151 497.451 80.151 498.36 81.0587" stroke="#37B2E8" stroke-width="1.5733" stroke-miterlimit="10"/>
<path d="M493.879 79.8673C495.445 78.302 497.985 78.302 499.552 79.8673" stroke="#37B2E8" stroke-width="1.5733" stroke-miterlimit="10"/>
<path d="M448.046 125.686L447.156 124.797L442.222 129.727L443.112 130.616L448.046 125.686Z" fill="#427399"/>
<path d="M327.887 320.22C363.054 320.22 391.563 318.315 391.563 315.966C391.563 313.617 363.054 311.713 327.887 311.713C292.72 311.713 264.211 313.617 264.211 315.966C264.211 318.315 292.72 320.22 327.887 320.22Z" fill="#D6EED8"/>
<path d="M416.088 215.389C410.81 186.937 383.196 168.521 354.99 174.385C351.646 175.08 348.448 176.085 345.416 177.364C330.139 183.808 312.828 183.82 297.961 176.481C288.145 171.636 276.585 170.125 265.027 173.093C241.768 179.067 226.483 201.815 229.799 225.579C232.41 244.298 245.365 258.656 261.81 264.176C272.789 267.861 282.044 275.435 288.227 285.221C295.434 296.629 309.251 303.293 323.696 300.29C330.546 298.866 336.476 295.462 341.011 290.799C349.265 282.313 360.374 277.267 372.118 275.731C374.296 275.446 376.484 275.018 378.672 274.442C404.54 267.62 420.963 241.673 416.088 215.389Z" fill="#E4F6FF"/>
<path d="M344.301 294.024L335.754 298.097" stroke="#A9A9BF" stroke-width="4.4416" stroke-miterlimit="10"/>
<path d="M335.308 297.483C337.251 296.596 338.107 294.303 337.218 292.361L313.365 240.217C312.476 238.275 310.181 237.42 308.238 238.308C306.295 239.195 305.439 241.489 306.328 243.43L330.181 295.575C331.069 297.517 333.365 298.371 335.308 297.483Z" fill="#F0A36F"/>
<path d="M342.394 291.048C343.078 292.545 342.42 294.312 340.922 294.996L333.749 298.272C332.685 298.758 331.428 298.29 330.942 297.227L329.344 293.733L338.444 289.577C339.94 288.893 341.71 289.551 342.394 291.048Z" fill="#994D22"/>
<path d="M356.487 249.987L352.894 240.476L351.875 237.777" stroke="#FFC305" stroke-width="2.2246" stroke-miterlimit="10"/>
<path d="M311.672 264.188L283.746 288.992" stroke="#37B2E8" stroke-width="3.7077" stroke-miterlimit="10"/>
<path d="M281.352 288.368L261.88 260.74C260.409 258.67 261.89 255.806 264.431 255.806H294.574C298.174 255.806 301.567 257.483 303.751 260.341L308.532 266.979" stroke="#37B2E8" stroke-width="2.2246" stroke-miterlimit="10"/>
<path d="M321.494 301.982C325.783 301.982 329.261 298.508 329.261 294.221C329.261 289.935 325.783 286.461 321.494 286.461C317.204 286.461 313.727 289.935 313.727 294.221C313.727 298.508 317.204 301.982 321.494 301.982Z" stroke="#C8C8DA" stroke-width="1.4831" stroke-miterlimit="10"/>
<path d="M321.492 286.461V301.982" stroke="#C8C8DA" stroke-width="0.4509" stroke-miterlimit="10"/>
<path d="M321.492 286.461V301.982" stroke="#C8C8DA" stroke-width="0.4509" stroke-miterlimit="10"/>
<path d="M317.609 287.5L325.376 300.942" stroke="#C8C8DA" stroke-width="0.4509" stroke-miterlimit="10"/>
<path d="M314.766 290.341L328.219 298.101" stroke="#C8C8DA" stroke-width="0.4509" stroke-miterlimit="10"/>
<path d="M313.727 294.222H329.261" stroke="#C8C8DA" stroke-width="0.4509" stroke-miterlimit="10"/>
<path d="M314.766 298.101L328.219 290.341" stroke="#C8C8DA" stroke-width="0.4509" stroke-miterlimit="10"/>
<path d="M317.609 300.942L325.376 287.5" stroke="#C8C8DA" stroke-width="0.4509" stroke-miterlimit="10"/>
<path d="M322.566 294.222C322.566 294.815 322.086 295.295 321.492 295.295C320.899 295.295 320.418 294.815 320.418 294.222C320.418 293.629 320.899 293.148 321.492 293.148C322.085 293.148 322.566 293.629 322.566 294.222Z" fill="#9999A8"/>
<path d="M355.629 247.786L357.32 252.141L371.909 289.715" stroke="#37B2E8" stroke-width="3.7077" stroke-miterlimit="10"/>
<path d="M276.734 289.309C276.734 286.694 278.856 284.574 281.473 284.574H320.565C326.79 284.574 331.836 289.616 331.836 295.836" fill="#0075AD"/>
<path d="M282.496 264.188V315.241" stroke="#FFA50A" stroke-width="1.0818" stroke-miterlimit="10"/>
<path d="M282.496 264.188V315.241" stroke="#FFA50A" stroke-width="1.0818" stroke-miterlimit="10"/>
<path d="M269.723 267.608L295.27 311.82" stroke="#FFA50A" stroke-width="1.0818" stroke-miterlimit="10"/>
<path d="M260.371 276.952L304.62 302.478" stroke="#FFA50A" stroke-width="1.0818" stroke-miterlimit="10"/>
<path d="M256.949 289.715H308.043" stroke="#FFA50A" stroke-width="1.0818" stroke-miterlimit="10"/>
<path d="M260.371 302.478L304.62 276.952" stroke="#FFA50A" stroke-width="1.0818" stroke-miterlimit="10"/>
<path d="M269.723 311.82L295.27 267.608" stroke="#FFA50A" stroke-width="1.0818" stroke-miterlimit="10"/>
<path d="M282.496 315.241C296.605 315.241 308.043 303.812 308.043 289.715C308.043 275.618 296.605 264.189 282.496 264.189C268.387 264.189 256.949 275.618 256.949 289.715C256.949 303.812 268.387 315.241 282.496 315.241Z" stroke="#4D555D" stroke-width="2.9662" stroke-miterlimit="10"/>
<path d="M282.497 266.31C295.413 266.31 305.921 276.809 305.921 289.714C305.921 302.62 295.413 313.119 282.497 313.119C269.581 313.119 259.072 302.62 259.072 289.714C259.072 276.809 269.581 266.31 282.497 266.31ZM282.497 265.172C268.93 265.172 257.934 276.16 257.934 289.714C257.934 303.269 268.931 314.257 282.497 314.257C296.063 314.257 307.06 303.268 307.06 289.714C307.06 276.16 296.063 265.172 282.497 265.172Z" fill="#FA870A"/>
<path d="M286.03 289.715C286.03 291.665 284.448 293.245 282.497 293.245C280.546 293.245 278.965 291.665 278.965 289.715C278.965 287.766 280.546 286.186 282.497 286.186C284.448 286.186 286.03 287.766 286.03 289.715Z" fill="#FA870A"/>
<path d="M371.91 264.188V315.241" stroke="#FFA50A" stroke-width="1.0818" stroke-miterlimit="10"/>
<path d="M371.91 264.188V315.241" stroke="#FFA50A" stroke-width="1.0818" stroke-miterlimit="10"/>
<path d="M359.137 267.608L384.684 311.82" stroke="#FFA50A" stroke-width="1.0818" stroke-miterlimit="10"/>
<path d="M349.785 276.952L394.034 302.478" stroke="#FFA50A" stroke-width="1.0818" stroke-miterlimit="10"/>
<path d="M346.363 289.715H397.458" stroke="#FFA50A" stroke-width="1.0818" stroke-miterlimit="10"/>
<path d="M349.785 302.478L394.034 276.952" stroke="#FFA50A" stroke-width="1.0818" stroke-miterlimit="10"/>
<path d="M359.137 311.82L384.684 267.608" stroke="#FFA50A" stroke-width="1.0818" stroke-miterlimit="10"/>
<path d="M371.91 315.241C386.019 315.241 397.457 303.812 397.457 289.715C397.457 275.618 386.019 264.189 371.91 264.189C357.801 264.189 346.363 275.618 346.363 289.715C346.363 303.812 357.801 315.241 371.91 315.241Z" stroke="#4D555D" stroke-width="2.9662" stroke-miterlimit="10"/>
<path d="M371.911 266.31C384.827 266.31 395.335 276.809 395.335 289.714C395.335 302.62 384.827 313.119 371.911 313.119C358.995 313.119 348.486 302.62 348.486 289.714C348.487 276.809 358.995 266.31 371.911 266.31ZM371.911 265.172C358.345 265.172 347.348 276.16 347.348 289.714C347.348 303.269 358.345 314.257 371.911 314.257C385.477 314.257 396.474 303.268 396.474 289.714C396.474 276.16 385.477 265.172 371.911 265.172Z" fill="#FA870A"/>
<path d="M375.444 289.715C375.444 291.665 373.863 293.245 371.911 293.245C369.96 293.245 368.379 291.665 368.379 289.715C368.379 287.766 369.96 286.186 371.911 286.186C373.863 286.186 375.444 287.766 375.444 289.715Z" fill="#FA870A"/>
<path d="M309.806 258.254L306.539 248.537" stroke="#ABB4C6" stroke-width="2.2246" stroke-miterlimit="10"/>
<path d="M308.531 254.293L321.066 293.244" stroke="#37B2E8" stroke-width="3.7077" stroke-miterlimit="10"/>
<path d="M283.746 290.33L320.584 294.124C327.744 294.862 334.677 291.36 338.329 285.162L357.319 252.141" stroke="#37B2E8" stroke-width="3.7077" stroke-miterlimit="10"/>
<path d="M317.268 249.833L301.914 253.334C299.761 253.825 297.711 252.191 297.711 249.985C297.711 248.088 299.25 246.55 301.149 246.55H316.899C317.817 246.55 318.563 247.294 318.563 248.212C318.561 248.988 318.024 249.66 317.268 249.833Z" fill="#FF3C3C"/>
<path d="M352.894 240.475L355.445 237.848C356.081 237.193 356.287 236.231 355.973 235.373L354.039 230.082C353.653 229.024 352.579 228.382 351.464 228.541L348.117 229.019" stroke="#FFC305" stroke-width="2.2246" stroke-miterlimit="10"/>
<path d="M349.997 229.268C349.997 230.581 348.931 231.645 347.618 231.645C346.304 231.645 345.238 230.581 345.238 229.268C345.238 227.955 346.304 226.891 347.618 226.891C348.931 226.891 349.997 227.955 349.997 229.268Z" fill="#FF3C3C"/>
<path d="M253.316 289.715C253.316 273.613 266.38 260.561 282.496 260.561C298.61 260.561 311.674 273.613 311.674 289.715" stroke="#0093CB" stroke-width="3.8806" stroke-miterlimit="10"/>
<path d="M342.73 289.715C342.73 273.613 355.794 260.561 371.909 260.561" stroke="#0093CB" stroke-width="3.8806" stroke-miterlimit="10"/>
<path d="M343.13 220.252C344.413 220.252 345.452 219.213 345.452 217.932C345.452 216.651 344.413 215.612 343.13 215.612C341.848 215.612 340.809 216.651 340.809 217.932C340.809 219.213 341.848 220.252 343.13 220.252Z" fill="#FF3C3C"/>
<path d="M314.372 196.739C314.372 198.472 305.887 205.995 301.389 205.995C296.891 205.995 297.673 198.423 298.083 196.739C298.558 194.789 301.729 193.603 306.227 193.603C310.725 193.603 314.372 195.007 314.372 196.739Z" fill="#39A5DF"/>
<path d="M311.696 236.319L304.465 239.621L314.057 260.591L321.289 257.289L311.696 236.319Z" fill="#154767"/>
<path d="M311.465 257.215L313.43 261.327L322.308 257.272L320.536 253.399L311.465 257.215Z" fill="#427399"/>
<path d="M286.763 200.144H265.043V228.165H286.763V200.144Z" fill="#FAC855"/>
<path d="M286.763 228.165H290.91V200.143H286.763V228.165Z" fill="#E69632"/>
<path d="M277.625 200.144H273.281V205.382H277.625V200.144Z" fill="#E69632"/>
<path d="M289.501 200.144H288.172V205.382H289.501V200.144Z" fill="#D77D14"/>
<path d="M266.738 201.939V203.436" stroke="#A86538" stroke-width="0.887" stroke-miterlimit="10"/>
<path d="M265.934 202.161L266.739 201.039L267.545 202.161H265.934Z" fill="#A86538"/>
<path d="M269.212 200.989C268.536 200.989 267.988 201.537 267.988 202.212H270.435C270.435 201.537 269.887 200.989 269.212 200.989Z" fill="#A86538"/>
<path d="M269.211 201.601V203.261C269.211 203.359 269.132 203.437 269.035 203.437C268.938 203.437 268.859 203.358 268.859 203.261V202.999" stroke="#A86538" stroke-width="0.2957" stroke-miterlimit="10"/>
<path d="M271.559 202.762C271.269 202.762 271.035 202.527 271.035 202.238V201.039H272.084V202.238C272.084 202.527 271.849 202.762 271.559 202.762Z" fill="#A86538"/>
<path d="M271.559 201.901V203.436" stroke="#A86538" stroke-width="0.2957" stroke-miterlimit="10"/>
<path d="M271.184 203.436H271.933" stroke="#A86538" stroke-width="0.2957" stroke-miterlimit="10"/>
<path d="M284.412 224.224H276.205C276.038 224.224 275.902 224.088 275.902 223.921V218.54C275.902 218.373 276.038 218.237 276.205 218.237H284.412C284.579 218.237 284.715 218.373 284.715 218.54V223.921C284.715 224.088 284.579 224.224 284.412 224.224Z" fill="white"/>
<path d="M276.926 220.133H278.823" stroke="#CB9D64" stroke-width="0.5913" stroke-miterlimit="10"/>
<path d="M276.926 221.63H283.217" stroke="#CB9D64" stroke-width="0.5913" stroke-miterlimit="10"/>
<path d="M280.309 223.126H283.217" stroke="#CB9D64" stroke-width="0.5913" stroke-miterlimit="10"/>
<path d="M289.392 227.252H257.691V254.994H289.392V227.252Z" fill="#FFDC64"/>
<path d="M289.391 254.993H296.621V227.251H289.391V254.993Z" fill="#E69632"/>
<path d="M276.055 227.252H269.715V234.898H276.055V227.252Z" fill="#E69632"/>
<path d="M294.165 227.252H291.848V234.898H294.165V227.252Z" fill="#D77D14"/>
<path d="M260.168 229.872V232.057" stroke="#A86538" stroke-width="1.2946" stroke-miterlimit="10"/>
<path d="M258.992 230.196L260.169 228.559L261.344 230.196H258.992Z" fill="#A86538"/>
<path d="M263.777 228.485C262.791 228.485 261.992 229.284 261.992 230.27H265.563C265.562 229.284 264.763 228.485 263.777 228.485Z" fill="#A86538"/>
<path d="M263.774 229.378V231.801C263.774 231.942 263.659 232.057 263.518 232.057C263.377 232.057 263.262 231.942 263.262 231.801V231.418" stroke="#A86538" stroke-width="0.4315" stroke-miterlimit="10"/>
<path d="M267.203 231.074C266.78 231.074 266.438 230.732 266.438 230.309V228.559H267.968V230.309C267.968 230.732 267.625 231.074 267.203 231.074Z" fill="#A86538"/>
<path d="M267.199 229.816V232.057" stroke="#A86538" stroke-width="0.4315" stroke-miterlimit="10"/>
<path d="M266.656 232.058H267.75" stroke="#A86538" stroke-width="0.4315" stroke-miterlimit="10"/>
<path d="M285.964 249.241H273.985C273.74 249.241 273.543 249.043 273.543 248.8V240.945C273.543 240.702 273.741 240.504 273.985 240.504H285.964C286.207 240.504 286.405 240.702 286.405 240.945V248.8C286.405 249.043 286.207 249.241 285.964 249.241Z" fill="white"/>
<path d="M275.035 243.271H277.805" stroke="#CB9D64" stroke-width="0.863" stroke-miterlimit="10"/>
<path d="M275.035 245.455H284.217" stroke="#CB9D64" stroke-width="0.863" stroke-miterlimit="10"/>
<path d="M279.973 247.64H284.218" stroke="#CB9D64" stroke-width="0.863" stroke-miterlimit="10"/>
<path d="M324.175 227.543C324.586 227.61 325.016 227.593 325.441 227.481L344.211 222.516C345.834 222.086 346.801 220.424 346.371 218.803C345.942 217.181 344.277 216.214 342.655 216.644L326.327 220.964L317.146 201.614C316.427 200.099 314.614 199.453 313.097 200.171C311.581 200.89 310.934 202.7 311.653 204.216L321.917 225.846C322.356 226.771 323.214 227.387 324.175 227.543Z" fill="#F0A36F"/>
<path d="M323.292 228.087C323.778 228.166 324.287 228.147 324.788 228.014L339.016 224.891L338.065 217.534L325.835 220.311L318.59 202.033C317.74 200.242 313.859 198.821 312.066 199.671C310.273 200.52 309.509 202.66 310.359 204.452L320.622 226.081C321.142 227.175 322.156 227.902 323.292 228.087Z" fill="#FF6308"/>
<path d="M317.015 199.941L312.628 199.032C307.839 198.041 303.137 201.065 302.059 205.831L295.277 235.804L317.158 236.224L323.346 209.848C324.399 205.355 321.538 200.877 317.015 199.941Z" fill="#FF6308"/>
<path d="M325.914 209.919H319.684V214.459H325.914V209.919Z" fill="white"/>
<path d="M323.513 208.98H322.059V210.743H323.513V208.98Z" fill="#37B2E8"/>
<path d="M320.629 279.65C322.31 279.65 323.856 278.547 324.345 276.853L336.494 258.024C336.982 256.332 336.263 254.525 334.747 253.628L312.073 240.358C310.234 239.271 307.861 239.879 306.774 241.716C305.686 243.554 306.295 245.924 308.133 247.01L328.231 258.759L316.91 274.715C316.319 276.765 317.504 278.908 319.557 279.499C319.914 279.601 320.275 279.649 320.629 279.65Z" fill="#FABE9B"/>
<path d="M303.952 249.045H303.927C299.15 249.045 295.277 245.176 295.277 240.403V235.805H317.203C317.203 243.117 311.27 249.045 303.952 249.045Z" fill="#154767"/>
<path d="M317.797 210.522C316.912 212.625 314.988 214.247 312.018 214.247C303.549 214.247 303.563 201.118 312.018 201.118C312.867 201.118 313.63 201.251 314.308 201.489C316.006 202.084 317.797 200.931 317.797 199.132V198.915C317.789 198.905 317.783 198.898 317.774 198.888L312.83 197.864C307.738 196.81 302.74 200.026 301.594 205.093L293.191 241.343L302.474 241.522C306.215 241.594 309.538 239.145 310.574 235.554L317.797 210.522Z" fill="#39A5DF"/>
<path d="M329.981 277.538C329.981 279.238 328.602 280.615 326.901 280.615H318.755C317.546 280.615 316.566 279.636 316.566 278.428V274.46H326.901C328.602 274.461 329.981 275.839 329.981 277.538Z" fill="#A86538"/>
<path d="M325.685 259.734L332.253 251.277L309.965 239.006L303.438 248.951L325.685 259.734Z" fill="#154767"/>
<path d="M328.806 248.432L321.281 258.539L325.426 260.628L333.121 250.719L328.806 248.432Z" fill="#427399"/>
<path d="M333.584 279.187L321.719 280.079L321.869 282.069L333.734 281.178L333.584 279.187Z" fill="#E69632"/>
<path d="M328.623 282.389C327.834 282.389 327.115 281.86 326.907 281.062L325.272 274.771C325.026 273.824 325.596 272.857 326.544 272.61C327.489 272.364 328.46 272.932 328.706 273.88L330.341 280.17C330.587 281.117 330.018 282.085 329.07 282.331C328.921 282.37 328.77 282.389 328.623 282.389Z" fill="#FFDC64"/>
<path d="M345.237 233.459C344.963 233.459 344.684 233.42 344.409 233.338L324.033 227.291L309.421 207.63C308.464 206.343 308.733 204.524 310.021 203.568C311.309 202.611 313.131 202.879 314.086 204.167L327.544 222.275L346.063 227.77C347.602 228.227 348.478 229.843 348.022 231.38C347.646 232.643 346.491 233.459 345.237 233.459Z" fill="#FABE9B"/>
<path d="M321.492 295.719C321.258 295.719 321.021 295.663 320.799 295.547C320.066 295.164 319.784 294.26 320.167 293.527L327.299 279.921C327.681 279.19 328.587 278.905 329.32 279.29C330.053 279.673 330.335 280.577 329.952 281.31L322.82 294.916C322.553 295.426 322.032 295.719 321.492 295.719Z" fill="#E69632"/>
<path d="M315.444 203.609C313.944 203.275 312.999 201.789 313.333 200.291L314.973 192.926L320.406 194.134L318.765 201.499C318.431 202.997 316.944 203.942 315.444 203.609Z" fill="#FABE9B"/>
<path d="M327.904 221.567L315.147 203.382C314.51 202.473 313.531 201.861 312.435 201.683C311.338 201.505 310.217 201.779 309.325 202.44L309.142 202.576C308.25 203.237 307.664 204.231 307.517 205.331C307.37 206.431 307.673 207.544 308.36 208.416L322.912 226.917L323.036 227.075C323.544 227.717 324.286 228.175 325.158 228.307L340.028 232.578L343.101 226.296L327.904 221.567Z" fill="#FF853A"/>
<path d="M344.756 232.579C344.756 233.697 343.848 234.604 342.729 234.604C341.61 234.604 340.703 233.697 340.703 232.579C340.703 231.461 341.61 230.555 342.729 230.555C343.849 230.555 344.756 231.461 344.756 232.579Z" fill="#FF3C3C"/>
<path d="M313.314 196.92C313.314 196.92 309.393 197.92 306.092 197.526C302.791 197.133 301.262 196.309 301.36 195.495C301.457 194.681 303.142 194.186 306.444 194.578C309.744 194.973 313.314 196.92 313.314 196.92Z" fill="#0155A0"/>
<path d="M345.236 223.663C346.738 223.663 347.956 222.446 347.956 220.945C347.956 219.443 346.738 218.227 345.236 218.227C343.734 218.227 342.516 219.443 342.516 220.945C342.516 222.446 343.734 223.663 345.236 223.663Z" fill="#FF3C3C"/>
<path d="M345.238 220.944L347.181 223.275C347.776 223.988 348.656 224.4 349.583 224.4C350.962 224.4 352.195 225.254 352.679 226.545L354.18 230.554" stroke="#FFC305" stroke-width="2.2246" stroke-miterlimit="10" stroke-linecap="round"/>
<path d="M282.544 256.607L260.77 226.718" stroke="#ABB4C6" stroke-width="2.4312" stroke-miterlimit="10" stroke-linecap="round"/>
<path d="M284.746 199.466L266.93 256.607" stroke="#ABB4C6" stroke-width="2.4312" stroke-miterlimit="10" stroke-linecap="round"/>
<path d="M329.484 187.418L329.723 187.46C330.255 187.555 330.762 187.2 330.857 186.669L331.548 182.771L329.382 182.387L328.691 186.285C328.597 186.817 328.952 187.324 329.484 187.418Z" fill="#4C2412"/>
<path d="M310.977 176.774L314.837 188.138L324.215 176.475" stroke="#0E3C3D" stroke-width="2.1647" stroke-miterlimit="10" stroke-linejoin="round"/>
<path d="M321.526 198.122C321.526 198.122 315.036 196.241 314.836 188.138" stroke="#0E3C3D" stroke-width="2.1647" stroke-miterlimit="10" stroke-linecap="round" stroke-linejoin="round"/>
<path d="M312.43 175.222C311.755 179.026 315.505 182.871 320.807 183.81C326.108 184.749 330.953 182.427 331.628 178.624C332.303 174.82 328.298 172.408 322.997 171.468C317.696 170.529 313.105 171.419 312.43 175.222Z" fill="#4C2412"/>
<path d="M324.922 189.403C324.656 190.9 325.655 192.327 327.151 192.592C328.649 192.857 330.078 191.86 330.343 190.364C330.608 188.868 329.61 187.44 328.113 187.175C326.616 186.911 325.188 187.908 324.922 189.403Z" fill="#FAA073"/>
<path d="M310.789 187.811C309.821 193.262 313.459 198.465 318.916 199.432L320.94 199.79C324.46 200.413 327.819 198.068 328.444 194.55L331.111 179.521L312.834 176.283L310.789 187.811Z" fill="#FABE9B"/>
<path d="M324.151 179.732C323.748 181.999 325.262 184.163 327.532 184.565C329.801 184.967 331.967 183.455 332.369 181.187C332.772 178.92 331.258 176.756 328.988 176.354C326.719 175.952 324.553 177.464 324.151 179.732Z" fill="#4C2412"/>
<path d="M317.604 178.573C317.201 180.84 318.715 183.004 320.985 183.406C323.254 183.808 325.42 182.296 325.822 180.028C326.225 177.761 324.711 175.597 322.441 175.195C320.172 174.792 318.006 176.305 317.604 178.573Z" fill="#4C2412"/>
<path d="M311.057 177.412C310.654 179.679 312.168 181.843 314.438 182.246C316.707 182.648 318.873 181.136 319.275 178.868C319.678 176.6 318.164 174.436 315.895 174.034C313.626 173.633 311.46 175.145 311.057 177.412Z" fill="#4C2412"/>
<path d="M314.257 188.865L314.496 188.907C315.028 189.001 315.535 188.647 315.63 188.115L317.034 180.199L314.869 179.815L313.464 187.732C313.37 188.264 313.725 188.771 314.257 188.865Z" fill="#4C2412"/>
<path d="M323.312 171.874L323.529 170.654" stroke="#4C2412" stroke-width="1.4938" stroke-miterlimit="10" stroke-linecap="round"/>
<path d="M324.713 171.252L323.267 172.125L322.25 170.776" stroke="#4C2412" stroke-width="0.7469" stroke-miterlimit="10" stroke-linecap="round"/>
<path d="M309.966 185.917C309.643 187.734 310.857 189.468 312.675 189.79L313.085 189.862L315.048 178.8L311.345 178.145L309.966 185.917Z" fill="#4C2412"/>
<path d="M313.683 184.619C313.799 184.64 313.912 184.67 314.022 184.703L313.069 190.072C312.954 190.067 312.839 190.056 312.722 190.036C311.224 189.771 310.226 188.342 310.492 186.847C310.756 185.351 312.185 184.354 313.683 184.619Z" fill="#FABE9B"/>
<path d="M323.312 169.168C315.786 169.546 307.844 175.858 306.438 181.501C306.315 181.996 306.435 182.519 306.763 182.91C307.09 183.301 307.585 183.511 308.093 183.477L331.568 181.891C332.01 181.862 332.419 181.65 332.699 181.306C332.978 180.963 333.103 180.518 333.041 180.079C332.26 174.512 329.411 168.862 323.312 169.168ZM320.395 171.388C320.601 171.386 320.777 171.536 320.807 171.738C320.838 171.942 320.714 172.137 320.516 172.195C318.275 172.853 315.017 174.16 312.528 176.609C312.381 176.754 312.151 176.767 311.988 176.643C311.825 176.518 311.779 176.292 311.88 176.113C313.049 174.055 315.496 171.446 320.395 171.388ZM312.79 178.724C316.725 176.285 319.883 177.115 321.628 178.01C322.173 178.289 322.005 179.106 321.395 179.157L313.169 179.846C312.536 179.9 312.251 179.059 312.79 178.724ZM321.117 174.187C327.777 172.961 330.373 175.636 331.265 177.085C331.503 177.472 331.242 177.97 330.789 178.005L327.843 178.235C327.694 178.247 327.548 178.199 327.431 178.106C325.517 176.58 323.021 175.788 321.083 175.38C320.426 175.242 320.457 174.309 321.117 174.187Z" fill="#39A5DF"/>
<path d="M320.048 191.71L316.717 191.042L315.23 198.439L321.613 199.874C324.867 200.527 328.212 198.302 328.865 195.051L329.262 193.028C329.262 193.028 320.819 191.865 320.048 191.71Z" fill="white"/>
<path d="M315.679 190.833L316.719 191.042L315.233 198.44L314.328 197.557L315.679 190.833Z" fill="#37B2E8"/>
<path d="M316.12 191.673C315.974 191.673 315.839 191.58 315.791 191.433L313.696 184.808C313.638 184.627 313.74 184.434 313.92 184.376C314.104 184.319 314.294 184.421 314.352 184.6L316.448 191.225C316.505 191.406 316.405 191.6 316.224 191.657C316.189 191.667 316.153 191.673 316.12 191.673Z" fill="#37B2E8"/>
<path d="M314.923 197.621C314.774 197.621 314.639 197.525 314.593 197.376L312.346 189.89C312.292 189.708 312.396 189.516 312.577 189.461C312.761 189.406 312.95 189.51 313.006 189.692L315.253 197.178C315.307 197.36 315.203 197.552 315.022 197.607C314.989 197.617 314.956 197.621 314.923 197.621Z" fill="#37B2E8"/>
<path d="M316.117 183.48L314.297 195.016C314.015 196.803 315.144 198.511 316.9 198.953L320.073 199.752" stroke="#363D44" stroke-width="1.3318" stroke-miterlimit="10"/>
<path d="M320.005 200.7L318.164 200.243C317.814 200.156 317.597 199.805 317.676 199.454L317.862 198.635L321.045 199.393L320.802 200.239C320.703 200.582 320.351 200.785 320.005 200.7Z" fill="#0155A0"/>
<path d="M328.534 187.375C329.038 187.432 329.474 187.823 329.696 188.421C329.748 188.557 329.706 188.734 329.603 188.816C329.501 188.899 329.376 188.854 329.325 188.718C329.159 188.273 328.847 187.993 328.468 187.95C328.09 187.907 327.722 188.109 327.46 188.505C327.411 188.579 327.344 188.614 327.28 188.607C327.238 188.602 327.199 188.579 327.167 188.54C327.086 188.437 327.085 188.255 327.165 188.133C327.517 187.6 328.029 187.317 328.534 187.375Z" fill="#433630"/>
<path d="M319.072 187.621C318.953 187.514 318.944 187.331 319.052 187.212C319.52 186.693 320.223 186.431 320.932 186.511C321.642 186.592 322.268 187.005 322.608 187.616C322.686 187.755 322.635 187.932 322.495 188.009C322.356 188.087 322.179 188.036 322.102 187.897C321.849 187.442 321.399 187.147 320.867 187.087C320.335 187.026 319.83 187.214 319.482 187.6C319.417 187.672 319.324 187.704 319.234 187.693C319.175 187.687 319.119 187.663 319.072 187.621Z" fill="#433630"/>
<path d="M219.402 305.445H248.098" stroke="#C8C8DA" stroke-width="1.0818" stroke-miterlimit="10"/>
<path d="M225.781 310.652H255.964" stroke="#C8C8DA" stroke-width="1.0818" stroke-miterlimit="10"/>
<path d="M238 300.942H253.313" stroke="#C8C8DA" stroke-width="1.0818" stroke-miterlimit="10"/>
<path d="M298.242 219.55L314.104 223.314L314.802 220.899L298.809 217.104L298.242 219.55Z" fill="#FFC304"/>
<path d="M297.32 223.517L312.972 227.231L313.669 224.815L297.887 221.07L297.32 223.517Z" fill="#FFC304"/>
<path d="M133.93 195.953C133.93 195.953 133.946 196.021 133.979 196.153" stroke="#FFB49B" stroke-width="3.1466" stroke-miterlimit="10" stroke-linecap="round"/>
<path d="M137 204C145.149 218.767 169.076 248.085 232 253" stroke="#39A5DF" stroke-width="3.1466" stroke-miterlimit="10" stroke-linecap="round" stroke-dasharray="0.52 10.36"/>
<path d="M133.355 199.251C136.61 199.251 139.249 196.614 139.249 193.362C139.249 190.109 136.61 187.473 133.355 187.473C130.1 187.473 127.461 190.109 127.461 193.362C127.461 196.614 130.1 199.251 133.355 199.251Z" fill="#0155A0"/>
<path d="M133.354 196.424C135.046 196.424 136.418 195.053 136.418 193.362C136.418 191.671 135.046 190.3 133.354 190.3C131.661 190.3 130.289 191.671 130.289 193.362C130.289 195.053 131.661 196.424 133.354 196.424Z" fill="#87C7E8"/>
<path d="M237.293 255.784C240.548 255.784 243.187 253.148 243.187 249.895C243.187 246.643 240.548 244.006 237.293 244.006C234.037 244.006 231.398 246.643 231.398 249.895C231.398 253.148 234.037 255.784 237.293 255.784Z" fill="#0155A0"/>
<path d="M237.291 252.957C238.984 252.957 240.356 251.586 240.356 249.895C240.356 248.204 238.984 246.833 237.291 246.833C235.599 246.833 234.227 248.204 234.227 249.895C234.227 251.586 235.599 252.957 237.291 252.957Z" fill="#87C7E8"/>
<path d="M302.059 135.223C303.577 112.467 338.878 84.0222 369.88 87.0761" stroke="#39A5DF" stroke-width="3.1466" stroke-miterlimit="10" stroke-linecap="round" stroke-dasharray="0.52 10.49"/>
<path d="M301.933 143.569C305.188 143.569 307.827 140.933 307.827 137.68C307.827 134.428 305.188 131.791 301.933 131.791C298.678 131.791 296.039 134.428 296.039 137.68C296.039 140.933 298.678 143.569 301.933 143.569Z" fill="#0155A0"/>
<path d="M301.932 140.742C303.624 140.742 304.996 139.371 304.996 137.68C304.996 135.989 303.624 134.618 301.932 134.618C300.239 134.618 298.867 135.989 298.867 137.68C298.867 139.371 300.239 140.742 301.932 140.742Z" fill="#87C7E8"/>
<path d="M368.464 93.1066C371.72 93.1066 374.359 90.4699 374.359 87.2174C374.359 83.9648 371.72 81.3281 368.464 81.3281C365.209 81.3281 362.57 83.9648 362.57 87.2174C362.57 90.4699 365.209 93.1066 368.464 93.1066Z" fill="#0155A0"/>
<path d="M371.531 87.2172C371.531 88.9082 370.159 90.2791 368.467 90.2791C366.774 90.2791 365.402 88.9082 365.402 87.2172C365.402 85.5262 366.774 84.1553 368.467 84.1553C370.159 84.1553 371.531 85.5262 371.531 87.2172Z" fill="#87C7E8"/>
<path d="M127.007 165.33C128.319 157.196 122.783 149.54 114.643 148.229C106.502 146.918 98.8394 152.449 97.5276 160.583C96.2158 168.717 101.752 176.373 109.892 177.684C118.033 178.995 125.695 173.463 127.007 165.33Z" fill="#2B3882"/>
<path d="M118.218 169.254C121.515 165.96 121.515 160.62 118.218 157.326C114.922 154.033 109.577 154.033 106.281 157.326C102.985 160.62 102.985 165.96 106.281 169.254C109.577 172.547 114.922 172.547 118.218 169.254Z" fill="white"/>
<path d="M91.4922 141.718H111.648C120.032 141.718 126.828 148.508 126.828 156.885H91.4928L91.4922 141.718Z" fill="#4C65BA"/>
<path d="M105.816 131.508L93.5173 114.789C92.4403 113.326 91.6638 111.663 91.2326 109.899L91.1736 109.657L94.9619 108.732C95.2487 108.662 95.4239 108.373 95.3543 108.087L93.2489 99.4717C92.9824 98.3825 91.883 97.7156 90.7929 97.9811L87.0702 98.8894C84.0006 99.6383 82.1202 102.732 82.8698 105.799C82.8816 105.847 82.8986 105.892 82.9118 105.939L82.9039 105.937L86.5465 120.839L89.4684 116.315V156.885H44.5195V163.036C44.5195 166.061 46.9735 168.513 50.0011 168.513H86.2216C90.0979 168.513 93.4753 166.408 95.294 163.286L95.2979 163.29L106.632 145.297C109.117 140.946 108.797 135.538 105.816 131.508Z" fill="#599AF2"/>
<path d="M64.3623 95.0169L67.3741 94.2818C70.1471 93.605 72.8886 95.0766 73.4976 97.5685C74.1067 100.06 72.3524 102.628 69.5794 103.305L67.5422 103.802C66.1757 104.135 64.8256 103.411 64.525 102.183L63.1921 96.7291C63.0109 95.9855 63.5347 95.2189 64.3623 95.0169Z" fill="#2B3882"/>
<path d="M96.3799 102.649C97.1294 105.716 96.4928 108.505 94.9583 108.88C93.4238 109.255 91.5717 107.072 90.8222 104.005C90.0727 100.938 90.7093 98.1485 92.2438 97.7741C93.7783 97.4003 95.6304 99.5827 96.3799 102.649Z" fill="#4C65BA"/>
<path d="M94.6314 100.585C95.0632 102.353 94.697 103.961 93.8116 104.177C92.9269 104.393 91.8591 103.134 91.4272 101.366C90.9953 99.5984 91.3622 97.9898 92.2469 97.7741C93.1317 97.5583 94.1995 98.8167 94.6314 100.585Z" fill="white"/>
<path d="M82.7088 104.492L79.2979 98.5909C78.5884 97.3626 77.1524 96.7501 75.7734 97.0865L70.5977 98.3495" stroke="#2B3882" stroke-miterlimit="10" stroke-linecap="round" stroke-linejoin="round"/>
<path d="M83.8907 106.448L73.1119 109.079C72.7004 109.179 72.2849 108.927 72.1845 108.516L71.901 107.355C71.8005 106.944 72.0526 106.529 72.4641 106.429L83.2422 103.798C83.6537 103.698 84.0692 103.95 84.1696 104.361L84.4531 105.522C84.5549 105.934 84.3022 106.348 83.8907 106.448Z" fill="#2B3882"/>
<path d="M85.0461 107.923L83.5418 108.291C82.9071 108.445 82.2672 108.057 82.1123 107.423L81.3398 104.263L83.9927 103.616L85.0461 107.923Z" fill="#2B3882"/>
<path d="M73.36 109.722C72.5357 109.923 71.7048 109.418 71.5033 108.595L71.3411 107.933C71.1397 107.109 71.645 106.279 72.4687 106.077C73.2931 105.876 74.124 106.381 74.3254 107.204L74.4876 107.866C74.6891 108.689 74.1843 109.52 73.36 109.722Z" fill="#2B3882"/>
<path d="M8.08779 132.871H33.9784C35.6553 132.871 37.0145 131.513 37.0145 129.837V96.6381C37.0145 94.9626 35.6553 93.6045 33.9784 93.6045H8.00377C3.81184 93.6045 0.414062 96.9994 0.414062 101.188V125.202C0.414062 129.438 3.84991 132.871 8.08779 132.871Z" fill="#599AF2"/>
<path opacity="0.43" d="M8.0866 132.871H33.9772C35.6541 132.871 37.0134 128.974 37.0134 127.298C37.0134 127.298 0.477192 126.342 0.597955 126.882C1.36388 130.309 4.42629 132.871 8.0866 132.871Z" fill="#3E479B"/>
<path opacity="0.43" d="M37.0145 104.053V96.6381C37.0145 94.9626 35.6553 93.6045 33.9784 93.6045H8.00377C3.81184 93.6045 0.414062 96.9994 0.414062 101.188V104.221L37.0145 104.053Z" fill="#3E479B"/>
<path d="M0.707031 127.298H36.5094" stroke="#2B3882" stroke-miterlimit="10" stroke-linecap="round"/>
<path d="M0.707031 104.491H36.5094" stroke="#2B3882" stroke-miterlimit="10" stroke-linecap="round"/>
<path d="M62.4817 156.885L2.80357 151.653C2.31527 151.611 1.9497 151.187 1.98252 150.697C2.03633 149.895 2.1315 148.732 2.26605 148.032C3.92392 139.396 11.5254 132.87 20.6523 132.87H58.8693C60.4549 132.87 61.4316 134.602 60.6098 135.958L58.3134 139.745C55.375 144.591 56.1882 150.824 60.2712 154.755L62.4817 156.885Z" fill="#599AF2"/>
<path opacity="0.17" d="M62.4846 132.87H20.6552C11.7627 132.87 4.31867 139.065 2.40877 147.371C2.09767 148.722 1.93359 150.13 1.93359 151.577L33.3878 154.028C33.3878 154.028 28.6085 151.995 28.6085 141.083C28.6085 132.746 40.2353 132.665 40.2353 132.665" fill="white"/>
<path opacity="0.17" d="M40.0915 132.87H19.2067C13.603 132.87 3.43657 139.065 2.23288 147.371C2.03664 148.722 1.93359 150.13 1.93359 151.577L20.9361 153.058C20.9361 153.058 17.8639 152.151 18.7433 141.083C19.4042 132.772 26.0699 132.665 26.0699 132.665" fill="white"/>
<path d="M63.7596 137.563C63.8528 138.32 63.2575 138.986 62.4942 138.978L32.1905 138.662C29.3769 138.633 26.8421 136.788 25.7979 134.009L23.3354 127.456C22.2092 124.458 24.1499 121.21 27.1769 121.024L56.183 120.234C59.252 120.15 61.9081 122.558 62.3065 125.784L63.7596 137.563Z" fill="#4C65BA"/>
<path d="M23.8203 128.956L44.818 128.895" stroke="#2B3882" stroke-miterlimit="10" stroke-linecap="round"/>
<path d="M49.9492 132.826L63.1544 132.665" stroke="#2B3882" stroke-miterlimit="10" stroke-linecap="round"/>
<path d="M99.1672 133.241C99.0457 132.822 98.9079 132.436 98.7543 132.129L89.4693 113.575C85.809 115.333 84.1282 119.616 85.6161 123.39L87.7235 128.735C88.9331 131.802 89.554 135.07 89.554 138.366V143.755C89.554 151.007 83.6701 156.887 76.4118 156.887H62.484V156.855L22.8047 153.369V162.701H44.5204H62.484H83.103C86.9018 162.701 91.8472 159.166 94.6569 154C97.4102 148.938 98.8233 142.728 99.4415 139.306C99.8051 137.288 99.7388 135.209 99.1672 133.241Z" fill="#3E479B"/>
<path d="M32.4281 166.247C34.2577 158.213 29.2232 150.219 21.1833 148.391C13.1433 146.563 5.14245 151.593 3.31283 159.626C1.4832 167.66 6.51766 175.654 14.5576 177.482C22.5976 179.31 30.5985 174.28 32.4281 166.247Z" fill="#2B3882"/>
<path d="M26.0933 165.174C27.1291 160.633 24.2842 156.112 19.7389 155.077C15.1936 154.042 10.6693 156.885 9.63339 161.426C8.59754 165.968 11.4425 170.488 15.9877 171.523C20.533 172.558 25.0574 169.716 26.0933 165.174Z" fill="white"/>
<path d="M40.8949 167.586H18.6311C15.9763 167.586 13.8242 165.436 13.8242 162.783C13.8242 160.131 15.9763 157.98 18.6311 157.98H40.8949C43.5497 157.98 45.7018 160.131 45.7018 162.783C45.7018 165.435 43.5497 167.586 40.8949 167.586Z" fill="#4C65BA"/>
</svg>
