<svg width="544" height="399" viewBox="0 0 544 399" fill="none" xmlns="http://www.w3.org/2000/svg">
<path opacity="0.6" d="M48.5719 219.432L27.8806 296.694L16.2591 334.602C16.2591 334.602 15.2383 355.344 15.2383 355.792C15.2383 356.24 18.623 369.182 18.623 369.182C18.623 369.182 25.9895 378.812 26.0392 378.925C26.089 379.038 33.3559 385.011 33.8041 385.259C34.252 385.508 48.1097 393.024 48.5722 393.024C49.0346 393.024 58.9895 395.746 58.9895 395.746L96.519 397.373H135.144C135.144 397.373 141.432 245.488 141.432 245.09C141.432 244.692 154.654 211.906 154.746 211.508C154.838 211.11 141.552 201.286 141.552 201.286L125.84 177.395H120.195L109.311 185.889L96.2805 195.757L83.1634 203.145L66.6023 209.915L53.1665 213.764L49.0517 216.229L48.5719 219.432Z" fill="#D1EAF2"/>
<path d="M437.235 195.487C437.235 195.487 458.887 231.649 461.192 255.82C463.091 275.734 459.731 275.396 459.731 275.396C459.731 275.396 449.214 281.678 429.493 238.144L428.324 233.031C428.324 233.031 445.708 269.845 455.641 272.474C465.575 275.104 429.493 200.892 429.493 200.892L435.036 192.711L437.235 195.487Z" fill="#529433"/>
<path d="M438.412 193.493C438.412 195.617 436.69 197.339 434.565 197.339C432.441 197.339 430.719 195.617 430.719 193.493C430.719 191.368 432.441 189.646 434.565 189.646C436.69 189.646 438.412 191.368 438.412 193.493Z" fill="#96A65F"/>
<path d="M176.422 208.73L176.404 207.537L147.25 209.023C145.274 205.59 126.541 176.76 126.226 176.401C125.878 176.003 125.46 175.753 125.023 175.603L125.026 175.59C125.019 175.588 124.975 175.578 124.898 175.562C124.747 175.517 124.593 175.484 124.44 175.461C121.503 174.812 107.973 171.778 94.0037 167.933C91.8536 167.341 89.6596 166.628 87.3368 165.874C77.9925 162.838 68.3303 159.699 60.2568 163.982C54.8777 166.836 50.995 172.614 48.3869 181.644C41.9904 203.793 45.7641 216.086 47.0958 219.379C43.7656 232.334 27.7379 295.148 21.0861 315.472L21.0302 315.643C16.1205 330.643 8.70126 353.311 19.5058 371.941C27.099 385.032 42.7629 394.106 66.0634 398.909L66.1783 398.933H135.021L178.615 360.901L176.422 208.73ZM49.8129 213.651C49.6904 204.095 49.3652 178.71 62.1986 172.135C73.6943 166.246 81.5548 169.075 90.6566 172.351C98.2878 175.098 106.305 179.474 118.043 177.663C115.086 179.554 111.045 182.689 105.695 186.884C102.252 189.584 98.691 192.377 95.5076 194.679C85.9939 201.56 62.97 209.155 62.2514 209.391C59.857 210.104 53.3064 212.198 49.8249 214.687C49.8218 214.381 49.8179 214.038 49.8129 213.651ZM49.4972 220.527C50.7185 221.115 52.4998 221.403 54.9107 221.403C55.8619 221.403 56.9115 221.358 58.0611 221.27C61.8832 220.975 65.3801 220.292 65.5271 220.263L65.5951 220.247C65.9294 220.163 66.2655 220.076 66.6024 219.989C65.918 222.718 64.3003 229.161 62.1583 237.639C54.5003 232.52 49.6871 228.178 47.9483 226.521C48.614 223.951 49.1405 221.911 49.4972 220.527ZM95.516 230.521C98.3407 231.902 101.533 233.365 105.054 234.834C105.295 241.772 105.608 249.422 106.015 257.415C99.1185 255.531 92.8808 253.333 87.3423 251.041C88.0763 242.333 88.7481 234.089 89.2908 227.322C91.2155 228.361 93.2932 229.435 95.516 230.521ZM89.4343 225.53C89.9462 219.124 90.3264 214.248 90.5107 211.87C94.8715 210.02 99.0934 207.998 103.01 205.841C103.373 206.171 103.815 206.557 104.344 206.995C104.43 212.471 104.613 221.716 104.992 233.024C101.796 231.675 98.8792 230.335 96.2807 229.066C93.8127 227.86 91.5284 226.672 89.4343 225.53ZM87.8554 224.658C82.1928 221.49 78.1245 218.778 75.9682 217.266C80.2566 215.888 84.5853 214.316 88.8068 212.582C88.6145 215.059 88.284 219.287 87.8554 224.658ZM87.7114 226.457C87.1698 233.221 86.4924 241.547 85.7498 250.371C81.623 248.608 77.8985 246.806 74.608 245.063C70.4924 242.883 66.8261 240.688 63.6111 238.598C66.1089 228.711 67.9207 221.488 68.4173 219.507C70.2592 219.006 72.1258 218.465 74.0049 217.885C75.8103 219.193 80.577 222.508 87.7114 226.457ZM63.1855 240.281C66.3083 242.294 69.8424 244.396 73.7748 246.482C77.6192 248.52 81.5679 250.397 85.6033 252.111C84.734 262.396 83.784 273.253 82.8619 283.03C78.5539 280.627 74.6256 278.219 71.1237 275.921C65.6571 272.333 60.8512 268.785 56.7675 265.54C59.0895 256.452 61.31 247.699 63.1855 240.281ZM70.1787 277.267C74.2828 279.962 78.4597 282.484 82.6913 284.831C81.5377 296.943 80.4398 307.185 79.615 312.281C75.1652 309.349 71.0589 306.457 67.366 303.726C60.8923 298.939 55.1858 294.297 50.4202 290.201C52.3519 282.765 54.3672 274.929 56.3226 267.281C60.3057 270.422 64.9408 273.827 70.1787 277.267ZM66.3609 305.027C70.2511 307.905 74.5957 310.96 79.3183 314.052C78.0104 322.014 76.6141 334.59 77.6623 348.246C70.472 343.731 64.0341 339.141 58.5258 334.898C52.2892 330.094 46.7905 325.406 42.1596 321.212C42.1909 321.098 42.2219 320.983 42.2535 320.87C44.2325 313.791 46.9814 303.42 49.9602 291.971C54.6213 295.956 60.1394 300.425 66.3609 305.027ZM57.4922 336.176C64.1954 341.341 70.999 346.07 77.8426 350.326C78.9137 361.643 81.7256 373.566 87.6902 384.126C66.7889 376.716 51.7854 368.198 41.6625 361.139C40.5911 360.392 39.5616 359.651 38.5685 358.919C36.9164 346.906 38.729 334.222 41.6795 322.992C46.2 327.062 51.5092 331.567 57.4922 336.176ZM80.8248 315.031C90.3617 321.184 101.38 327.426 113.368 332.678C115.28 343.145 117.458 350.96 119.896 356.063C122.658 361.846 125.184 366.697 127.468 370.766C109.533 365.876 93.1459 357.793 79.3946 349.325C78.215 335.78 79.528 323.171 80.8248 315.031ZM81.1169 313.265C81.1208 313.241 81.125 313.216 81.129 313.192C81.954 308.407 83.0752 298.059 84.2587 285.689C91.2083 289.457 98.3013 292.75 105.471 295.522C106.559 295.943 107.65 296.347 108.742 296.744C109.964 310.04 111.391 321.38 113.019 330.729C101.262 325.5 90.4581 319.328 81.1169 313.265ZM84.4295 283.896C85.3578 274.091 86.3174 263.156 87.1958 252.775C93.3214 255.296 99.6419 257.438 106.106 259.181C106.244 261.817 106.392 264.486 106.551 267.175C107.143 277.182 107.818 286.423 108.574 294.893C99.6271 291.592 91.5298 287.769 84.4295 283.896ZM106.738 235.526C115.604 239.119 126.406 242.671 138.593 245.058C140.491 250.22 142.409 255.632 144.302 261.222C144.514 261.848 144.727 262.482 144.941 263.119C131.043 262.74 118.584 260.71 107.708 257.867C107.3 249.963 106.983 242.401 106.738 235.526ZM106.675 233.724C106.304 222.951 106.11 214.009 106.012 208.307C107.859 209.699 110.351 211.389 113.593 213.218C117.281 215.299 122.324 217.757 128.865 220.165C131.673 226.914 134.764 234.721 137.926 243.25C125.943 240.827 115.345 237.28 106.675 233.724ZM105.977 206.175C105.965 205.415 105.956 204.744 105.948 204.161C110.4 201.52 114.359 198.699 117.547 195.758C119.378 198.732 123.224 206.755 127.989 218.072C116.538 213.679 109.56 209.014 105.977 206.175ZM105.096 201.555C105.096 201.555 84.3415 213.216 64.9855 217.69C58.8292 218.896 51.3487 219.255 50.2035 217.875C50.3614 217.58 51.3087 216.317 56.5287 214.196C59.7759 212.876 62.9867 211.916 63.0186 211.906L63.051 211.896C64.0285 211.577 87.0983 204.007 97.0481 196.81C100.273 194.478 103.855 191.669 107.317 188.953C113.096 184.421 122.139 176.731 124.249 178.135C124.263 178.144 125.3 179.488 121.66 186.522C119.136 191.403 113.208 196.636 105.096 201.555ZM50.2815 182.192C52.7338 173.701 56.2989 168.315 61.1811 165.724C68.5154 161.833 77.7744 164.841 86.7275 167.749C89.0725 168.511 91.2868 169.231 93.4805 169.835C102.857 172.415 112.036 174.632 117.968 176.011C106.595 177.841 99.0464 173.624 91.213 170.805C82.145 167.541 73.5805 164.457 61.4492 170.673C47.7087 177.712 48.0433 203.837 48.1691 213.672C48.1817 214.657 48.1932 215.597 48.1809 216.196C48.1725 216.207 48.1633 216.218 48.1552 216.229C46.7838 211.15 45.1767 199.868 50.2815 182.192ZM47.478 228.332C49.7153 230.398 54.5254 234.556 61.7308 239.33C59.8763 246.667 57.6714 255.358 55.3597 264.41C47.7411 258.239 42.9011 253.347 41.3485 251.722C43.7717 242.566 45.9237 234.321 47.478 228.332ZM40.8575 253.577C43.0003 255.763 47.8132 260.454 54.9129 266.16C52.9695 273.762 50.9626 281.571 49.0336 289.002C41.2987 282.271 36.3055 277.215 34.9053 275.768C36.9371 268.295 38.9705 260.695 40.8575 253.577ZM34.4045 277.607C36.4788 279.712 41.4122 284.581 48.5726 290.778C45.5821 302.281 42.8108 312.75 40.7985 319.97C33.377 313.154 28.405 307.815 26.4985 305.705C28.8521 297.73 31.6153 287.837 34.4045 277.607ZM23.2169 316.359L23.2728 316.188C24.064 313.771 24.9677 310.847 25.9527 307.546C28.3144 310.118 33.2654 315.321 40.3092 321.75C36.7492 334.969 35.569 346.988 36.7813 357.58C24.8517 348.483 18.9511 340.872 17.2641 338.506C18.6338 330.365 21.1526 322.666 23.2169 316.359ZM21.4963 370.787C16.066 361.424 15.5163 350.851 16.9101 340.806C19.5606 344.269 25.7768 351.463 37.083 359.866C37.2424 360.926 37.4244 361.972 37.6335 363.002C40.4306 376.767 47.6902 387.486 59.2321 394.939C40.6179 389.996 27.9364 381.891 21.4963 370.787ZM66.4134 396.632C65.6912 396.483 64.9771 396.329 64.2703 396.171L64.343 396.034C48.6327 387.705 41.3647 375.002 38.9294 361.218C39.4819 361.615 40.0453 362.015 40.6201 362.416C51.2819 369.864 63.6625 376.462 77.4179 382.028C81.1765 383.549 85.0472 384.989 89.0112 386.355C91.2678 389.996 93.927 393.449 97.049 396.632H66.4134V396.632ZM99.385 396.632C96.3556 393.72 93.7447 390.553 91.5066 387.202C102.886 390.99 115.061 394.145 127.906 396.632H99.385ZM134.653 396.201C117.557 393.238 102.772 389.312 90.0835 384.96C83.8094 374.609 80.794 362.746 79.5959 351.403C84.4089 354.337 89.2386 357.039 94.0654 359.489C105.637 365.363 117.213 369.812 128.614 372.778C134.991 383.805 139.318 388.464 141.412 390.304L134.653 396.201ZM142.67 389.206C140.936 387.709 136.914 383.561 130.857 373.341C133.845 374.068 136.819 374.697 139.777 375.218L140.063 373.599C136.558 372.982 133.102 372.222 129.697 371.35C127.228 367.048 124.451 361.787 121.379 355.356C118.969 350.311 116.934 342.683 115.214 333.476C124.893 337.598 135.171 341.051 145.79 343.269L146.126 341.66C135.255 339.39 124.736 335.813 114.861 331.542C113.069 321.471 111.635 309.673 110.486 297.366C124.009 302.116 137.796 305.048 151.545 306.081L151.668 304.442C136.559 303.306 122.656 299.933 110.317 295.531C109.236 283.616 108.418 271.285 107.8 259.63C119.93 262.758 132.574 264.482 145.496 264.782C155.188 293.96 166.259 334.375 166.85 368.113L142.67 389.206ZM168.464 366.704C167.604 333.261 156.791 293.664 147.239 264.816C148.016 264.826 148.794 264.834 149.573 264.834C150.903 264.834 152.238 264.819 153.573 264.789L153.536 263.146C151.216 263.198 148.935 263.201 146.689 263.162C146.411 262.331 146.134 261.507 145.859 260.695C144.079 255.44 142.273 250.326 140.478 245.416C144.661 246.184 148.999 246.813 153.473 247.255L153.635 245.619C148.865 245.148 144.253 244.462 139.818 243.62C136.762 235.33 133.754 227.659 130.987 220.926C137.591 223.228 145.602 225.441 155.16 227.183L155.455 225.567C145.387 223.731 137.019 221.368 130.139 218.874C125.049 206.623 120.873 197.784 118.882 194.474C121.066 192.279 122.81 190.023 123.997 187.73C125.176 185.451 126.005 183.519 126.495 181.899C135.585 193.114 145.497 210.589 145.601 210.774L145.951 211.393L174.139 209.956L176.3 359.868L168.464 366.704Z" fill="#62BDF3"/>
<path d="M152.758 130.466C152.758 130.466 139.735 111.336 131.193 103.391C122.652 95.4451 106.15 89.5153 102.376 94.4592C98.6024 99.4032 109.699 105.021 113.822 106.84C117.945 108.659 135.066 117.43 154.139 144.535C173.213 171.64 152.758 130.466 152.758 130.466Z" fill="#39A5DF"/>
<path d="M162.415 151.904C162.48 151.321 134.531 115.801 89.302 126.251C87.7997 126.598 86.4263 127.416 85.5028 128.651C84.1988 130.393 83.9503 132.713 91.2954 133.122C103.315 133.79 131.153 131.414 155.11 152.085C179.066 172.757 162.415 151.904 162.415 151.904Z" fill="#132638"/>
<path d="M162.303 155.117C161.635 155.302 144.21 138.59 115.239 141.942C91.7789 144.656 102.172 149.915 107.21 149.438C112.248 148.962 136.895 147.023 156.026 154.99C175.157 162.958 162.303 155.117 162.303 155.117Z" fill="#39A5DF"/>
<path d="M186.195 150.001C186.195 150.001 188.825 85.8696 243.459 64.2489C298.093 42.6281 334.321 95.219 340.748 150.001L324.679 156.867L322.05 150.001C322.05 150.001 323.218 65.7095 267.635 67.1705C212.682 68.6146 201.972 151.316 201.972 151.316C201.972 151.316 193.208 173.521 192.623 171.476C192.039 169.431 186.195 150.001 186.195 150.001Z" fill="#529433"/>
<path d="M431.013 190.665H373.302C371.34 190.665 369.75 192.255 369.75 194.217C369.75 196.179 371.34 197.769 373.302 197.769H431.013C432.975 197.769 434.565 196.179 434.565 194.217C434.565 192.255 432.975 190.665 431.013 190.665Z" fill="#3797DB"/>
<path d="M186.426 73.5267C186.426 73.5267 171.514 44.6441 147.769 54.3942C124.33 64.8595 134.952 95.5797 134.952 95.5797C134.952 95.5797 171.955 190.842 184.36 210.912C196.249 230.146 216.864 220.773 218.561 219.958C218.636 219.922 218.712 219.89 218.79 219.86C220.55 219.193 241.557 210.734 235.834 188.858C229.863 166.032 186.426 73.5267 186.426 73.5267Z" fill="#3797DB"/>
<path d="M255.414 129.873C255.414 129.873 260.236 132.852 260.372 132.704C260.509 132.556 261.762 132.142 261.749 131.96C261.736 131.779 262.412 128.743 262.412 128.743L258.707 125.197L255.414 129.873Z" fill="#EFAC7F"/>
<path d="M293.291 117.174C293.291 117.174 287.507 119.004 286.611 119.921C285.715 120.839 285.336 122.89 285.336 122.89L286.628 124.409L293.291 117.174Z" fill="#EFAC7F"/>
<path d="M165.717 63.5674C152.573 74.8509 148.886 92.1573 147.908 102.789C147.576 106.397 151.997 108.386 154.476 105.744C161.783 97.9589 172.285 83.7186 172.009 66.3976C171.957 63.1726 168.164 61.4665 165.717 63.5674Z" fill="#62BDF3"/>
<path opacity="0.6" d="M262.055 130.393C261.145 130.508 259.201 130.372 257.168 127.385L258.709 125.197L262.415 128.743C262.415 128.743 262.229 129.574 262.055 130.393Z" fill="#D19369"/>
<path d="M131.943 353.507C131.943 353.507 188.057 313.741 171.571 297.237C171.571 297.237 169.938 290.433 148.878 305.602C148.878 305.602 139.091 305.501 142.064 295.12C145.038 284.74 164.779 274.128 158.576 262.138C152.372 250.149 142.192 264.457 134.667 265.271C127.141 266.085 144.073 226.429 136.551 218.995C129.03 211.562 121.112 226.786 115.432 226.944C109.752 227.101 110.998 174.599 83.8967 175.211C56.7958 175.824 78.2828 202.952 86.1055 217.879C93.9279 232.806 72.1457 218.546 64.8704 231.748C57.5951 244.95 104.045 248.135 95.5345 260.486C87.0242 272.837 77.4672 260.894 71.7185 270.326C62.4237 285.575 110.028 284.08 105.208 295.118C101.365 303.919 88.0892 292.75 84.0748 299.199C80.0601 305.647 98.0136 339.77 131.943 353.507Z" fill="#529433"/>
<path opacity="0.1" d="M172.645 298.481C172.511 298.3 172.369 298.123 172.221 297.947C170.759 299.869 169.059 301.933 167.124 304.023C160.015 311.703 148.193 321.312 132.162 323.669C131.246 314.937 129.628 305.57 127.312 295.614C137.954 276.221 149.108 267.161 156.593 262.975C157.242 262.612 157.873 262.282 158.488 261.976C158.382 261.775 158.274 261.583 158.165 261.397C157.566 261.696 156.952 262.018 156.321 262.37C148.831 266.546 137.716 275.534 127.088 294.654C127.078 294.612 127.069 294.571 127.059 294.529C124.639 284.311 121.49 273.468 117.646 262.099C117.827 261.144 119.602 252.051 123.22 241.65C125.819 234.18 129.79 224.89 135.204 217.903C135.012 217.779 134.82 217.67 134.628 217.572C129.186 224.625 125.203 233.939 122.596 241.433C119.567 250.14 117.824 257.94 117.221 260.851C114.265 252.193 110.909 243.234 107.165 234.016C96.7234 208.309 85.6753 186.582 79.8134 175.554C79.5796 175.591 79.352 175.631 79.1283 175.673C84.9553 186.624 96.0594 208.431 106.552 234.265C108.317 238.609 110.109 243.183 111.885 247.934C109.674 246.723 103.038 243.222 94.065 239.712C86.5049 236.755 76.0881 233.344 64.925 231.653C64.9071 231.685 64.8887 231.716 64.8711 231.748C64.7735 231.925 64.6877 232.099 64.6094 232.273C75.7906 233.942 86.2409 237.363 93.8134 240.324C104.083 244.339 111.273 248.34 112.24 248.887C116.155 259.427 119.974 270.808 123.216 282.455C109.019 275.56 83.6701 272.632 71.0772 271.556C70.983 271.774 70.9008 271.988 70.8309 272.198C83.4699 273.269 109.391 276.237 123.454 283.31C128.025 299.894 131.401 316.984 132.204 332.924C119.11 330.717 106.258 320.197 97.745 311.706C92.4789 306.453 88.1863 301.318 85.4309 297.82C85.2458 297.935 85.0694 298.068 84.9014 298.216C87.6685 301.729 91.9807 306.889 97.2706 312.166C105.885 320.76 118.919 331.418 132.239 333.601C132.554 340.454 132.385 347.089 131.625 353.374C131.732 353.417 131.836 353.463 131.943 353.507C131.943 353.507 132.069 353.418 132.305 353.247C133.331 344.609 133.304 334.943 132.231 324.33C133.276 324.177 134.316 323.993 135.351 323.776C141.38 322.514 147.223 320.17 152.761 316.79C158.022 313.579 163.023 309.429 167.623 304.458C169.523 302.404 171.196 300.376 172.645 298.481Z" fill="white"/>
<path d="M43.6384 248.247C55.6735 241.806 60.1504 260.842 61.1273 266.01C66.1946 266.744 70.7841 267.802 74.8746 269.031C71.1087 263.623 64.5646 261.861 63.3478 257.826C61.9834 253.302 63.8354 247.793 71.8826 252.334C78.259 255.933 77.1848 265.646 76.4635 269.527C83.502 271.785 88.9786 274.501 92.8401 276.778C89.4928 269.979 82.1792 267.163 81.3424 262.443C80.427 257.278 83.1846 251.447 91.4639 257.5C98.3075 262.503 95.3489 273.785 94.1167 277.551C97.5923 279.707 99.4647 281.323 99.6633 281.497C103.46 284.742 106.925 288.05 110.091 291.383C107.294 285.333 101.589 281.779 101.436 277.412C101.252 272.17 104.799 266.782 112.15 273.934C117.965 279.592 114.084 289.691 112.208 293.664C118.642 300.763 123.741 307.936 127.79 314.831C127.399 308.681 122.288 300.191 123.946 294.462C125.035 290.704 127.705 289.795 129.769 289.698C131.533 289.615 133.207 290.338 134.386 291.652C141.053 299.08 131.584 312.28 128.544 316.129C133.421 324.669 136.689 332.738 138.877 339.654C138.703 336.472 138.418 331.67 138.156 329.182C137.744 325.26 139.254 319.758 142.314 317.528C142.442 317.435 142.569 317.349 142.696 317.269C145.126 315.73 148.313 316.35 150.238 318.488C157.768 326.849 142.957 339.625 139.675 342.283C139.689 342.331 139.704 342.381 139.718 342.429C144.784 359.972 144.021 372.347 143.986 372.865L142.071 372.736C142.079 372.616 142.795 360.834 138.272 344.376C120.29 342.422 115.305 332.137 117.741 328.303C120.259 324.342 127.25 322.888 130.45 330.314C132.306 334.622 135.257 338.717 137.411 341.399C135.285 334.419 132.02 326.141 127.025 317.346C103.543 322.82 101.483 308.009 106.27 304.544C111.116 301.036 115.013 303.174 118.844 308.784C121.388 312.51 124.535 314.965 126.367 316.199C122.421 309.424 117.439 302.364 111.152 295.368C108.305 298.584 100.431 306.306 92.8672 303.123C83.4144 299.146 86.9907 293.778 91.8883 291.901C96.3912 290.176 102.62 295.061 110.234 294.356C106.703 290.509 102.78 286.686 98.4048 282.947C98.3349 282.885 94.5783 279.642 87.4557 276.087C85.0064 279.669 78.2 288.228 70.3334 286.038C60.4537 283.288 63.3229 277.511 67.944 275.03C72.0677 272.817 78.5901 276.574 85.7932 275.279C79.6785 272.406 71.4045 269.475 61.1443 267.953C58.5751 271.651 51.8792 279.836 44.1691 277.689C34.2894 274.939 37.1586 269.161 41.78 266.681C45.9616 264.437 52.6095 268.336 59.9337 266.877L59.9605 266.675C57.414 265.585 52.0025 263.289 49.3567 262.323C45.8257 261.034 41.8625 257.403 41.416 253.792C40.9703 250.182 43.6384 248.247 43.6384 248.247Z" fill="#3B77BE"/>
<path d="M144.949 368.575C144.949 368.575 135.375 326.879 87.7067 303.198L89.667 318.796L82.2516 301.418C82.2516 301.418 53.9887 288.826 31.9492 285.318C31.9492 285.318 60.0942 327.895 69.0847 335.21L84.603 338.566L71.9053 344.572C71.9053 344.572 87.0421 368.634 110.806 378.45C134.569 388.265 144.949 368.575 144.949 368.575Z" fill="#132638"/>
<path d="M28.957 353.798C35.1844 367.157 43.4067 376.781 52.6109 383.62C57.957 380.364 64.3971 376.612 64.3971 376.612L59.1707 387.945C96.6907 409.801 145.609 392.503 145.609 392.503C132.409 362.9 115.841 348.192 99.3705 341.9C96.4809 345.329 92.2409 350.478 92.2409 350.478L93.9825 340.129C85.7172 337.847 77.5732 337.523 69.9929 338.329C69.12 343.713 67.9899 349.8 67.9899 349.8L62.74 339.456C43.2121 343.432 28.957 353.798 28.957 353.798Z" fill="#132638"/>
<path d="M99.3705 341.9C96.4809 345.329 92.2409 350.478 92.2409 350.478L93.9825 340.129C85.7172 337.847 77.5732 337.523 69.9929 338.329C69.12 343.713 67.9899 349.8 67.9899 349.8L62.74 339.456C43.2123 343.432 28.957 353.798 28.957 353.798C70.6189 383.343 145.609 392.503 145.609 392.503C132.409 362.901 115.841 348.192 99.3705 341.9Z" fill="#39A5DF"/>
<path d="M181.389 99.3332C168.245 110.617 164.558 127.923 163.58 138.555C163.248 142.163 167.668 144.151 170.148 141.509C177.454 133.725 187.957 119.484 187.681 102.163C187.629 98.9384 183.836 97.2319 181.389 99.3332Z" fill="#62BDF3"/>
<path d="M199.974 138.683C186.831 149.966 183.144 167.273 182.166 177.905C181.834 181.512 186.255 183.501 188.734 180.859C196.04 173.074 206.543 158.834 206.266 141.513C206.215 138.288 202.422 136.582 199.974 138.683Z" fill="#62BDF3"/>
<path d="M331.877 136.68C330.438 137.876 329.116 140.363 327.716 142.997C325.631 146.919 323.269 151.364 319.003 155.02C314.285 159.063 308.747 160.744 304.298 162.094C303.212 162.424 302.164 162.742 301.186 163.075L277.023 156.1C281.038 151.526 286.078 147.855 291.723 145.504C294.082 144.522 296.457 143.801 298.553 143.164C301.646 142.226 304.567 141.339 306.132 139.999C307.557 138.777 308.865 136.316 310.249 133.712C312.277 129.897 314.8 125.15 319.237 121.463C325.228 116.487 332.455 115.227 338.263 114.215C342.325 113.507 346.162 112.839 348.059 111.206C349.081 110.326 350.174 108.618 351.331 106.809C352.061 105.669 352.816 104.49 353.697 103.269C357.749 97.6518 363.189 93.1289 369.356 90.0647L371.724 98.1931L372.388 88.7016C376.444 87.0592 380.751 86.0275 385.141 85.7068C385.844 85.6553 386.499 85.6246 387.133 85.5946C388.151 85.5466 397.592 84.3691 400.526 86.7368C404.568 89.9984 405.169 95.555 402.702 99.524L393.845 97.758L399.545 102.632C399.304 102.777 399.057 102.918 398.798 103.045C398.067 103.405 397.298 103.73 396.491 104.01C393.335 105.107 390.412 105.245 388.063 105.355C387.532 105.38 387.03 105.404 386.582 105.436C380.034 105.915 373.58 109.519 369.739 114.843C369.179 115.619 368.602 116.52 367.991 117.474C367.041 118.96 365.959 120.649 364.627 122.334L354.295 121.392L362.055 125.198C361.707 125.536 361.345 125.87 360.967 126.196C354.935 131.39 347.573 132.673 341.658 133.704C337.624 134.407 333.814 135.07 331.877 136.68Z" fill="#39A5DF"/>
<path opacity="0.2" d="M371.339 101.221C345.21 121.863 352.803 120.359 329.408 128.815C311.605 135.25 310.654 156.208 295.711 161.495L301.186 163.075C302.164 162.743 303.212 162.424 304.298 162.094C308.747 160.744 314.285 159.063 319.003 155.02C323.269 151.365 325.632 146.919 327.716 142.997C329.116 140.363 330.438 137.876 331.877 136.68C333.814 135.071 337.624 134.408 341.658 133.704C347.573 132.674 354.935 131.391 360.967 126.196C361.345 125.87 361.706 125.537 362.055 125.199L354.295 121.393L364.627 122.335C365.959 120.65 367.04 118.961 367.991 117.475C368.602 116.521 369.179 115.62 369.738 114.844C373.58 109.52 380.033 105.915 386.581 105.437C387.03 105.404 387.531 105.381 388.062 105.356C390.412 105.245 393.335 105.108 396.491 104.011C397.298 103.73 398.067 103.406 398.798 103.046C399.057 102.918 399.304 102.778 399.545 102.633L393.844 97.7589L402.702 99.5249C404.379 96.827 404.636 93.3963 403.361 90.4506C395.334 89.2511 384.379 90.9201 371.339 101.221Z" fill="#132638"/>
<path d="M355.254 83.1611C354.543 86.3293 353.676 90.1814 351.814 94.0131C345.967 95.3929 334.547 98.0923 335.838 97.8196C337.049 97.5644 344.776 97.9745 349.294 98.243C344.709 104.649 338.186 108.393 332.821 111.472C328.674 113.852 324.757 116.099 323.272 118.637C322.169 120.524 321.709 123.781 321.223 127.23C320.499 132.366 319.677 138.187 316.452 143.9C312.885 150.218 307.477 154.271 303.132 157.527C301.362 158.853 299.69 160.106 298.343 161.343C298.096 161.571 297.855 161.806 297.618 162.045L273.988 155.225C276.331 151.192 279.266 147.501 282.716 144.331C284.914 142.312 287.234 140.574 289.281 139.04C292.301 136.777 295.154 134.639 296.337 132.544C297.414 130.635 297.869 127.413 298.35 124.002C299.055 119.008 299.932 112.791 303.332 106.976C307.923 99.1254 315.354 94.8617 321.325 91.4357C325.502 89.0395 329.447 86.7761 330.877 84.2275C331.648 82.8541 332.167 80.544 332.717 78.0977C333.063 76.5557 333.421 74.9608 333.902 73.2689C337.611 60.2027 346.84 48.9603 358.858 42.6961L362.644 45.8618L361.622 41.3649C362.296 41.0665 362.936 40.7984 363.555 40.5397C364.654 40.0809 374.546 35.0245 378.711 36.4539C386.539 39.1406 389.049 49.0739 383.315 55.0426C382.656 55.729 381.942 56.3914 381.168 57.0211C378.141 59.483 374.987 60.7996 372.453 61.8574C371.88 62.0967 371.339 62.3227 370.86 62.5371C363.863 65.6723 358.217 72.2017 356.123 79.5768C355.818 80.6511 355.544 81.8704 355.254 83.1611Z" fill="#39A5DF"/>
<path opacity="0.2" d="M349.988 65.1725C332.959 90.831 341.655 91.6226 326.796 103.831C311.936 116.04 308.992 113.815 306.972 131.792C306.028 140.191 296.567 150.407 286.754 158.91L297.617 162.045C297.854 161.806 298.095 161.571 298.342 161.344C299.689 160.107 301.361 158.853 303.131 157.527C307.476 154.271 312.884 150.219 316.451 143.9C319.676 138.187 320.497 132.366 321.222 127.23C321.709 123.781 322.168 120.524 323.271 118.637C324.756 116.099 328.673 113.852 332.82 111.472C338.185 108.394 344.708 104.649 349.293 98.2431C344.775 97.9744 337.048 97.5642 335.838 97.8197C334.546 98.0924 345.966 95.3933 351.813 94.0132C353.674 90.1815 354.542 86.3291 355.254 83.1612C355.544 81.8705 355.818 80.6509 356.122 79.5769C358.216 72.2018 363.863 65.6724 370.859 62.5372C371.338 62.3228 371.879 62.0969 372.452 61.8575C374.986 60.7998 378.14 59.4831 381.167 57.0212C381.942 56.3915 382.655 55.7289 383.314 55.0427C386.501 51.7258 387.14 47.1852 385.737 43.3438C374.752 45.1637 359.768 50.4365 349.988 65.1725Z" fill="#132638"/>
<path d="M334.842 153.54C333.573 154.216 332.191 155.882 330.728 157.646C329.54 159.078 328.265 160.613 326.74 162.051L300.723 154.542C301.556 154.304 302.398 154.096 303.251 153.932C305.179 153.559 307.079 153.386 308.755 153.234C311.229 153.009 313.565 152.797 314.951 152.031C316.214 151.333 317.581 149.685 319.028 147.941C321.147 145.386 323.785 142.206 327.697 140.122C332.98 137.309 338.615 137.486 343.143 137.629C346.31 137.728 349.302 137.822 350.983 136.888C351.889 136.385 352.977 135.27 354.13 134.09C354.856 133.345 355.607 132.575 356.461 131.793C363.509 125.333 373.377 122.221 382.856 123.471C383.394 123.541 383.892 123.62 384.373 123.696C385.147 123.819 392.435 124.402 394.274 126.64C397.732 130.848 395.709 137.28 390.436 138.644C389.83 138.801 389.201 138.926 388.55 139.011C386.004 139.345 383.783 138.994 381.998 138.711C381.594 138.647 381.213 138.587 380.871 138.542C375.869 137.883 370.451 139.591 366.732 143C366.19 143.496 365.616 144.085 365.007 144.708C364.816 144.904 364.618 145.107 364.416 145.312L357.925 143.672L361.759 147.808C360.756 148.653 359.635 149.472 358.364 150.178C353.017 153.148 347.277 152.968 342.665 152.823C339.521 152.724 336.55 152.631 334.842 153.54Z" fill="#39A5DF"/>
<path opacity="0.2" d="M366.985 134.355C347.91 143.285 345.356 145.105 335.868 146.605C329.154 147.667 321.288 155.074 317.262 159.315L326.741 162.052C328.266 160.613 329.541 159.078 330.729 157.647C332.192 155.883 333.574 154.217 334.843 153.54C336.551 152.631 339.521 152.725 342.666 152.823C347.278 152.968 353.017 153.149 358.365 150.178C359.635 149.472 360.757 148.653 361.76 147.808L357.925 143.673L364.416 145.313C364.619 145.107 364.817 144.905 365.008 144.709C365.616 144.086 366.191 143.497 366.732 143C370.452 139.591 375.869 137.883 380.871 138.543C381.214 138.588 381.595 138.648 381.998 138.712C383.783 138.995 386.005 139.346 388.551 139.012C389.202 138.926 389.83 138.802 390.436 138.645C393.315 137.9 395.221 135.645 395.8 133.066C387.215 130.939 376.377 129.959 366.985 134.355Z" fill="#132638"/>
<path d="M285.421 120.394C285.421 120.394 272.222 132.858 266.958 131.496C266.958 131.496 265.535 131.389 262.78 130.514C262.78 130.514 259.983 132.77 255.649 128.425L252.713 127.784C252.713 127.784 249.006 126.913 244.366 132.146C243.316 133.517 242.377 134.792 241.538 135.978C241.452 136.105 241.367 136.227 241.282 136.343C231.375 150.491 236.07 151.616 236.119 151.567L261.738 155.052L262.64 151.33L263.833 145.248C263.833 145.248 280.645 139.938 289.57 125.09L285.421 120.394Z" fill="#132638"/>
<path d="M261.738 155.052C261.976 154.274 262.182 153.486 262.389 152.699C262.587 151.91 262.774 151.117 262.953 150.323C263.134 149.529 263.289 148.729 263.44 147.929C263.587 147.128 263.728 146.326 263.851 145.52C264.08 143.907 264.266 142.285 264.328 140.654C264.374 139.028 264.353 137.376 263.953 135.791C264.103 136.591 264.169 137.402 264.183 138.213C264.204 139.024 264.181 139.835 264.132 140.645C264.076 141.454 264.01 142.262 263.92 143.069C263.831 143.876 263.719 144.68 263.598 145.482C263.368 147.09 263.073 148.688 262.761 150.282C262.606 151.08 262.441 151.876 262.268 152.67C262.102 153.467 261.921 154.259 261.738 155.052Z" fill="white"/>
<path d="M361.786 113.041C361.786 113.041 350.246 112.018 343.818 118.593C337.391 125.166 325.12 143.281 321.614 162.272C318.108 181.264 273.895 152.582 273.895 152.582C273.895 152.582 290.645 99.991 324.73 93.1734C324.73 93.1734 333.739 91.2743 340.897 94.4884C348.055 97.7021 352.875 101.501 360.618 99.1631C360.618 99.1631 359.4 107.198 361.786 113.041Z" fill="#3797DB"/>
<path d="M361.786 113.041C361.786 113.041 370.599 112.749 374.787 107.782C374.787 107.782 376.345 94.5369 374.203 94.1474C372.06 93.7579 370.514 94.8291 368.56 95.511C366.606 96.1927 360.836 96.9832 360.617 99.163C360.617 99.163 359.595 106.321 361.786 113.041Z" fill="#9ED16F"/>
<path opacity="0.3" d="M336.603 102.631C345.872 103.642 354.759 104.273 360.333 105.36C360.202 101.911 360.618 99.1631 360.618 99.1631C352.875 101.501 348.055 97.7021 340.896 94.4884C333.739 91.2743 324.73 93.1734 324.73 93.1734C290.645 99.9907 273.895 152.582 273.895 152.582C273.895 152.582 279.635 156.305 287.142 160.181C300.253 112.432 324.436 101.304 336.603 102.631Z" fill="#3B77BE"/>
<path d="M361.784 113.042C361.233 111.693 360.876 110.227 360.65 108.77C357.486 108.224 348.286 107.286 340.632 112.935C331.304 119.821 315.588 126.272 301.129 166.352C310.989 169.784 320.098 170.475 321.612 162.273C325.118 143.282 337.389 125.167 343.816 118.593C350.244 112.019 361.784 113.042 361.784 113.042Z" fill="#62BDF3"/>
<path d="M433.841 390.681H370.475C369.028 390.681 367.855 389.508 367.855 388.061V198.94C367.855 197.493 369.028 196.32 370.475 196.32H433.841C435.288 196.32 436.46 197.493 436.46 198.94V388.061C436.46 389.508 435.288 390.681 433.841 390.681Z" fill="#62BDF3"/>
<path opacity="0.3" d="M425.411 275.189C422.437 275.189 420.027 272.779 420.027 269.805V208.222C420.027 205.249 422.437 202.839 425.411 202.839C428.384 202.839 430.794 205.249 430.794 208.222V269.805C430.794 272.779 428.384 275.189 425.411 275.189Z" fill="white"/>
<path opacity="0.5" d="M385.573 196.32H370.475C369.028 196.32 367.855 197.493 367.855 198.94V388.061C367.855 389.508 369.028 390.681 370.475 390.681H433.841C435.288 390.681 436.46 389.508 436.46 388.061V293.88C399.646 295.271 388.605 239.598 385.573 196.32Z" fill="#3797DB"/>
<path d="M451.311 242.101C442.138 245.76 435.388 250.896 430.464 256.794C432.439 260.494 434.705 264.944 434.705 264.944L427.322 261.018C411.277 285.29 420.993 318.673 420.993 318.673C441.297 310.965 451.764 300.439 456.598 289.659C454.414 287.595 451.13 284.563 451.13 284.563L457.987 286.121C459.827 280.678 460.353 275.242 460.101 270.14C456.533 269.352 452.503 268.365 452.503 268.365L459.623 265.245C457.704 252.031 451.311 242.101 451.311 242.101Z" fill="#39A5DF"/>
<path d="M456.597 289.659C454.413 287.596 451.129 284.564 451.129 284.564L457.987 286.121C459.826 280.679 460.352 275.242 460.101 270.14C456.532 269.352 452.503 268.366 452.503 268.366L459.622 265.246C457.703 252.03 451.31 242.101 451.31 242.101C429.965 268.852 420.992 318.673 420.992 318.673C441.296 310.965 451.763 300.439 456.597 289.659Z" fill="#132638"/>
<path d="M530.062 263.264C509.497 260.148 491.764 262.294 476.537 267.77C476.189 276.597 475.568 287.097 475.568 287.097L466.331 272.102C411.338 299.128 393.457 370.135 393.457 370.135C438.558 377.744 468.785 369.759 489.043 355.315C487.272 349.242 484.532 340.235 484.532 340.235L495.334 350.366C504.472 342.434 511.214 333.116 516.187 323.577C510.542 318.345 504.27 312.262 504.27 312.262L520.528 314.172C531.109 288.115 530.062 263.264 530.062 263.264Z" fill="#39A5DF"/>
<path d="M489.043 355.316C487.272 349.242 484.532 340.236 484.532 340.236L495.334 350.367C504.472 342.434 511.214 333.116 516.187 323.577C510.542 318.345 504.27 312.262 504.27 312.262L520.528 314.172C531.108 288.115 530.062 263.264 530.062 263.264C462.797 289.152 393.457 370.135 393.457 370.135C438.558 377.743 468.785 369.759 489.043 355.316Z" fill="#132638"/>
<path d="M543.443 307.279C536.409 298.153 526.37 311.257 523.829 314.897C519.674 313.707 515.775 312.932 512.2 312.462C516.972 309.603 522.62 310.513 524.953 307.828C527.57 304.817 528.052 299.935 520.285 300.645C514.13 301.207 511.594 309.056 510.805 312.293C504.605 311.594 499.449 311.788 495.688 312.203C500.619 308.129 507.224 308.494 509.503 305.15C511.996 301.492 511.892 296.048 503.423 297.84C496.422 299.321 494.793 309.031 494.437 312.356C491.015 312.812 489.014 313.408 488.801 313.473C484.754 314.656 480.942 316.003 477.351 317.472C481.599 313.784 487.221 313.024 488.851 309.715C490.808 305.743 489.943 300.368 481.808 303.327C475.372 305.669 474.863 314.787 474.931 318.495C467.519 321.732 461.11 325.488 455.607 329.393C458.037 324.795 464.911 320.029 465.619 315.045C466.082 311.775 464.342 310.15 462.786 309.361C461.457 308.686 459.918 308.663 458.555 309.266C450.851 312.675 453.569 326.116 454.576 330.131C447.864 335.016 442.555 340.096 438.476 344.663C439.712 342.273 441.594 338.675 442.657 336.851C444.333 333.975 445.075 329.216 443.492 326.44C443.426 326.324 443.358 326.214 443.288 326.108C441.949 324.082 439.282 323.456 437.06 324.435C428.368 328.264 435.346 343.228 436.952 346.41C436.924 346.442 436.895 346.475 436.868 346.508C426.894 358.258 423.195 368.049 423.043 368.46L424.562 369.024C424.597 368.928 428.126 359.611 437.307 348.508C451.826 353.231 459.225 347.04 458.677 343.245C458.111 339.324 453.233 335.783 448.198 340.392C445.278 343.066 441.587 345.195 439.001 346.515C443.054 341.877 448.434 336.636 455.325 331.595C471.506 343.941 478.221 333.253 475.735 328.927C473.22 324.549 469.479 324.846 464.588 327.838C461.339 329.825 458.066 330.625 456.229 330.94C461.613 327.091 467.892 323.382 475.155 320.174C476.233 323.635 479.62 332.306 486.544 332.476C495.199 332.688 494.304 327.317 491.184 324.176C488.315 321.289 481.829 322.892 476.212 319.713C480.262 317.974 484.605 316.39 489.268 315.026C489.344 315.003 493.358 313.808 500.072 313.537C500.717 317.143 502.993 326.089 509.807 327.127C518.365 328.432 518.156 322.991 515.458 319.481C513.05 316.349 506.728 316.983 501.631 313.491C507.334 313.397 514.718 314.006 523.143 316.387C523.84 320.124 526.16 328.744 532.839 329.761C541.397 331.065 541.189 325.625 538.491 322.114C536.049 318.939 529.581 319.638 524.448 315.978L524.497 315.814C526.835 315.857 531.796 315.963 534.167 316.136C537.331 316.367 541.64 314.943 543.234 312.319C544.827 309.693 543.443 307.279 543.443 307.279Z" fill="#62BDF3"/>
<path d="M515.325 358.141C504.454 349.634 493.503 345.09 482.916 343.29C479.836 348.279 476.053 354.146 476.053 354.146L475.604 342.466C435.003 340.153 401.512 375.366 401.512 375.366C425.1 394.472 445.177 399.715 461.597 397.973C462.553 393.884 463.906 387.785 463.906 387.785L466.847 397.164C474.715 395.559 481.652 392.371 487.637 388.479C486.08 383.614 484.438 378.053 484.438 378.053L493.213 384.459C507.826 372.847 515.325 358.141 515.325 358.141Z" fill="#39A5DF"/>
<path d="M461.597 397.973C462.553 393.884 463.906 387.785 463.906 387.785L466.847 397.164C474.715 395.559 481.651 392.371 487.636 388.479C486.079 383.614 484.438 378.052 484.438 378.052L493.213 384.458C507.826 372.847 515.325 358.141 515.325 358.141C468.001 351.168 401.512 375.365 401.512 375.365C425.1 394.472 445.176 399.715 461.597 397.973Z" fill="#132638"/>
<path d="M417.652 163.877H386.662C385.067 163.877 383.773 165.17 383.773 166.766V168.567C383.773 169.1 384.205 169.532 384.738 169.532H419.576C420.109 169.532 420.541 169.1 420.541 168.567V166.766C420.541 165.17 419.247 163.877 417.652 163.877Z" fill="#39A5DF"/>
<path d="M431.249 169.531H373.067C370.189 169.531 367.855 171.865 367.855 174.743V187.499C367.855 190.377 370.189 192.71 373.067 192.71H431.249C434.127 192.71 436.461 190.377 436.461 187.499V174.743C436.46 171.865 434.127 169.531 431.249 169.531Z" fill="#3B77BE"/>
<path d="M350.864 150.001H150.23C147.129 150.001 144.563 152.413 144.373 155.509L129.757 392.702C129.549 396.079 132.232 398.932 135.615 398.932H365.479C368.862 398.932 371.545 396.079 371.337 392.702L356.721 155.509C356.531 152.414 353.965 150.001 350.864 150.001Z" fill="#9ED16F"/>
<g opacity="0.8">
<path d="M414.03 309.554V310.8C414.03 312.29 413.45 313.691 412.397 314.744L410.072 317.07C408.083 319.059 406.988 321.705 406.988 324.519V384.973C406.988 391.963 412.672 397.649 419.659 397.649H446.565C453.552 397.649 459.235 391.963 459.235 384.973V324.519C459.235 321.705 458.141 319.06 456.152 317.07L453.827 314.744C452.774 313.69 452.194 312.29 452.194 310.8V309.554H414.03Z" fill="#D1EAF2"/>
</g>
<path d="M456.403 332.686V382.008C456.403 388.561 451.19 393.874 444.759 393.874H436.353H430.026H421.62C415.19 393.874 409.977 388.561 409.977 382.008V332.301L456.403 332.686Z" fill="#9ED16F"/>
<path d="M413.702 328.673C418.598 328.498 430.224 332.257 434.858 332.432C439.491 332.607 444.474 329.285 450.943 329.809C455.518 330.18 456.353 331.776 456.449 332.678C456.489 333.052 456.301 333.411 455.976 333.6C455.145 334.081 453.008 334.963 448.757 334.705C442.987 334.355 433.984 338.901 429.088 339.338C424.551 339.743 415.792 338.872 411.028 334.429C410.009 333.478 409.602 332.008 410.119 330.714C410.525 329.698 411.499 328.752 413.702 328.673Z" fill="#529433"/>
<path d="M405.598 384.662V324.817C405.598 321.572 406.861 318.521 409.156 316.226L411.458 313.923C412.176 313.206 412.571 312.252 412.571 311.237V308.281H453.811V311.237C453.811 312.252 454.206 313.206 454.923 313.923L457.226 316.226C459.52 318.521 460.784 321.572 460.784 324.817V384.662C460.784 392.531 454.383 398.933 446.514 398.933H419.868C411.999 398.933 405.598 392.53 405.598 384.662ZM414.294 310.003V311.237C414.294 312.712 413.719 314.098 412.676 315.141L410.374 317.444C408.405 319.413 407.32 322.032 407.32 324.817V384.662C407.32 391.581 412.949 397.21 419.868 397.21H446.514C453.433 397.21 459.062 391.581 459.062 384.662V324.817C459.062 322.032 457.978 319.413 456.008 317.444L453.706 315.141C452.663 314.098 452.089 312.712 452.089 311.237V310.003H414.294Z" fill="#D1EAF2"/>
<g opacity="0.5">
<path d="M451.703 359.665C452.536 359.671 453.216 359.002 453.222 358.17C453.269 351.67 453.434 326.835 453.204 324.242C452.976 321.657 450.58 320.107 448.89 319.328C448.056 318.943 447.076 319.397 446.819 320.279L446.818 320.283C446.61 320.999 446.956 321.756 447.631 322.071C448.798 322.617 450.113 323.504 450.202 324.508C450.39 326.636 450.293 346.628 450.208 358.148C450.202 358.979 450.871 359.658 451.703 359.665Z" fill="#D1EAF2"/>
</g>
<path d="M442.195 384.445C442.195 386.136 443.566 387.506 445.257 387.506C446.948 387.506 448.319 386.136 448.319 384.445C448.319 382.753 446.948 381.383 445.257 381.383C443.566 381.383 442.195 382.753 442.195 384.445Z" fill="#96A65F"/>
<path d="M439.391 375.386C439.391 376.266 440.105 376.98 440.985 376.98C441.866 376.98 442.58 376.266 442.58 375.386C442.58 374.505 441.866 373.791 440.985 373.791C440.105 373.791 439.391 374.505 439.391 375.386Z" fill="#96A65F"/>
<path d="M428.637 385.338C428.637 386.219 429.351 386.933 430.232 386.933C431.112 386.933 431.826 386.219 431.826 385.338C431.826 384.457 431.112 383.743 430.232 383.743C429.351 383.743 428.637 384.457 428.637 385.338Z" fill="#96A65F"/>
<path d="M444.559 374.888C444.559 375.114 444.741 375.296 444.967 375.296C445.192 375.296 445.374 375.114 445.374 374.888C445.374 374.663 445.192 374.48 444.967 374.48C444.741 374.48 444.559 374.663 444.559 374.888Z" fill="#96A65F"/>
<path d="M421.555 379.227C421.555 379.521 421.793 379.759 422.088 379.759C422.382 379.759 422.621 379.521 422.621 379.227C422.621 378.932 422.382 378.693 422.088 378.693C421.793 378.693 421.555 378.932 421.555 379.227Z" fill="#F4A640"/>
<path d="M426.059 370.283C426.059 370.811 426.487 371.24 427.015 371.24C427.544 371.24 427.972 370.811 427.972 370.283C427.972 369.755 427.544 369.326 427.015 369.326C426.487 369.326 426.059 369.755 426.059 370.283Z" fill="#F4A640"/>
<path d="M444.008 364.045C444.008 364.573 444.436 365.002 444.965 365.002C445.493 365.002 445.922 364.573 445.922 364.045C445.922 363.516 445.493 363.088 444.965 363.088C444.436 363.088 444.008 363.516 444.008 364.045Z" fill="#96A65F"/>
<path d="M441.992 365.964C441.992 366.166 442.156 366.33 442.358 366.33C442.56 366.33 442.724 366.166 442.724 365.964C442.724 365.762 442.56 365.599 442.358 365.599C442.156 365.599 441.992 365.762 441.992 365.964Z" fill="#96A65F"/>
<path d="M445.855 368.136C445.855 368.701 446.314 369.16 446.879 369.16C447.444 369.16 447.903 368.701 447.903 368.136C447.903 367.571 447.444 367.112 446.879 367.112C446.314 367.112 445.855 367.571 445.855 368.136Z" fill="#96A65F"/>
<path d="M414.047 378.34C414.047 380.02 415.409 381.382 417.089 381.382C418.77 381.382 420.132 380.02 420.132 378.34C420.132 376.659 418.77 375.297 417.089 375.297C415.409 375.297 414.047 376.659 414.047 378.34Z" fill="#F4A640"/>
<path d="M420.926 373.193C420.926 373.928 421.521 374.523 422.256 374.523C422.99 374.523 423.585 373.928 423.585 373.193C423.585 372.459 422.99 371.863 422.256 371.863C421.521 371.863 420.926 372.459 420.926 373.193Z" fill="#F4A640"/>
<path d="M414.047 366.355C414.047 367.543 415.01 368.507 416.198 368.507C417.386 368.507 418.35 367.543 418.35 366.355C418.35 365.167 417.386 364.204 416.198 364.204C415.01 364.204 414.047 365.167 414.047 366.355Z" fill="#F4A640"/>
<path d="M411.642 310.003H455.086C456.823 310.003 458.232 308.595 458.232 306.857V305.598C458.232 303.861 456.823 302.452 455.086 302.452H411.642C409.904 302.452 408.496 303.861 408.496 305.598V306.857C408.496 308.595 409.905 310.003 411.642 310.003Z" fill="#9CDEDC"/>
<path opacity="0.2" d="M411.069 307.876H455.659C457.08 307.876 458.232 306.725 458.232 305.304V307.43C458.232 308.851 457.08 310.003 455.659 310.003H411.069C409.648 310.003 408.496 308.851 408.496 307.43V305.304C408.496 306.725 409.648 307.876 411.069 307.876Z" fill="#74BDC1"/>
<g opacity="0.3">
<path opacity="0.5" d="M454.954 310.004H455.656V302.453H454.954V310.004Z" fill="#74BDC1"/>
<path opacity="0.5" d="M450.958 310.004H451.66V302.453H450.958V310.004Z" fill="#74BDC1"/>
<path opacity="0.5" d="M446.961 310.004H447.664V302.453H446.961V310.004Z" fill="#74BDC1"/>
<path opacity="0.5" d="M442.961 310.004H443.664V302.453H442.961V310.004Z" fill="#74BDC1"/>
<path opacity="0.5" d="M438.965 310.004H439.668V302.453H438.965V310.004Z" fill="#74BDC1"/>
<path opacity="0.5" d="M434.969 310.004H435.672V302.453H434.969V310.004Z" fill="#74BDC1"/>
<path opacity="0.5" d="M430.969 310.004H431.672V302.453H430.969V310.004Z" fill="#74BDC1"/>
<path opacity="0.5" d="M426.973 310.004H427.676V302.453H426.973V310.004Z" fill="#74BDC1"/>
<path opacity="0.5" d="M422.977 310.004H423.68V302.453H422.977V310.004Z" fill="#74BDC1"/>
<path d="M418.977 310.004H419.68V302.453H418.977V310.004Z" fill="#F4A640"/>
<path d="M414.981 310.004H415.684V302.453H414.981V310.004Z" fill="#F4A640"/>
<path d="M410.985 310.004H411.688V302.453H410.985V310.004Z" fill="#F4A640"/>
</g>
<path d="M169.105 150.001C169.105 150.001 171.735 85.8696 226.369 64.2489C281.003 42.6281 317.231 95.219 323.658 150.001L307.589 156.867L304.96 150.001C304.96 150.001 306.129 65.7095 250.545 67.1705C195.592 68.6146 184.882 151.316 184.882 151.316C184.882 151.316 176.117 173.521 175.533 171.476C174.949 169.431 169.105 150.001 169.105 150.001Z" fill="#9ED16F"/>
<path opacity="0.3" d="M369.435 361.835C188.696 366.034 187.804 201.687 191.975 150.001H150.23C147.129 150.001 144.564 152.413 144.373 155.509L129.757 392.702C129.549 396.079 132.232 398.932 135.615 398.932H365.479C368.862 398.932 371.545 396.079 371.337 392.702L369.435 361.835Z" fill="#529433"/>
<g opacity="0.8">
<path d="M359.484 280.484V282.136C359.484 284.111 358.716 285.967 357.321 287.363L354.239 290.445C351.604 293.082 350.152 296.587 350.152 300.316V380.433C350.152 389.696 357.685 397.232 366.944 397.232H402.601C411.86 397.232 419.393 389.696 419.393 380.433V300.316C419.393 296.587 417.941 293.082 415.306 290.445L412.225 287.363C410.829 285.967 410.061 284.11 410.061 282.136V280.484H359.484Z" fill="#D1EAF2"/>
</g>
<path d="M353.906 311.141V376.505C353.906 385.19 360.815 392.23 369.337 392.23H380.477H388.861H400.002C408.524 392.23 415.433 385.19 415.433 376.505V310.631L353.906 311.141Z" fill="#62BDF3"/>
<path d="M410.493 305.823C404.005 305.591 388.597 310.573 382.457 310.805C376.317 311.037 369.714 306.634 361.141 307.329C355.076 307.821 353.971 309.936 353.843 311.132C353.79 311.626 354.039 312.103 354.47 312.352C355.57 312.991 358.403 314.159 364.037 313.817C371.683 313.354 383.615 319.378 390.103 319.957C396.115 320.494 407.723 319.34 414.038 313.451C415.388 312.192 415.926 310.243 415.242 308.529C414.704 307.181 413.413 305.928 410.493 305.823Z" fill="#3797DB"/>
<path d="M402.322 398.933H367.009C356.581 398.933 348.098 390.449 348.098 380.021V300.712C348.098 296.412 349.772 292.368 352.813 289.327L355.865 286.275C356.816 285.325 357.339 284.06 357.339 282.715V278.798H411.992V282.715C411.992 284.061 412.515 285.325 413.466 286.275L416.517 289.327C419.558 292.368 421.233 296.411 421.233 300.712V380.021C421.234 390.449 412.75 398.933 402.322 398.933ZM359.622 281.081V282.715C359.622 284.67 358.861 286.508 357.479 287.89L354.428 290.941C351.818 293.551 350.38 297.022 350.38 300.713V380.021C350.38 389.191 357.84 396.651 367.009 396.651H402.322C411.491 396.651 418.951 389.191 418.951 380.021V300.713C418.951 297.022 417.514 293.551 414.904 290.941L411.853 287.89C410.471 286.508 409.709 284.67 409.709 282.715V281.081H359.622Z" fill="#D1EAF2"/>
<g opacity="0.5">
<path d="M360.136 346.894C359.032 346.903 358.131 346.016 358.123 344.913C358.06 336.299 357.842 303.386 358.146 299.951C358.449 296.524 361.624 294.471 363.863 293.438C364.969 292.929 366.268 293.53 366.608 294.699L366.61 294.704C366.885 295.652 366.427 296.655 365.532 297.073C363.986 297.796 362.242 298.972 362.125 300.303C361.875 303.123 362.003 329.618 362.117 344.884C362.125 345.986 361.238 346.885 360.136 346.894Z" fill="#D1EAF2"/>
</g>
<path d="M372.729 379.733C372.729 381.974 370.912 383.791 368.671 383.791C366.43 383.791 364.613 381.974 364.613 379.733C364.613 377.492 366.43 375.675 368.671 375.675C370.912 375.675 372.729 377.492 372.729 379.733Z" fill="#3797DB"/>
<path d="M376.449 367.728C376.449 368.896 375.503 369.842 374.336 369.842C373.169 369.842 372.223 368.896 372.223 367.728C372.223 366.561 373.169 365.615 374.336 365.615C375.503 365.616 376.449 366.561 376.449 367.728Z" fill="#3797DB"/>
<path d="M390.7 380.916C390.7 382.084 389.753 383.03 388.586 383.03C387.419 383.03 386.473 382.084 386.473 380.916C386.473 379.749 387.419 378.803 388.586 378.803C389.753 378.803 390.7 379.749 390.7 380.916Z" fill="#3797DB"/>
<path d="M369.601 367.07C369.601 367.369 369.359 367.611 369.06 367.611C368.761 367.611 368.52 367.369 368.52 367.07C368.52 366.772 368.761 366.529 369.06 366.529C369.359 366.529 369.601 366.771 369.601 367.07Z" fill="#3797DB"/>
<path d="M400.089 372.819C400.089 373.209 399.772 373.525 399.382 373.525C398.992 373.525 398.676 373.209 398.676 372.819C398.676 372.429 398.992 372.112 399.382 372.112C399.772 372.112 400.089 372.429 400.089 372.819Z" fill="#3797DB"/>
<path d="M394.114 360.965C394.114 361.666 393.547 362.233 392.846 362.233C392.146 362.233 391.578 361.666 391.578 360.965C391.578 360.265 392.146 359.697 392.846 359.697C393.546 359.697 394.114 360.265 394.114 360.965Z" fill="#3797DB"/>
<path d="M370.329 352.699C370.329 353.399 369.761 353.967 369.061 353.967C368.361 353.967 367.793 353.399 367.793 352.699C367.793 351.998 368.361 351.431 369.061 351.431C369.761 351.431 370.329 351.998 370.329 352.699Z" fill="#3797DB"/>
<path d="M373 355.242C373 355.51 372.783 355.727 372.516 355.727C372.248 355.727 372.031 355.51 372.031 355.242C372.031 354.975 372.248 354.758 372.516 354.758C372.783 354.758 373 354.975 373 355.242Z" fill="#3797DB"/>
<path d="M367.882 358.121C367.882 358.87 367.274 359.478 366.525 359.478C365.775 359.478 365.168 358.87 365.168 358.121C365.168 357.371 365.775 356.764 366.525 356.764C367.274 356.764 367.882 357.371 367.882 358.121Z" fill="#3797DB"/>
<path d="M410.033 371.643C410.033 373.87 408.227 375.675 406.001 375.675C403.774 375.675 401.969 373.87 401.969 371.643C401.969 369.416 403.774 367.61 406.001 367.61C408.227 367.61 410.033 369.416 410.033 371.643Z" fill="#3797DB"/>
<path d="M400.915 364.822C400.915 365.795 400.126 366.585 399.153 366.585C398.18 366.585 397.391 365.795 397.391 364.822C397.391 363.849 398.18 363.06 399.153 363.06C400.126 363.06 400.915 363.849 400.915 364.822Z" fill="#3797DB"/>
<path d="M410.034 355.762C410.034 357.336 408.758 358.613 407.183 358.613C405.609 358.613 404.332 357.336 404.332 355.762C404.332 354.187 405.609 352.91 407.183 352.91C408.758 352.91 410.034 354.187 410.034 355.762Z" fill="#3797DB"/>
<path d="M413.377 281.08H355.495C353.278 281.08 351.48 279.282 351.48 277.065V275.088C351.48 272.871 353.278 271.073 355.495 271.073H413.377C415.595 271.073 417.392 272.871 417.392 275.088V277.065C417.392 279.282 415.595 281.08 413.377 281.08Z" fill="#39A5DF"/>
<path d="M413.983 278.262H354.89C353.007 278.262 351.48 276.736 351.48 274.853V277.671C351.48 279.554 353.007 281.08 354.89 281.08H413.983C415.866 281.08 417.393 279.554 417.393 277.671V274.853C417.393 276.736 415.866 278.262 413.983 278.262Z" fill="#39A5DF"/>
<g opacity="0.3">
<path d="M355.822 271.073H354.891V281.081H355.822V271.073Z" fill="#39A5DF"/>
<path d="M361.119 271.073H360.188V281.081H361.119V271.073Z" fill="#39A5DF"/>
<path d="M366.416 271.073H365.484V281.081H366.416V271.073Z" fill="#39A5DF"/>
<path d="M371.716 271.073H370.785V281.081H371.716V271.073Z" fill="#39A5DF"/>
<path d="M377.013 271.073H376.082V281.081H377.013V271.073Z" fill="#39A5DF"/>
<path d="M382.31 271.073H381.379V281.081H382.31V271.073Z" fill="#39A5DF"/>
<path d="M387.607 271.073H386.676V281.081H387.607V271.073Z" fill="#39A5DF"/>
<path d="M392.904 271.073H391.973V281.081H392.904V271.073Z" fill="#39A5DF"/>
<path d="M398.201 271.073H397.27V281.081H398.201V271.073Z" fill="#39A5DF"/>
<path d="M403.501 271.073H402.57V281.081H403.501V271.073Z" fill="#39A5DF"/>
<path d="M408.798 271.073H407.867V281.081H408.798V271.073Z" fill="#39A5DF"/>
<path d="M414.095 271.073H413.164V281.081H414.095V271.073Z" fill="#39A5DF"/>
</g>
<path d="M279.883 265.71L308.489 252.281L323.085 278.846L324.107 285.123L316.955 301.908L295.802 297.889L279.883 265.71Z" fill="#3B77BE"/>
<path d="M269.667 295.777H305.888C312.202 295.777 318.175 292.488 321.202 286.946C322.445 284.67 323.25 281.966 323.086 278.846C323.086 278.846 336.514 319.423 304.988 324.677H269.667V330.661L250.109 311.686L269.813 290.523L269.667 295.777Z" fill="#3797DB"/>
<path d="M235.735 296.557L233.955 328.11L203.647 328.328L197.639 326.245L186.27 311.975L199.857 295.272L235.735 296.557Z" fill="#3B77BE"/>
<path d="M214.138 273.278L196.925 305.149C193.924 310.706 193.98 317.524 197.418 322.821C198.829 324.996 200.826 326.99 203.649 328.328C203.649 328.328 161.567 320.86 171.926 290.623L188.711 259.545L183.446 256.701L209.435 248.509L218.692 275.904L214.138 273.278Z" fill="#3797DB"/>
<path d="M233.96 248.696L206.809 232.526L220.632 205.551L225.257 201.188L243.166 197.706L251.691 217.478L233.96 248.696Z" fill="#3B77BE"/>
<path d="M264.589 240.31L244.293 210.309C240.754 205.078 234.683 201.975 228.397 202.573C225.816 202.819 223.125 203.667 220.633 205.551C220.633 205.551 246.715 171.692 268.733 194.86L288.525 224.116L293.481 220.763L288.725 247.595L260.155 243.134L264.589 240.31Z" fill="#3797DB"/>
<path d="M519.591 399H1.62667C0.728342 399 0 398.271 0 397.373C0 396.474 0.728342 395.746 1.62667 395.746H519.591C520.49 395.746 521.218 396.474 521.218 397.373C521.218 398.271 520.49 399 519.591 399Z" fill="#62BDF3"/>
<path opacity="0.9" d="M130.871 17.2421C131.603 14.056 134.454 11.6794 137.862 11.6794C138.487 11.6794 139.094 11.7599 139.673 11.9103C141.355 8.3135 145.005 5.82082 149.238 5.82082C150.332 5.82082 151.388 5.98747 152.38 6.29671C154.659 2.52316 158.799 0 163.529 0C169.156 0 173.949 3.5714 175.765 8.57157C177.05 7.85467 178.53 7.44505 180.106 7.44505C185.039 7.44505 189.037 11.4437 189.037 16.3762C189.037 16.6687 189.022 16.9575 188.995 17.2427H130.871V17.2421Z" fill="#D1EAF2"/>
<path opacity="0.9" d="M448.324 101.207C449.053 98.0325 451.894 95.6642 455.289 95.6642C455.912 95.6642 456.517 95.7445 457.093 95.8943C458.769 92.3106 462.406 89.8272 466.623 89.8272C467.714 89.8272 468.766 89.9933 469.754 90.3011C472.024 86.5416 476.149 84.0273 480.862 84.0273C486.468 84.0273 491.243 87.5856 493.053 92.567C494.333 91.8529 495.808 91.4447 497.378 91.4447C502.293 91.4447 506.276 95.4285 506.276 100.343C506.276 100.634 506.261 100.922 506.234 101.206H448.324V101.207Z" fill="#D1EAF2"/>
<path opacity="0.9" d="M15.9336 115.546C16.6628 112.372 19.5032 110.004 22.8988 110.004C23.522 110.004 24.1268 110.084 24.7033 110.234C26.3792 106.65 30.0158 104.167 34.2332 104.167C35.3236 104.167 36.3752 104.333 37.3641 104.641C39.6344 100.881 43.7592 98.3672 48.4715 98.3672C54.0779 98.3672 58.8531 101.926 60.6623 106.907C61.9431 106.193 63.4174 105.785 64.9879 105.785C69.902 105.785 73.8856 109.769 73.8856 114.683C73.8856 114.974 73.8705 115.262 73.8434 115.546H15.9336V115.546Z" fill="#D1EAF2"/>
<path opacity="0.9" d="M425.098 66.0115C425.383 64.7667 426.498 63.8381 427.829 63.8381C428.073 63.8381 428.31 63.8694 428.537 63.9282C429.194 62.5229 430.62 61.549 432.274 61.549C432.701 61.549 433.114 61.6141 433.502 61.7346C434.392 60.2603 436.01 59.2744 437.857 59.2744C440.056 59.2744 441.929 60.6699 442.638 62.6235C443.14 62.3433 443.719 62.1834 444.334 62.1834C446.261 62.1834 447.824 63.7456 447.824 65.6729C447.824 65.7872 447.818 65.9002 447.807 66.0115H425.098Z" fill="#D1EAF2"/>
<path opacity="0.9" d="M68.2305 79.6349C68.5165 78.3901 69.6304 77.4616 70.9618 77.4616C71.2065 77.4616 71.4433 77.4932 71.6695 77.5519C72.3265 76.1466 73.753 75.1727 75.4068 75.1727C75.8343 75.1727 76.2467 75.2376 76.6348 75.3587C77.525 73.8843 79.1424 72.8984 80.9905 72.8984C83.189 72.8984 85.0617 74.2937 85.7713 76.2473C86.2734 75.9674 86.8516 75.8072 87.4676 75.8072C89.3948 75.8072 90.9569 77.3693 90.9569 79.2966C90.9569 79.411 90.951 79.524 90.9401 79.6352H68.2305V79.6349Z" fill="white"/>
<path opacity="0.9" d="M241.609 35.6546C242.016 33.8869 243.597 32.568 245.488 32.568C245.835 32.568 246.172 32.6127 246.493 32.6961C247.426 30.7002 249.452 29.3176 251.8 29.3176C252.407 29.3176 252.993 29.4099 253.544 29.5816C254.808 27.4879 257.105 26.0879 259.73 26.0879C262.852 26.0879 265.511 28.0694 266.518 30.8437C267.232 30.4461 268.053 30.2185 268.927 30.2185C271.664 30.2185 273.883 32.4372 273.883 35.1739C273.883 35.3361 273.874 35.4963 273.859 35.6546H241.609Z" fill="#D1EAF2"/>
<path d="M286.146 120.91C286.09 120.915 286.036 120.92 285.984 120.925C285.985 120.981 285.985 121.013 285.985 121.013L286.851 122.031C287.001 122.063 287.095 122.081 287.095 122.081C287.095 122.081 288.779 122.013 289.788 122.517C290.798 123.021 289.692 120.608 286.146 120.91Z" fill="#EFAC7F"/>
<path d="M250.951 134.555C250.503 135.531 250.044 136.501 249.573 137.465C249.105 138.431 248.625 139.391 248.147 140.351L246.695 143.224L245.967 144.659C245.723 145.136 245.482 145.615 245.262 146.105C245.62 145.091 246.072 144.113 246.522 143.139C246.975 142.165 247.448 141.202 247.927 140.241C248.409 139.282 248.899 138.327 249.402 137.379C249.902 136.429 250.419 135.487 250.951 134.555Z" fill="white"/>
<path d="M243.23 146.181C244.573 145.982 245.936 145.93 247.294 145.956C248.653 145.986 250.011 146.111 251.354 146.333C252.696 146.558 254.022 146.876 255.317 147.296L256.28 147.638C256.36 147.669 256.44 147.69 256.52 147.73L256.75 147.838L257.209 148.059C257.513 148.21 257.815 148.365 258.114 148.526C258.413 148.687 258.708 148.856 258.99 149.044C258.396 148.718 257.78 148.437 257.158 148.169L256.692 147.967L256.459 147.869C256.386 147.835 256.3 147.816 256.221 147.788L255.258 147.479C253.963 147.1 252.646 146.795 251.314 146.576C249.983 146.351 248.636 146.217 247.287 146.148C246.612 146.121 245.936 146.097 245.26 146.105C244.583 146.104 243.907 146.129 243.23 146.181Z" fill="white"/>
<path d="M261.65 149.75C260.248 148.915 258.458 148.911 256.998 149.123C256.928 149.138 256.857 149.152 256.786 149.167C255.64 149.408 255.684 150.033 255.769 150.318C255.794 150.405 255.877 150.464 255.974 150.468C256.151 150.475 256.379 150.489 256.687 150.524C258.481 150.729 256.675 152.794 257.375 152.828C258.26 152.872 258.094 150.934 258.555 150.985C259.422 151.081 258.315 152.76 258.886 152.88C259.511 153.01 259.069 150.923 260.065 151.019C260.6 151.07 259.858 152.942 260.489 152.828C261.153 152.709 260.655 151.019 261.263 151.07C262.163 151.146 260.987 152.766 261.65 152.88C262.049 152.948 262.644 150.342 261.65 149.75Z" fill="#EFAC7F"/>
<path d="M267.956 121.245C267.57 122.085 267.803 123.016 268.475 123.325C269.147 123.633 270.005 123.202 270.39 122.361C270.776 121.521 270.543 120.59 269.871 120.281C269.198 119.973 268.341 120.404 267.956 121.245Z" fill="#D19369"/>
<path d="M267.498 126.238C267.726 125.878 267.923 125.495 268.085 125.091C268.542 124.008 268.799 122.849 268.942 121.834C268.972 121.616 269.016 121.401 269.063 121.186C269.253 120.319 269.29 119.393 269.126 118.431C268.598 115.337 266.051 112.914 262.934 112.548C258.735 112.054 255.109 115.229 254.932 119.341C254.496 119.073 253.996 118.995 253.546 119.173C252.682 119.515 252.328 120.668 252.756 121.749C253.184 122.829 254.231 123.427 255.095 123.085C255.215 123.037 255.324 122.973 255.424 122.897C255.63 126.411 258.38 129.235 261.821 129.325C263.503 129.37 265.055 128.752 266.248 127.701C266.328 127.64 266.411 127.569 266.5 127.485C266.887 127.117 267.216 126.694 267.498 126.238Z" fill="#EFAC7F"/>
<path d="M261.319 120.237C261.31 120.582 261.023 120.854 260.678 120.844C260.333 120.835 260.062 120.548 260.071 120.204C260.08 119.859 260.367 119.587 260.711 119.596C261.056 119.605 261.328 119.892 261.319 120.237Z" fill="#333333"/>
<path d="M266.67 120.73C266.661 121.074 266.374 121.346 266.03 121.337C265.685 121.328 265.413 121.041 265.422 120.697C265.431 120.352 265.718 120.08 266.063 120.089C266.408 120.098 266.679 120.385 266.67 120.73Z" fill="#333333"/>
<path d="M262.105 119.019C261.802 118.886 261.513 118.777 261.222 118.7C260.932 118.624 260.642 118.587 260.355 118.594C260.07 118.605 259.781 118.64 259.498 118.74L259.39 118.771C259.354 118.782 259.32 118.8 259.284 118.813L259.068 118.896C258.922 118.955 258.785 119.033 258.625 119.09C258.72 118.957 258.826 118.826 258.945 118.71C259.076 118.609 259.199 118.485 259.354 118.413C259.647 118.234 259.999 118.15 260.347 118.139C260.697 118.131 261.046 118.214 261.35 118.368C261.651 118.525 261.923 118.738 262.105 119.019Z" fill="#282828"/>
<path d="M264.613 119.214C264.837 118.965 265.138 118.795 265.459 118.687C265.783 118.581 266.141 118.553 266.485 118.616C266.828 118.68 267.163 118.817 267.424 119.039C267.567 119.135 267.669 119.275 267.783 119.395C267.883 119.529 267.968 119.674 268.041 119.821C267.891 119.74 267.768 119.641 267.633 119.561L267.432 119.445C267.399 119.427 267.368 119.404 267.334 119.387L267.231 119.34C266.968 119.198 266.688 119.119 266.407 119.064C266.125 119.012 265.833 119.004 265.535 119.035C265.235 119.066 264.933 119.129 264.613 119.214Z" fill="#282828"/>
<path d="M263.376 119.72C263.595 120.056 263.784 120.409 263.956 120.77C264.129 121.132 264.281 121.503 264.402 121.891C264.459 122.086 264.51 122.284 264.529 122.498C264.532 122.552 264.533 122.607 264.528 122.666C264.525 122.695 264.518 122.727 264.512 122.757C264.5 122.79 264.493 122.822 264.47 122.855C264.459 122.872 264.447 122.888 264.434 122.904L264.404 122.932C264.383 122.95 264.364 122.97 264.342 122.986C264.299 123.017 264.257 123.05 264.212 123.076C264.037 123.19 263.85 123.272 263.661 123.343C263.472 123.412 263.279 123.471 263.082 123.51C263.438 123.33 263.798 123.151 264.101 122.919C264.14 122.891 264.173 122.859 264.208 122.828L264.256 122.781L264.279 122.757C264.281 122.752 264.283 122.748 264.285 122.744C264.308 122.705 264.309 122.605 264.297 122.519C264.274 122.337 264.225 122.147 264.167 121.962C264.055 121.587 263.915 121.217 263.78 120.844C263.642 120.473 263.503 120.1 263.376 119.72Z" fill="#D19369"/>
<path d="M257.696 110.492C257.696 110.492 259.858 108.893 264.427 109.557C268.996 110.221 269.672 112.768 269.649 116.324L269.223 120.189C269.223 120.189 267.953 119.143 266.681 115.504C266.681 115.504 263.871 118.272 262.78 117.826C261.689 117.381 263.404 115.363 263.404 115.363C263.404 115.363 258.014 119.648 254.929 119.386C254.929 119.386 253.511 113.741 255.963 111.931C255.963 111.931 254.23 111.874 254.167 111.516C254.104 111.157 255.061 110.708 256.704 111.043C256.704 111.043 255.713 108.557 256.393 108.363C257.073 108.169 257.696 110.492 257.696 110.492Z" fill="#282828"/>
<path d="M264.86 125.017C264.577 125.746 263.623 126.207 262.56 126.078C261.497 125.948 260.682 125.271 260.582 124.495L264.86 125.017Z" fill="white"/>
<path d="M337.726 391.402V388.057L333.899 386.997L333.048 387.371L332.902 391.402L334.108 394.915L337.726 391.402Z" fill="#EFAC7F"/>
<path d="M313.273 391.402V388.057L309.446 386.997L308.595 387.371L308.449 391.402L309.654 394.915L313.273 391.402Z" fill="#EFAC7F"/>
<path d="M309.91 282.718C309.91 282.718 304.889 288.684 293.064 289.736C281.24 290.789 290.093 297.033 290.093 297.033C290.093 297.033 304.343 299.085 309.321 295.742C314.299 292.398 309.91 282.718 309.91 282.718Z" fill="#39A5DF"/>
<path d="M304.949 322.797L307.664 388.981H313.988L319.56 338.956L312.254 316.544L304.949 322.797Z" fill="#132638"/>
<path d="M307.664 322.938L332.436 388.981L338.503 388.486C338.503 388.486 330.951 327.936 326.431 322.178C321.912 316.421 312.006 317.659 312.006 317.659L307.664 322.938Z" fill="#132638"/>
<path d="M321.488 271.492C321.488 271.492 322.805 264.659 318.956 262.256C315.107 259.852 311.14 260.277 308.49 261.895C305.838 263.513 304.419 268.873 305.748 271.858L314.63 268.643L321.488 271.492Z" fill="#282828"/>
<path d="M310.414 282.779C310.414 282.779 313.474 284.593 315.858 282.779L315.296 278.352L310.553 277.374L310.414 282.779Z" fill="#EFAC7F"/>
<path d="M307.274 271.351C307.547 272.184 307.211 273.031 306.523 273.243C305.835 273.456 305.056 272.952 304.783 272.119C304.509 271.286 304.845 270.439 305.533 270.226C306.221 270.014 307.001 270.517 307.274 271.351Z" fill="#D19369"/>
<path d="M307.126 276.091C306.947 275.727 306.802 275.344 306.693 274.947C306.38 273.879 306.269 272.761 306.251 271.792C306.247 271.584 306.231 271.377 306.211 271.17C306.129 270.334 306.204 269.46 306.478 268.577C307.358 265.734 310.113 263.752 313.176 263.767C317.303 263.786 320.437 267.183 320.119 271.062C320.574 270.861 321.067 270.845 321.482 271.064C322.279 271.484 322.484 272.608 321.941 273.572C321.398 274.537 320.312 274.978 319.516 274.557C319.405 274.499 319.307 274.426 319.22 274.343C318.602 277.617 315.602 279.951 312.258 279.641C310.623 279.489 309.193 278.731 308.162 277.608C308.093 277.542 308.02 277.465 307.945 277.376C307.613 276.986 307.345 276.551 307.126 276.091Z" fill="#EFAC7F"/>
<path d="M313.366 271.249C313.334 271.573 313.579 271.861 313.914 271.893C314.249 271.924 314.547 271.686 314.579 271.361C314.611 271.037 314.366 270.749 314.031 270.718C313.696 270.687 313.398 270.924 313.366 271.249Z" fill="#333333"/>
<path d="M308.581 271.016C308.549 271.341 308.794 271.629 309.129 271.661C309.464 271.691 309.762 271.454 309.794 271.129C309.826 270.805 309.58 270.516 309.246 270.485C308.911 270.454 308.613 270.692 308.581 271.016Z" fill="#333333"/>
<path d="M312.75 270.016C313.059 269.925 313.352 269.856 313.643 269.818C313.933 269.779 314.218 269.777 314.496 269.817C314.771 269.86 315.047 269.926 315.308 270.053L315.41 270.094C315.444 270.109 315.474 270.13 315.507 270.146L315.707 270.25C315.841 270.322 315.964 270.411 316.112 270.483C316.036 270.347 315.949 270.212 315.847 270.089C315.732 269.979 315.628 269.85 315.486 269.764C315.223 269.563 314.892 269.443 314.557 269.394C314.219 269.345 313.871 269.383 313.559 269.493C313.248 269.605 312.96 269.774 312.75 270.016Z" fill="#282828"/>
<path d="M310.752 269.829C310.565 269.57 310.294 269.377 309.995 269.238C309.694 269.102 309.351 269.035 309.01 269.054C308.671 269.074 308.33 269.165 308.05 269.343C307.901 269.416 307.785 269.536 307.66 269.636C307.547 269.75 307.448 269.876 307.359 270.005C307.514 269.946 307.645 269.868 307.785 269.808L307.993 269.721C308.028 269.708 308.06 269.69 308.095 269.678L308.2 269.646C308.472 269.542 308.753 269.5 309.032 269.481C309.312 269.465 309.596 269.491 309.881 269.555C310.168 269.618 310.453 269.712 310.752 269.829Z" fill="#282828"/>
<path d="M311.706 269.814C311.799 270.231 311.82 270.657 311.79 271.085C311.775 271.3 311.742 271.514 311.684 271.73C311.621 271.944 311.54 272.163 311.369 272.364L311.295 272.435L311.23 272.496C311.202 272.525 311.163 272.547 311.143 272.579C311.09 272.637 311.054 272.702 311.034 272.772C310.985 272.91 311.034 273.073 311.123 273.224C311.318 273.531 311.703 273.733 312.114 273.867C311.684 273.896 311.191 273.785 310.861 273.412C310.7 273.231 310.592 272.962 310.648 272.689C310.661 272.622 310.681 272.556 310.715 272.497C310.741 272.433 310.782 272.38 310.824 272.327C310.862 272.271 310.916 272.235 310.963 272.189C310.992 272.163 310.997 272.154 311.013 272.139L311.053 272.1C311.16 271.979 311.24 271.8 311.307 271.619C311.378 271.437 311.418 271.238 311.469 271.041C311.557 270.642 311.626 270.232 311.706 269.814Z" fill="#D19369"/>
<path d="M309.824 274.688C310.028 275.411 310.92 275.946 311.98 275.928C313.039 275.91 313.91 275.344 314.088 274.614L309.824 274.688Z" fill="white"/>
<path d="M319.941 271.274C320.34 270.901 320.657 270.915 320.657 270.915L320.385 268.732L319.653 267.439C319.653 267.439 316.848 263.992 316.75 263.907C316.653 263.823 314.574 262.754 314.446 262.7C314.319 262.646 311.485 263.187 311.485 263.187C311.485 263.187 306.432 262.359 307.38 264.947C308.329 267.536 312.042 268.767 312.226 268.643C311.609 268.079 311.482 266.412 311.482 266.412C314.184 269.122 319.165 270.993 319.941 271.274Z" fill="#282828"/>
<path d="M303.048 395.747L313.605 395.74C313.922 395.74 314.179 395.482 314.179 395.165V395.136C314.179 394.818 313.921 394.561 313.604 394.562L303.047 394.568C302.73 394.568 302.473 394.825 302.473 395.143V395.172C302.473 395.49 302.73 395.747 303.048 395.747Z" fill="#3797DB"/>
<path d="M313.641 390.982L314.031 394.259C314.079 394.662 313.853 395.03 313.556 395.03L303.241 395.036C302.973 395.036 302.708 394.869 302.567 394.555C302.422 394.233 302.393 393.747 302.855 393.094C303.751 391.824 306.643 391.486 308.167 390.443C308.255 390.383 308.358 390.351 308.465 390.351L313.1 390.349C313.369 390.349 313.597 390.617 313.641 390.982Z" fill="#132638"/>
<path d="M327.372 395.747L337.929 395.74C338.246 395.74 338.503 395.482 338.503 395.165V395.136C338.503 394.818 338.246 394.561 337.928 394.562L327.371 394.568C327.054 394.568 326.797 394.825 326.797 395.143V395.172C326.797 395.49 327.055 395.747 327.372 395.747Z" fill="#3797DB"/>
<path d="M337.965 390.982L338.356 394.259C338.404 394.662 338.178 395.03 337.881 395.03L327.565 395.036C327.297 395.036 327.032 394.869 326.891 394.555C326.747 394.233 326.717 393.747 327.179 393.094C328.075 391.824 330.968 391.486 332.491 390.443C332.579 390.383 332.683 390.351 332.789 390.351L337.424 390.349C337.693 390.349 337.922 390.617 337.965 390.982Z" fill="#132638"/>
<path d="M272.508 287.611L272.886 287.537L293.978 283.437C296.272 282.991 298.464 284.577 298.758 286.895L305.209 337.814C305.424 339.508 304.553 341.155 303.028 341.925C299.537 343.687 292.731 346.717 284.505 348.316C276.28 349.916 268.834 349.656 264.937 349.331C263.234 349.188 261.81 347.987 261.374 346.336L248.279 296.708C247.683 294.449 249.122 292.157 251.415 291.711L272.508 287.611Z" fill="#D1EAF2"/>
<path d="M244.954 285.996C245.113 283.865 246.259 282.251 247.831 281.946L270.547 277.529L270.926 277.456L293.642 273.039C295.214 272.734 296.881 273.801 297.826 275.716L300.976 282.102C301.859 283.893 300.797 286.034 298.837 286.415L273.62 291.318L273.242 291.391L248.025 296.294C246.065 296.675 244.279 295.088 244.427 293.096L244.954 285.996Z" fill="#132638"/>
<path d="M247.153 278.285C246.971 277.345 247.584 276.435 248.524 276.253L269.506 272.173L269.884 272.1L290.865 268.02C291.805 267.838 292.715 268.451 292.897 269.391L293.89 274.495L270.738 277.504L248.146 283.388L247.153 278.285Z" fill="#132638"/>
<path d="M301.664 295.88L304.188 319.105C304.231 319.5 304.025 319.879 303.669 320.055C301.301 321.22 292.06 325.529 280.511 327.775C268.963 330.02 258.78 329.487 256.149 329.293C255.753 329.264 255.42 328.99 255.312 328.608L248.95 306.129C248.779 305.521 249.237 304.917 249.869 304.927C261.539 305.111 289.611 299.653 300.362 295.11C300.944 294.864 301.596 295.252 301.664 295.88Z" fill="#62BDF3"/>
<path d="M289.008 314.901C289.516 309.808 285.799 305.269 280.707 304.761C275.615 304.253 271.075 307.97 270.568 313.063C270.06 318.155 273.777 322.695 278.869 323.202C283.961 323.71 288.501 319.993 289.008 314.901Z" fill="#D1EAF2"/>
<path d="M288.197 305.196C288.309 305.295 288.267 305.479 288.123 305.518C287.007 305.82 283.5 306.794 283.512 307.096C283.526 307.454 286.681 306.66 286.866 306.938C287.051 307.215 283.954 307.912 284.032 308.293C284.109 308.674 286.912 307.944 287 308.093C287.089 308.242 284.478 309.228 284.39 309.48C284.301 309.731 287.216 309.018 287.375 309.168C287.534 309.318 285.686 310.48 285.767 310.65C285.848 310.82 285.874 310.947 290.783 309.524L292.692 308.881L293.967 307.515L293.012 305.481C293.012 305.481 286.864 303.144 286.643 303.302C286.433 303.451 286.477 303.67 288.197 305.196Z" fill="#FFC0BB"/>
<path d="M292.012 302.986C294.437 303.565 300.143 303.276 304.466 302.936C304.5 299.362 304.637 296.034 304.951 293.699C306.066 285.403 309.91 282.718 309.91 282.718C313.742 283.174 316.404 281.131 316.404 281.131C321.543 281.193 324.514 283.979 324.514 283.979C332.409 290.788 326.433 304.719 326.433 304.719L328.6 323.124C323.709 324.796 303.713 323.791 303.713 323.791C303.713 323.791 304.691 317.93 304.547 311.964C298.21 311.609 292.012 310.601 292.012 310.601C291.765 309.239 292.012 302.986 292.012 302.986Z" fill="#39A5DF"/>
<path d="M318.406 290.583C318.419 293.338 317.211 295.993 315.305 297.887C314.353 298.841 313.247 299.636 312.053 300.267C310.86 300.897 309.601 301.416 308.291 301.775C308.128 301.823 307.968 301.88 307.803 301.921L307.309 302.043C306.978 302.122 306.65 302.211 306.317 302.282L305.314 302.47L304.812 302.564L304.306 302.635C303.631 302.731 302.957 302.834 302.276 302.883L301.256 302.977C300.915 303.003 300.574 303.016 300.233 303.036C297.502 303.178 294.757 303.125 292.012 302.986C294.736 303.341 297.49 303.54 300.25 303.47C303.004 303.395 305.78 303.1 308.448 302.31C309.784 301.931 311.081 301.396 312.305 300.728C313.522 300.051 314.666 299.215 315.618 298.187C316.101 297.682 316.522 297.119 316.9 296.533C317.264 295.936 317.577 295.311 317.826 294.66C318.06 294.005 318.236 293.33 318.34 292.646C318.444 291.963 318.483 291.267 318.406 290.583Z" fill="#132638"/>
<path d="M292.012 310.6C295.004 311.271 298.047 311.718 301.106 311.988C304.166 312.259 307.248 312.339 310.323 312.15C313.39 311.94 316.478 311.483 319.385 310.403C320.836 309.868 322.233 309.156 323.467 308.219C324.691 307.276 325.754 306.098 326.433 304.719C325.643 306.035 324.56 307.147 323.306 307.998C322.06 308.863 320.672 309.504 319.238 309.993C317.803 310.481 316.321 310.833 314.822 311.083C313.323 311.336 311.807 311.501 310.287 311.594C307.246 311.792 304.188 311.737 301.138 311.556C299.613 311.461 298.089 311.335 296.568 311.175C295.045 311.025 293.527 310.827 292.012 310.6Z" fill="#132638"/>
<path d="M59.082 88.948L62.2045 101.953L68.5211 92.1506L90.1277 68.0498L70.0558 77.9671C70.0558 77.9671 60.4484 84.624 60.0746 85.3641C59.7008 86.1042 59.082 88.948 59.082 88.948Z" fill="#132638"/>
<path d="M47.4023 85.0211L90.1297 68.207L59.3779 88.9073L47.4023 85.0211Z" fill="#39A5DF"/>
<path d="M77.778 96.0402L62.9375 91.3006L90.1248 68.0498L77.778 96.0402Z" fill="#39A5DF"/>
<path d="M31.8885 175.556L32.132 174.502C31.0402 174.25 29.9705 173.837 28.9517 173.275L28.4297 174.222C29.5358 174.832 30.6994 175.281 31.8885 175.556Z" fill="#39A5DF"/>
<path d="M19.3569 163.467L20.3332 163.002C21.3987 165.241 22.599 167.205 23.9003 168.842L23.0539 169.515C21.7016 167.814 20.4576 165.779 19.3569 163.467ZM16.6202 155.959C16.3742 154.934 16.1815 153.876 16.0476 152.817C15.924 151.841 15.8477 150.84 15.8203 149.842L16.9015 149.812C16.9278 150.775 17.0013 151.74 17.1204 152.681C17.2496 153.702 17.4352 154.72 17.6721 155.707C17.7417 155.997 17.8158 156.286 17.8943 156.574L16.8509 156.859C16.7679 156.555 16.6904 156.252 16.6202 155.959ZM16.3868 142.786C16.798 140.548 17.4338 138.257 18.2768 135.98L19.2906 136.355C18.4692 138.575 17.8502 140.804 17.4501 142.982L16.3868 142.786ZM47.6092 128.45C47.5362 128.436 47.4638 128.42 47.3911 128.404L47.6282 127.349C47.6917 127.363 47.7551 127.377 47.8083 127.388C47.8083 127.388 47.8418 127.391 47.9221 127.381C48.5215 127.305 49.9662 126.747 50.5902 125.953C51.1147 125.285 51.424 124.45 51.5098 123.473L52.5871 123.568C52.4845 124.74 52.0877 125.796 51.4407 126.621C50.5751 127.723 48.8103 128.358 48.0577 128.454C47.8798 128.476 47.7328 128.475 47.6092 128.45ZM21.205 129.564C22.306 127.539 23.5692 125.533 24.9594 123.601L25.837 124.233C24.4732 126.128 23.2346 128.095 22.1551 130.08L21.205 129.564ZM40.5481 122.13C40.1729 121.162 39.9126 120.118 39.7742 119.025C39.6998 118.437 39.6598 117.825 39.6545 117.206L40.7357 117.197C40.7404 117.774 40.7776 118.344 40.8467 118.889C40.9739 119.895 41.2124 120.853 41.5557 121.738C41.7995 122.367 42.1107 122.975 42.4803 123.546L41.5722 124.134C41.1632 123.501 40.8184 122.826 40.5481 122.13ZM43.4159 115.124L43.2643 115.112L43.3415 114.033L43.5059 114.046C45.9758 114.253 48.3392 115.266 49.9896 116.826L49.2468 117.612C47.7719 116.218 45.6462 115.311 43.4159 115.124ZM30.0986 118.683C31.0869 117.909 32.9023 116.542 33.9555 116.078C34.7734 115.718 35.5336 115.415 36.2792 115.153L36.6368 116.174C35.918 116.426 35.1835 116.718 34.3914 117.067C33.7008 117.372 32.3789 118.271 30.7646 119.534L30.0986 118.683ZM40.9104 110.185C41.7011 107.943 42.8214 105.828 44.2404 103.898L45.1116 104.539C43.7558 106.382 42.6856 108.403 41.9301 110.544L40.9104 110.185Z" fill="#39A5DF"/>
<path d="M49.9039 99.7253C50.8529 99.0246 51.8466 98.4095 52.8584 97.8975L52.37 96.9326C51.3047 97.472 50.259 98.119 49.2617 98.8552L49.9039 99.7253Z" fill="#39A5DF"/>
<path d="M149.605 259.457C147.389 259.457 143.629 257.983 139.533 260.648C138.375 261.402 137.63 262.632 137.165 263.934C136.753 265.088 136.485 266.287 136.278 267.494C135.876 269.841 130.254 269.247 128.328 273.359C125.823 278.704 130.237 283.529 133.444 287.223C140.414 295.248 149.41 293.124 151.62 294.184C153.21 294.947 152.036 291.722 153.796 291.835C155.532 291.947 157.595 291.912 158.588 290.483C159.155 289.667 159.198 288.601 159.599 287.691C160.16 286.417 161.361 285.563 162.507 284.773C163.953 283.776 165.407 282.775 166.994 282.024C168.68 281.226 178.104 280.253 175.289 268.106C174.198 263.399 171.415 260.602 168.526 258.581C166.453 257.13 164.531 256.609 161.633 256.53C154.981 256.349 155.453 259.457 149.605 259.457Z" fill="#5E2E0D"/>
<path d="M174.479 336.008L173.616 390.928L172.215 394.891L168.007 390.928L164.016 334.602L174.479 336.008Z" fill="#EFAC7F"/>
<path d="M149.352 337.867H159.88C159.88 337.867 154.925 390.6 154.961 390.928C154.997 391.256 153.185 393.625 153.185 393.625L149.352 390.928V337.867Z" fill="#EFAC7F"/>
<path d="M176.996 382.562C174.004 383.76 169.358 384.96 164.227 383.865L163.272 340.004L162.561 332.282C162.024 332.752 161.704 332.975 161.704 332.975L159.142 383.084C159.142 383.084 153.455 385.161 146.5 383.877C146.477 380.862 148.346 334.862 148.365 332.726C148.501 317.301 153.269 315.044 153.269 315.044L161.386 312.989L163.169 313.296C166.006 312.363 171.14 311.299 173.254 314.842C176.249 319.861 176.073 335.332 176.073 335.332C176.073 335.332 177.019 380.439 176.996 382.562Z" fill="#132638"/>
<path d="M170.614 299.362L178.226 295.838L177.534 303.9C177.534 303.9 191.948 297.356 192.677 296.697C192.919 296.477 193.196 295.901 193.462 295.227C193.742 294.519 193.93 293.781 194.098 293.039C194.351 291.921 195.308 291.024 195.63 290.732C195.771 290.605 196.176 289.843 196.272 289.494C196.337 289.257 196.689 289.276 196.726 289.518L196.803 290.022C196.879 290.517 196.706 291.028 196.596 291.301L196.796 291.224L197.128 294.615L196.721 297.58L194.44 299.297C194.44 299.297 174.357 313.754 172.52 311.866C170.547 309.837 170.614 299.362 170.614 299.362Z" fill="#EFAC7F"/>
<path d="M172.342 282.308C172.342 282.308 173.901 282.678 176.157 285.47C178.413 288.262 180.421 295.984 180.421 295.984L173.22 299.917L168.535 290.591L172.342 282.308Z" fill="#39A5DF"/>
<path opacity="0.5" d="M151.941 326.826C152.701 327.106 153.45 327.409 154.191 327.73C154.931 328.052 155.663 328.392 156.39 328.742C157.117 329.091 157.838 329.452 158.552 329.825C159.265 330.2 159.979 330.575 160.681 330.969L160.737 330.835C160.206 330.722 159.675 330.645 159.138 330.589C158.602 330.535 158.063 330.514 157.525 330.513C156.987 330.511 156.448 330.541 155.914 330.606L155.515 330.658L155.118 330.729L154.92 330.765L154.724 330.812L154.334 330.906L154.728 330.83L154.925 330.792L155.124 330.763L155.522 330.707L155.921 330.669C156.054 330.653 156.188 330.648 156.321 330.641C156.455 330.635 156.589 330.623 156.722 330.621L157.123 330.613C157.257 330.61 157.391 330.616 157.524 330.617C158.059 330.628 158.592 330.666 159.124 330.724C159.654 330.783 160.185 330.863 160.701 330.978L161.18 331.084L160.758 330.843C160.055 330.444 159.347 330.058 158.627 329.691C157.908 329.323 157.183 328.966 156.452 328.621C155.718 328.279 154.975 327.959 154.227 327.65C153.851 327.501 153.474 327.352 153.092 327.217C152.713 327.074 152.326 326.952 151.941 326.826Z" fill="#F3FDFF"/>
<path opacity="0.5" d="M173.254 326.52C172.869 326.645 172.483 326.768 172.104 326.91C171.722 327.045 171.345 327.194 170.969 327.343C170.221 327.652 169.477 327.972 168.744 328.313C168.013 328.659 167.288 329.015 166.569 329.384C165.849 329.751 165.141 330.136 164.438 330.536L164.016 330.776L164.495 330.67C165.011 330.556 165.542 330.475 166.072 330.417C166.603 330.358 167.137 330.32 167.672 330.31C167.805 330.309 167.939 330.303 168.073 330.306L168.474 330.313C168.608 330.315 168.741 330.328 168.874 330.333C169.008 330.339 169.142 330.346 169.275 330.361L169.675 330.399L170.072 330.456L170.271 330.484L170.468 330.523L170.863 330.599L170.472 330.504L170.276 330.457L170.078 330.422L169.682 330.351L169.282 330.298C168.748 330.234 168.209 330.204 167.671 330.206C167.133 330.206 166.594 330.228 166.058 330.282C165.522 330.338 164.99 330.414 164.459 330.527L164.516 330.662C165.217 330.268 165.931 329.893 166.644 329.517C167.358 329.145 168.079 328.784 168.806 328.434C169.533 328.084 170.265 327.744 171.005 327.422C171.746 327.103 172.495 326.8 173.254 326.52Z" fill="#F3FDFF"/>
<path d="M156.561 320.099C156.534 320.176 156.492 320.249 156.454 320.322L156.339 320.543L156.104 320.981L155.714 321.708L154.601 323.641C154.448 323.934 152.986 326.476 152.641 327.045C153.071 326.532 153.589 326.023 153.94 325.458C154.117 325.175 154.281 324.886 154.448 324.598C154.611 324.309 154.769 324.016 154.926 323.724C155.235 323.135 155.533 322.542 155.81 321.94C155.949 321.639 156.083 321.335 156.213 321.03C156.276 320.877 156.34 320.724 156.399 320.569C156.458 320.414 156.523 320.26 156.561 320.099Z" fill="#39A5DF"/>
<path d="M142.391 291.296C145.665 287.346 149.447 283.058 152.755 281.389C154.021 280.75 157.024 280.624 158.77 280.337C158.77 280.337 163.325 279.775 167.816 280.369C170.238 281.257 174.471 282.757 174.526 284.193C174.803 291.364 174.884 296.861 174.845 301.075C174.845 301.089 174.965 316.356 174.854 319.617C174.854 319.617 158.257 323.194 149.767 321.044C149.767 321.044 148.365 301.074 150.379 295.682L149.521 296.774C149.521 296.774 146.105 295.997 142.391 291.296Z" fill="#39A5DF"/>
<path d="M142.89 291.916C145.142 294.655 147.634 296.108 148.882 296.566L140.856 306.18L155.539 322.01L152.955 326.512C150.913 325.521 150.452 321.765 150.452 321.765C150.452 321.765 132.281 309.614 132.281 306.708C132.281 302.815 142.89 291.916 142.89 291.916Z" fill="#EFAC7F"/>
<path d="M142.762 291.726C142.889 291.868 143.002 292.019 143.134 292.155L143.523 292.568L143.716 292.775L143.92 292.972L144.328 293.364C144.465 293.493 144.611 293.615 144.751 293.74C145.028 293.996 145.337 294.215 145.627 294.454C146.231 294.905 146.866 295.312 147.526 295.671L147.774 295.804C147.858 295.847 147.943 295.886 148.028 295.927C148.196 296.01 148.368 296.084 148.541 296.157C148.626 296.196 148.714 296.228 148.801 296.262C148.888 296.296 148.974 296.331 149.063 296.361C149.181 296.404 149.306 296.445 149.425 296.48L150.303 295.429L151.302 294.257C151.964 293.472 152.643 292.701 153.315 291.924C153.995 291.153 154.675 290.383 155.366 289.621C156.057 288.859 156.751 288.1 157.466 287.357C156.857 288.184 156.227 288.994 155.593 289.802C154.96 290.609 154.316 291.408 153.671 292.207C153.019 293 152.373 293.797 151.712 294.582L150.724 295.763L149.725 296.936L149.616 297.064L149.458 297.023C149.248 296.968 149.067 296.906 148.879 296.836C148.693 296.768 148.511 296.693 148.332 296.612C148.153 296.53 147.975 296.447 147.802 296.355C147.716 296.31 147.628 296.267 147.542 296.22L147.288 296.075C146.609 295.689 145.98 295.232 145.383 294.744L144.95 294.36C144.804 294.235 144.669 294.098 144.533 293.962C144.398 293.826 144.259 293.693 144.128 293.553L143.748 293.124L143.559 292.909L143.382 292.684L143.032 292.233C142.806 291.928 142.603 291.607 142.391 291.295L142.762 291.726Z" fill="#132638"/>
<path d="M166.097 280.207C166.097 280.207 162.802 282.16 160.234 280.207L160.84 275.438L165.948 274.386L166.097 280.207Z" fill="#EFAC7F"/>
<path d="M166.029 277.496L165.949 274.386L160.767 275.998L160.621 277.163C161.771 277.581 163.956 278.087 166.029 277.496Z" fill="#D19369"/>
<path d="M169.753 266.616C169.615 267.55 170.126 268.388 170.895 268.488C171.664 268.588 172.399 267.911 172.538 266.977C172.676 266.043 172.165 265.205 171.396 265.106C170.627 265.005 169.892 265.682 169.753 266.616Z" fill="#D19369"/>
<path d="M170.774 271.621C170.898 271.202 170.982 270.769 171.025 270.328C171.163 269.136 171.078 267.93 170.92 266.898C170.886 266.677 170.866 266.454 170.849 266.23C170.784 265.328 170.545 264.415 170.094 263.527C168.642 260.669 165.357 259.068 162.108 259.641C157.732 260.413 155.024 264.589 156.067 268.649C155.548 268.518 155.022 268.591 154.621 268.899C153.852 269.491 153.838 270.72 154.59 271.645C155.343 272.57 156.576 272.841 157.344 272.249C157.451 272.167 157.542 272.072 157.62 271.967C158.871 275.33 162.481 277.261 165.974 276.324C167.682 275.864 169.061 274.799 169.951 273.419C170.013 273.336 170.076 273.241 170.14 273.133C170.42 272.66 170.626 272.149 170.774 271.621Z" fill="#EFAC7F"/>
<path d="M162.766 267.615C162.859 267.954 162.651 268.304 162.301 268.398C161.951 268.492 161.592 268.294 161.499 267.955C161.406 267.616 161.614 267.266 161.964 267.172C162.314 267.078 162.673 267.276 162.766 267.615Z" fill="#333333"/>
<path d="M168.305 266.5C168.398 266.838 168.19 267.189 167.84 267.283C167.49 267.377 167.131 267.178 167.038 266.84C166.945 266.501 167.153 266.151 167.503 266.056C167.853 265.963 168.212 266.161 168.305 266.5Z" fill="#333333"/>
<path d="M163.199 266.194C162.855 266.153 162.531 266.134 162.215 266.146C161.9 266.158 161.596 266.208 161.31 266.301C161.025 266.397 160.744 266.517 160.49 266.7L160.389 266.762C160.356 266.783 160.328 266.811 160.296 266.834L160.103 266.981C159.974 267.081 159.859 267.199 159.715 267.302C159.771 267.144 159.839 266.985 159.925 266.836C160.027 266.698 160.114 266.542 160.249 266.425C160.491 266.163 160.821 265.976 161.168 265.862C161.518 265.75 161.894 265.726 162.245 265.785C162.595 265.848 162.931 265.976 163.199 266.194Z" fill="#5E2E0D"/>
<path d="M165.781 265.634C165.933 265.326 166.186 265.071 166.477 264.869C166.772 264.67 167.124 264.536 167.49 264.494C167.853 264.454 168.231 264.488 168.561 264.626C168.732 264.677 168.877 264.783 169.028 264.866C169.169 264.966 169.297 265.082 169.414 265.203C169.24 265.169 169.086 265.11 168.927 265.071L168.69 265.018C168.65 265.01 168.613 264.997 168.574 264.991L168.457 264.975C168.149 264.915 167.843 264.921 167.544 264.952C167.244 264.986 166.948 265.065 166.656 265.185C166.363 265.304 166.077 265.456 165.781 265.634Z" fill="#5E2E0D"/>
<path d="M164.767 265.793C164.744 266.253 164.799 266.708 164.909 267.157C164.965 267.382 165.038 267.603 165.14 267.822C165.245 268.038 165.371 268.256 165.589 268.437L165.68 268.5L165.761 268.552C165.795 268.578 165.841 268.594 165.868 268.625C165.935 268.677 165.985 268.739 166.019 268.809C166.096 268.947 166.073 269.129 166.006 269.306C165.855 269.666 165.484 269.951 165.071 270.168C165.534 270.121 166.037 269.914 166.319 269.457C166.457 269.236 166.523 268.93 166.413 268.651C166.387 268.582 166.354 268.516 166.308 268.459C166.268 268.396 166.214 268.348 166.161 268.299C166.11 268.246 166.046 268.217 165.988 268.177C165.952 268.155 165.945 268.147 165.926 268.134L165.876 268.099C165.74 267.99 165.624 267.816 165.52 267.636C165.41 267.455 165.332 267.251 165.242 267.051C165.076 266.644 164.928 266.222 164.767 265.793Z" fill="#D19369"/>
<path d="M167.652 270.623C167.567 271.428 166.718 272.158 165.591 272.331C164.463 272.505 163.435 272.064 163.113 271.321L167.652 270.623Z" fill="white"/>
<path d="M198.513 293.394C198.524 293.231 198.477 292.714 198.454 292.603C198.39 292.295 198.156 292.046 197.846 291.953L197.494 291.846L197.463 292.638C197.492 293.242 197.504 293.2 196.666 293.564C195.471 294.083 195.971 294.709 195.971 294.709C195.971 294.709 196.303 295.153 197.765 294.423C197.765 294.422 198.467 294.054 198.513 293.394Z" fill="#FFC0BB"/>
<path d="M161.644 395.746L149.115 395.738C148.727 395.738 148.414 395.424 148.414 395.037C148.414 394.649 148.728 394.336 149.116 394.336L161.645 394.344C162.032 394.344 162.346 394.658 162.346 395.045C162.346 395.433 162.032 395.747 161.644 395.746Z" fill="white"/>
<path d="M149.054 390.076L148.59 393.976C148.532 394.457 148.801 394.893 149.155 394.893L161.432 394.901C161.75 394.901 162.066 394.702 162.234 394.328C162.406 393.945 162.441 393.367 161.891 392.589C160.824 391.078 157.382 390.676 155.569 389.436C155.464 389.364 155.341 389.326 155.214 389.326L149.697 389.322C149.378 389.323 149.106 389.642 149.054 390.076Z" fill="#132638"/>
<path d="M154.547 391.59C154.459 391.536 154.426 391.386 154.477 391.272C154.719 390.738 155.473 389.438 157.006 389.706C157.095 389.722 157.155 389.839 157.139 389.961L157.139 389.965C157.124 390.082 157.044 390.159 156.959 390.144C155.585 389.909 154.944 391.055 154.748 391.503C154.707 391.598 154.621 391.636 154.547 391.59Z" fill="white"/>
<path d="M155.821 392.093C155.732 392.039 155.7 391.89 155.751 391.775C155.992 391.241 156.747 389.941 158.28 390.209C158.368 390.224 158.428 390.342 158.413 390.464L158.413 390.467C158.398 390.585 158.318 390.662 158.232 390.647C156.859 390.412 156.217 391.558 156.022 392.006C155.98 392.101 155.894 392.139 155.821 392.093Z" fill="white"/>
<path d="M157.008 392.562C156.92 392.507 156.887 392.358 156.939 392.244C157.18 391.71 157.934 390.409 159.467 390.678C159.556 390.693 159.616 390.811 159.601 390.932L159.6 390.936C159.585 391.053 159.506 391.13 159.42 391.116C158.046 390.88 157.405 392.026 157.209 392.474C157.168 392.57 157.082 392.607 157.008 392.562Z" fill="white"/>
<path d="M179.875 395.746L167.345 395.738C166.958 395.738 166.644 395.424 166.645 395.037C166.645 394.649 166.959 394.336 167.346 394.336L179.876 394.344C180.263 394.344 180.577 394.658 180.577 395.045C180.576 395.433 180.262 395.747 179.875 395.746Z" fill="white"/>
<path d="M167.284 390.076L166.82 393.976C166.763 394.457 167.032 394.893 167.385 394.893L179.662 394.901C179.981 394.901 180.297 394.702 180.464 394.328C180.636 393.945 180.671 393.367 180.122 392.589C179.054 391.078 175.612 390.676 173.799 389.436C173.695 389.364 173.571 389.326 173.444 389.326L167.928 389.322C167.609 389.323 167.336 389.642 167.284 390.076Z" fill="#132638"/>
<path d="M172.778 391.59C172.689 391.536 172.657 391.386 172.708 391.272C172.949 390.738 173.704 389.438 175.237 389.706C175.325 389.722 175.385 389.839 175.37 389.961L175.37 389.965C175.355 390.082 175.275 390.159 175.189 390.144C173.816 389.909 173.174 391.055 172.979 391.503C172.937 391.598 172.851 391.636 172.778 391.59Z" fill="white"/>
<path d="M174.051 392.093C173.962 392.039 173.93 391.89 173.982 391.775C174.223 391.241 174.977 389.941 176.51 390.209C176.599 390.224 176.659 390.342 176.644 390.464L176.643 390.467C176.628 390.585 176.549 390.662 176.463 390.647C175.089 390.412 174.448 391.558 174.253 392.006C174.211 392.101 174.125 392.139 174.051 392.093Z" fill="white"/>
<path d="M175.239 392.562C175.15 392.507 175.118 392.358 175.169 392.244C175.41 391.71 176.165 390.409 177.698 390.678C177.786 390.693 177.846 390.811 177.831 390.932L177.83 390.936C177.816 391.053 177.736 391.13 177.65 391.116C176.276 390.88 175.635 392.026 175.44 392.474C175.398 392.57 175.312 392.607 175.239 392.562Z" fill="white"/>
<path d="M194.162 292.148C194.162 292.148 194.035 292.254 193.93 292.921C193.825 293.589 193.496 295.725 193.643 295.799C193.789 295.872 194.79 295.678 194.79 295.678C194.79 295.678 194.878 293.413 194.65 293.062C194.421 292.71 194.162 292.148 194.162 292.148Z" fill="#EFAC7F"/>
<path d="M196.327 256.91L218.872 240.959L221.371 244.491L200.116 259.53C199.049 260.284 198.423 261.528 198.482 262.834C198.485 262.883 198.487 262.911 198.491 262.916V383.812H194.164V262.916V260.437C194.164 259.167 194.787 257.977 195.831 257.254L196.327 256.91Z" fill="#132638"/>
<path d="M198.774 294.367C198.785 294.204 198.738 293.687 198.715 293.576C198.651 293.267 198.417 293.019 198.108 292.925L197.755 292.818L197.724 293.61C197.753 294.214 197.766 294.172 196.927 294.536C195.733 295.055 196.233 295.681 196.233 295.681C196.233 295.681 196.565 296.126 198.026 295.395C198.026 295.395 198.728 295.026 198.774 294.367Z" fill="#EFAC7F"/>
<path d="M198.897 295.045C198.908 294.89 198.863 294.398 198.841 294.293C198.78 293.999 198.557 293.763 198.263 293.673L197.927 293.571L197.898 294.325C197.926 294.901 197.937 294.86 197.139 295.207C196.002 295.701 196.478 296.297 196.478 296.297C196.478 296.297 196.794 296.72 198.185 296.024C198.185 296.024 198.854 295.674 198.897 295.045Z" fill="#EFAC7F"/>
<path d="M198.713 295.949C198.722 295.817 198.684 295.401 198.665 295.312C198.614 295.063 198.425 294.863 198.176 294.787L197.892 294.701L197.867 295.339C197.891 295.826 197.9 295.792 197.225 296.085C196.263 296.503 196.666 297.007 196.666 297.007C196.666 297.007 196.933 297.366 198.11 296.777C198.11 296.777 198.676 296.481 198.713 295.949Z" fill="#EFAC7F"/>
<path d="M196.418 294.835C196.251 294.956 196.105 295.137 196.094 295.358C196.091 295.467 196.119 295.576 196.174 295.672C196.185 295.694 196.208 295.725 196.232 295.743C196.255 295.762 196.28 295.778 196.306 295.791C196.357 295.819 196.412 295.835 196.466 295.848C196.688 295.893 196.909 295.862 197.118 295.814C197.327 295.762 197.529 295.691 197.724 295.607C197.823 295.567 197.916 295.517 198.013 295.473C198.113 295.426 198.201 295.362 198.286 295.295C198.451 295.159 198.601 294.998 198.696 294.804C198.746 294.709 198.776 294.605 198.797 294.501C198.802 294.448 198.812 294.394 198.81 294.342L198.803 294.186C198.782 293.98 198.76 293.777 198.713 293.576C198.729 293.78 198.739 293.985 198.737 294.188L198.734 294.338C198.733 294.388 198.72 294.436 198.713 294.484C198.687 294.579 198.654 294.672 198.603 294.757C198.503 294.927 198.364 295.076 198.205 295.198C198.124 295.258 198.042 295.318 197.951 295.358C197.857 295.4 197.765 295.448 197.669 295.486C197.479 295.571 197.284 295.639 197.086 295.693C196.888 295.746 196.682 295.775 196.486 295.748C196.393 295.732 196.29 295.699 196.246 295.629C196.194 295.549 196.164 295.454 196.16 295.358C196.155 295.262 196.181 295.164 196.228 295.075C196.276 294.986 196.346 294.91 196.418 294.835Z" fill="#D19369"/>
<path d="M198.713 296.693C198.722 296.561 198.684 296.145 198.665 296.056C198.614 295.807 198.425 295.607 198.176 295.531L197.892 295.445L197.867 296.083C197.891 296.57 197.9 296.536 197.225 296.829C196.263 297.247 196.666 297.752 196.666 297.752C196.666 297.752 196.933 298.109 198.11 297.521C198.11 297.521 198.676 297.224 198.713 296.693Z" fill="#EFAC7F"/>
<path d="M196.728 297.156C196.627 297.245 196.552 297.375 196.551 297.52C196.55 297.592 196.569 297.663 196.6 297.729C196.608 297.746 196.617 297.762 196.629 297.779C196.646 297.799 196.66 297.811 196.676 297.823C196.709 297.847 196.744 297.863 196.779 297.876C196.923 297.928 197.073 297.922 197.213 297.905C197.355 297.885 197.491 297.848 197.622 297.802C197.754 297.756 197.882 297.702 198.006 297.641C198.067 297.608 198.132 297.583 198.193 297.541C198.252 297.502 198.308 297.459 198.359 297.411C198.567 297.229 198.724 296.965 198.714 296.693C198.668 296.96 198.494 297.174 198.29 297.334C198.238 297.374 198.184 297.41 198.128 297.444C198.075 297.477 198.011 297.499 197.95 297.529C197.828 297.584 197.704 297.636 197.577 297.678C197.451 297.724 197.322 297.76 197.193 297.782C197.065 297.805 196.932 297.811 196.813 297.78C196.784 297.772 196.756 297.761 196.733 297.746C196.721 297.74 196.709 297.729 196.703 297.725C196.695 297.715 196.686 297.702 196.678 297.689C196.646 297.637 196.624 297.578 196.617 297.517C196.608 297.456 196.615 297.392 196.635 297.331C196.655 297.269 196.69 297.211 196.728 297.156Z" fill="#D19369"/>
<path d="M196.417 295.802C196.347 295.934 196.347 296.1 196.408 296.243C196.425 296.277 196.441 296.317 196.477 296.347C196.509 296.376 196.546 296.396 196.583 296.413C196.658 296.448 196.738 296.461 196.817 296.472C197.137 296.498 197.441 296.405 197.727 296.301C197.869 296.243 198.009 296.183 198.145 296.113C198.287 296.046 198.413 295.951 198.522 295.844C198.632 295.736 198.728 295.615 198.798 295.479C198.863 295.342 198.904 295.193 198.899 295.045C198.851 295.339 198.673 295.585 198.451 295.769C198.338 295.859 198.221 295.948 198.087 296.002C197.952 296.066 197.816 296.124 197.677 296.178C197.539 296.231 197.399 296.279 197.256 296.313C197.114 296.352 196.968 296.371 196.824 296.371C196.754 296.367 196.681 296.361 196.617 296.337C196.585 296.324 196.553 296.31 196.528 296.291C196.504 296.275 196.487 296.245 196.469 296.215C196.394 296.095 196.376 295.944 196.417 295.802Z" fill="#D19369"/>
<path d="M196.728 296.412C196.627 296.501 196.552 296.631 196.551 296.776C196.55 296.848 196.569 296.919 196.6 296.985C196.608 297.002 196.617 297.018 196.629 297.035C196.646 297.055 196.66 297.067 196.676 297.079C196.709 297.103 196.744 297.119 196.779 297.132C196.923 297.184 197.073 297.178 197.213 297.16C197.355 297.141 197.491 297.103 197.622 297.058C197.754 297.011 197.882 296.957 198.006 296.897C198.067 296.864 198.132 296.839 198.193 296.797C198.252 296.758 198.308 296.715 198.359 296.668C198.567 296.485 198.724 296.221 198.714 295.949C198.668 296.216 198.494 296.43 198.29 296.59C198.238 296.63 198.184 296.666 198.128 296.7C198.075 296.733 198.011 296.755 197.95 296.784C197.828 296.84 197.704 296.892 197.577 296.934C197.451 296.98 197.322 297.016 197.193 297.038C197.065 297.061 196.932 297.067 196.813 297.036C196.784 297.028 196.756 297.017 196.733 297.002C196.721 296.996 196.709 296.985 196.703 296.981C196.695 296.971 196.686 296.958 196.678 296.945C196.646 296.893 196.624 296.834 196.617 296.773C196.608 296.712 196.615 296.648 196.635 296.586C196.655 296.524 196.69 296.468 196.728 296.412Z" fill="#D19369"/>
<path d="M197.452 294.301C197.452 294.301 198.439 293.893 198.49 293.156V292.715L197.409 292.539L197.246 293.013L197.452 294.301Z" fill="#132638"/>
<path d="M155.153 267.712L155.325 267.673L155.291 266.117L155.797 264.626C155.797 264.626 157.949 260.538 158.029 260.434C158.108 260.331 159.914 258.905 160.027 258.83C160.139 258.755 162.883 258.968 162.883 258.968C162.883 258.968 167.521 257.412 166.995 260.33C166.469 263.248 163.148 265.063 162.957 264.953C163.458 264.264 163.342 262.448 163.342 262.448C160.996 266.01 156.191 268.67 156.191 268.67C156.191 268.67 155.623 268.291 154.746 268.743L155.153 267.712Z" fill="#5E2E0D"/>
</svg>
