<svg width="128" height="128" viewBox="0 0 128 128" fill="none" xmlns="http://www.w3.org/2000/svg">
<path d="M88.1094 42.8452H98.0364V90.022H88.1094V42.8452Z" fill="#39A5DF"/>
<path d="M68.7266 53.6499H78.6536V90.0221H68.7266V53.6499Z" fill="#39A5DF"/>
<path d="M49.3438 64.458H59.2707V90.0223H49.3438V64.458Z" fill="#39A5DF"/>
<path d="M29.9648 75.2627H39.8918V90.0224H29.9648V75.2627Z" fill="#39A5DF"/>
<path fill-rule="evenodd" clip-rule="evenodd" d="M82.6895 19.9905L77.4935 16.0515L92.7652 11.8843L92.8877 27.7135L89.2975 24.9955C89.1397 24.8756 88.9597 24.7881 88.7678 24.7382C88.576 24.6883 88.3762 24.677 88.1799 24.7049C87.9837 24.7328 87.795 24.7994 87.6246 24.9008C87.4543 25.0022 87.3058 25.1363 87.1877 25.2955C80.5292 34.2425 72.0035 41.9455 62.3097 47.4803L61.9037 47.7123L61.3867 46.9333L61.758 46.649C61.8976 46.5422 62.0369 46.4349 62.1757 46.3273C70.6315 39.7498 77.75 31.2023 83.0867 21.9348C83.2674 21.6176 83.3267 21.2456 83.2536 20.888C83.1805 20.5303 82.9801 20.2114 82.6895 19.9905Z" fill="#39A5DF"/>
<path fill-rule="evenodd" clip-rule="evenodd" d="M30.4643 75.7626H39.3915V89.5223H30.4643V75.7626ZM49.8445 64.9581H58.7718V89.5223H49.8445V64.9581ZM69.227 54.1501H78.1543V89.5223H69.227V54.1501ZM88.6075 43.3454H97.5345V89.5223H88.6075V43.3454ZM107.125 89.5223H101.535V41.3454C101.535 40.8149 101.324 40.3062 100.949 39.9311C100.574 39.5561 100.065 39.3454 99.5348 39.3454H86.6072C86.0768 39.3454 85.5681 39.5561 85.193 39.9311C84.818 40.3062 84.6072 40.8149 84.6072 41.3454V89.5223H82.1545V52.1501C82.1545 51.6197 81.9438 51.111 81.5687 50.7359C81.1936 50.3608 80.6849 50.1501 80.1545 50.1501H67.227C66.6966 50.1501 66.1879 50.3608 65.8128 50.7359C65.4377 51.111 65.227 51.6197 65.227 52.1501V89.5226H62.7718V62.9581C62.7718 62.4277 62.561 61.919 62.186 61.5439C61.8109 61.1688 61.3022 60.9581 60.7718 60.9581H47.8445C47.3141 60.9581 46.8054 61.1688 46.4303 61.5439C46.0552 61.919 45.8445 62.4277 45.8445 62.9581V89.5223H43.3927V73.7626C43.3927 73.2322 43.182 72.7235 42.807 72.3484C42.4319 71.9733 41.9232 71.7626 41.3927 71.7626H28.4643C27.9338 71.7626 27.4251 71.9733 27.05 72.3484C26.675 72.7235 26.4643 73.2322 26.4643 73.7626V89.5223H20.875C20.3446 89.5223 19.8359 89.7331 19.4608 90.1081C19.0857 90.4832 18.875 90.9919 18.875 91.5223C18.875 92.0528 19.0857 92.5615 19.4608 92.9366C19.8359 93.3116 20.3446 93.5223 20.875 93.5223H107.125C107.655 93.5223 108.164 93.3116 108.539 92.9366C108.914 92.5615 109.125 92.0528 109.125 91.5223C109.125 90.9919 108.914 90.4832 108.539 90.1081C108.164 89.7331 107.655 89.5223 107.125 89.5223ZM124 112.875C123.999 113.724 123.661 114.537 123.06 115.137C122.46 115.737 121.646 116.074 120.797 116.075H7.20175C6.3531 116.074 5.53937 115.737 4.93912 115.137C4.33887 114.537 4.00113 113.724 4 112.875V108.128H48.6193V110.912C48.62 111.758 48.9559 112.568 49.5534 113.167C50.1509 113.765 50.9613 114.102 51.8068 114.103H76.192C77.0376 114.102 77.848 113.765 78.4455 113.167C79.0431 112.568 79.379 111.758 79.3795 110.912V108.128H124V112.875ZM52.6193 108.128V110.103H75.3795V108.128H52.6193ZM9.6 42.3001V104.128H118.4V42.3001C118.398 41.1524 117.942 40.0523 117.13 39.2411C116.318 38.4299 115.217 37.9739 114.07 37.9734H80.9372C80.8485 37.9715 80.76 37.9648 80.672 37.9534C75.9006 42.5503 70.612 46.5781 64.9122 49.9561C54.5322 56.0859 43.4445 59.4741 32.85 59.7536C32.83 59.7536 32.8122 59.7559 32.7945 59.7559C32.2897 59.7565 31.8033 59.5662 31.4329 59.2231C31.0625 58.8801 30.8356 58.4097 30.7977 57.9063C30.7597 57.4029 30.9135 56.9037 31.2282 56.509C31.5429 56.1143 31.9953 55.8532 32.4945 55.7781C44.89 53.8889 56.6195 47.6364 66.4342 37.9734H13.9295C12.782 37.9741 11.6816 38.4302 10.8699 39.2413C10.0582 40.0525 9.60152 41.1526 9.6 42.3001ZM82.9925 19.5931C83.3808 19.887 83.6487 20.3123 83.746 20.7895C83.8432 21.2667 83.7631 21.763 83.5208 22.1854C77.9475 31.8659 70.6725 40.3531 62.4835 46.7236C62.3433 46.8334 62.203 46.9406 62.0625 47.0486C71.3708 41.7334 79.9453 34.1931 86.7875 24.9986C86.945 24.7864 87.143 24.6076 87.3701 24.4725C87.5971 24.3374 87.8488 24.2486 88.1104 24.2114C88.372 24.1742 88.6384 24.1893 88.8941 24.2558C89.1498 24.3222 89.3899 24.4387 89.6003 24.5986L92.381 26.7036L92.2712 12.5394L78.6048 16.2669L82.9918 19.5919L82.9925 19.5931ZM126 104.128H122.4V42.3001C122.397 40.092 121.518 37.9752 119.957 36.4141C118.395 34.8531 116.278 33.9753 114.07 33.9734H84.55C86.0205 32.3637 87.4282 30.7029 88.773 28.9909L93.2022 32.3459C93.5003 32.571 93.8554 32.7083 94.2274 32.7423C94.5994 32.7762 94.9735 32.7055 95.3074 32.5381C95.6413 32.3706 95.9217 32.1132 96.117 31.7948C96.3123 31.4763 96.4146 31.1096 96.4125 30.7361L96.25 9.9106C96.2479 9.60406 96.1754 9.3021 96.038 9.02806C95.9006 8.75401 95.7021 8.51521 95.4577 8.3301C95.2134 8.145 94.9297 8.01854 94.6287 7.96049C94.3277 7.90245 94.0174 7.91438 93.7217 7.99535L73.6318 13.4801C73.2715 13.5785 72.9461 13.7758 72.6922 14.0496C72.4383 14.3234 72.2661 14.6628 72.1952 15.0294C72.1242 15.396 72.1573 15.7752 72.2907 16.124C72.4241 16.4727 72.6525 16.7772 72.95 17.0029L79.1588 21.7081C76.5515 26.0572 73.557 30.162 70.2115 33.9726H13.9295C11.7215 33.975 9.6045 34.853 8.04299 36.4142C6.48148 37.9753 5.60291 40.0921 5.6 42.3001V104.128H2C1.46957 104.128 0.960859 104.339 0.585786 104.714C0.210714 105.089 0 105.597 0 106.128L0 112.875C0.00225039 114.784 0.761782 116.615 2.11194 117.964C3.46209 119.314 5.29258 120.073 7.20175 120.075H120.797C122.706 120.074 124.537 119.315 125.888 117.965C127.238 116.615 127.998 114.784 128 112.875V106.128C128 105.597 127.789 105.089 127.414 104.714C127.039 104.339 126.53 104.128 126 104.128Z" fill="#132638"/>
</svg>
