<svg width="558" height="459" viewBox="0 0 558 459" fill="none" xmlns="http://www.w3.org/2000/svg">
<g clip-path="url(#clip0_163_719)">
<path d="M38.6562 381.368V438.39H123.815V369.998H58.2379L38.6562 381.368Z" fill="white"/>
<path d="M148.832 341.065V438.39H233.99V329.695H168.414L148.832 341.065Z" fill="white"/>
<path d="M259.008 288.272V438.39H344.167V276.902H278.591L259.008 288.272Z" fill="white"/>
<path d="M388.768 192.458L369.186 203.828V438.39H454.343V192.458H388.768Z" fill="white"/>
<path d="M466.739 443.208H26.2598V432.617H466.739V443.208Z" fill="white"/>
<path d="M103.677 382.559H40.7266L58.7956 372.067H121.745L103.677 382.559Z" fill="#39A5DF"/>
<path d="M103.677 438.39H40.7266V382.559H103.677V438.39Z" fill="#0155A0"/>
<path d="M121.744 438.39H103.676V382.559L121.744 372.068V438.39Z" fill="#132638"/>
<path d="M213.85 342.257H150.902L168.971 331.767H231.92L213.85 342.257Z" fill="#39A5DF"/>
<path d="M213.85 438.39H150.902V342.257H213.85V438.39Z" fill="#0155A0"/>
<path d="M231.921 438.39H213.852V342.257L231.921 331.767V438.39Z" fill="#132638"/>
<path d="M324.029 289.463H261.08L279.148 278.972H342.097L324.029 289.463Z" fill="#39A5DF"/>
<path d="M324.029 438.39H261.08V289.463H324.029V438.39Z" fill="#0155A0"/>
<path d="M342.098 438.39H324.029V289.463L342.098 278.972V438.39Z" fill="#132638"/>
<path d="M434.205 205.021H371.256L389.325 194.529H452.273L434.205 205.021Z" fill="#39A5DF"/>
<path d="M434.205 438.39H371.256V205.02H434.205V438.39Z" fill="#0155A0"/>
<path d="M452.273 438.39H434.205V205.02L452.273 194.529V438.39Z" fill="#132638"/>
<path d="M258.628 187.058C259.284 184.372 259.08 181.598 258.041 179.035L257.446 177.565C269.214 173.584 279.927 167.353 289.32 159.025C302.206 147.599 311.649 132.877 316.632 116.455L316.678 116.307C317.13 114.807 317.545 113.3 317.913 111.812C318.254 110.438 318.577 108.98 318.873 107.485L318.952 107.09C319.247 105.569 319.5 104.076 319.706 102.651L319.721 102.532C319.911 101.198 320.073 99.8247 320.218 98.337L320.28 97.7065C320.42 96.1453 320.517 94.7186 320.576 93.3555L320.583 93.1362C320.635 91.8665 320.659 90.5395 320.655 89.0817L320.653 88.2444C320.635 86.6969 320.59 85.3013 320.514 83.9756L320.497 83.7226C320.423 82.4966 320.318 81.2057 320.172 79.7778C320.139 79.4514 320.105 79.1237 320.067 78.7972C319.891 77.2385 319.71 75.8741 319.511 74.6244L319.477 74.4287C319.283 73.2276 319.047 71.9417 318.749 70.4939C318.678 70.1462 318.604 69.7999 318.53 69.4535C318.186 67.876 317.877 66.5764 317.554 65.3616L317.286 64.3548L316.319 63.9686C315.153 63.5038 313.899 63.0415 312.373 62.512C312.039 62.3961 311.703 62.2827 311.366 62.1693C309.966 61.7008 308.717 61.3109 307.496 60.9607L307.355 60.9171C306.139 60.572 304.807 60.2281 303.281 59.8667C302.961 59.792 302.642 59.7185 302.322 59.6462C300.921 59.3309 299.65 59.0718 298.356 58.835L298.187 58.8026C296.885 58.5709 295.507 58.3591 293.975 58.1572L293.142 58.0538C291.693 57.8756 290.372 57.7411 289.047 57.6352L288.901 57.6227C287.528 57.5168 286.099 57.442 284.529 57.3947L283.903 57.381C282.406 57.3461 281.024 57.3436 279.677 57.3722L279.556 57.3735C278.117 57.4071 276.603 57.4794 275.058 57.5903L274.66 57.6214C273.137 57.7373 271.651 57.8831 270.226 58.0588C268.724 58.2457 267.179 58.4774 265.636 58.7466L265.482 58.774C248.582 61.7557 232.837 69.3725 219.951 80.7995C210.56 89.1278 203.093 99.0186 197.732 110.226L196.344 109.459C193.925 108.122 191.193 107.589 188.448 107.916C185.783 108.234 183.314 109.343 181.306 111.125L164.455 126.067C162.704 127.619 161.811 129.938 162.069 132.264C162.327 134.592 163.704 136.658 165.754 137.79L187.029 149.551L177.193 158.275C176.939 158.324 176.684 158.379 176.425 158.44L176.304 158.468C175.694 158.612 175.084 158.787 174.352 159.028L174.187 159.083C173.604 159.284 173.013 159.518 172.43 159.776L172.148 159.903C171.57 160.168 171.003 160.459 170.47 160.764L170.209 160.916C169.615 161.265 169.079 161.611 168.578 161.97L168.398 162.105C167.797 162.543 167.266 162.968 166.774 163.404C165.602 164.445 164.539 165.612 163.616 166.876C162.124 168.92 160.995 171.212 160.26 173.686C159.964 174.686 159.651 175.679 159.321 176.664C158.992 177.651 158.645 178.63 158.283 179.602C156.153 185.323 153.41 190.958 150.128 196.349C149.588 197.235 149.036 198.113 148.469 198.984C145.13 204.119 141.255 209.086 136.954 213.745C136.245 214.513 135.525 215.272 134.794 216.022L133.106 217.756C127.186 223.833 121.066 230.115 115.228 236.49L81.584 273.239L122.123 244.219C129.146 239.191 136.114 233.867 142.851 228.72L144.761 227.261C158.588 216.702 174.175 209.709 189.838 207.042C193.953 206.34 197.752 204.529 200.825 201.804C203.671 199.279 205.804 196.058 207.051 192.419L217.123 183.487L226.255 206.018C227.133 208.187 229.019 209.802 231.301 210.336C233.58 210.871 235.988 210.261 237.74 208.709L254.59 193.767C256.597 191.985 257.995 189.666 258.628 187.058Z" fill="white"/>
<path d="M199.45 200.254C208.341 192.369 208.542 178.075 199.898 168.328C191.254 158.579 177.037 157.069 168.146 164.954C165.261 167.511 163.293 170.743 162.244 174.275C157.389 190.621 148.155 205.266 136.277 217.465C129.707 224.213 123.114 230.941 116.755 237.887L96.4922 260.019L120.915 242.535C128.565 237.059 136.025 231.324 143.503 225.614C157.035 215.28 172.679 207.863 189.489 204.999C193.121 204.38 196.566 202.811 199.45 200.254Z" fill="url(#paint0_linear_163_719)"/>
<path d="M97.1699 259.42C107.91 249.63 156.666 204.849 164.859 190.038C176.374 169.218 186.164 168.555 186.164 168.555L197.561 166.011C188.858 158.394 176.278 157.744 168.147 164.954C165.263 167.511 163.294 170.743 162.245 174.276C157.39 190.622 148.156 205.266 136.278 217.466C129.81 224.108 123.327 230.737 117.08 237.588L97.1699 259.42Z" fill="url(#paint1_linear_163_719)"/>
<path d="M198.82 153.703L166.755 135.979C165.198 135.119 164.302 133.618 164.128 132.036C163.952 130.456 164.499 128.796 165.83 127.616L182.679 112.674C184.404 111.145 186.511 110.233 188.694 109.972C190.94 109.703 193.268 110.124 195.342 111.272L226.96 128.748L198.82 153.703Z" fill="#39A5DF"/>
<path d="M196.66 145.999L175.739 134.435C174.725 133.873 174.139 132.895 174.024 131.863C173.911 130.831 174.267 129.747 175.136 128.977L186.129 119.229C187.254 118.231 188.63 117.636 190.054 117.466C191.519 117.291 193.038 117.565 194.393 118.313L215.023 129.718L196.66 145.999Z" fill="#132638"/>
<path d="M214.412 171.286L228.174 205.24C228.842 206.889 230.225 207.958 231.774 208.321C233.321 208.683 235.036 208.339 236.367 207.161L253.218 192.218C254.941 190.688 256.098 188.706 256.618 186.569C257.154 184.371 257.014 182.011 256.123 179.813L242.553 146.332L214.412 171.286Z" fill="#39A5DF"/>
<path d="M221.799 174.349L230.778 196.504C231.214 197.58 232.117 198.279 233.127 198.514C234.137 198.752 235.256 198.527 236.124 197.757L247.119 188.008C248.243 187.01 248.999 185.717 249.337 184.322C249.687 182.888 249.595 181.347 249.015 179.914L240.16 158.068L221.799 174.349Z" fill="#132638"/>
<path d="M315.552 65.8921C284.587 53.5554 247.965 58.7238 221.325 82.348C194.684 105.971 185.172 141.712 193.717 173.931C224.683 186.268 261.305 181.1 287.946 157.476C314.587 133.853 324.097 98.1111 315.552 65.8921Z" fill="#C7C6C4"/>
<path d="M315.552 65.8922C284.587 53.5556 247.965 58.724 221.325 82.3481C194.684 105.971 185.172 141.713 193.717 173.932C195.636 153.512 212.327 125.867 238.968 102.243C265.609 78.6201 295.051 65.3552 315.552 65.8922Z" fill="#A0A0A0"/>
<path d="M315.552 65.892C313.634 86.3115 296.942 113.955 270.301 137.579C243.661 161.202 214.218 174.469 193.717 173.931C224.682 186.268 261.305 181.1 287.946 157.476C314.586 133.853 324.097 98.1111 315.552 65.892Z" fill="#E5E5E4"/>
<path d="M243.824 67.6735L305.205 136.893C318.298 115.525 321.879 89.7452 315.553 65.8917C292.628 56.7586 266.605 57.2308 243.824 67.6735Z" fill="#39A5DF"/>
<path d="M243.824 67.6735L305.205 136.893C306.487 134.801 307.649 132.656 308.748 130.487L250.609 64.9224C248.322 65.7534 246.055 66.6518 243.824 67.6735Z" fill="url(#paint2_linear_163_719)"/>
<path d="M315.553 65.8918C314.132 81.0095 304.608 100.087 288.949 118.561L305.205 136.893C318.297 115.525 321.879 89.7452 315.553 65.8918Z" fill="#0155A0"/>
<path d="M243.824 67.6737L260.08 86.0049C280.295 72.6689 300.374 65.4945 315.553 65.892C292.628 56.7588 266.605 57.231 243.824 67.6737Z" fill="#132638"/>
<path d="M250.609 64.9226C248.322 65.7537 246.055 66.652 243.824 67.6737L260.08 86.0049C262.058 84.6991 264.033 83.4718 266.006 82.2856L250.609 64.9226Z" fill="#39A5DF"/>
<path d="M288.949 118.561L305.205 136.893C306.487 134.801 307.649 132.656 308.748 130.487L293.351 113.123C291.938 114.939 290.482 116.753 288.949 118.561Z" fill="url(#paint3_linear_163_719)"/>
<path d="M205.71 190.597L178.486 159.895L190.688 149.075L217.912 179.776L205.71 190.597Z" fill="#39A5DF"/>
<path d="M186.165 168.555L178.486 159.895L190.688 149.075L198.367 157.734L186.165 168.555Z" fill="#132638"/>
<path d="M205.83 190.734L198.152 182.075L210.354 171.254L218.034 179.914L205.83 190.734Z" fill="#0155A0"/>
<path d="M266.691 149.605C254.168 160.709 235.015 159.559 223.911 147.037C212.806 134.513 213.955 115.359 226.479 104.255C239.001 93.1508 258.154 94.3009 269.26 106.823C280.364 119.345 279.214 138.499 266.691 149.605Z" fill="#0155A0"/>
<path d="M264.287 146.893C253.263 156.671 236.398 155.658 226.621 144.633C216.844 133.607 217.856 116.743 228.882 106.967C239.908 97.1892 256.771 98.201 266.549 109.227C276.326 120.253 275.313 137.116 264.287 146.893Z" fill="#39A5DF"/>
<path d="M261.684 143.958C252.28 152.296 237.895 151.434 229.557 142.029C221.218 132.626 222.081 118.242 231.485 109.902C240.89 101.564 255.272 102.428 263.612 111.83C271.951 121.235 271.088 135.619 261.684 143.958Z" fill="#21222B"/>
<path d="M231.41 109.968C231.413 109.967 231.414 109.965 231.415 109.964C231.414 109.965 231.411 109.968 231.41 109.968ZM231.441 109.942C231.445 109.938 231.449 109.934 231.454 109.93C231.449 109.934 231.445 109.937 231.441 109.942ZM231.537 109.856C231.545 109.849 231.551 109.843 231.558 109.837C231.551 109.843 231.543 109.849 231.537 109.856ZM231.848 109.586C231.852 109.583 231.857 109.579 231.862 109.574C231.857 109.579 231.854 109.583 231.848 109.586ZM231.907 109.537C231.91 109.534 231.912 109.533 231.915 109.53C231.912 109.532 231.91 109.534 231.907 109.537Z" fill="#39A5DF"/>
<path d="M251.59 149.132L230.914 143.426C230.448 142.983 229.992 142.521 229.557 142.03C228.547 140.89 227.673 139.676 226.932 138.409L257.566 146.862C255.665 147.911 253.653 148.668 251.59 149.132ZM259.98 145.327L225.65 135.854C224.834 133.939 224.288 131.943 224.021 129.918L264.418 141.064C263.604 142.088 262.696 143.06 261.684 143.958C261.132 144.447 260.563 144.9 259.98 145.327ZM266.103 138.64L223.832 126.978C223.83 125.693 223.935 124.412 224.147 123.145L267.79 135.187C267.329 136.375 266.77 137.532 266.103 138.64ZM269.219 129.271L225.949 117.331C226.492 116.16 227.141 115.029 227.893 113.949L269.284 125.369C269.372 126.67 269.353 127.975 269.219 129.271ZM269.01 123.059L229.319 112.108C229.964 111.362 230.656 110.644 231.41 109.969C231.411 109.969 231.414 109.966 231.415 109.965C231.424 109.958 231.433 109.95 231.441 109.943C231.445 109.938 231.449 109.935 231.454 109.931C231.464 109.921 231.475 109.913 231.485 109.903C231.494 109.895 231.502 109.888 231.511 109.88C231.517 109.874 231.524 109.869 231.53 109.863C231.532 109.862 231.535 109.859 231.537 109.857C231.544 109.85 231.551 109.844 231.559 109.838C231.56 109.837 231.561 109.835 231.562 109.834C231.571 109.828 231.578 109.821 231.586 109.814C231.587 109.813 231.587 109.813 231.587 109.813C231.596 109.806 231.603 109.798 231.612 109.792C231.612 109.791 231.612 109.791 231.613 109.791C231.679 109.732 231.747 109.675 231.813 109.617C231.815 109.616 231.818 109.614 231.82 109.612C231.825 109.607 231.831 109.602 231.836 109.597C231.84 109.594 231.844 109.591 231.848 109.588C231.854 109.584 231.858 109.58 231.863 109.575C231.868 109.571 231.872 109.568 231.877 109.564C231.881 109.56 231.885 109.556 231.889 109.553C231.895 109.548 231.901 109.543 231.907 109.538C231.91 109.535 231.912 109.533 231.915 109.531C234.221 107.585 236.81 106.177 239.524 105.294L263.731 111.972C266.576 115.233 268.327 119.078 269.01 123.059Z" fill="#4A4D58"/>
<path d="M466.739 68.7441L430.57 88.2627L439.023 94.9525C345.573 208.628 238.779 271.828 165.443 304.867C85.4178 340.92 26.8428 349.859 26.2598 349.946L27.7695 360.188C30.1929 359.831 88.0631 351.029 169.326 314.473C216.993 293.029 262.727 266.441 305.261 235.449C357.746 197.203 405.459 152.097 447.134 101.372L456.053 108.43L466.739 68.7441Z" fill="#87C7E8"/>
<path d="M81.4097 59.4181L83.0906 62.4907L86.162 64.1703L83.0906 65.8524L81.4097 68.9238L79.7289 65.8524L76.6562 64.1703L79.7289 62.4907L81.4097 59.4181Z" fill="#87C7E8"/>
<path d="M353.498 139.015L355.18 142.089L358.252 143.769L355.18 145.45L353.498 148.522L351.817 145.45L348.746 143.769L351.817 142.089L353.498 139.015Z" fill="#87C7E8"/>
<path d="M188.252 255.265L189.932 258.338L193.004 260.019L189.932 261.699L188.252 264.772L186.571 261.699L183.498 260.019L186.571 258.338L188.252 255.265Z" fill="#87C7E8"/>
<path d="M411.59 52.5985L413.271 55.6724L416.345 57.352L413.271 59.0328L411.59 62.1055L409.909 59.0328L406.838 57.352L409.909 55.6724L411.59 52.5985Z" fill="#87C7E8"/>
<path d="M245.636 27.3292L247.316 30.4018L250.389 32.0827L247.316 33.7636L245.636 36.835L243.955 33.7636L240.883 32.0827L243.955 30.4018L245.636 27.3292Z" fill="#87C7E8"/>
<path d="M348.748 235.789L350.427 238.863L353.5 240.544L350.427 242.223L348.748 245.296L347.067 242.223L343.994 240.544L347.067 238.863L348.748 235.789Z" fill="#87C7E8"/>
<path d="M107.802 180.993L109.482 184.066L112.556 185.747L109.482 187.426L107.802 190.499L106.121 187.426L103.049 185.747L106.121 184.066L107.802 180.993Z" fill="#87C7E8"/>
</g>
<defs>
<linearGradient id="paint0_linear_163_719" x1="5407.82" y1="-4252.08" x2="3517.18" y2="-6252.21" gradientUnits="userSpaceOnUse">
<stop stop-color="#87C7E8"/>
<stop offset="1" stop-color="#E3F5FF"/>
</linearGradient>
<linearGradient id="paint1_linear_163_719" x1="4955.16" y1="-4225.6" x2="3073.57" y2="-6057.25" gradientUnits="userSpaceOnUse">
<stop stop-color="#87C7E8"/>
<stop offset="1" stop-color="#E3F5FF"/>
</linearGradient>
<linearGradient id="paint2_linear_163_719" x1="3385.53" y1="-3106.69" x2="2037.25" y2="-4280.36" gradientUnits="userSpaceOnUse">
<stop stop-color="#87C7E8"/>
<stop offset="1" stop-color="#E3F5FF"/>
</linearGradient>
<linearGradient id="paint3_linear_163_719" x1="1247.03" y1="-934.38" x2="807.956" y2="-1287.29" gradientUnits="userSpaceOnUse">
<stop stop-color="#87C7E8"/>
<stop offset="1" stop-color="#E3F5FF"/>
</linearGradient>
<clipPath id="clip0_163_719">
<rect width="558" height="459" fill="white"/>
</clipPath>
</defs>
</svg>
