<svg width="502" height="399" viewBox="0 0 502 399" fill="none" xmlns="http://www.w3.org/2000/svg">
<path d="M101.742 317.847C101.742 317.847 195.484 317.847 194.822 317.847V282.725" stroke="#39273E" stroke-width="2.1893" stroke-miterlimit="10"/>
<path d="M194.825 297.355C195.487 297.355 134.812 297.355 134.812 297.355" stroke="#39273E" stroke-width="2.1893" stroke-miterlimit="10"/>
<path d="M421.858 140.179H306.836V201.567" stroke="#39273E" stroke-width="2.1893" stroke-miterlimit="10" stroke-dasharray="1.78 1.78"/>
<path d="M213.062 193.601V132.213H98.0408V107.423" stroke="#39273E" stroke-width="2.1893" stroke-miterlimit="10" stroke-dasharray="1.78 1.78"/>
<path d="M400.032 121.333V156.703H295.031V194.78" stroke="#39273E" stroke-width="2.1893" stroke-miterlimit="10"/>
<path d="M425.625 243.448H382.173V336.494H277.016V299.278" stroke="#39273E" stroke-width="2.1893" stroke-miterlimit="10" stroke-dasharray="1.78 1.78"/>
<path d="M297.617 314.02H388.125L408.629 292.207V259.157" stroke="#39273E" stroke-width="2.1893" stroke-miterlimit="10"/>
<path d="M241.961 196.845C241.961 197.505 241.961 66.665 241.961 66.665" stroke="#39273E" stroke-width="2.1893" stroke-miterlimit="10"/>
<path d="M262.461 194.484C262.461 195.144 262.461 81.8672 262.461 81.8672" stroke="#39273E" stroke-width="2.1893" stroke-miterlimit="10"/>
<path d="M442.048 144.903C441.986 144.98 439.425 146.653 439.425 146.653C439.425 146.751 367.57 62.2476 367.57 62.2476C367.57 62.2476 370.326 60.4769 370.236 60.5501C394.173 69.7436 418.11 78.9336 442.048 88.1283C442.048 107.054 442.048 125.978 442.048 144.903Z" fill="#338A92" stroke="#221531" stroke-miterlimit="10" stroke-linecap="round" stroke-linejoin="round"/>
<path d="M439.488 146.674C415.549 137.484 391.612 128.292 367.676 119.099C367.676 100.174 367.676 81.2473 367.676 62.3208C391.612 71.5143 415.551 80.7043 439.488 89.899C439.488 108.824 439.488 127.749 439.488 146.674Z" fill="#0155A0" stroke="#221531" stroke-miterlimit="10" stroke-linecap="round" stroke-linejoin="round"/>
<path d="M439.489 146.674C415.55 137.484 391.614 128.291 367.677 119.099C367.677 102.837 367.676 100.145 367.676 93.9609C391.614 103.153 415.551 112.344 439.49 121.537C439.49 127.721 439.489 130.41 439.489 146.674Z" fill="#C7C8CA"/>
<path d="M414.616 97.6783C414.246 97.7586 413.762 97.6807 413.165 97.4529C412.388 97.1542 411.774 96.6443 411.329 95.8924C410.882 95.1381 410.66 94.2575 410.66 93.1762C410.66 92.0229 410.912 91.0987 411.413 90.4813C411.913 89.8663 412.564 89.681 413.362 89.9891C413.858 90.1791 414.276 90.4471 414.615 90.7847C414.615 91.5142 414.615 91.8695 414.615 92.5518C414.276 92.1067 413.887 91.7939 413.454 91.6275C412.979 91.4457 412.595 91.5401 412.302 91.8884C412.009 92.2366 411.864 92.7926 411.864 93.5232C411.864 94.2221 412 94.8028 412.277 95.2962C412.552 95.7897 412.926 96.1178 413.391 96.2972C413.836 96.4696 414.245 96.4885 414.615 96.3433C414.616 96.8945 414.616 97.1601 414.616 97.6783Z" fill="white"/>
<path d="M419.752 99.8738C419.227 99.6731 418.965 99.5716 418.441 99.3686C418.124 98.6049 417.967 98.213 417.652 97.3985C417.592 97.245 417.536 97.1045 417.48 96.9806C417.427 96.8543 417.372 96.7433 417.316 96.6465C417.261 96.5497 417.203 96.4695 417.144 96.4045C417.082 96.3396 417.017 96.2959 416.948 96.2688C416.824 96.2228 416.764 96.1991 416.638 96.1507C416.638 97.2226 416.638 97.7254 416.638 98.6804C416.181 98.5057 415.953 98.4148 415.496 98.2401C415.496 95.7482 415.496 94.3459 415.496 90.9521C416.22 91.2307 416.583 91.3712 417.307 91.6498C418.539 92.122 419.153 93.1536 419.153 94.5678C419.153 94.8393 419.127 95.0754 419.074 95.2784C419.02 95.4791 418.942 95.6491 418.842 95.7884C418.743 95.9241 418.624 96.0268 418.484 96.0976C418.344 96.1685 418.187 96.2039 418.016 96.2086C418.016 96.2157 418.016 96.2204 418.016 96.2298C418.09 96.29 418.163 96.3727 418.235 96.473C418.307 96.5757 418.375 96.689 418.441 96.8106C418.508 96.9346 418.57 97.062 418.63 97.1954C418.69 97.3288 418.746 97.4587 418.794 97.5802C419.177 98.5328 419.368 98.9897 419.752 99.8738ZM416.638 92.7854C416.638 93.6825 416.638 94.1086 416.638 94.929C416.837 95.0046 416.938 95.0423 417.136 95.1179C417.381 95.2123 417.575 95.1852 417.725 95.0352C417.875 94.8806 417.952 94.6445 417.952 94.3223C417.952 93.6471 417.685 93.1879 417.154 92.9825C416.95 92.9046 416.846 92.8656 416.638 92.7854Z" fill="white"/>
<path d="M423.272 101.224C422.055 100.757 421.446 100.521 420.23 100.056C420.23 97.5613 420.23 96.1613 420.23 92.7676C421.4 93.2173 421.986 93.4416 423.156 93.8902C423.156 94.5123 423.156 94.8133 423.156 95.3999C422.443 95.1273 422.086 94.9915 421.373 94.7176C421.373 95.4306 421.37 95.7729 421.37 96.4375C422.035 96.6913 422.367 96.8176 423.03 97.0738C423.03 97.6191 423.031 97.8859 423.031 98.4006C422.366 98.1456 422.034 98.0193 421.373 97.7655C421.373 98.4112 421.371 98.7228 421.371 99.3237C422.132 99.6141 422.512 99.7592 423.272 100.05C423.272 100.532 423.272 100.767 423.272 101.224Z" fill="white"/>
<path d="M424.082 101.536C424.082 99.0429 424.082 97.6406 424.082 94.248C424.8 94.5243 425.16 94.6624 425.877 94.9374C427.679 95.6291 428.579 97.4411 428.579 99.8079C428.579 100.943 428.334 101.676 427.843 102.092C427.35 102.51 426.696 102.542 425.877 102.227C425.16 101.95 424.801 101.812 424.082 101.536ZM425.224 96.1958C425.224 98.2273 425.223 99.1327 425.223 100.802C425.449 100.888 425.564 100.933 425.79 101.02C426.285 101.21 426.674 101.171 426.956 100.883C427.237 100.595 427.378 100.099 427.378 99.3664C427.378 98.6723 427.238 98.0455 426.959 97.5119C426.681 96.9784 426.286 96.6065 425.783 96.4129C425.56 96.3268 425.447 96.2831 425.224 96.1958Z" fill="white"/>
<path d="M430.989 96.9007C430.989 97.492 430.989 97.7777 430.989 98.3384C430.819 98.2735 430.734 98.2393 430.564 98.1743C430.564 100.265 430.564 101.197 430.564 102.908C430.734 102.974 430.82 103.007 430.989 103.072C430.989 103.531 430.989 103.754 430.989 104.189C430.191 103.883 429.793 103.731 428.996 103.424C428.996 102.99 428.996 102.764 428.996 102.308C429.167 102.373 429.252 102.405 429.42 102.471C429.42 100.761 429.42 99.8305 429.42 97.7364C429.251 97.6715 429.166 97.6396 428.996 97.5747C428.996 97.014 428.996 96.726 428.996 96.1357C429.793 96.4415 430.191 96.5949 430.989 96.9007Z" fill="white"/>
<path d="M435.276 100.061C434.697 99.8366 434.408 99.7268 433.829 99.5037C433.829 102.12 433.829 103.246 433.829 105.282C433.369 105.106 433.142 105.015 432.682 104.84C432.682 102.804 432.682 101.679 432.682 99.0622C432.108 98.8403 431.819 98.7329 431.242 98.5109C431.242 97.9243 431.242 97.6209 431.242 97C432.854 97.6185 433.662 97.9302 435.275 98.5487C435.276 99.1708 435.276 99.473 435.276 100.061Z" fill="white"/>
<path d="M435.378 108.16C414.182 100.015 392.98 91.8763 371.781 83.737C371.781 83.5032 371.781 83.3816 371.781 83.1396C392.98 91.2814 414.18 99.4196 435.378 107.562C435.378 107.804 435.378 107.925 435.378 108.16Z" fill="white"/>
<path d="M371.781 97.3389C371.781 99.2304 371.781 100.245 371.781 102.679C373.297 103.26 374.056 103.551 375.572 104.134C375.572 101.698 375.572 100.686 375.572 98.7947C374.056 98.2126 373.297 97.9198 371.781 97.3389ZM374.746 102.749C373.89 102.42 373.463 102.256 372.607 101.926C372.607 100.448 372.607 99.7842 372.607 98.5267C373.463 98.8561 373.891 99.0203 374.748 99.3497C374.748 100.606 374.746 101.271 374.746 102.749Z" fill="white"/>
<path d="M376.703 99.2295C376.703 101.121 376.703 102.135 376.703 104.569C378.22 105.151 378.98 105.444 380.496 106.026C380.496 103.591 380.496 102.577 380.496 100.685C378.979 100.103 378.22 99.8128 376.703 99.2295ZM379.67 104.637C378.813 104.309 378.383 104.146 377.528 103.818C377.528 102.341 377.529 101.675 377.529 100.419C378.386 100.747 378.814 100.911 379.671 101.24C379.67 102.495 379.67 103.16 379.67 104.637Z" fill="white"/>
<path d="M381.629 101.12C381.629 103.012 381.629 104.026 381.629 106.46C383.146 107.042 383.904 107.332 385.42 107.915C385.42 105.479 385.42 104.468 385.42 102.577C383.904 101.994 383.146 101.703 381.629 101.12ZM384.595 106.529C383.737 106.201 383.307 106.037 382.451 105.707C382.451 104.23 382.451 103.567 382.451 102.31C383.309 102.637 383.739 102.804 384.595 103.131C384.595 104.388 384.595 105.052 384.595 106.529Z" fill="white"/>
<path d="M391.473 104.9C391.473 106.793 391.473 107.806 391.473 110.241C392.99 110.822 393.75 111.115 395.268 111.696C395.268 109.261 395.265 108.248 395.265 106.357C393.749 105.774 392.99 105.484 391.473 104.9ZM394.44 110.309C393.583 109.981 393.155 109.817 392.298 109.488C392.298 108.011 392.301 107.345 392.301 106.088C393.157 106.416 393.585 106.583 394.442 106.911C394.441 108.169 394.44 108.832 394.44 110.309Z" fill="white"/>
<path d="M396.398 106.792C396.398 108.686 396.398 109.698 396.398 112.134C397.916 112.715 398.673 113.005 400.191 113.587C400.191 111.153 400.191 110.138 400.191 108.247C398.673 107.663 397.916 107.375 396.398 106.792ZM399.367 112.202C398.509 111.873 398.08 111.706 397.223 111.377C397.223 109.9 397.223 109.236 397.223 107.98C398.08 108.308 398.509 108.475 399.367 108.803C399.367 110.059 399.367 110.724 399.367 112.202Z" fill="white"/>
<path d="M401.32 108.68C401.32 110.574 401.32 111.586 401.32 114.02C402.836 114.602 403.595 114.895 405.111 115.476C405.111 113.041 405.111 112.027 405.111 110.136C403.594 109.555 402.836 109.264 401.32 108.68ZM404.284 114.091C403.428 113.763 402.999 113.596 402.141 113.268C402.141 111.79 402.144 111.127 402.144 109.87C403 110.199 403.429 110.362 404.285 110.691C404.284 111.948 404.284 112.614 404.284 114.091Z" fill="white"/>
<path d="M406.242 110.572C406.242 112.465 406.242 113.478 406.242 115.913C407.758 116.495 408.516 116.787 410.033 117.369C410.033 114.934 410.033 113.92 410.033 112.028C408.515 111.446 407.758 111.154 406.242 110.572ZM409.206 115.98C408.349 115.653 407.921 115.489 407.064 115.16C407.064 113.681 407.065 113.019 407.065 111.761C407.922 112.091 408.351 112.255 409.207 112.582C409.206 113.839 409.206 114.503 409.206 115.98Z" fill="white"/>
<path d="M411.168 112.463C411.168 114.354 411.168 115.369 411.168 117.802C412.683 118.384 413.444 118.675 414.961 119.258C414.961 116.822 414.961 115.81 414.961 113.919C413.443 113.337 412.683 113.045 411.168 112.463ZM414.134 117.871C413.275 117.543 412.849 117.38 411.991 117.05C411.991 115.572 411.992 114.908 411.992 113.651C412.85 113.98 413.279 114.144 414.134 114.474C414.134 115.729 414.134 116.394 414.134 117.871Z" fill="white"/>
<path d="M421.012 116.244C421.012 118.138 421.012 119.15 421.012 121.585C422.527 122.166 423.287 122.458 424.802 123.039C424.802 120.605 424.802 119.592 424.802 117.699C423.285 117.118 422.527 116.827 421.012 116.244ZM423.978 121.653C423.121 121.325 422.693 121.158 421.835 120.829C421.835 119.352 421.836 118.688 421.836 117.432C422.693 117.76 423.121 117.926 423.978 118.255C423.978 119.511 423.978 120.176 423.978 121.653Z" fill="white"/>
<path d="M425.93 118.132C425.93 120.025 425.93 121.039 425.93 123.472C427.447 124.056 428.205 124.346 429.722 124.929C429.722 122.494 429.722 121.479 429.722 119.589C428.207 119.007 427.449 118.715 425.93 118.132ZM428.897 123.544C428.039 123.215 427.61 123.049 426.754 122.719C426.754 121.242 426.757 120.578 426.757 119.322C427.613 119.65 428.039 119.816 428.896 120.144C428.896 121.4 428.897 122.066 428.897 123.544Z" fill="white"/>
<path d="M430.857 120.023C430.857 121.916 430.855 122.928 430.855 125.364C432.372 125.945 433.133 126.24 434.649 126.821C434.649 124.386 434.649 123.371 434.649 121.48C433.132 120.896 432.373 120.606 430.857 120.023ZM433.824 125.432C432.966 125.104 432.536 124.939 431.681 124.61C431.681 123.132 431.681 122.469 431.681 121.212C432.537 121.542 432.967 121.704 433.824 122.033C433.824 123.289 433.824 123.955 433.824 125.432Z" fill="white"/>
<path d="M428.328 129.026C409.479 121.789 390.629 114.551 371.781 107.312C371.781 106.205 371.781 105.682 371.781 104.692C390.63 111.931 409.48 119.17 428.328 126.407C428.328 127.396 428.328 127.917 428.328 129.026Z" fill="white"/>
<path d="M400.12 123.168C388.785 118.814 383.117 116.64 371.781 112.287C371.781 110.947 371.781 110.32 371.781 109.128C383.118 113.481 388.785 115.655 400.12 120.009C400.12 121.201 400.12 121.83 400.12 123.168Z" fill="white"/>
<path d="M383.68 93.5853C382.342 93.0706 381.673 92.8156 380.335 92.3009C380.335 92.223 380.335 92.1805 380.335 92.1014C381.645 92.6055 382.298 92.8569 383.607 93.3587C383.356 92.7047 382.743 92.0577 382.022 91.7815C380.581 91.2278 379.859 90.9516 378.417 90.3979C378.417 91 378.417 91.2916 378.417 91.8629C378.327 91.8275 378.282 91.8086 378.191 91.7744C378.191 91.203 378.191 90.9126 378.191 90.3105C378.025 90.2456 377.94 90.2137 377.772 90.1488C377.772 90.7509 377.772 91.0425 377.772 91.6139C377.682 91.5796 377.638 91.5619 377.549 91.5277C377.549 90.9563 377.549 90.6635 377.549 90.0615C376.335 89.5952 375.726 89.3626 374.513 88.8975C374.513 89.7274 374.512 90.1228 374.512 90.8996C378.197 92.3151 380.043 93.0246 383.73 94.44C383.73 94.2452 383.727 94.1473 383.727 93.9501C383.726 93.8321 383.71 93.7093 383.68 93.5853Z" fill="white"/>
<path d="M373.49 95.3894C374.248 95.6809 374.627 95.8261 375.385 96.1177C375.385 95.7813 375.383 95.6125 375.383 95.2831C375.476 95.3173 375.519 95.3362 375.61 95.3716C375.61 95.7022 375.611 95.8687 375.611 96.2051C375.989 96.3503 376.181 96.4223 376.561 96.5687C376.561 96.2311 376.56 96.0646 376.56 95.7341C376.651 95.7695 376.698 95.7884 376.788 95.8226C376.788 96.152 376.788 96.3208 376.788 96.6572C378.881 97.4624 379.927 97.8626 382.02 98.6653C382.02 98.1353 382.02 97.8744 382.02 97.3561C377.928 95.786 375.882 95.0021 371.789 93.4297C371.867 94.1829 372.597 95.0482 373.49 95.3894Z" fill="white"/>
<path d="M378.191 92.5083C375.628 91.5237 374.346 91.0314 371.781 90.0469C371.781 90.427 371.782 90.6135 371.782 90.9878C373.307 91.5733 374.069 91.8637 375.593 92.4492C375.593 92.5248 375.593 92.5649 375.593 92.6393C374.069 92.0549 373.307 91.7622 371.782 91.1766C371.782 91.3856 371.782 91.4883 371.782 91.6961C373.307 92.2816 374.069 92.5744 375.593 93.1599C375.593 93.2343 375.593 93.2732 375.593 93.3476C374.069 92.7633 373.307 92.4705 371.782 91.8849C371.782 92.0927 371.782 92.1966 371.782 92.402C373.307 92.9864 374.069 93.2791 375.593 93.8647C375.593 93.9391 375.594 93.978 375.594 94.0512C374.069 93.4657 373.307 93.1753 371.782 92.5897C371.782 92.8471 371.782 92.9769 371.782 93.2355C374.346 94.22 375.627 94.7123 378.191 95.6969C378.191 94.4231 378.191 93.8104 378.191 92.5083Z" fill="white"/>
<path d="M378.419 95.7852C379.876 96.345 380.603 96.6249 382.06 97.1847C382.06 95.9104 382.058 95.2963 382.058 93.9936C380.603 93.435 379.874 93.1563 378.418 92.5977C378.418 93.8979 378.419 94.5121 378.419 95.7852Z" fill="white"/>
<path d="M374.284 88.8117C373.965 88.6889 373.805 88.6263 373.486 88.5035C372.543 88.1409 371.782 88.5472 371.782 89.3644C371.782 89.5617 371.781 89.6597 371.781 89.8534C372.783 90.2384 373.281 90.4309 374.283 90.8147C374.283 90.0376 374.284 89.6432 374.284 88.8117Z" fill="white"/>
<path d="M382.289 97.2693C382.865 97.4913 383.151 97.6023 383.729 97.8244C383.729 97.2374 383.73 96.9481 383.73 96.3635C383.155 96.1414 382.867 96.0316 382.289 95.8096C382.289 96.3942 382.289 96.6823 382.289 97.2693Z" fill="white"/>
<path d="M382.25 98.7401C383.034 98.9527 383.65 98.6444 383.719 98.0091C383.131 97.7835 382.838 97.6701 382.25 97.4434C382.25 97.9547 382.25 98.2134 382.25 98.7401Z" fill="white"/>
<path d="M382.289 95.6225C382.865 95.8445 383.154 95.9543 383.73 96.1764C383.73 95.5646 383.73 95.2611 383.73 94.634C383.155 94.4119 382.867 94.3021 382.289 94.0801C382.289 94.7072 382.289 95.0107 382.289 95.6225Z" fill="white"/>
<path d="M293.765 85.2048C293.765 64.6138 277.063 47.9231 256.461 47.9231C256.588 47.8003 246.19 47.9845 246.081 47.9231C231.87 53.188 219.156 69.1716 219.156 85.2048C219.156 102.678 233.771 118.447 250.004 122.485C250.029 122.364 253.342 122.485 256.461 122.485C277.063 122.485 293.765 105.793 293.765 85.2048Z" fill="#0155A0" stroke="#132638" stroke-width="0.9625" stroke-miterlimit="10" stroke-linecap="round" stroke-linejoin="round"/>
<path d="M261.344 53.1011H275.788" stroke="#132638" stroke-width="0.9625" stroke-miterlimit="10" stroke-linecap="round" stroke-linejoin="round"/>
<path d="M266.645 56.9375H281.09" stroke="#132638" stroke-width="0.9625" stroke-miterlimit="10" stroke-linecap="round" stroke-linejoin="round"/>
<path d="M271.953 60.7764H284.935" stroke="#132638" stroke-width="0.9625" stroke-miterlimit="10" stroke-linecap="round" stroke-linejoin="round"/>
<path d="M277.254 64.6128H287.678" stroke="#132638" stroke-width="0.9625" stroke-miterlimit="10" stroke-linecap="round" stroke-linejoin="round"/>
<path d="M277.254 68.8179H289.872" stroke="#132638" stroke-width="0.9625" stroke-miterlimit="10" stroke-linecap="round" stroke-linejoin="round"/>
<path d="M277.254 73.0215H292.066" stroke="#132638" stroke-width="0.9625" stroke-miterlimit="10" stroke-linecap="round" stroke-linejoin="round"/>
<path d="M277.254 77.2241H292.798" stroke="#132638" stroke-width="0.9625" stroke-miterlimit="10" stroke-linecap="round" stroke-linejoin="round"/>
<path d="M277.254 81.4277H293.529" stroke="#132638" stroke-width="0.9625" stroke-miterlimit="10" stroke-linecap="round" stroke-linejoin="round"/>
<path d="M277.254 85.6318H293.711" stroke="#132638" stroke-width="0.9625" stroke-miterlimit="10" stroke-linecap="round" stroke-linejoin="round"/>
<path d="M277.254 89.835H293.346" stroke="#132638" stroke-width="0.9625" stroke-miterlimit="10" stroke-linecap="round" stroke-linejoin="round"/>
<path d="M277.254 94.0381H292.798" stroke="#132638" stroke-width="0.9625" stroke-miterlimit="10" stroke-linecap="round" stroke-linejoin="round"/>
<path d="M277.254 98.2412H291.152" stroke="#132638" stroke-width="0.9625" stroke-miterlimit="10" stroke-linecap="round" stroke-linejoin="round"/>
<path d="M277.254 102.443H289.323" stroke="#132638" stroke-width="0.9625" stroke-miterlimit="10" stroke-linecap="round" stroke-linejoin="round"/>
<path d="M277.254 106.647H286.947" stroke="#132638" stroke-width="0.9625" stroke-miterlimit="10" stroke-linecap="round" stroke-linejoin="round"/>
<path d="M273.414 110.668H283.106" stroke="#132638" stroke-width="0.9625" stroke-miterlimit="10" stroke-linecap="round" stroke-linejoin="round"/>
<path d="M269.57 114.688H279.263" stroke="#132638" stroke-width="0.9625" stroke-miterlimit="10" stroke-linecap="round" stroke-linejoin="round"/>
<path d="M265.73 118.709H273.41" stroke="#132638" stroke-width="0.9625" stroke-miterlimit="10" stroke-linecap="round" stroke-linejoin="round"/>
<path d="M250.063 122.793C270.834 122.793 287.673 105.964 287.673 85.2051C287.673 64.4461 270.834 47.6177 250.063 47.6177C229.292 47.6177 212.453 64.4461 212.453 85.2051C212.453 105.964 229.292 122.793 250.063 122.793Z" fill="#0155A0" stroke="#132638" stroke-width="0.9625" stroke-miterlimit="10" stroke-linecap="round" stroke-linejoin="round"/>
<path d="M250.063 54.5664C266.994 54.5665 280.72 68.2844 280.72 85.2051C280.72 102.124 266.994 115.842 250.063 115.842C233.132 115.842 219.406 102.124 219.406 85.2051C219.406 68.2832 233.132 54.5664 250.063 54.5664Z" fill="#C7C8CA" stroke="#132638"/>
<path d="M250.19 61.77C254.021 61.77 257.127 64.8729 257.127 68.7007C257.127 71.2144 255.788 73.4157 253.781 74.6323L253.703 74.6802L253.646 74.7524C252.593 76.0971 251.96 77.789 251.96 79.6304C251.96 81.4935 252.605 83.2047 253.681 84.5581C254.29 86.0628 255.32 87.3487 256.79 88.2583L257.095 88.438C258.701 89.3392 260.487 89.6139 262.175 89.356L262.266 89.3413L262.345 89.2964C264.325 88.1787 266.804 88.059 268.953 89.1724L269.16 89.2847C272.396 91.099 273.612 95.1193 271.982 98.4038L271.815 98.7192C270 101.952 265.975 103.169 262.689 101.54L262.373 101.373L262.171 101.254C260.102 100.003 258.911 97.8242 258.836 95.5532L258.833 95.4614L258.797 95.3765L258.667 95.0835C258.033 93.728 257.017 92.5354 255.66 91.6948L255.364 91.521V91.52L255.054 91.355C253.512 90.5774 251.827 90.3525 250.23 90.6079C248.634 90.3822 246.952 90.6148 245.422 91.4214L245.114 91.5923C243.524 92.5249 242.386 93.9272 241.76 95.5161L241.727 95.6011L241.725 95.6929C241.694 97.9641 240.546 100.165 238.502 101.458L238.302 101.58C235.102 103.459 231.013 102.482 228.997 99.4185L228.809 99.1157V99.1147L228.636 98.8032C226.994 95.6583 228.006 91.768 230.972 89.8188L231.274 89.6304C233.444 88.3555 236.023 88.3945 238.087 89.5083L238.168 89.5513L238.259 89.564C239.848 89.774 241.511 89.5151 243.022 88.7134L243.322 88.5454C244.931 87.5998 246.078 86.1736 246.699 84.5601C247.777 83.2067 248.422 81.4946 248.422 79.6304C248.422 77.7889 247.788 76.097 246.736 74.7524L246.68 74.6802L246.602 74.6323L246.233 74.3931C244.432 73.1397 243.255 71.0576 243.255 68.7007C243.255 64.8729 246.361 61.7702 250.19 61.77Z" fill="white" stroke="#132638"/>
<path d="M320.901 278.104C320.901 285.511 314.891 291.518 307.48 291.518H194.746C187.337 291.518 181.328 285.511 181.328 278.104V209.799C181.328 202.393 187.337 196.387 194.746 196.387H307.48C314.891 196.387 320.901 202.393 320.901 209.799V278.104Z" fill="white" stroke="#221531" stroke-miterlimit="10" stroke-linecap="round" stroke-linejoin="round"/>
<path d="M307.099 204.517H189.262V283.387H307.099V204.517Z" fill="#0155A0" stroke="#221531" stroke-miterlimit="10" stroke-linecap="round" stroke-linejoin="round"/>
<path d="M313.915 227.126C314.876 227.126 315.661 227.907 315.661 228.872V259.029C315.661 259.993 314.876 260.775 313.915 260.775C312.951 260.775 312.168 259.994 312.168 259.029V228.872C312.167 227.907 312.95 227.126 313.915 227.126Z" fill="#221531"/>
<path d="M307.099 277.519H189.262V283.389H307.099V277.519Z" fill="#C7C8CA"/>
<path d="M307.099 204.517H189.262V210.386H307.099V204.517Z" fill="#C7C8CA"/>
<path d="M464.681 247.526L441.36 256.183L418.039 247.526L441.92 240.543L464.681 247.526Z" fill="#39A5DF" stroke="#132638" stroke-width="1.2868" stroke-miterlimit="10" stroke-linecap="round" stroke-linejoin="round"/>
<path d="M455.614 247.526L441.359 252.818L427.105 247.526L441.7 243.258L455.614 247.526Z" fill="#C7C8CA"/>
<path d="M464.681 247.526L441.359 256.184V283.309L464.681 273.714V247.526Z" fill="#0155A0" stroke="#132638" stroke-width="1.2868" stroke-miterlimit="10" stroke-linecap="round" stroke-linejoin="round"/>
<path d="M418.039 247.526L441.36 256.184V283.309L418.039 273.714V247.526Z" fill="#39A5DF" stroke="#132638" stroke-width="1.2868" stroke-miterlimit="10" stroke-linecap="round" stroke-linejoin="round"/>
<path d="M418.532 247.526L395.211 256.183L371.891 247.526L395.77 240.543L418.532 247.526Z" fill="#39A5DF" stroke="#132638" stroke-width="1.2868" stroke-miterlimit="10" stroke-linecap="round" stroke-linejoin="round"/>
<path d="M409.465 247.526L395.211 252.818L380.957 247.526L395.554 243.258L409.465 247.526Z" fill="#C7C8CA"/>
<path d="M418.532 247.526L395.211 256.184V283.309L418.532 273.714V247.526Z" fill="#0155A0" stroke="#132638" stroke-width="1.2868" stroke-miterlimit="10" stroke-linecap="round" stroke-linejoin="round"/>
<path d="M371.891 247.526L395.211 256.184V283.309L371.891 273.714V247.526Z" fill="#39A5DF" stroke="#132638" stroke-width="1.2868" stroke-miterlimit="10" stroke-linecap="round" stroke-linejoin="round"/>
<path d="M441.713 214.32L418.392 222.978L395.07 214.32L418.95 207.337L441.713 214.32Z" fill="#39A5DF" stroke="#132638" stroke-width="1.2868" stroke-miterlimit="10" stroke-linecap="round" stroke-linejoin="round"/>
<path d="M432.646 214.424L418.392 219.717L404.137 214.424L418.734 210.155L432.646 214.424Z" fill="#C7C8CA"/>
<path d="M441.712 214.32L418.391 222.979V247.597L441.712 240.508V214.32Z" fill="#0155A0" stroke="#132638" stroke-width="1.2868" stroke-miterlimit="10" stroke-linecap="round" stroke-linejoin="round"/>
<path d="M395.07 214.32L418.392 222.979V247.597L395.07 240.508V214.32Z" fill="#39A5DF" stroke="#132638" stroke-width="1.2868" stroke-miterlimit="10" stroke-linecap="round" stroke-linejoin="round"/>
<path d="M137.151 337.435C137.128 337.464 120.707 350.646 120.707 350.646C120.707 350.683 55.7422 257.562 55.7422 257.562C55.7422 257.562 72.2397 244.343 72.2019 244.371C81.4411 247.918 127.913 266.15 137.15 269.698C137.151 277.001 137.151 330.131 137.151 337.435Z" fill="#0155A0" stroke="#132638" stroke-miterlimit="10" stroke-linecap="round" stroke-linejoin="round"/>
<path d="M131.395 267.466C131.395 280.928 131.395 330.833 131.395 342.065C134.532 339.544 137.143 337.447 137.153 337.434C137.153 330.13 137.153 277.001 137.153 269.697C135.882 269.209 133.884 268.434 131.395 267.466Z" fill="#C9CACC"/>
<path d="M120.732 350.654C111.494 347.108 65.022 328.876 55.7852 325.328C55.7852 318.023 55.7852 264.894 55.7852 257.589C65.022 261.137 111.495 279.369 120.732 282.917C120.732 290.221 120.732 343.35 120.732 350.654Z" fill="#0155A0" stroke="#132638" stroke-miterlimit="10" stroke-linecap="round" stroke-linejoin="round"/>
<path d="M120.757 283.115C120.757 283.153 55.7422 257.562 55.7422 257.562C55.7422 257.562 72.2397 244.343 72.2019 244.371C81.4411 247.918 127.913 266.15 137.15 269.698C137.16 269.489 120.757 283.115 120.757 283.115Z" fill="#0155A0" stroke="#132638" stroke-miterlimit="10" stroke-linecap="round" stroke-linejoin="round"/>
<path d="M55.7852 325.328C65.022 328.877 111.494 347.108 120.732 350.654C120.732 347.235 120.732 333.77 120.732 319.667C111.494 316.121 65.022 297.889 55.7852 294.341C55.7852 308.444 55.7852 321.907 55.7852 325.328Z" fill="#D1D3D4"/>
<path d="M71.6387 327.322C69.861 326.64 60.9195 323.131 59.1406 322.449C59.1406 321.043 59.1406 310.819 59.1406 309.414C60.9195 310.096 69.861 313.606 71.6387 314.288C71.6387 315.693 71.6387 325.917 71.6387 327.322Z" fill="#221531"/>
<path d="M71.131 318.367C71.131 315.198 68.5608 312.632 65.3917 312.632C62.2214 312.632 59.6523 315.199 59.6523 318.367C59.6523 321.535 62.2226 324.102 65.3917 324.102C68.5608 324.103 71.131 321.535 71.131 318.367Z" fill="#0084B4" stroke="#221531" stroke-width="0.1924" stroke-miterlimit="10" stroke-linecap="round" stroke-linejoin="round"/>
<path d="M67.319 318.369C67.319 317.306 66.4568 316.442 65.3925 316.442C64.3283 316.442 63.4648 317.305 63.4648 318.369C63.4648 319.432 64.3271 320.295 65.3925 320.295C66.4568 320.295 67.319 319.433 67.319 318.369Z" fill="#221531"/>
<path d="M86.7976 333.224C85.0199 332.542 76.0773 329.034 74.3008 328.351C74.3008 326.945 74.3008 316.721 74.3008 315.316C76.0773 315.999 85.0199 319.507 86.7976 320.189C86.7976 321.597 86.7976 331.819 86.7976 333.224Z" fill="#221531"/>
<path d="M86.2884 324.269C86.2884 321.101 83.7182 318.534 80.5491 318.534C77.3777 318.534 74.8086 321.103 74.8086 324.269C74.8086 327.437 77.3788 330.004 80.5491 330.004C83.7182 330.005 86.2884 327.437 86.2884 324.269Z" fill="#0084B4" stroke="#221531" stroke-width="0.1924" stroke-miterlimit="10" stroke-linecap="round" stroke-linejoin="round"/>
<path d="M82.4753 324.271C82.4753 323.208 81.613 322.345 80.5488 322.345C79.4845 322.345 78.6211 323.207 78.6211 324.271C78.6211 325.334 79.4834 326.197 80.5488 326.197C81.613 326.197 82.4753 325.335 82.4753 324.271Z" fill="#221531"/>
<path d="M101.951 339.127C100.173 338.444 91.232 334.936 89.4531 334.254C89.4531 332.848 89.4531 322.624 89.4531 321.219C91.232 321.901 100.173 325.409 101.951 326.092C101.951 327.499 101.951 337.722 101.951 339.127Z" fill="#221531"/>
<path d="M101.444 330.172C101.444 327.004 98.8733 324.437 95.7042 324.437C92.5339 324.437 89.9648 327.005 89.9648 330.172C89.9648 333.34 92.5351 335.907 95.7042 335.907C98.8733 335.908 101.444 333.34 101.444 330.172Z" fill="#0084B4" stroke="#221531" stroke-width="0.1924" stroke-miterlimit="10" stroke-linecap="round" stroke-linejoin="round"/>
<path d="M97.6315 330.173C97.6315 329.11 96.7693 328.247 95.705 328.247C94.6408 328.247 93.7773 329.109 93.7773 330.173C93.7773 331.236 94.6396 332.1 95.705 332.1C96.7693 332.1 97.6315 331.237 97.6315 330.173Z" fill="#221531"/>
<path d="M117.114 345.029C115.336 344.347 106.394 340.838 104.617 340.156C104.617 338.75 104.617 328.526 104.617 327.121C106.394 327.803 115.336 331.312 117.114 331.994C117.114 333.401 117.114 343.624 117.114 345.029Z" fill="#221531"/>
<path d="M116.605 336.074C116.605 332.906 114.035 330.339 110.866 330.339C107.694 330.339 105.125 332.907 105.125 336.074C105.125 339.242 107.695 341.809 110.866 341.809C114.035 341.81 116.605 339.242 116.605 336.074Z" fill="#0084B4" stroke="#221531" stroke-width="0.1924" stroke-miterlimit="10" stroke-linecap="round" stroke-linejoin="round"/>
<path d="M112.788 336.076C112.788 335.013 111.926 334.149 110.861 334.149C109.797 334.149 108.934 335.012 108.934 336.076C108.934 337.139 109.796 338.002 110.861 338.002C111.926 338.002 112.788 337.14 112.788 336.076Z" fill="#221531"/>
<path d="M75.8499 287.052C75.8251 287.086 62.3892 281.725 62.4376 281.676C62.4376 279.707 62.4376 282.095 62.4376 280.127C64.9264 281.083 73.3612 284.547 75.8499 285.504C75.8499 287.475 75.8499 285.084 75.8499 287.052Z" fill="#132638"/>
<path d="M75.8499 284.642C75.8251 284.676 62.3892 279.314 62.4376 279.265C62.4376 277.296 62.4376 279.686 62.4376 277.717C64.9264 278.674 73.3612 282.138 75.8499 283.095C75.8499 285.062 75.8499 282.672 75.8499 284.642Z" fill="#132638"/>
<path d="M75.8499 282.233C75.8251 282.267 62.3892 276.904 62.4376 276.855C62.4376 274.886 62.4376 277.276 62.4376 275.307C64.9264 276.262 73.3612 279.727 75.8499 280.684C75.8499 282.653 75.8499 280.263 75.8499 282.233Z" fill="#132638"/>
<path d="M75.8499 279.823C75.8251 279.857 62.3892 274.494 62.4376 274.445C62.4376 272.476 62.4376 274.866 62.4376 272.897C64.9264 273.853 73.3612 277.317 75.8499 278.273C75.8499 280.244 75.8499 277.854 75.8499 279.823Z" fill="#132638"/>
<path d="M75.8499 277.411C75.8251 277.446 62.3892 272.084 62.4376 272.035C62.4376 270.066 62.4376 272.455 62.4376 270.486C64.9264 271.443 73.3612 274.906 75.8499 275.864C75.8499 277.833 75.8499 275.443 75.8499 277.411Z" fill="#132638"/>
<path d="M75.8499 275.002C75.8251 275.037 62.3892 269.675 62.4376 269.625C62.4376 267.657 62.4376 270.045 62.4376 268.077C64.9264 269.035 73.3612 272.498 75.8499 273.456C75.8499 275.423 75.8499 273.033 75.8499 275.002Z" fill="#132638"/>
<path d="M75.8499 272.593C75.8251 272.628 62.3892 267.265 62.4376 267.215C62.4376 265.247 62.4376 267.637 62.4376 265.667C64.9264 266.622 73.3612 270.088 75.8499 271.044C75.8499 273.014 75.8499 270.624 75.8499 272.593Z" fill="#132638"/>
<path d="M113.439 301.123C113.414 301.157 99.9779 295.795 100.027 295.745C100.027 293.777 100.027 296.166 100.027 294.196C102.516 295.154 110.95 298.617 113.439 299.575C113.439 301.543 113.439 299.153 113.439 301.123Z" fill="#132638"/>
<path d="M113.439 298.713C113.414 298.748 99.9779 293.385 100.027 293.335C100.027 291.367 100.027 293.757 100.027 291.787C102.516 292.744 110.95 296.208 113.439 297.164C113.439 299.133 113.439 296.744 113.439 298.713Z" fill="#132638"/>
<path d="M113.439 296.303C113.414 296.337 99.9779 290.974 100.027 290.926C100.027 288.956 100.027 291.347 100.027 289.378C102.516 290.333 110.95 293.798 113.439 294.754C113.439 296.723 113.439 294.335 113.439 296.303Z" fill="#132638"/>
<path d="M113.439 293.893C113.414 293.927 99.9779 288.565 100.027 288.517C100.027 286.547 100.027 288.936 100.027 286.969C102.516 287.925 110.95 291.388 113.439 292.346C113.439 294.314 113.439 291.924 113.439 293.893Z" fill="#132638"/>
<path d="M113.439 291.483C113.414 291.517 99.9779 286.155 100.027 286.106C100.027 284.137 100.027 286.526 100.027 284.557C102.516 285.514 110.95 288.977 113.439 289.935C113.439 291.903 113.439 289.514 113.439 291.483Z" fill="#132638"/>
<path d="M113.439 289.074C113.414 289.108 99.9779 283.745 100.027 283.695C100.027 281.727 100.027 284.117 100.027 282.147C102.516 283.104 110.95 286.568 113.439 287.525C113.439 289.493 113.439 287.104 113.439 289.074Z" fill="#132638"/>
<path d="M113.439 286.663C113.414 286.698 99.9779 281.335 100.027 281.286C100.027 279.317 100.027 281.708 100.027 279.738C102.516 280.694 110.95 284.158 113.439 285.114C113.439 287.084 113.439 284.695 113.439 286.663Z" fill="#132638"/>
<path d="M124.289 285.665C124.289 285.665 124.276 285.66 124.27 285.658C124.287 285.617 124.287 291.465 124.27 291.455C124.233 291.411 128.712 287.968 128.729 287.945C128.724 287.837 128.724 281.99 128.729 281.989C128.724 281.937 124.289 285.665 124.289 285.665Z" fill="white"/>
<path d="M124.289 294.517C124.289 294.517 124.276 294.512 124.27 294.51C124.287 294.47 124.287 300.318 124.27 300.307C124.233 300.264 128.712 296.82 128.729 296.798C128.724 296.689 128.724 290.843 128.729 290.841C128.724 290.789 124.289 294.517 124.289 294.517Z" fill="white"/>
<path d="M124.289 303.373C124.289 303.373 124.276 303.368 124.27 303.366C124.287 303.325 124.287 309.173 124.27 309.163C124.233 309.119 128.712 305.676 128.729 305.653C128.724 305.545 128.724 299.698 128.729 299.697C128.724 299.645 124.289 303.373 124.289 303.373Z" fill="white"/>
<path d="M124.285 312.226C124.285 312.226 124.272 312.221 124.266 312.219C124.284 312.179 124.284 318.027 124.266 318.015C124.229 317.973 128.708 314.529 128.725 314.507C128.72 314.398 128.72 308.552 128.725 308.55C128.72 308.498 124.285 312.226 124.285 312.226Z" fill="white"/>
<path d="M124.285 326.569C124.285 326.569 124.272 326.564 124.266 326.562C124.284 326.522 124.284 344.293 124.266 344.282C124.229 344.24 128.708 340.796 128.725 340.774C128.72 340.665 128.72 322.894 128.725 322.893C128.72 322.84 124.285 326.569 124.285 326.569Z" fill="#87C7E8"/>
<g clip-path="url(#clip0_197_7748)">
<path d="M72.7109 58.5039H81.4221V62.8589H72.7109V58.5039Z" fill="#57A4FF"/>
<path d="M91.2227 45.4448H99.9338V49.7998H91.2227V45.4448Z" fill="#57A4FF"/>
<path d="M132.6 84.6221H123.889L121.711 88.977H134.778L132.6 84.6221Z" fill="#57A4FF"/>
<path d="M130.422 95.5039H126.066V102.033H67.2656V105.298H134.777V102.033H130.422V95.5039Z" fill="#57A4FF"/>
<path d="M110.82 56.3262H119.531V67.207H110.82V56.3262Z" fill="#57A4FF"/>
<path d="M71.6211 67.21H82.5101V71.5649H71.6211V67.21Z" fill="#57A4FF"/>
<path d="M71.6211 75.9155H82.5101V80.2705H71.6211V75.9155Z" fill="#57A4FF"/>
<path d="M71.6211 84.6221H82.5101V88.977H71.6211V84.6221Z" fill="#57A4FF"/>
<path d="M71.6211 93.3281H82.5101V97.6831H71.6211V93.3281Z" fill="#57A4FF"/>
<path d="M90.1328 54.1509H93.3995V59.5924H90.1328V54.1509Z" fill="#57A4FF"/>
<path d="M97.7539 54.1509H101.021V59.5924H97.7539V54.1509Z" fill="#57A4FF"/>
<path d="M90.1328 63.9448H93.3995V69.3863H90.1328V63.9448Z" fill="#57A4FF"/>
<path d="M97.7539 63.9448H101.021V69.3863H97.7539V63.9448Z" fill="#57A4FF"/>
<path d="M90.1328 73.7393H93.3995V79.1807H90.1328V73.7393Z" fill="#57A4FF"/>
<path d="M97.7539 73.7393H101.021V79.1807H97.7539V73.7393Z" fill="#57A4FF"/>
<path d="M90.1328 83.5332H93.3995V88.9747H90.1328V83.5332Z" fill="#57A4FF"/>
<path d="M97.7539 83.5332H101.021V88.9747H97.7539V83.5332Z" fill="#57A4FF"/>
<path d="M90.1328 93.3262H93.3995V98.769H90.1328V93.3262Z" fill="#57A4FF"/>
<path d="M97.7539 93.3262H101.021V98.769H97.7539V93.3262Z" fill="#57A4FF"/>
<path d="M135.72 88.4362L133.542 84.0832C133.451 83.9025 133.312 83.7505 133.14 83.6444C132.968 83.5382 132.77 83.4819 132.567 83.4819H123.856C123.654 83.4819 123.456 83.5382 123.284 83.6444C123.111 83.7505 122.972 83.9025 122.882 84.0832L122.767 84.3131V67.1582C122.767 66.8696 122.653 66.5928 122.448 66.3887C122.244 66.1846 121.967 66.07 121.678 66.07H120.589V56.2757C120.589 55.9871 120.475 55.7103 120.271 55.5062C120.066 55.3021 119.789 55.1875 119.501 55.1875H118.412V51.9227C118.412 51.6341 118.297 51.3573 118.093 51.1532C117.889 50.9491 117.612 50.8345 117.323 50.8345H116.234V47.5697C116.234 47.2811 116.119 47.0043 115.915 46.8002C115.711 46.5962 115.434 46.4815 115.145 46.4815C114.856 46.4815 114.579 46.5962 114.375 46.8002C114.171 47.0043 114.056 47.2811 114.056 47.5697V50.8345H112.967C112.678 50.8345 112.401 50.9491 112.197 51.1532C111.993 51.3573 111.878 51.6341 111.878 51.9227V55.1875H110.789C110.501 55.1875 110.224 55.3021 110.019 55.5062C109.815 55.7103 109.7 55.9871 109.7 56.2757V66.07H108.612C108.323 66.07 108.046 66.1846 107.842 66.3887C107.637 66.5928 107.523 66.8696 107.523 67.1582V100.894H105.345V49.7462C105.345 49.4576 105.23 49.1808 105.026 48.9767C104.822 48.7727 104.545 48.658 104.256 48.658H100.989V45.3933C100.989 45.1046 100.875 44.8278 100.67 44.6237C100.466 44.4197 100.189 44.305 99.9004 44.305H96.6337V39.952C96.6337 39.6634 96.519 39.3866 96.3147 39.1825C96.1105 38.9784 95.8336 38.8638 95.5448 38.8638C95.256 38.8638 94.979 38.9784 94.7748 39.1825C94.5706 39.3866 94.4559 39.6634 94.4559 39.952V44.305H91.1892C90.9004 44.305 90.6234 44.4197 90.4192 44.6237C90.215 44.8278 90.1003 45.1046 90.1003 45.3933V48.658H86.8336C86.5448 48.658 86.2678 48.7727 86.0636 48.9767C85.8594 49.1808 85.7447 49.4576 85.7447 49.7462V61.717H82.478V58.4522C82.478 58.1636 82.3633 57.8868 82.1591 57.6827C81.9549 57.4786 81.6779 57.364 81.3891 57.364H72.6779C72.3891 57.364 72.1122 57.4786 71.908 57.6827C71.7037 57.8868 71.589 58.1636 71.589 58.4522V61.717H67.2334C66.9446 61.717 66.6677 61.8316 66.4635 62.0357C66.2593 62.2398 66.1445 62.5166 66.1445 62.8052V105.247C66.1445 105.535 66.2593 105.812 66.4635 106.016C66.6677 106.22 66.9446 106.335 67.2334 106.335H134.745C135.034 106.335 135.311 106.22 135.515 106.016C135.719 105.812 135.834 105.535 135.834 105.247V88.9231C135.834 88.7542 135.795 88.5876 135.72 88.4362ZM124.529 85.6584H131.895L132.984 87.8349H123.44L124.529 85.6584ZM114.056 53.011H116.234V55.1875H114.056V53.011ZM111.878 57.364H118.412V66.07H111.878V57.364ZM109.7 68.2465H120.589V100.894H109.7V68.2465ZM92.2781 46.4815H98.8115V48.658H92.2781V46.4815ZM87.9225 50.8345H103.167V100.894H87.9225V50.8345ZM73.7668 59.5405H80.3002V61.717H73.7668V59.5405ZM68.3223 63.8935H85.7447V100.894H68.3223V63.8935ZM133.656 104.159H68.3223V103.07H133.656V104.159ZM127.123 100.894V96.5409H129.301V100.894H127.123ZM133.656 100.894H131.478V95.4526C131.478 95.164 131.364 94.8872 131.159 94.6831C130.955 94.479 130.678 94.3644 130.39 94.3644H126.034C125.745 94.3644 125.468 94.479 125.264 94.6831C125.06 94.8872 124.945 95.164 124.945 95.4526V100.894H122.767V90.0114H133.656V100.894Z" fill="#004FAC"/>
<path d="M82.4779 66.0693H71.5889C71.3001 66.0693 71.0231 66.184 70.8189 66.3882C70.6147 66.5923 70.5 66.8692 70.5 67.1578V71.5119C70.5 71.8006 70.6147 72.0775 70.8189 72.2816C71.0231 72.4857 71.3001 72.6004 71.5889 72.6004H82.4779C82.7667 72.6004 83.0436 72.4857 83.2478 72.2816C83.4521 72.0775 83.5668 71.8006 83.5668 71.5119V67.1578C83.5668 66.8692 83.4521 66.5923 83.2478 66.3882C83.0436 66.184 82.7667 66.0693 82.4779 66.0693ZM81.389 70.4234H72.6778V68.2464H81.389V70.4234Z" fill="#004FAC"/>
<path d="M82.4779 74.7754H71.5889C71.3001 74.7754 71.0231 74.8901 70.8189 75.0942C70.6147 75.2983 70.5 75.5752 70.5 75.8639V80.218C70.5 80.5067 70.6147 80.7835 70.8189 80.9877C71.0231 81.1918 71.3001 81.3065 71.5889 81.3065H82.4779C82.7667 81.3065 83.0436 81.1918 83.2478 80.9877C83.4521 80.7835 83.5668 80.5067 83.5668 80.218V75.8639C83.5668 75.5752 83.4521 75.2983 83.2478 75.0942C83.0436 74.8901 82.7667 74.7754 82.4779 74.7754ZM81.389 79.1294H72.6778V76.9524H81.389V79.1294Z" fill="#004FAC"/>
<path d="M82.4779 83.4814H71.5889C71.3001 83.4814 71.0231 83.5961 70.8189 83.8003C70.6147 84.0044 70.5 84.2813 70.5 84.57V88.924C70.5 89.2127 70.6147 89.4896 70.8189 89.6937C71.0231 89.8978 71.3001 90.0125 71.5889 90.0125H82.4779C82.7667 90.0125 83.0436 89.8978 83.2478 89.6937C83.4521 89.4896 83.5668 89.2127 83.5668 88.924V84.57C83.5668 84.2813 83.4521 84.0044 83.2478 83.8003C83.0436 83.5961 82.7667 83.4814 82.4779 83.4814ZM81.389 87.8355H72.6778V85.6585H81.389V87.8355Z" fill="#004FAC"/>
<path d="M82.4779 92.1875H71.5889C71.3001 92.1875 71.0231 92.3022 70.8189 92.5063C70.6147 92.7105 70.5 92.9873 70.5 93.276V97.6301C70.5 97.9188 70.6147 98.1956 70.8189 98.3998C71.0231 98.6039 71.3001 98.7186 71.5889 98.7186H82.4779C82.7667 98.7186 83.0436 98.6039 83.2478 98.3998C83.4521 98.1956 83.5668 97.9188 83.5668 97.6301V93.276C83.5668 92.9873 83.4521 92.7105 83.2478 92.5063C83.0436 92.3022 82.7667 92.1875 82.4779 92.1875ZM81.389 96.5416H72.6778V94.3645H81.389V96.5416Z" fill="#004FAC"/>
<path d="M90.1006 60.6282H93.3673C93.6561 60.6282 93.9331 60.5135 94.1373 60.3094C94.3415 60.1054 94.4562 59.8286 94.4562 59.54V54.0989C94.4562 53.8103 94.3415 53.5335 94.1373 53.3295C93.9331 53.1254 93.6561 53.0107 93.3673 53.0107H90.1006C89.8118 53.0107 89.5349 53.1254 89.3306 53.3295C89.1264 53.5335 89.0117 53.8103 89.0117 54.0989V59.54C89.0117 59.8286 89.1264 60.1054 89.3306 60.3094C89.5349 60.5135 89.8118 60.6282 90.1006 60.6282ZM91.1895 55.1872H92.2784V58.4518H91.1895V55.1872Z" fill="#004FAC"/>
<path d="M97.7217 60.6282H100.988C101.277 60.6282 101.554 60.5135 101.758 60.3094C101.963 60.1054 102.077 59.8286 102.077 59.54V54.0989C102.077 53.8103 101.963 53.5335 101.758 53.3295C101.554 53.1254 101.277 53.0107 100.988 53.0107H97.7217C97.4329 53.0107 97.156 53.1254 96.9517 53.3295C96.7475 53.5335 96.6328 53.8103 96.6328 54.0989V59.54C96.6328 59.8286 96.7475 60.1054 96.9517 60.3094C97.156 60.5135 97.4329 60.6282 97.7217 60.6282ZM98.8106 55.1872H99.8995V58.4518H98.8106V55.1872Z" fill="#004FAC"/>
<path d="M90.1006 70.4221H93.3673C93.6561 70.4221 93.9331 70.3075 94.1373 70.1034C94.3415 69.8993 94.4562 69.6225 94.4562 69.3339V63.8929C94.4562 63.6043 94.3415 63.3275 94.1373 63.1234C93.9331 62.9193 93.6561 62.8047 93.3673 62.8047H90.1006C89.8118 62.8047 89.5349 62.9193 89.3306 63.1234C89.1264 63.3275 89.0117 63.6043 89.0117 63.8929V69.3339C89.0117 69.6225 89.1264 69.8993 89.3306 70.1034C89.5349 70.3075 89.8118 70.4221 90.1006 70.4221ZM91.1895 64.9811H92.2784V68.2457H91.1895V64.9811Z" fill="#004FAC"/>
<path d="M97.7217 70.4221H100.988C101.277 70.4221 101.554 70.3075 101.758 70.1034C101.963 69.8993 102.077 69.6225 102.077 69.3339V63.8929C102.077 63.6043 101.963 63.3275 101.758 63.1234C101.554 62.9193 101.277 62.8047 100.988 62.8047H97.7217C97.4329 62.8047 97.156 62.9193 96.9517 63.1234C96.7475 63.3275 96.6328 63.6043 96.6328 63.8929V69.3339C96.6328 69.6225 96.7475 69.8993 96.9517 70.1034C97.156 70.3075 97.4329 70.4221 97.7217 70.4221ZM98.8106 64.9811H99.8995V68.2457H98.8106V64.9811Z" fill="#004FAC"/>
<path d="M90.1006 80.2165H93.3673C93.6561 80.2165 93.9331 80.1019 94.1373 79.8978C94.3415 79.6937 94.4562 79.417 94.4562 79.1283V73.6873C94.4562 73.3987 94.3415 73.1219 94.1373 72.9178C93.9331 72.7138 93.6561 72.5991 93.3673 72.5991H90.1006C89.8118 72.5991 89.5349 72.7138 89.3306 72.9178C89.1264 73.1219 89.0117 73.3987 89.0117 73.6873V79.1283C89.0117 79.417 89.1264 79.6937 89.3306 79.8978C89.5349 80.1019 89.8118 80.2165 90.1006 80.2165ZM91.1895 74.7755H92.2784V78.0401H91.1895V74.7755Z" fill="#004FAC"/>
<path d="M97.7217 80.2165H100.988C101.277 80.2165 101.554 80.1019 101.758 79.8978C101.963 79.6937 102.077 79.417 102.077 79.1283V73.6873C102.077 73.3987 101.963 73.1219 101.758 72.9178C101.554 72.7138 101.277 72.5991 100.988 72.5991H97.7217C97.4329 72.5991 97.156 72.7138 96.9517 72.9178C96.7475 73.1219 96.6328 73.3987 96.6328 73.6873V79.1283C96.6328 79.417 96.7475 79.6937 96.9517 79.8978C97.156 80.1019 97.4329 80.2165 97.7217 80.2165ZM98.8106 74.7755H99.8995V78.0401H98.8106V74.7755Z" fill="#004FAC"/>
<path d="M90.1006 90.011H93.3673C93.6561 90.011 93.9331 89.8963 94.1373 89.6923C94.3415 89.4882 94.4562 89.2114 94.4562 88.9228V83.4818C94.4562 83.1931 94.3415 82.9164 94.1373 82.7123C93.9331 82.5082 93.6561 82.3936 93.3673 82.3936H90.1006C89.8118 82.3936 89.5349 82.5082 89.3306 82.7123C89.1264 82.9164 89.0117 83.1931 89.0117 83.4818V88.9228C89.0117 89.2114 89.1264 89.4882 89.3306 89.6923C89.5349 89.8963 89.8118 90.011 90.1006 90.011ZM91.1895 84.57H92.2784V87.8346H91.1895V84.57Z" fill="#004FAC"/>
<path d="M97.7217 90.011H100.988C101.277 90.011 101.554 89.8963 101.758 89.6923C101.963 89.4882 102.077 89.2114 102.077 88.9228V83.4818C102.077 83.1931 101.963 82.9164 101.758 82.7123C101.554 82.5082 101.277 82.3936 100.988 82.3936H97.7217C97.4329 82.3936 97.156 82.5082 96.9517 82.7123C96.7475 82.9164 96.6328 83.1931 96.6328 83.4818V88.9228C96.6328 89.2114 96.7475 89.4882 96.9517 89.6923C97.156 89.8963 97.4329 90.011 97.7217 90.011ZM98.8106 84.57H99.8995V87.8346H98.8106V84.57Z" fill="#004FAC"/>
<path d="M90.1006 99.8049H93.3673C93.6561 99.8049 93.9331 99.6903 94.1373 99.4862C94.3415 99.2821 94.4562 99.0053 94.4562 98.7167V93.2757C94.4562 92.9871 94.3415 92.7103 94.1373 92.5062C93.9331 92.3021 93.6561 92.1875 93.3673 92.1875H90.1006C89.8118 92.1875 89.5349 92.3021 89.3306 92.5062C89.1264 92.7103 89.0117 92.9871 89.0117 93.2757V98.7167C89.0117 99.0053 89.1264 99.2821 89.3306 99.4862C89.5349 99.6903 89.8118 99.8049 90.1006 99.8049ZM91.1895 94.3639H92.2784V97.6285H91.1895V94.3639Z" fill="#004FAC"/>
<path d="M97.7217 99.8049H100.988C101.277 99.8049 101.554 99.6903 101.758 99.4862C101.963 99.2821 102.077 99.0053 102.077 98.7167V93.2757C102.077 92.9871 101.963 92.7103 101.758 92.5062C101.554 92.3021 101.277 92.1875 100.988 92.1875H97.7217C97.4329 92.1875 97.156 92.3021 96.9517 92.5062C96.7475 92.7103 96.6328 92.9871 96.6328 93.2757V98.7167C96.6328 99.0053 96.7475 99.2821 96.9517 99.4862C97.156 99.6903 97.4329 99.8049 97.7217 99.8049ZM98.8106 94.3639H99.8995V97.6285H98.8106V94.3639Z" fill="#004FAC"/>
<path d="M117.323 71.5107H112.968C112.679 71.5107 112.402 71.6254 112.198 71.8296C111.994 72.0338 111.879 72.3107 111.879 72.5995C111.879 72.8882 111.994 73.1652 112.198 73.3693C112.402 73.5735 112.679 73.6882 112.968 73.6882H117.323C117.612 73.6882 117.889 73.5735 118.093 73.3693C118.298 73.1652 118.412 72.8882 118.412 72.5995C118.412 72.3107 118.298 72.0338 118.093 71.8296C117.889 71.6254 117.612 71.5107 117.323 71.5107Z" fill="#004FAC"/>
<path d="M117.323 75.8638H112.968C112.679 75.8638 112.402 75.9785 112.198 76.1827C111.994 76.3868 111.879 76.6638 111.879 76.9525C111.879 77.2413 111.994 77.5182 112.198 77.7224C112.402 77.9265 112.679 78.0412 112.968 78.0412H117.323C117.612 78.0412 117.889 77.9265 118.093 77.7224C118.298 77.5182 118.412 77.2413 118.412 76.9525C118.412 76.6638 118.298 76.3868 118.093 76.1827C117.889 75.9785 117.612 75.8638 117.323 75.8638Z" fill="#004FAC"/>
<path d="M117.323 80.2168H112.968C112.679 80.2168 112.402 80.3315 112.198 80.5357C111.994 80.7399 111.879 81.0168 111.879 81.3055C111.879 81.5943 111.994 81.8712 112.198 82.0754C112.402 82.2796 112.679 82.3943 112.968 82.3943H117.323C117.612 82.3943 117.889 82.2796 118.093 82.0754C118.298 81.8712 118.412 81.5943 118.412 81.3055C118.412 81.0168 118.298 80.7399 118.093 80.5357C117.889 80.3315 117.612 80.2168 117.323 80.2168Z" fill="#004FAC"/>
<path d="M117.323 84.5693H112.968C112.679 84.5693 112.402 84.684 112.198 84.8882C111.994 85.0924 111.879 85.3693 111.879 85.6581C111.879 85.9468 111.994 86.2238 112.198 86.4279C112.402 86.6321 112.679 86.7468 112.968 86.7468H117.323C117.612 86.7468 117.889 86.6321 118.093 86.4279C118.298 86.2238 118.412 85.9468 118.412 85.6581C118.412 85.3693 118.298 85.0924 118.093 84.8882C117.889 84.684 117.612 84.5693 117.323 84.5693Z" fill="#004FAC"/>
<path d="M117.323 88.9229H112.968C112.679 88.9229 112.402 89.0376 112.198 89.2417C111.994 89.4459 111.879 89.7228 111.879 90.0116C111.879 90.3003 111.994 90.5773 112.198 90.7814C112.402 90.9856 112.679 91.1003 112.968 91.1003H117.323C117.612 91.1003 117.889 90.9856 118.093 90.7814C118.298 90.5773 118.412 90.3003 118.412 90.0116C118.412 89.7228 118.298 89.4459 118.093 89.2417C117.889 89.0376 117.612 88.9229 117.323 88.9229Z" fill="#004FAC"/>
<path d="M117.323 93.2754H112.968C112.679 93.2754 112.402 93.3901 112.198 93.5943C111.994 93.7985 111.879 94.0754 111.879 94.3641C111.879 94.6529 111.994 94.9298 112.198 95.134C112.402 95.3382 112.679 95.4529 112.968 95.4529H117.323C117.612 95.4529 117.889 95.3382 118.093 95.134C118.298 94.9298 118.412 94.6529 118.412 94.3641C118.412 94.0754 118.298 93.7985 118.093 93.5943C117.889 93.3901 117.612 93.2754 117.323 93.2754Z" fill="#004FAC"/>
</g>
<path d="M284.991 243.102V251.439H282.402V240.839H284.834L284.991 243.102ZM284.579 245.757H283.814C283.821 244.986 283.925 244.287 284.128 243.66C284.331 243.033 284.615 242.494 284.981 242.044C285.354 241.593 285.795 241.247 286.305 241.005C286.814 240.763 287.383 240.643 288.011 240.643C288.52 240.643 288.981 240.714 289.393 240.858C289.805 241.002 290.158 241.23 290.452 241.544C290.753 241.857 290.981 242.269 291.138 242.778C291.302 243.281 291.383 243.902 291.383 244.64V251.439H288.775V244.62C288.775 244.137 288.703 243.755 288.56 243.474C288.422 243.193 288.22 242.994 287.952 242.876C287.69 242.759 287.367 242.7 286.981 242.7C286.582 242.7 286.233 242.782 285.932 242.945C285.638 243.102 285.39 243.321 285.187 243.601C284.991 243.882 284.84 244.206 284.736 244.571C284.631 244.937 284.579 245.332 284.579 245.757Z" fill="white"/>
<path d="M270.578 248.892L272.901 240.839H274.549L274.058 243.621L271.715 251.44H270.293L270.578 248.892ZM269.293 240.839L271.038 248.912L271.195 251.44H269.558L266.773 240.839H269.293ZM276.706 248.794L278.412 240.839H280.922L278.157 251.44H276.519L276.706 248.794ZM274.803 240.839L277.108 248.814L277.412 251.44H275.99L273.627 243.621L273.146 240.839H274.803Z" fill="white"/>
<path d="M262.683 249.186V244.297C262.683 243.938 262.621 243.628 262.497 243.366C262.373 243.105 262.183 242.903 261.928 242.759C261.673 242.615 261.35 242.543 260.958 242.543C260.611 242.543 260.307 242.602 260.046 242.72C259.791 242.837 259.595 243.004 259.457 243.219C259.32 243.428 259.252 243.67 259.252 243.944H256.653C256.653 243.507 256.758 243.092 256.967 242.7C257.176 242.302 257.474 241.949 257.859 241.642C258.251 241.328 258.719 241.083 259.261 240.907C259.81 240.731 260.425 240.643 261.105 240.643C261.909 240.643 262.624 240.78 263.252 241.054C263.886 241.322 264.383 241.727 264.742 242.269C265.108 242.811 265.291 243.494 265.291 244.317V248.941C265.291 249.47 265.324 249.924 265.389 250.303C265.461 250.675 265.566 250.998 265.703 251.273V251.439H263.066C262.941 251.171 262.847 250.832 262.781 250.42C262.716 250.002 262.683 249.591 262.683 249.186ZM263.046 244.983L263.066 246.521H261.428C261.023 246.521 260.667 246.563 260.359 246.648C260.052 246.727 259.801 246.844 259.604 247.001C259.408 247.151 259.261 247.334 259.163 247.55C259.065 247.759 259.016 247.997 259.016 248.265C259.016 248.526 259.075 248.761 259.193 248.97C259.317 249.179 259.493 249.346 259.722 249.47C259.957 249.588 260.232 249.646 260.546 249.646C261.003 249.646 261.402 249.555 261.742 249.372C262.082 249.183 262.347 248.954 262.536 248.686C262.726 248.418 262.827 248.164 262.84 247.922L263.585 249.039C263.494 249.307 263.356 249.591 263.173 249.891C262.99 250.192 262.755 250.473 262.467 250.734C262.18 250.995 261.833 251.211 261.428 251.381C261.023 251.55 260.552 251.635 260.016 251.635C259.33 251.635 258.716 251.498 258.173 251.224C257.63 250.949 257.202 250.574 256.889 250.097C256.575 249.62 256.418 249.078 256.418 248.471C256.418 247.909 256.523 247.413 256.732 246.981C256.941 246.55 257.251 246.188 257.663 245.894C258.075 245.594 258.585 245.368 259.193 245.218C259.807 245.061 260.51 244.983 261.301 244.983H263.046Z" fill="white"/>
<path d="M252.202 237.174V251.44H249.516V237.174H252.202ZM256.634 237.174V239.3H245.133V237.174H256.634Z" fill="white"/>
<path d="M243.664 244.308V246.357H238.301V244.308H243.664Z" fill="white"/>
<path d="M226.672 246.247V246.041C226.672 245.264 226.783 244.548 227.005 243.895C227.227 243.236 227.551 242.664 227.976 242.181C228.401 241.697 228.92 241.322 229.535 241.054C230.149 240.78 230.849 240.643 231.633 240.643C232.43 240.643 233.136 240.78 233.751 241.054C234.372 241.322 234.895 241.697 235.32 242.181C235.744 242.664 236.068 243.236 236.29 243.895C236.513 244.548 236.624 245.264 236.624 246.041V246.247C236.624 247.017 236.513 247.733 236.29 248.392C236.068 249.045 235.744 249.617 235.32 250.107C234.895 250.59 234.375 250.966 233.761 251.234C233.146 251.501 232.444 251.635 231.653 251.635C230.868 251.635 230.166 251.501 229.545 251.234C228.924 250.966 228.401 250.59 227.976 250.107C227.551 249.617 227.227 249.045 227.005 248.392C226.783 247.733 226.672 247.017 226.672 246.247ZM229.26 246.041V246.247C229.26 246.71 229.306 247.145 229.398 247.55C229.489 247.955 229.63 248.311 229.819 248.618C230.009 248.925 230.254 249.166 230.555 249.343C230.862 249.512 231.228 249.597 231.653 249.597C232.071 249.597 232.43 249.512 232.731 249.343C233.032 249.166 233.277 248.925 233.467 248.618C233.663 248.311 233.806 247.955 233.898 247.55C233.989 247.145 234.035 246.71 234.035 246.247V246.041C234.035 245.584 233.989 245.156 233.898 244.757C233.806 244.353 233.663 243.997 233.467 243.69C233.277 243.376 233.029 243.131 232.721 242.955C232.421 242.772 232.058 242.68 231.633 242.68C231.215 242.68 230.855 242.772 230.555 242.955C230.254 243.131 230.009 243.376 229.819 243.69C229.63 243.997 229.489 244.353 229.398 244.757C229.306 245.156 229.26 245.584 229.26 246.041Z" fill="white"/>
<path d="M218.454 236.39V251.44H215.855V236.39H218.454ZM218.042 245.757H217.277C217.277 245.019 217.375 244.339 217.571 243.719C217.767 243.098 218.045 242.559 218.405 242.102C218.764 241.638 219.192 241.279 219.689 241.024C220.192 240.769 220.748 240.642 221.356 240.642C221.879 240.642 222.353 240.717 222.778 240.867C223.209 241.011 223.578 241.243 223.885 241.563C224.193 241.883 224.428 242.301 224.591 242.817C224.761 243.327 224.846 243.947 224.846 244.679V251.44H222.238V244.659C222.238 244.169 222.166 243.784 222.023 243.503C221.879 243.216 221.673 243.01 221.405 242.886C221.143 242.762 220.82 242.7 220.434 242.7C220.016 242.7 219.656 242.781 219.356 242.945C219.055 243.101 218.807 243.32 218.611 243.601C218.421 243.882 218.277 244.205 218.179 244.571C218.088 244.937 218.042 245.332 218.042 245.757Z" fill="white"/>
<path d="M208.721 246.237H205.044V244.121H208.721C209.322 244.121 209.809 244.023 210.182 243.827C210.561 243.624 210.839 243.35 211.015 243.004C211.192 242.651 211.28 242.249 211.28 241.799C211.28 241.361 211.192 240.953 211.015 240.574C210.839 240.195 210.561 239.888 210.182 239.653C209.809 239.418 209.322 239.3 208.721 239.3H205.927V251.44H203.23V237.174H208.721C209.832 237.174 210.78 237.373 211.564 237.772C212.355 238.163 212.957 238.709 213.369 239.408C213.787 240.1 213.996 240.891 213.996 241.779C213.996 242.7 213.787 243.494 213.369 244.16C212.957 244.826 212.355 245.339 211.564 245.698C210.78 246.058 209.832 246.237 208.721 246.237Z" fill="white"/>
<defs>
<clipPath id="clip0_197_7748">
<rect width="69.6895" height="69.6478" fill="white" transform="translate(66.1445 37.7749)"/>
</clipPath>
</defs>
</svg>
