<svg width="128" height="128" viewBox="0 0 128 128" fill="none" xmlns="http://www.w3.org/2000/svg">
<g clip-path="url(#clip0_197_6392)">
<path d="M106 77.5H84.5V74.5H105.072L108.658 67.33C108.783 67.0808 108.974 66.8712 109.211 66.7246C109.448 66.578 109.721 66.5002 110 66.5H123.5V69.5H110.928L107.342 76.67C107.217 76.9192 107.026 77.1288 106.789 77.2754C106.552 77.422 106.279 77.4998 106 77.5Z" fill="#1B2E69"/>
<path d="M123.5 109.5H110C109.721 109.5 109.448 109.422 109.211 109.275C108.974 109.129 108.783 108.919 108.658 108.67L105.072 101.5H84.5V98.5H106C106.279 98.5002 106.552 98.578 106.789 98.7246C107.026 98.8712 107.217 99.0808 107.342 99.33L110.928 106.5H123.5V109.5Z" fill="#1B2E69"/>
<path d="M86.5 86.5H115.5V89.5H86.5V86.5Z" fill="#1B2E69"/>
<path d="M122 72C124.209 72 126 70.2091 126 68C126 65.7909 124.209 64 122 64C119.791 64 118 65.7909 118 68C118 70.2091 119.791 72 122 72Z" fill="#2F5BC8"/>
<path d="M120.001 69.9997C119.433 69.9998 118.872 69.8791 118.355 69.6457C118.02 68.9051 117.919 68.0801 118.065 67.2807C118.211 66.4813 118.597 65.7452 119.172 65.1706C119.746 64.596 120.482 64.21 121.282 64.0641C122.081 63.9181 122.906 64.0191 123.647 64.3537C123.922 64.9629 124.04 65.6314 123.99 66.298C123.94 66.9646 123.724 67.6081 123.361 68.1696C122.999 68.7312 122.501 69.1929 121.914 69.5126C121.327 69.8323 120.669 69.9997 120.001 69.9997Z" fill="#326EE1"/>
<path d="M116 92C118.209 92 120 90.2091 120 88C120 85.7909 118.209 84 116 84C113.791 84 112 85.7909 112 88C112 90.2091 113.791 92 116 92Z" fill="#2F5BC8"/>
<path d="M114.001 89.9997C113.433 89.9998 112.872 89.8791 112.355 89.6457C112.02 88.9051 111.919 88.0801 112.065 87.2807C112.211 86.4813 112.597 85.7452 113.172 85.1706C113.746 84.596 114.482 84.21 115.282 84.0641C116.081 83.9181 116.906 84.0191 117.647 84.3537C117.922 84.9629 118.04 85.6314 117.99 86.298C117.94 86.9646 117.724 87.6081 117.361 88.1696C116.999 88.7312 116.501 89.1929 115.914 89.5126C115.327 89.8323 114.669 89.9997 114.001 89.9997Z" fill="#326EE1"/>
<path d="M122 112C124.209 112 126 110.209 126 108C126 105.791 124.209 104 122 104C119.791 104 118 105.791 118 108C118 110.209 119.791 112 122 112Z" fill="#2F5BC8"/>
<path d="M118 108C118 108.568 118.121 109.129 118.354 109.646C119.095 109.981 119.92 110.082 120.719 109.936C121.518 109.79 122.254 109.404 122.829 108.829C123.404 108.255 123.79 107.519 123.936 106.719C124.082 105.92 123.981 105.095 123.646 104.354C123.037 104.079 122.368 103.961 121.702 104.011C121.035 104.061 120.392 104.277 119.83 104.64C119.269 105.002 118.807 105.5 118.487 106.087C118.167 106.674 118 107.332 118 108Z" fill="#326EE1"/>
<path d="M43.5 77.5H22C21.7213 77.4998 21.4482 77.422 21.2112 77.2754C20.9742 77.1288 20.7827 76.9192 20.658 76.67L17.072 69.5H4.5V66.5H18C18.2787 66.5002 18.5518 66.578 18.7888 66.7246C19.0258 66.8712 19.2173 67.0808 19.342 67.33L22.928 74.5H43.5V77.5Z" fill="#1B2E69"/>
<path d="M18 109.5H4.5V106.5H17.072L20.658 99.33C20.7827 99.0808 20.9742 98.8712 21.2112 98.7246C21.4482 98.578 21.7213 98.5002 22 98.5H43.5V101.5H22.928L19.342 108.67C19.2173 108.919 19.0258 109.129 18.7888 109.275C18.5518 109.422 18.2787 109.5 18 109.5Z" fill="#1B2E69"/>
<path d="M12.5 86.5H41.5V89.5H12.5V86.5Z" fill="#1B2E69"/>
<path d="M6 72C8.20914 72 10 70.2091 10 68C10 65.7909 8.20914 64 6 64C3.79086 64 2 65.7909 2 68C2 70.2091 3.79086 72 6 72Z" fill="#2F5BC8"/>
<path d="M8.00066 65.9997C8.00077 65.4321 7.8801 64.871 7.64666 64.3537C6.90606 64.0191 6.08113 63.9181 5.28168 64.0641C4.48224 64.21 3.74621 64.596 3.17158 65.1706C2.59694 65.7452 2.21097 66.4813 2.06503 67.2807C1.91909 68.0801 2.02012 68.9051 2.35466 69.6457C2.9639 69.9208 3.63237 70.0388 4.29897 69.9889C4.96557 69.9391 5.60905 69.7229 6.17061 69.3603C6.73216 68.9977 7.19388 68.5001 7.51357 67.913C7.83325 67.326 8.00072 66.6681 8.00066 65.9997Z" fill="#326EE1"/>
<path d="M12 92C14.2091 92 16 90.2091 16 88C16 85.7909 14.2091 84 12 84C9.79086 84 8 85.7909 8 88C8 90.2091 9.79086 92 12 92Z" fill="#2F5BC8"/>
<path d="M14.0007 85.9997C14.0008 85.4321 13.8801 84.871 13.6467 84.3537C12.9061 84.0191 12.0811 83.9181 11.2817 84.0641C10.4822 84.21 9.74621 84.596 9.17158 85.1706C8.59694 85.7452 8.21097 86.4813 8.06503 87.2807C7.91909 88.0801 8.02012 88.9051 8.35466 89.6457C8.9639 89.9208 9.63237 90.0388 10.299 89.9889C10.9656 89.9391 11.6091 89.7229 12.1706 89.3603C12.7322 88.9977 13.1939 88.5001 13.5136 87.913C13.8333 87.326 14.0007 86.6681 14.0007 85.9997Z" fill="#326EE1"/>
<path d="M6 112C8.20914 112 10 110.209 10 108C10 105.791 8.20914 104 6 104C3.79086 104 2 105.791 2 108C2 110.209 3.79086 112 6 112Z" fill="#2F5BC8"/>
<path d="M6.00036 104C6.56793 104 7.12902 104.121 7.64636 104.354C7.9809 105.095 8.08193 105.92 7.93599 106.719C7.79006 107.518 7.40408 108.254 6.82945 108.829C6.25481 109.404 5.51878 109.79 4.71934 109.936C3.91989 110.082 3.09496 109.981 2.35436 109.646C2.07929 109.037 1.96129 108.368 2.01114 107.702C2.06099 107.035 2.27711 106.392 2.63974 105.83C3.00237 105.269 3.49996 104.807 4.08702 104.487C4.67408 104.167 5.3319 104 6.00036 104Z" fill="#326EE1"/>
<path d="M83.7188 28.5H92.7188V31.5H83.7188V28.5Z" fill="#1B2E69"/>
<path d="M35.2812 28.5H44.2812V31.5H35.2812V28.5Z" fill="#1B2E69"/>
<path d="M64 115.5C79.1878 115.5 91.5 103.188 91.5 88C91.5 72.8122 79.1878 60.5 64 60.5C48.8122 60.5 36.5 72.8122 36.5 88C36.5 103.188 48.8122 115.5 64 115.5Z" fill="#39A5DF"/>
<path d="M59.9995 99.4995C59.8025 99.5 59.6073 99.4613 59.4254 99.3858C59.2434 99.3103 59.0783 99.1994 58.9395 99.0595L50.9395 91.0595C50.8002 90.9204 50.6896 90.7551 50.6142 90.5733C50.5388 90.3914 50.5 90.1964 50.5 89.9995C50.5 89.8026 50.5388 89.6076 50.6142 89.4258C50.6896 89.2439 50.8002 89.0786 50.9395 88.9395C51.0786 88.8002 51.2439 88.6896 51.4258 88.6142C51.6076 88.5388 51.8026 88.5 51.9995 88.5C52.1964 88.5 52.3914 88.5388 52.5733 88.6142C52.7551 88.6896 52.9204 88.8002 53.0595 88.9395L59.9995 95.8775L75.9395 79.9395C76.0786 79.8002 76.2439 79.6896 76.4258 79.6142C76.6076 79.5388 76.8026 79.5 76.9995 79.5C77.1964 79.5 77.3914 79.5388 77.5733 79.6142C77.7551 79.6896 77.9204 79.8002 78.0595 79.9395C78.1988 80.0786 78.3094 80.2439 78.3848 80.4258C78.4602 80.6076 78.499 80.8026 78.499 80.9995C78.499 81.1964 78.4602 81.3914 78.3848 81.5733C78.3094 81.7551 78.1988 81.9204 78.0595 82.0595L61.0595 99.0595C60.9208 99.1994 60.7556 99.3103 60.5736 99.3858C60.3917 99.4613 60.1965 99.5 59.9995 99.4995Z" fill="#F0FFFF"/>
<path d="M63.9998 48L49.2578 39.576C48.9532 39.4001 48.7003 39.147 48.5248 38.8422C48.3492 38.5374 48.2571 38.1917 48.2578 37.84V21L63.9998 30V48Z" fill="#96D2FF"/>
<path d="M78.742 39.576L64 48V30L79.75 21V37.84C79.7499 38.1925 79.6566 38.5388 79.4796 38.8436C79.3026 39.1485 79.0481 39.4011 78.742 39.576Z" fill="#72B4F4"/>
<path d="M65 12.5678L79.75 20.9998L64 29.9998L48.25 20.9998L63 12.5678C63.304 12.3922 63.6489 12.2998 64 12.2998C64.3511 12.2998 64.696 12.3922 65 12.5678Z" fill="#C0E7FF"/>
<path d="M112.25 48L97.5078 39.576C97.2032 39.4001 96.9503 39.147 96.7748 38.8422C96.5992 38.5374 96.5071 38.1917 96.5078 37.84V21L112.25 30V48Z" fill="#96D2FF"/>
<path d="M127 39.576L112.25 48V30L128 21V37.84C128.001 38.1917 127.909 38.5374 127.733 38.8422C127.557 39.147 127.305 39.4001 127 39.576Z" fill="#72B4F4"/>
<path d="M113.242 12.568L128 21L112.25 30L96.5 21L111.258 12.568C111.56 12.3955 111.902 12.3047 112.25 12.3047C112.598 12.3047 112.94 12.3955 113.242 12.568Z" fill="#C0E7FF"/>
<path d="M15.75 48L1 39.576C0.695385 39.4001 0.442536 39.147 0.266964 38.8422C0.0913931 38.5374 -0.00069026 38.1917 3.89571e-06 37.84V21L15.75 30V48Z" fill="#96D2FF"/>
<path d="M30.492 39.576L15.75 48V30L31.5 21V37.84C31.4999 38.1925 31.4066 38.5388 31.2296 38.8436C31.0526 39.1485 30.7981 39.4011 30.492 39.576Z" fill="#72B4F4"/>
<path d="M16.742 12.568L31.5 21L15.75 30L0 21L14.758 12.568C15.0601 12.3955 15.4021 12.3047 15.75 12.3047C16.0979 12.3047 16.4399 12.3955 16.742 12.568Z" fill="#C0E7FF"/>
<path d="M80.0002 65.6602C83.8086 70.9513 85.611 77.4245 85.0851 83.9225C84.5591 90.4205 81.7392 96.5196 77.1294 101.129C72.5196 105.739 66.4205 108.559 59.9225 109.085C53.4245 109.611 46.9513 107.809 41.6602 104C43.9817 107.244 46.9815 109.943 50.4513 111.91C53.921 113.878 57.7775 115.066 61.7528 115.394C65.7281 115.721 69.7269 115.178 73.4716 113.804C77.2162 112.43 80.6169 110.258 83.4373 107.437C86.2578 104.617 88.4305 101.216 89.8044 97.4716C91.1783 93.7269 91.7206 89.7281 91.3935 85.7528C91.0664 81.7775 89.8779 77.921 87.9104 74.4513C85.9429 70.9815 83.2437 67.9817 80.0002 65.6602Z" fill="#0155A0"/>
</g>
<defs>
<clipPath id="clip0_197_6392">
<rect width="128" height="128" fill="white"/>
</clipPath>
</defs>
</svg>
