<svg width="40" height="40" viewBox="0 0 40 40" fill="none" xmlns="http://www.w3.org/2000/svg">
<g clip-path="url(#clip0_163_699)">
<path d="M19.9999 1.5791L4.17578 12.0127V16.4082L32.0878 39.9996H35.8241V12.0127L19.9999 1.5791Z" fill="#0155A0"/>
<path d="M19.9999 5.97559L4.17578 16.4091V40.0004H7.91203L32.0878 18.9015V13.9456L19.9999 5.97559Z" fill="#E5FAFC"/>
<path d="M28.5709 18.9014L25.9336 29.4508L28.5709 40.0003H32.0874V18.9014H28.5709Z" fill="#111449"/>
<path d="M28.5715 18.9014H7.91211V40.0003H28.5715V18.9014Z" fill="#27467A"/>
<path d="M20.0002 0L19.1211 3.15906H20.0002L38.5484 15.3887L40.0002 13.1868L20.0002 0Z" fill="#39A5DF"/>
<path d="M0 13.1868L1.4518 15.3887L20 3.15906V0L0 13.1868Z" fill="#39A5DF"/>
<path d="M28.5714 25.9336H24.1758V38.2412H28.5714V25.9336Z" fill="#2F5E88"/>
<path d="M25.9332 25.9336H11.4277V38.2412H25.9332V25.9336Z" fill="#367596"/>
<path d="M26.813 36.4834L25.0547 38.2417L26.813 39.9999H29.4503V36.4834H26.813Z" fill="#88ACB5"/>
<path d="M26.8126 36.4834H10.5488V39.9999H26.8126V36.4834Z" fill="#A7CBCF"/>
<path d="M26.813 24.1758L25.0547 25.934L26.813 27.6923H29.4503V24.1758H26.813Z" fill="#88ACB5"/>
<path d="M26.8126 24.1758H10.5488V27.6923H26.8126V24.1758Z" fill="#A7CBCF"/>
<path d="M26.813 30.3301L25.0547 32.0883L26.813 33.8466H29.4503V30.3301H26.813Z" fill="#88ACB5"/>
<path d="M26.8126 30.3301H10.5488V33.8466H26.8126V30.3301Z" fill="#A7CBCF"/>
</g>
<defs>
<clipPath id="clip0_163_699">
<rect width="40" height="40" fill="white"/>
</clipPath>
</defs>
</svg>
