<svg width="439" height="293" viewBox="0 0 439 293" fill="none" xmlns="http://www.w3.org/2000/svg">
<path d="M438.01 292.183H270.539V160.694H438.01V292.183Z" fill="white"/>
<path d="M270.89 291.832H437.658V161.044H270.89V291.832ZM438.011 292.534H270.54C270.344 292.534 270.188 292.378 270.188 292.183V160.693C270.188 160.5 270.344 160.344 270.54 160.344H438.011C438.203 160.344 438.36 160.5 438.36 160.693V292.183C438.36 292.378 438.203 292.534 438.011 292.534Z" fill="black"/>
<path d="M342.227 287.487C342.033 287.487 341.875 287.331 341.875 287.136V165.741C341.875 165.547 342.033 165.39 342.227 165.39C342.421 165.39 342.576 165.547 342.576 165.741V287.136C342.576 287.331 342.421 287.487 342.227 287.487Z" fill="black"/>
<path d="M389.244 232.788C389.051 232.788 388.891 232.632 388.891 232.437V160.694C388.891 160.501 389.051 160.344 389.244 160.344C389.436 160.344 389.594 160.501 389.594 160.694V232.437C389.594 232.632 389.436 232.788 389.244 232.788Z" fill="black"/>
<path d="M429.798 284.163H403.727V239.283H429.798V284.163Z" fill="#DEF4FF"/>
<path d="M438.01 150.387H342.227V75.1825H438.01V150.387Z" fill="white"/>
<path d="M342.574 150.035H437.658V75.533H342.574V150.035ZM438.01 150.737H342.225C342.032 150.737 341.875 150.581 341.875 150.386V75.1818C341.875 74.9879 342.032 74.8309 342.225 74.8309H438.01C438.203 74.8309 438.36 74.9879 438.36 75.1818V150.386C438.36 150.581 438.203 150.737 438.01 150.737Z" fill="black"/>
<path d="M383.226 147.853C383.03 147.853 382.875 147.695 382.875 147.501V78.0689C382.875 77.8761 383.03 77.718 383.226 77.718C383.419 77.718 383.577 77.8761 383.577 78.0689V147.501C383.577 147.695 383.419 147.853 383.226 147.853Z" fill="black"/>
<path d="M410.118 116.566C409.922 116.566 409.766 116.41 409.766 116.215V75.1834C409.766 74.9895 409.922 74.8323 410.118 74.8323C410.309 74.8323 410.468 74.9895 410.468 75.1834V116.215C410.468 116.41 410.309 116.566 410.118 116.566Z" fill="black"/>
<path d="M433.314 145.8H418.402V120.132H433.314V145.8Z" fill="#DEF4FF"/>
<path d="M143.245 68.8592C140.637 61.9576 132.877 57.9174 125.498 58.0941C118.122 58.2709 111.218 61.9788 105.586 66.7454C95.7545 75.0663 89.0498 86.6249 79.105 94.8096C69.9008 102.385 58.4777 106.63 47.2916 110.748C36.1056 114.868 24.6857 119.129 15.5025 126.73C6.31923 134.332 -0.363518 146.037 1.22154 157.856C2.97768 170.944 14.6576 181.125 27.4439 184.428C40.2303 187.732 53.8273 185.306 66.4039 181.278C80.6875 176.702 94.9615 169.52 103.301 157.053C110.678 146.023 112.483 132.345 115.523 119.431C117.447 111.26 120.123 103.014 124.889 96.0256C127.225 92.5987 130.083 89.5057 133.485 87.1127C136.415 85.0502 139.585 84.1082 141.674 80.9675C143.991 77.484 144.739 72.8111 143.245 68.8592Z" fill="black"/>
<path d="M190.824 209.464C190.824 209.464 186.823 192.866 179.961 178.646L150.426 180.778C150.426 180.778 159.361 219.503 160.091 220.094C160.82 220.684 190.824 209.464 190.824 209.464Z" fill="white"/>
<path d="M150.859 181.097C154.28 195.917 159.465 217.776 160.305 219.763C162.233 219.578 179.09 213.473 190.408 209.245C189.83 206.942 185.949 191.943 179.746 179.012L150.859 181.097ZM160.167 220.459C159.981 220.459 159.923 220.411 159.867 220.366C159.125 219.765 152.777 192.535 150.083 180.856C150.061 180.755 150.081 180.652 150.142 180.569C150.204 180.486 150.297 180.434 150.401 180.427L179.934 178.294C180.072 178.283 180.212 178.363 180.276 178.492C187.076 192.583 191.125 209.215 191.165 209.383C191.206 209.555 191.114 209.731 190.946 209.793C190.871 209.822 183.356 212.631 175.849 215.331C163.6 219.738 160.897 220.459 160.167 220.459Z" fill="black"/>
<path d="M154.96 190.287L179.96 178.645C179.96 178.645 168.763 146.48 151.755 137.947C151.522 137.831 151.289 137.727 151.048 137.628C146.128 135.601 95.0316 115.522 56.1915 139.087C56.1915 139.087 40.1518 149.11 31.3242 172.464L60.9041 189.995L53.818 223.811L49.4514 246.779L169.575 251.088L154.96 190.287Z" fill="#39A5DF"/>
<path d="M88.5432 214.583C88.5432 214.583 74.0536 231.266 82.5331 251.671L102.417 248.581L133.449 249.111C133.449 249.111 132.554 230.99 122.488 222.325C110.471 211.982 88.5432 214.583 88.5432 214.583Z" fill="white"/>
<path d="M110.384 249.462C110.366 249.462 110.349 249.46 110.333 249.459C110.14 249.43 110.007 249.253 110.036 249.06C110.334 247.012 109.854 244.736 108.683 242.65C107.698 240.898 106.243 239.246 104.232 237.6C103.852 237.288 103.442 236.967 102.984 236.767C102.806 236.689 102.725 236.482 102.803 236.304C102.88 236.127 103.088 236.046 103.265 236.123C103.806 236.36 104.259 236.715 104.677 237.056C106.756 238.759 108.266 240.476 109.294 242.307C110.54 244.527 111.051 246.961 110.73 249.162C110.705 249.336 110.555 249.462 110.384 249.462Z" fill="black"/>
<path d="M119.636 248.932C119.464 248.932 119.314 248.804 119.289 248.63C118.942 246.185 118.444 243.325 117.377 240.648C116.274 237.886 114.657 235.632 112.699 234.127C112.546 234.009 112.517 233.789 112.635 233.636C112.752 233.482 112.974 233.454 113.127 233.572C115.186 235.152 116.88 237.509 118.029 240.388C119.124 243.133 119.632 246.044 119.984 248.531C120.012 248.723 119.877 248.9 119.686 248.927C119.668 248.93 119.652 248.932 119.636 248.932Z" fill="black"/>
<path d="M127.054 248.932C127.04 248.932 127.025 248.93 127.012 248.928C126.819 248.906 126.682 248.731 126.704 248.539C127.948 238.119 121.122 231.615 121.053 231.551C120.911 231.419 120.903 231.197 121.036 231.055C121.168 230.913 121.39 230.905 121.532 231.037C121.604 231.104 128.69 237.838 127.402 248.622C127.381 248.799 127.229 248.932 127.054 248.932Z" fill="black"/>
<path d="M82.5357 252.021C82.3957 252.021 82.2668 251.937 82.2119 251.804C77.7871 241.158 79.6725 231.542 82.0331 225.349C84.5883 218.648 88.2444 214.394 88.2811 214.353C88.4081 214.206 88.6299 214.19 88.7761 214.318C88.9225 214.445 88.9383 214.667 88.8112 214.812C88.7753 214.854 85.1889 219.031 82.6801 225.624C80.3902 231.641 78.5587 240.958 82.7553 251.281L102.366 248.233C102.386 248.229 102.406 248.228 102.426 248.229L133.458 248.759C133.651 248.762 133.806 248.922 133.803 249.117C133.8 249.31 133.637 249.469 133.445 249.462L102.444 248.932L82.5898 252.017C82.5717 252.02 82.5535 252.021 82.5357 252.021Z" fill="black"/>
<path d="M110.384 249.462C110.366 249.462 110.349 249.46 110.333 249.459C110.14 249.43 110.007 249.253 110.036 249.06C110.334 247.012 109.854 244.736 108.683 242.65C107.698 240.898 106.243 239.246 104.232 237.6C103.852 237.288 103.442 236.967 102.984 236.767C102.806 236.689 102.725 236.482 102.803 236.304C102.88 236.127 103.088 236.046 103.265 236.123C103.806 236.36 104.259 236.715 104.677 237.056C106.756 238.759 108.266 240.476 109.294 242.307C110.54 244.527 111.051 246.961 110.73 249.162C110.705 249.336 110.555 249.462 110.384 249.462Z" fill="black"/>
<path d="M119.636 248.932C119.464 248.932 119.314 248.804 119.289 248.63C118.942 246.185 118.444 243.325 117.377 240.648C116.274 237.886 114.657 235.632 112.699 234.127C112.546 234.009 112.517 233.789 112.635 233.636C112.752 233.482 112.974 233.454 113.127 233.572C115.186 235.152 116.88 237.509 118.029 240.388C119.124 243.133 119.632 246.044 119.984 248.531C120.012 248.723 119.877 248.9 119.686 248.927C119.668 248.93 119.652 248.932 119.636 248.932Z" fill="black"/>
<path d="M127.054 248.932C127.04 248.932 127.025 248.93 127.012 248.928C126.819 248.906 126.682 248.731 126.704 248.539C127.948 238.119 121.122 231.615 121.053 231.551C120.911 231.419 120.903 231.197 121.036 231.055C121.168 230.913 121.39 230.905 121.532 231.037C121.604 231.104 128.69 237.838 127.402 248.622C127.381 248.799 127.229 248.932 127.054 248.932Z" fill="black"/>
<path d="M64.8512 190.92C64.8191 190.92 64.7864 190.915 64.754 190.906C64.5676 190.853 64.4602 190.658 64.5138 190.471L69.0462 174.738C69.0998 174.551 69.2953 174.444 69.4806 174.499C69.6668 174.551 69.7744 174.746 69.7207 174.933L65.1884 190.666C65.144 190.819 65.0036 190.92 64.8512 190.92Z" fill="black"/>
<path d="M91.2604 214.037C91.2604 214.037 80.4314 224.888 82.5338 251.671L77.4659 253.592C77.4659 253.592 64.1682 274.893 37.705 266.526C11.2416 258.16 2.24377 230.553 31.3236 172.465L63.8007 191.985L59.0629 212.419L91.2604 214.037Z" fill="white"/>
<path d="M49.6158 268.807C45.9826 268.807 41.9734 268.243 37.5993 266.86C27.0406 263.522 19.7728 257.304 15.9977 248.381C8.98614 231.807 14.0368 206.212 31.0099 172.308C31.0965 172.134 31.3077 172.063 31.4808 172.15C31.6541 172.237 31.7244 172.448 31.6375 172.622C14.7609 206.333 9.71642 231.73 16.6442 248.107C20.3357 256.833 27.4572 262.917 37.811 266.191C51.3375 270.466 61.3104 266.77 67.2943 262.917C73.7937 258.731 77.1354 253.458 77.1683 253.405C77.209 253.341 77.2699 253.29 77.3416 253.263L82.1637 251.434C80.1642 224.99 90.903 213.898 91.012 213.789C91.1491 213.652 91.3711 213.652 91.5082 213.789C91.6455 213.925 91.6459 214.147 91.5093 214.284C91.4021 214.393 80.8206 225.36 82.884 251.642C82.8961 251.798 82.8043 251.943 82.6585 251.998L77.6979 253.879C77.1943 254.642 73.8188 259.543 67.6996 263.49C63.523 266.186 57.4456 268.807 49.6158 268.807Z" fill="black"/>
<path d="M76.4311 252.647C76.2738 252.647 76.1306 252.542 76.0909 252.383C72.9219 239.642 75.0582 225.927 81.9521 214.754C82.054 214.589 82.27 214.538 82.4351 214.639C82.6001 214.741 82.6513 214.958 82.5496 215.122C75.7541 226.135 73.6484 239.654 76.7722 252.212C76.8189 252.4 76.7043 252.592 76.5162 252.638C76.4878 252.644 76.4594 252.647 76.4311 252.647Z" fill="black"/>
<path d="M53.0205 256.125C51.2947 256.125 49.5674 256.055 47.8408 255.897C38.0947 255.003 29.8672 251.219 24.6744 245.243C19.8558 239.699 17.194 231.638 17.1798 222.544C17.1737 218.686 17.5872 214.643 18.4811 209.82C18.5165 209.629 18.6999 209.503 18.8902 209.539C19.0808 209.574 19.2069 209.756 19.1716 209.948C18.2856 214.726 17.8757 218.729 17.8818 222.542C17.8958 231.467 20.4964 239.365 25.2044 244.784C30.2779 250.622 38.3398 254.32 47.905 255.198C56.4992 255.986 65.1557 254.561 73.5273 253.182C73.7188 253.15 73.8993 253.279 73.9309 253.471C73.9624 253.662 73.8328 253.843 73.6416 253.875C66.8997 254.985 59.9735 256.125 53.0205 256.125Z" fill="black"/>
<path d="M57.4008 212.77C57.3922 212.77 57.3836 212.768 57.375 212.768L49.4818 212.192C49.2884 212.177 49.143 212.01 49.1572 211.817C49.1711 211.624 49.338 211.477 49.5329 211.493L57.426 212.067C57.6193 212.082 57.7647 212.249 57.7506 212.444C57.7371 212.627 57.5829 212.77 57.4008 212.77Z" fill="black"/>
<path d="M81.1211 129.567C81.1211 129.567 105.246 165.04 116.055 166.484C126.863 167.927 131.082 131.832 131.082 131.832L127.843 129.827C126.137 128.772 124.948 127.026 124.675 125.039C124.306 122.364 122.975 118.785 118.492 118.719C111.32 118.617 95.7758 118.478 95.7758 118.478C95.7758 118.478 87.1601 114.134 85.5914 122.65C85.272 124.383 84.5009 126.002 83.288 127.282L81.1211 129.567Z" fill="white"/>
<path d="M131.082 132.183C131.019 132.183 130.955 132.167 130.897 132.132L127.658 130.125C125.824 128.991 124.611 127.155 124.327 125.087C123.953 122.375 122.638 119.131 118.488 119.07C116.735 119.046 114.482 119.017 112.078 118.992C111.884 118.988 111.729 118.83 111.73 118.636C111.732 118.444 111.89 118.289 112.082 118.289C112.083 118.289 112.085 118.289 112.085 118.289C114.49 118.317 116.745 118.344 118.497 118.368C122.126 118.42 124.442 120.773 125.021 124.991C125.278 126.85 126.373 128.505 128.026 129.528L131.267 131.533C131.432 131.635 131.483 131.852 131.381 132.017C131.314 132.124 131.199 132.183 131.082 132.183Z" fill="black"/>
<path d="M101.115 98.2323L95.7773 118.478C95.7773 118.478 106.149 124.941 118.767 124.989C118.767 124.989 119.111 113.549 121.078 107.122L101.115 98.2323Z" fill="white"/>
<path d="M96.1835 118.312C97.7334 119.22 107.207 124.489 118.428 124.635C118.504 122.707 118.959 113.125 120.652 107.317L101.348 98.7211L96.1835 118.312ZM118.766 125.341C118.765 125.341 118.765 125.341 118.765 125.341C106.192 125.293 95.6958 118.842 95.5911 118.776C95.4604 118.695 95.3982 118.537 95.4374 118.389L100.775 98.1434C100.801 98.0444 100.87 97.9614 100.962 97.9168C101.055 97.8721 101.163 97.8705 101.257 97.912L121.219 106.802C121.382 106.873 121.463 107.055 121.412 107.225C119.483 113.534 119.12 124.886 119.117 124.999C119.111 125.189 118.956 125.341 118.766 125.341Z" fill="black"/>
<path d="M122.488 125.341H118.765C118.57 125.341 118.414 125.183 118.414 124.99C118.414 124.795 118.57 124.639 118.765 124.639H122.488C122.682 124.639 122.84 124.795 122.84 124.99C122.84 125.183 122.682 125.341 122.488 125.341Z" fill="black"/>
<path d="M107.328 102.567C107.328 102.567 114.857 115.362 125.959 113.053C137.059 110.745 135.423 87.7843 134.294 78.375C134.294 78.375 131.315 80.3849 123.658 79.3602C116 78.3339 117.612 87.1866 114.345 90.7943C111.078 94.4021 105.712 91.3149 105.712 91.3149C105.712 91.3149 102.419 87.0175 99.2927 89.6366C96.5945 91.8978 95.8502 100.953 107.328 102.567Z" fill="white"/>
<path d="M101.471 89.1419C100.78 89.1419 100.124 89.3984 99.5174 89.9065C98.3248 90.9061 97.5213 93.4414 98.2411 95.9552C98.7955 97.8937 100.719 101.282 107.375 102.219C107.482 102.234 107.574 102.297 107.629 102.389C107.697 102.504 113.985 112.977 123.307 112.977C124.144 112.977 125.003 112.893 125.886 112.711C136.424 110.517 135.144 88.7605 134.004 78.9269C132.873 79.4547 129.692 80.5217 123.611 79.7079C118.896 79.0749 117.929 82.3928 116.903 85.903C116.354 87.7822 115.787 89.724 114.605 91.0311C111.188 94.8044 105.592 91.6509 105.536 91.6197C105.496 91.5966 105.461 91.5654 105.433 91.5292C105.416 91.5062 103.757 89.3754 101.784 89.16C101.679 89.1485 101.575 89.1419 101.471 89.1419ZM123.305 113.681C114.197 113.681 107.929 104.189 107.113 102.89C100.197 101.866 98.1629 98.234 97.5661 96.1493C96.7376 93.2556 97.7209 90.4951 99.0668 89.3688C99.9166 88.6553 100.857 88.3511 101.863 88.4613C103.959 88.6931 105.637 90.6611 105.943 91.0409C106.511 91.3467 111.221 93.7225 114.084 90.5592C115.159 89.3738 115.703 87.5093 116.229 85.7057C117.242 82.2349 118.391 78.3005 123.705 79.0108C131.099 80.0022 134.069 78.1032 134.096 78.0835C134.198 78.0161 134.328 78.0062 134.44 78.0572C134.55 78.1081 134.626 78.2134 134.641 78.3334C135.814 88.093 137.324 111.048 126.029 113.396C125.097 113.592 124.188 113.681 123.305 113.681Z" fill="black"/>
<path d="M106.847 99.3994C106.716 99.3994 106.59 99.326 106.53 99.2015C105.863 97.8194 104.506 96.8107 102.991 96.5681C102.8 96.5378 102.669 96.3574 102.7 96.1659C102.73 95.9744 102.912 95.8435 103.102 95.8739C104.84 96.1532 106.397 97.3103 107.163 98.8951C107.246 99.0706 107.174 99.2797 106.999 99.3643C106.949 99.3882 106.898 99.3994 106.847 99.3994Z" fill="black"/>
<path d="M216.629 254.754H99.3091C98.6141 254.754 97.9193 254.577 97.3466 254.183C96.0047 253.258 95.5392 251.608 96.0697 250.191C97.4531 247.289 100.313 246.268 104.54 246.268H224.326L222.771 250.493C221.815 253.056 219.365 254.754 216.629 254.754Z" fill="black"/>
<path d="M217.291 254.755C219.637 254.755 221.747 253.325 222.616 251.145L243.385 199.02C243.935 197.636 243.764 196.07 242.929 194.836C242.093 193.604 240.701 192.867 239.213 192.867H167.111C162.764 192.867 158.891 195.604 157.441 199.701L137.945 254.755H217.291Z" fill="black"/>
<path d="M218.979 247.13H147.491C147.299 247.13 147.141 246.972 147.141 246.779C147.141 246.584 147.299 246.428 147.491 246.428H218.979C219.173 246.428 219.33 246.584 219.33 246.779C219.33 246.972 219.173 247.13 218.979 247.13Z" fill="white"/>
<path d="M199.384 218.938H193.82L195.98 213.375H201.543L199.384 218.938Z" fill="white"/>
<path d="M292.133 277.838H187.93V221.514H292.133V277.838Z" fill="#39A5DF"/>
<path d="M328.569 282.835H188.59C188.395 282.835 188.238 282.678 188.238 282.484C188.238 282.291 188.395 282.133 188.59 282.133H328.569C328.766 282.133 328.923 282.291 328.923 282.484C328.923 282.678 328.766 282.835 328.569 282.835Z" fill="black"/>
<path d="M328.57 278.081H298.223V242.82H322.58L328.57 261.621V278.081Z" fill="white"/>
<path d="M298.576 277.729H328.223V261.675L322.325 243.171H298.576V277.729ZM328.572 278.432H298.226C298.032 278.432 297.875 278.274 297.875 278.081V242.82C297.875 242.627 298.032 242.469 298.226 242.469H322.583C322.733 242.469 322.869 242.568 322.916 242.713L328.907 261.514C328.919 261.548 328.926 261.584 328.926 261.621V278.081C328.926 278.274 328.769 278.432 328.572 278.432Z" fill="black"/>
<path d="M326.997 261.731H307.518C307.324 261.731 307.168 261.573 307.168 261.38V244.464C307.168 244.27 307.324 244.113 307.518 244.113C307.712 244.113 307.87 244.27 307.87 244.464V261.029H326.997C327.189 261.029 327.347 261.186 327.347 261.38C327.347 261.573 327.189 261.731 326.997 261.731Z" fill="black"/>
<path d="M322.039 241.766C321.931 241.766 321.825 241.716 321.756 241.622L319.457 238.476L298.188 236.44C297.997 236.422 297.854 236.25 297.873 236.057C297.891 235.865 298.062 235.722 298.255 235.741L319.68 237.791C319.78 237.801 319.872 237.854 319.932 237.934L322.322 241.207C322.438 241.363 322.403 241.584 322.246 241.699C322.184 241.743 322.11 241.766 322.039 241.766Z" fill="black"/>
<path d="M323.121 282.485C323.121 287.841 318.778 292.184 313.423 292.184C308.067 292.184 303.727 287.841 303.727 282.485C303.727 277.129 308.067 272.787 313.423 272.787C318.778 272.787 323.121 277.129 323.121 282.485Z" fill="white"/>
<path d="M313.422 273.138C308.269 273.138 304.077 277.331 304.077 282.484C304.077 287.639 308.269 291.832 313.422 291.832C318.577 291.832 322.769 287.639 322.769 282.484C322.769 277.331 318.577 273.138 313.422 273.138ZM313.422 292.534C307.881 292.534 303.375 288.025 303.375 282.484C303.375 276.943 307.881 272.436 313.422 272.436C318.963 272.436 323.471 276.943 323.471 282.484C323.471 288.025 318.963 292.534 313.422 292.534Z" fill="black"/>
<path d="M317.347 282.484C317.347 284.65 315.591 286.407 313.423 286.407C311.258 286.407 309.504 284.65 309.504 282.484C309.504 280.319 311.258 278.563 313.423 278.563C315.591 278.563 317.347 280.319 317.347 282.484Z" fill="white"/>
<path d="M313.422 278.914C311.452 278.914 309.851 280.517 309.851 282.485C309.851 284.454 311.452 286.056 313.422 286.056C315.391 286.056 316.992 284.454 316.992 282.485C316.992 280.517 315.391 278.914 313.422 278.914ZM313.422 286.759C311.066 286.759 309.148 284.842 309.148 282.485C309.148 280.129 311.066 278.212 313.422 278.212C315.778 278.212 317.695 280.129 317.695 282.485C317.695 284.842 315.778 286.759 313.422 286.759Z" fill="black"/>
<path d="M235.41 282.485C235.41 287.841 231.068 292.184 225.712 292.184C220.356 292.184 216.016 287.841 216.016 282.485C216.016 277.129 220.356 272.787 225.712 272.787C231.068 272.787 235.41 277.129 235.41 282.485Z" fill="white"/>
<path d="M225.715 292.534C220.175 292.534 215.668 288.026 215.668 282.484C215.668 280.877 216.036 279.34 216.763 277.918C216.85 277.746 217.06 277.677 217.234 277.765C217.408 277.853 217.475 278.065 217.388 278.237C216.711 279.56 216.37 280.989 216.37 282.484C216.37 287.639 220.563 291.832 225.715 291.832C230.87 291.832 235.063 287.639 235.063 282.484C235.063 280.989 234.719 279.56 234.044 278.237C233.956 278.065 234.025 277.853 234.197 277.765C234.37 277.677 234.581 277.746 234.67 277.918C235.396 279.34 235.765 280.877 235.765 282.484C235.765 288.026 231.256 292.534 225.715 292.534Z" fill="black"/>
<path d="M229.637 282.484C229.637 284.65 227.883 286.407 225.715 286.407C223.549 286.407 221.793 284.65 221.793 282.484C221.793 280.318 223.549 278.563 225.715 278.563C227.883 278.563 229.637 280.318 229.637 282.484Z" fill="white"/>
<path d="M225.712 278.914C223.745 278.914 222.143 280.517 222.143 282.485C222.143 284.454 223.745 286.057 225.712 286.057C227.683 286.057 229.285 284.454 229.285 282.485C229.285 280.517 227.683 278.914 225.712 278.914ZM225.712 286.759C223.358 286.759 221.441 284.842 221.441 282.485C221.441 280.129 223.358 278.212 225.712 278.212C228.068 278.212 229.987 280.129 229.987 282.485C229.987 284.842 228.068 286.759 225.712 286.759Z" fill="black"/>
<path d="M213.809 282.485C213.809 287.841 209.468 292.184 204.111 292.184C198.755 292.184 194.414 287.841 194.414 282.485C194.414 277.129 198.755 272.787 204.111 272.787C209.468 272.787 213.809 277.129 213.809 282.485Z" fill="white"/>
<path d="M204.111 292.535C198.571 292.535 194.062 288.026 194.062 282.485C194.062 280.878 194.431 279.343 195.157 277.921C195.246 277.748 195.456 277.68 195.631 277.767C195.803 277.855 195.872 278.067 195.782 278.24C195.107 279.561 194.766 280.99 194.766 282.485C194.766 287.64 198.958 291.833 204.111 291.833C209.266 291.833 213.459 287.64 213.459 282.485C213.459 280.99 213.116 279.561 212.441 278.24C212.352 278.067 212.421 277.855 212.593 277.767C212.767 277.68 212.978 277.748 213.065 277.921C213.791 279.343 214.16 280.878 214.16 282.485C214.16 288.026 209.653 292.535 204.111 292.535Z" fill="black"/>
<path d="M208.031 282.484C208.031 284.65 206.276 286.407 204.109 286.407C201.943 286.407 200.188 284.65 200.188 282.484C200.188 280.319 201.943 278.563 204.109 278.563C206.276 278.563 208.031 280.319 208.031 282.484Z" fill="white"/>
<path d="M204.112 278.914C202.144 278.914 200.542 280.517 200.542 282.485C200.542 284.454 202.144 286.057 204.112 286.057C206.081 286.057 207.683 284.454 207.683 282.485C207.683 280.517 206.081 278.914 204.112 278.914ZM204.112 286.759C201.756 286.759 199.84 284.842 199.84 282.485C199.84 280.129 201.756 278.212 204.112 278.212C206.469 278.212 208.385 280.129 208.385 282.485C208.385 284.842 206.469 286.759 204.112 286.759Z" fill="black"/>
<path d="M177.952 14.9629H37.3886C37.2955 14.9629 37.2062 14.9251 37.1404 14.8599L26.3803 4.09846C26.243 3.96187 26.243 3.73912 26.3803 3.60253C26.5175 3.46594 26.7396 3.46594 26.8766 3.60253L37.5338 14.261H177.952C178.145 14.261 178.303 14.4186 178.303 14.612C178.303 14.8053 178.145 14.9629 177.952 14.9629Z" fill="black"/>
<path d="M29.6599 3.85013C29.6599 5.52522 28.3021 6.88477 26.6267 6.88477C24.9517 6.88477 23.5938 5.52522 23.5938 3.85013C23.5938 2.17504 24.9517 0.8176 26.6267 0.8176C28.3021 0.8176 29.6599 2.17504 29.6599 3.85013Z" fill="white"/>
<path d="M26.6263 1.16837C25.1474 1.16837 23.9442 2.37245 23.9442 3.8521C23.9442 5.32962 25.1474 6.53369 26.6263 6.53369C28.1052 6.53369 29.3086 5.32962 29.3086 3.8521C29.3086 2.37245 28.1052 1.16837 26.6263 1.16837ZM26.6263 7.23535C24.7605 7.23535 23.2422 5.71756 23.2422 3.8521C23.2422 1.98452 24.7605 0.46671 26.6263 0.46671C28.4923 0.46671 30.0106 1.98452 30.0106 3.8521C30.0106 5.71756 28.4923 7.23535 26.6263 7.23535Z" fill="black"/>
<path d="M4.01924 41.0879C3.9293 41.0879 3.83936 41.0521 3.77086 40.9846C3.63367 40.8476 3.63367 40.6253 3.77086 40.4883L21.7966 22.4616C21.8623 22.3961 21.9517 22.3583 22.0446 22.3583H172.139C172.333 22.3583 172.49 22.5152 172.49 22.7098C172.49 22.9044 172.333 23.0612 172.139 23.0612H22.1899L4.26722 40.9846C4.19872 41.0521 4.10898 41.0879 4.01924 41.0879Z" fill="black"/>
<path d="M7.0544 40.7357C7.0544 42.4096 5.69645 43.7676 4.02134 43.7676C2.34623 43.7676 0.988281 42.4096 0.988281 40.7357C0.988281 39.0599 2.34623 37.7018 4.02134 37.7018C5.69645 37.7018 7.0544 39.0599 7.0544 40.7357Z" fill="white"/>
<path d="M4.02067 38.0531C2.5419 38.0531 1.33861 39.2556 1.33861 40.7344C1.33861 42.2133 2.5419 43.4176 4.02067 43.4176C5.49964 43.4176 6.70273 42.2133 6.70273 40.7344C6.70273 39.2556 5.49964 38.0531 4.02067 38.0531ZM4.02067 44.1201C2.15469 44.1201 0.636719 42.6015 0.636719 40.7344C0.636719 38.8693 2.15469 37.3506 4.02067 37.3506C5.88666 37.3506 7.40482 38.8693 7.40482 40.7344C7.40482 42.6015 5.88666 44.1201 4.02067 44.1201Z" fill="black"/>
<path d="M33.398 49.8574C33.3081 49.8574 33.2182 49.8245 33.1498 49.7547C33.0126 49.6191 33.0126 49.3962 33.1498 49.2587L52.1472 30.2596C52.2131 30.1938 52.3024 30.1569 52.3954 30.1569H160.089C160.28 30.1569 160.439 30.3139 160.439 30.5077C160.439 30.7014 160.28 30.8584 160.089 30.8584H52.5409L33.646 49.7547C33.5774 49.8245 33.4877 49.8574 33.398 49.8574Z" fill="black"/>
<path d="M36.4334 49.508C36.4334 51.1821 35.0753 52.54 33.4003 52.54C31.7251 52.54 30.3672 51.1821 30.3672 49.508C30.3672 47.8321 31.7251 46.4742 33.4003 46.4742C35.0753 46.4742 36.4334 47.8321 36.4334 49.508Z" fill="white"/>
<path d="M33.4 46.825C31.9211 46.825 30.7178 48.0282 30.7178 49.5073C30.7178 50.9846 31.9211 52.1897 33.4 52.1897C34.8789 52.1897 36.0818 50.9846 36.0818 49.5073C36.0818 48.0282 34.8789 46.825 33.4 46.825ZM33.4 52.8906C31.5339 52.8906 30.0156 51.3728 30.0156 49.5073C30.0156 47.64 31.5339 46.1222 33.4 46.1222C35.2659 46.1222 36.7842 47.64 36.7842 49.5073C36.7842 51.3728 35.2659 52.8906 33.4 52.8906Z" fill="black"/>
<path d="M247.53 151.877C247.442 151.877 247.35 151.844 247.283 151.775C247.144 151.637 247.144 151.416 247.283 151.278L259.238 139.322V96.5343L247.179 84.4766C247.045 84.3383 247.045 84.1175 247.179 83.9793C247.317 83.843 247.54 83.843 247.678 83.9793L259.839 96.1407C259.904 96.2079 259.94 96.2962 259.94 96.3903V139.466C259.94 139.56 259.904 139.65 259.839 139.716L247.778 151.775C247.709 151.844 247.62 151.877 247.53 151.877Z" fill="#39A5DF"/>
<path d="M241.838 79.0527H198.26C198.168 79.0527 198.079 79.0153 198.011 78.9491L177.418 58.3546C177.352 58.2884 177.316 58.2003 177.316 58.1077V31.2184C177.316 31.1258 177.352 31.0354 177.418 30.9693L207.818 0.566719C207.885 0.502808 207.975 0.465347 208.068 0.465347H278C278.092 0.465347 278.183 0.502808 278.246 0.566719L306.135 28.4545C306.199 28.5206 306.236 28.611 306.236 28.7036V40.5966C306.236 40.7905 306.08 40.947 305.886 40.947C305.692 40.947 305.533 40.7905 305.533 40.5966V28.849L277.854 1.16623H208.213L178.017 31.3638V57.9622L198.406 78.3497H241.838C242.032 78.3497 242.188 78.5083 242.188 78.7023C242.188 78.8963 242.032 79.0527 241.838 79.0527Z" fill="#39A5DF"/>
<path d="M289.74 79.0527H260.406C260.213 79.0527 260.055 78.897 260.055 78.7033C260.055 78.5096 260.213 78.3518 260.406 78.3518H289.74C289.935 78.3518 290.091 78.5096 290.091 78.7033C290.091 78.897 289.935 79.0527 289.74 79.0527Z" fill="black"/>
<path d="M303.122 69.7354H260.407C260.214 69.7354 260.055 69.5779 260.055 69.3832C260.055 69.1908 260.214 69.0333 260.407 69.0333H303.122C303.315 69.0333 303.472 69.1908 303.472 69.3832C303.472 69.5779 303.315 69.7354 303.122 69.7354Z" fill="black"/>
<path d="M294.094 60.417H260.406C260.212 60.417 260.055 60.2592 260.055 60.0653C260.055 59.8713 260.212 59.7157 260.406 59.7157H294.094C294.288 59.7157 294.446 59.8713 294.446 60.0653C294.446 60.2592 294.288 60.417 294.094 60.417Z" fill="black"/>
<path d="M303.122 51.0996H214.251C214.056 51.0996 213.898 50.9421 213.898 50.7475C213.898 50.5528 214.056 50.3976 214.251 50.3976H303.122C303.314 50.3976 303.472 50.5528 303.472 50.7475C303.472 50.9421 303.314 51.0996 303.122 51.0996Z" fill="black"/>
<path d="M294.096 41.7793H218.184C218.093 41.7793 218.003 41.7431 217.937 41.677L211.184 34.9258C211.118 34.8598 211.082 34.7702 211.082 34.6764V27.3092C211.082 27.2154 211.118 27.1259 211.184 27.0598L219.738 18.5074C219.802 18.4413 219.892 18.4029 219.986 18.4029H271.357C271.551 18.4029 271.708 18.5607 271.708 18.7547C271.708 18.9487 271.551 19.1064 271.357 19.1064H220.131L211.783 27.4542V34.5315L218.329 41.078H294.096C294.29 41.078 294.448 41.2357 294.448 41.4297C294.448 41.6237 294.29 41.7793 294.096 41.7793Z" fill="black"/>
<path d="M308.647 50.7463C308.647 53.7994 306.173 56.2734 303.124 56.2734C300.071 56.2734 297.598 53.7994 297.598 50.7463C297.598 47.6954 300.071 45.2214 303.124 45.2214C306.173 45.2214 308.647 47.6954 308.647 50.7463Z" fill="white"/>
<path d="M303.122 45.5736C300.269 45.5736 297.948 47.8945 297.948 50.7485C297.948 53.6003 300.269 55.9212 303.122 55.9212C305.974 55.9212 308.295 53.6003 308.295 50.7485C308.295 47.8945 305.974 45.5736 303.122 45.5736ZM303.122 56.623C299.88 56.623 297.246 53.9867 297.246 50.7485C297.246 47.5081 299.88 44.8718 303.122 44.8718C306.363 44.8718 308.997 47.5081 308.997 50.7485C308.997 53.9867 306.363 56.623 303.122 56.623Z" fill="black"/>
<path d="M305.884 50.7464C305.884 52.2723 304.646 53.5098 303.123 53.5098C301.597 53.5098 300.359 52.2723 300.359 50.7464C300.359 49.2205 301.597 47.9852 303.123 47.9852C304.646 47.9852 305.884 49.2205 305.884 50.7464Z" fill="#39A5DF"/>
<path d="M295.267 78.7029C295.267 81.7542 292.793 84.2285 289.742 84.2285C286.693 84.2285 284.219 81.7542 284.219 78.7029C284.219 75.6516 286.693 73.1773 289.742 73.1773C292.793 73.1773 295.267 75.6516 295.267 78.7029Z" fill="white"/>
<path d="M289.742 73.5286C286.889 73.5286 284.569 75.8493 284.569 78.7026C284.569 81.5559 286.889 83.8766 289.742 83.8766C292.595 83.8766 294.916 81.5559 294.916 78.7026C294.916 75.8493 292.595 73.5286 289.742 73.5286ZM289.742 84.5781C286.502 84.5781 283.867 81.943 283.867 78.7026C283.867 75.4621 286.502 72.827 289.742 72.827C292.983 72.827 295.618 75.4621 295.618 78.7026C295.618 81.943 292.983 84.5781 289.742 84.5781Z" fill="black"/>
<path d="M292.504 78.7028C292.504 80.229 291.266 81.4648 289.742 81.4648C288.216 81.4648 286.98 80.229 286.98 78.7028C286.98 77.1765 288.216 75.9407 289.742 75.9407C291.266 75.9407 292.504 77.1765 292.504 78.7028Z" fill="white"/>
<path d="M289.742 76.2909C288.411 76.2909 287.329 77.373 287.329 78.7035C287.329 80.034 288.411 81.114 289.742 81.114C291.072 81.114 292.152 80.034 292.152 78.7035C292.152 77.373 291.072 76.2909 289.742 76.2909ZM289.742 81.8164C288.025 81.8164 286.629 80.4202 286.629 78.7035C286.629 76.9869 288.025 75.5906 289.742 75.5906C291.458 75.5906 292.854 76.9869 292.854 78.7035C292.854 80.4202 291.458 81.8164 289.742 81.8164Z" fill="black"/>
<path d="M286.929 151.037C286.734 151.037 286.578 150.881 286.578 150.686V107.943C286.578 107.85 286.614 107.761 286.68 107.697L308.298 86.0753V62.7549C308.298 62.5616 308.456 62.4039 308.649 62.4039C308.844 62.4039 309 62.5616 309 62.7549V86.2219C309 86.3151 308.962 86.404 308.898 86.4706L287.28 108.088V150.686C287.28 150.881 287.122 151.037 286.929 151.037Z" fill="black"/>
<path d="M274.117 130.834C273.921 130.834 273.766 130.676 273.766 130.482V103.653C273.766 103.561 273.801 103.472 273.867 103.405L289.493 87.7801C289.63 87.6433 289.853 87.6433 289.99 87.7801C290.126 87.917 290.126 88.1401 289.99 88.277L274.467 103.799V130.482C274.467 130.676 274.309 130.834 274.117 130.834Z" fill="black"/>
<path d="M266.627 107.881C266.434 107.881 266.277 107.722 266.277 107.529V93.0805C266.277 92.8861 266.434 92.7291 266.627 92.7291C266.821 92.7291 266.978 92.8861 266.978 93.0805V107.529C266.978 107.722 266.821 107.881 266.627 107.881Z" fill="black"/>
<path d="M279.641 130.483C279.641 133.534 277.167 136.008 274.116 136.008C271.063 136.008 268.59 133.534 268.59 130.483C268.59 127.432 271.063 124.958 274.116 124.958C277.167 124.958 279.641 127.432 279.641 130.483Z" fill="white"/>
<path d="M274.12 125.31C271.266 125.31 268.945 127.63 268.945 130.483C268.945 133.337 271.266 135.658 274.12 135.658C276.972 135.658 279.292 133.337 279.292 130.483C279.292 127.63 276.972 125.31 274.12 125.31ZM274.12 136.36C270.88 136.36 268.242 133.723 268.242 130.483C268.242 127.242 270.88 124.609 274.12 124.609C277.358 124.609 279.995 127.242 279.995 130.483C279.995 133.723 277.358 136.36 274.12 136.36Z" fill="black"/>
<path d="M276.88 130.483C276.88 132.007 275.644 133.246 274.118 133.246C272.592 133.246 271.355 132.007 271.355 130.483C271.355 128.957 272.592 127.721 274.118 127.721C275.644 127.721 276.88 128.957 276.88 130.483Z" fill="white"/>
<path d="M274.118 128.073C272.789 128.073 271.707 129.154 271.707 130.484C271.707 131.815 272.789 132.895 274.118 132.895C275.447 132.895 276.529 131.815 276.529 130.484C276.529 129.154 275.447 128.073 274.118 128.073ZM274.118 133.598C272.402 133.598 271.004 132.2 271.004 130.484C271.004 128.767 272.402 127.371 274.118 127.371C275.836 127.371 277.232 128.767 277.232 130.484C277.232 132.2 275.836 133.598 274.118 133.598Z" fill="black"/>
<path d="M265.117 118.015C265.117 121.065 262.644 123.54 259.592 123.54C256.541 123.54 254.066 121.065 254.066 118.015C254.066 114.964 256.541 112.491 259.592 112.491C262.644 112.491 265.117 114.964 265.117 118.015Z" fill="white"/>
<path d="M259.59 112.841C256.737 112.841 254.416 115.162 254.416 118.015C254.416 120.868 256.737 123.189 259.59 123.189C262.444 123.189 264.766 120.868 264.766 118.015C264.766 115.162 262.444 112.841 259.59 112.841ZM259.59 123.891C256.351 123.891 253.715 121.257 253.715 118.015C253.715 114.776 256.351 112.14 259.59 112.14C262.831 112.14 265.467 114.776 265.467 118.015C265.467 121.257 262.831 123.891 259.59 123.891Z" fill="black"/>
<path d="M262.354 118.015C262.354 119.54 261.117 120.778 259.591 120.778C258.066 120.778 256.828 119.54 256.828 118.015C256.828 116.489 258.066 115.254 259.591 115.254C261.117 115.254 262.354 116.489 262.354 118.015Z" fill="#39A5DF"/>
<path d="M228.153 69.7363H206.063C205.969 69.7363 205.88 69.698 205.815 69.6327L189.303 53.1193C189.236 53.0522 189.199 52.9639 189.199 52.8698V33.547C189.199 33.3531 189.357 33.1958 189.548 33.1958C189.744 33.1958 189.9 33.3531 189.9 33.547V52.7259L206.209 69.034H228.153C228.347 69.034 228.505 69.1913 228.505 69.3851C228.505 69.579 228.347 69.7363 228.153 69.7363Z" fill="black"/>
<path d="M195.075 53.51C195.075 56.5614 192.6 59.0352 189.548 59.0352C186.497 59.0352 184.023 56.5614 184.023 53.51C184.023 50.4585 186.497 47.9848 189.548 47.9848C192.6 47.9848 195.075 50.4585 195.075 53.51Z" fill="white"/>
<path d="M189.549 48.3352C186.698 48.3352 184.377 50.6562 184.377 53.5099C184.377 56.3636 186.698 58.6847 189.549 58.6847C192.403 58.6847 194.724 56.3636 194.724 53.5099C194.724 50.6562 192.403 48.3352 189.549 48.3352ZM189.549 59.3857C186.31 59.3857 183.676 56.7499 183.676 53.5099C183.676 50.27 186.31 47.6341 189.549 47.6341C192.789 47.6341 195.427 50.27 195.427 53.5099C195.427 56.7499 192.789 59.3857 189.549 59.3857Z" fill="black"/>
<path d="M192.313 53.5101C192.313 55.0353 191.076 56.2725 189.551 56.2725C188.024 56.2725 186.789 55.0353 186.789 53.5101C186.789 51.985 188.024 50.7478 189.551 50.7478C191.076 50.7478 192.313 51.985 192.313 53.5101Z" fill="#39A5DF"/>
<path d="M257.455 18.5545C257.455 21.6043 254.983 24.0781 251.932 24.0781C248.88 24.0781 246.406 21.6043 246.406 18.5545C246.406 15.5026 248.88 13.0288 251.932 13.0288C254.983 13.0288 257.455 15.5026 257.455 18.5545Z" fill="white"/>
<path d="M251.931 13.3789C249.077 13.3789 246.756 15.6999 246.756 18.5526C246.756 21.4073 249.077 23.7283 251.931 23.7283C254.782 23.7283 257.105 21.4073 257.105 18.5526C257.105 15.6999 254.782 13.3789 251.931 13.3789ZM251.931 24.4297C248.69 24.4297 246.055 21.7938 246.055 18.5526C246.055 15.3134 248.69 12.6775 251.931 12.6775C255.17 12.6775 257.806 15.3134 257.806 18.5526C257.806 21.7938 255.17 24.4297 251.931 24.4297Z" fill="black"/>
<path d="M254.692 18.5552C254.692 20.0807 253.456 21.3164 251.931 21.3164C250.406 21.3164 249.168 20.0807 249.168 18.5552C249.168 17.0298 250.406 15.792 251.931 15.792C253.456 15.792 254.692 17.0298 254.692 18.5552Z" fill="#39A5DF"/>
<path d="M289.741 60.418H209.963C209.87 60.418 209.782 60.3801 209.714 60.3148L200.48 51.0802C200.415 51.0129 200.375 50.9244 200.375 50.8318V23.41C200.375 23.3174 200.415 23.229 200.48 23.1616L211.927 11.7168C212.063 11.58 212.284 11.58 212.421 11.7168C212.56 11.8536 212.56 12.0767 212.421 12.2135L201.078 23.5553V50.6866L210.108 59.7149H289.741C289.937 59.7149 290.093 59.8728 290.093 60.0665C290.093 60.2601 289.937 60.418 289.741 60.418Z" fill="black"/>
<path d="M218.18 11.5739C218.18 14.6251 215.706 17.0986 212.655 17.0986C209.604 17.0986 207.129 14.6251 207.129 11.5739C207.129 8.5227 209.604 6.04919 212.655 6.04919C215.706 6.04919 218.18 8.5227 218.18 11.5739Z" fill="white"/>
<path d="M212.656 6.39975C209.804 6.39975 207.483 8.72134 207.483 11.5732C207.483 14.4271 209.804 16.7487 212.656 16.7487C215.51 16.7487 217.831 14.4271 217.831 11.5732C217.831 8.72134 215.51 6.39975 212.656 6.39975ZM212.656 17.4502C209.416 17.4502 206.781 14.8134 206.781 11.5732C206.781 8.33511 209.416 5.69828 212.656 5.69828C215.896 5.69828 218.532 8.33511 218.532 11.5732C218.532 14.8134 215.896 17.4502 212.656 17.4502Z" fill="black"/>
<path d="M215.42 11.5742C215.42 13.1009 214.183 14.3379 212.656 14.3379C211.132 14.3379 209.895 13.1009 209.895 11.5742C209.895 10.0496 211.132 8.81256 212.656 8.81256C214.183 8.81256 215.42 10.0496 215.42 11.5742Z" fill="white"/>
<path d="M212.657 9.16263C211.328 9.16263 210.245 10.2436 210.245 11.5751C210.245 12.9046 211.328 13.9855 212.657 13.9855C213.987 13.9855 215.067 12.9046 215.067 11.5751C215.067 10.2436 213.987 9.16263 212.657 9.16263ZM212.657 14.6875C210.941 14.6875 209.543 13.2918 209.543 11.5751C209.543 9.85634 210.941 8.46062 212.657 8.46062C214.374 8.46062 215.769 9.85634 215.769 11.5751C215.769 13.2918 214.374 14.6875 212.657 14.6875Z" fill="black"/>
<path d="M268.074 32.1023H235.788L219.645 60.0663L235.788 88.0283H268.074L284.219 60.0663L268.074 32.1023Z" fill="#39A5DF"/>
<path d="M242.224 62.7554H252.638L247.432 48.6119L242.224 62.7554ZM253.333 64.61H241.546L238.87 71.9043H236.57L246.397 45.936H248.482L258.309 71.9043H256.026L253.333 64.61Z" fill="white"/>
<path d="M264.799 71.9053H262.605V45.9376H264.799V71.9053Z" fill="white"/>
<path d="M288.346 28.1787H226.565C226.372 28.1787 226.215 28.0215 226.215 27.8286C226.215 27.6336 226.372 27.4763 226.565 27.4763H287.497L269.742 9.72025H236.441C236.249 9.72025 236.089 9.563 236.089 9.37011C236.089 9.17512 236.249 9.01788 236.441 9.01788H269.889C269.981 9.01788 270.071 9.05561 270.136 9.1206L288.593 27.5791C288.694 27.6797 288.723 27.8307 288.669 27.9628C288.614 28.0928 288.486 28.1787 288.346 28.1787Z" fill="black"/>
<path d="M293.867 27.8286C293.867 30.8804 291.395 33.3555 288.343 33.3555C285.291 33.3555 282.816 30.8804 282.816 27.8286C282.816 24.7789 285.291 22.3039 288.343 22.3039C291.395 22.3039 293.867 24.7789 293.867 27.8286Z" fill="white"/>
<path d="M288.344 22.6551C285.494 22.6551 283.172 24.975 283.172 27.8296C283.172 30.6822 285.494 33.0021 288.344 33.0021C291.198 33.0021 293.518 30.6822 293.518 27.8296C293.518 24.975 291.198 22.6551 288.344 22.6551ZM288.344 33.7051C285.106 33.7051 282.469 31.0699 282.469 27.8296C282.469 24.5894 285.106 21.9521 288.344 21.9521C291.584 21.9521 294.221 24.5894 294.221 27.8296C294.221 31.0699 291.584 33.7051 288.344 33.7051Z" fill="black"/>
<path d="M291.107 27.8292C291.107 29.3556 289.87 30.5928 288.343 30.5928C286.819 30.5928 285.582 29.3556 285.582 27.8292C285.582 26.3049 286.819 25.0677 288.343 25.0677C289.87 25.0677 291.107 26.3049 291.107 27.8292Z" fill="white"/>
<path d="M288.345 25.418C287.016 25.418 285.934 26.5001 285.934 27.8294C285.934 29.1587 287.016 30.2407 288.345 30.2407C289.675 30.2407 290.757 29.1587 290.757 27.8294C290.757 26.5001 289.675 25.418 288.345 25.418ZM288.345 30.9424C286.629 30.9424 285.23 29.5454 285.23 27.8294C285.23 26.1112 286.629 24.7164 288.345 24.7164C290.061 24.7164 291.458 26.1112 291.458 27.8294C291.458 29.5454 290.061 30.9424 288.345 30.9424Z" fill="black"/>
<path d="M318.313 69.7344C318.119 69.7344 317.961 69.577 317.961 69.3832V29.6698L302.876 14.5834C302.739 14.4466 302.739 14.2231 302.876 14.0863C303.013 13.9495 303.234 13.9495 303.371 14.0863L318.561 29.2776C318.625 29.3414 318.664 29.4326 318.664 29.5238V69.3832C318.664 69.577 318.506 69.7344 318.313 69.7344Z" fill="#39A5DF"/>
<path d="M324.326 69.3845C324.326 72.4357 321.852 74.9082 318.801 74.9082C315.75 74.9082 313.277 72.4357 313.277 69.3845C313.277 66.3333 315.75 63.8585 318.801 63.8585C321.852 63.8585 324.326 66.3333 324.326 69.3845Z" fill="white"/>
<path d="M318.802 64.2101C315.947 64.2101 313.628 66.5319 313.628 69.3844C313.628 72.2391 315.947 74.5586 318.802 74.5586C321.652 74.5586 323.976 72.2391 323.976 69.3844C323.976 66.5319 321.652 64.2101 318.802 64.2101ZM318.802 75.2607C315.56 75.2607 312.926 72.6261 312.926 69.3844C312.926 66.1449 315.56 63.508 318.802 63.508C322.041 63.508 324.675 66.1449 324.675 69.3844C324.675 72.6261 322.041 75.2607 318.802 75.2607Z" fill="black"/>
<path d="M321.563 69.3851C321.563 70.9088 320.327 72.1475 318.801 72.1475C317.275 72.1475 316.039 70.9088 316.039 69.3851C316.039 67.8592 317.275 66.6205 318.801 66.6205C320.327 66.6205 321.563 67.8592 321.563 69.3851Z" fill="white"/>
<path d="M318.802 66.9729C317.472 66.9729 316.391 68.0563 316.391 69.3858C316.391 70.7154 317.472 71.7965 318.802 71.7965C320.131 71.7965 321.212 70.7154 321.212 69.3858C321.212 68.0563 320.131 66.9729 318.802 66.9729ZM318.802 72.498C317.084 72.498 315.688 71.1018 315.688 69.3858C315.688 67.6676 317.084 66.2713 318.802 66.2713C320.518 66.2713 321.914 67.6676 321.914 69.3858C321.914 71.1018 320.518 72.498 318.802 72.498Z" fill="black"/>
<path d="M320.799 151.037H298.387C298.191 151.037 298.035 150.881 298.035 150.686V117.001C298.035 116.908 298.071 116.819 298.137 116.752L330.806 84.0822V53.3713C330.806 53.1755 330.964 53.0198 331.157 53.0198C331.351 53.0198 331.509 53.1755 331.509 53.3713V84.2261C331.509 84.3205 331.471 84.4101 331.405 84.4762L298.736 117.146V150.335H320.799C320.993 150.335 321.151 150.493 321.151 150.686C321.151 150.881 320.993 151.037 320.799 151.037Z" fill="#39A5DF"/>
<path d="M150.426 206.854H121.8C121.607 206.854 121.449 206.697 121.449 206.502V185.933C121.449 185.841 121.486 185.751 121.553 185.684L139.871 167.365C140.008 167.228 140.231 167.228 140.367 167.365C140.504 167.501 140.504 167.724 140.367 167.862L122.151 186.078V206.151H150.426C150.621 206.151 150.777 206.309 150.777 206.502C150.777 206.697 150.621 206.854 150.426 206.854Z" fill="black"/>
<path d="M144.977 182.351H243.96V98.5824H144.977V182.351ZM244.312 183.053H144.626C144.432 183.053 144.273 182.895 144.273 182.702V98.2318C144.273 98.0382 144.432 97.8811 144.626 97.8811H244.312C244.506 97.8811 244.663 98.0382 244.663 98.2318V182.702C244.663 182.895 244.506 183.053 244.312 183.053Z" fill="black"/>
<path d="M224.207 122.385H164.726C164.532 122.385 164.375 122.226 164.375 122.034C164.375 121.838 164.532 121.683 164.726 121.683H224.207C224.4 121.683 224.558 121.838 224.558 122.034C224.558 122.226 224.4 122.385 224.207 122.385Z" fill="black"/>
<path d="M174.745 122.034C174.745 127.567 170.259 132.054 164.726 132.054C159.193 132.054 154.707 127.567 154.707 122.034C154.707 116.501 159.193 112.014 164.726 112.014C170.259 112.014 174.745 116.501 174.745 122.034Z" fill="white"/>
<path d="M164.726 112.366C159.395 112.366 155.058 116.703 155.058 122.034C155.058 127.365 159.395 131.703 164.726 131.703C170.056 131.703 174.394 127.365 174.394 122.034C174.394 116.703 170.056 112.366 164.726 112.366ZM164.726 132.403C159.008 132.403 154.355 127.753 154.355 122.034C154.355 116.316 159.008 111.663 164.726 111.663C170.444 111.663 175.096 116.316 175.096 122.034C175.096 127.753 170.444 132.403 164.726 132.403Z" fill="black"/>
<path d="M169.738 122.034C169.738 124.8 167.496 127.044 164.728 127.044C161.961 127.044 159.719 124.8 159.719 122.034C159.719 119.267 161.961 117.024 164.728 117.024C167.496 117.024 169.738 119.267 169.738 122.034Z" fill="white"/>
<path d="M164.728 117.375C162.16 117.375 160.069 119.464 160.069 122.034C160.069 124.602 162.16 126.692 164.728 126.692C167.297 126.692 169.386 124.602 169.386 122.034C169.386 119.464 167.297 117.375 164.728 117.375ZM164.728 127.395C161.772 127.395 159.367 124.989 159.367 122.034C159.367 119.078 161.772 116.673 164.728 116.673C167.683 116.673 170.088 119.078 170.088 122.034C170.088 124.989 167.683 127.395 164.728 127.395Z" fill="black"/>
<path d="M204.486 122.034C204.486 127.567 200 132.054 194.467 132.054C188.934 132.054 184.449 127.567 184.449 122.034C184.449 116.501 188.934 112.014 194.467 112.014C200 112.014 204.486 116.501 204.486 122.034Z" fill="white"/>
<path d="M194.466 112.366C189.136 112.366 184.8 116.703 184.8 122.034C184.8 127.365 189.136 131.703 194.466 131.703C199.798 131.703 204.134 127.365 204.134 122.034C204.134 116.703 199.798 112.366 194.466 112.366ZM194.466 132.403C188.75 132.403 184.098 127.753 184.098 122.034C184.098 116.316 188.75 111.663 194.466 111.663C200.184 111.663 204.836 116.316 204.836 122.034C204.836 127.753 200.184 132.403 194.466 132.403Z" fill="black"/>
<path d="M199.478 122.034C199.478 124.8 197.236 127.044 194.469 127.044C191.703 127.044 189.461 124.8 189.461 122.034C189.461 119.267 191.703 117.024 194.469 117.024C197.236 117.024 199.478 119.267 199.478 122.034Z" fill="white"/>
<path d="M194.468 117.375C191.901 117.375 189.81 119.464 189.81 122.034C189.81 124.602 191.901 126.692 194.468 126.692C197.038 126.692 199.127 124.602 199.127 122.034C199.127 119.464 197.038 117.375 194.468 117.375ZM194.468 127.395C191.513 127.395 189.109 124.989 189.109 122.034C189.109 119.078 191.513 116.673 194.468 116.673C197.424 116.673 199.829 119.078 199.829 122.034C199.829 124.989 197.424 127.395 194.468 127.395Z" fill="black"/>
<path d="M234.225 122.034C234.225 127.567 229.74 132.054 224.207 132.054C218.674 132.054 214.188 127.567 214.188 122.034C214.188 116.5 218.674 112.014 224.207 112.014C229.74 112.014 234.225 116.5 234.225 122.034Z" fill="white"/>
<path d="M224.206 112.365C218.875 112.365 214.538 116.704 214.538 122.034C214.538 127.364 218.875 131.703 224.206 131.703C229.536 131.703 233.873 127.364 233.873 122.034C233.873 116.704 229.536 112.365 224.206 112.365ZM224.206 132.403C218.488 132.403 213.836 127.752 213.836 122.034C213.836 116.316 218.488 111.663 224.206 111.663C229.923 111.663 234.575 116.316 234.575 122.034C234.575 127.752 229.923 132.403 224.206 132.403Z" fill="black"/>
<path d="M229.219 122.034C229.219 124.799 226.975 127.043 224.21 127.043C221.441 127.043 219.199 124.799 219.199 122.034C219.199 119.265 221.441 117.023 224.21 117.023C226.975 117.023 229.219 119.265 229.219 122.034Z" fill="#39A5DF"/>
<path d="M234.226 142.298H194.468C194.274 142.298 194.117 142.143 194.117 141.949C194.117 141.754 194.274 141.597 194.468 141.597H234.226C234.42 141.597 234.578 141.754 234.578 141.949C234.578 142.143 234.42 142.298 234.226 142.298Z" fill="black"/>
<path d="M234.226 151.877H194.468C194.274 151.877 194.117 151.722 194.117 151.526C194.117 151.334 194.274 151.175 194.468 151.175H234.226C234.42 151.175 234.578 151.334 234.578 151.526C234.578 151.722 234.42 151.877 234.226 151.877Z" fill="black"/>
<path d="M234.226 161.457H194.468C194.274 161.457 194.117 161.3 194.117 161.106C194.117 160.912 194.274 160.755 194.468 160.755H234.226C234.42 160.755 234.578 160.912 234.578 161.106C234.578 161.3 234.42 161.457 234.226 161.457Z" fill="black"/>
</svg>
