<svg width="128" height="128" viewBox="0 0 128 128" fill="none" xmlns="http://www.w3.org/2000/svg">
<g clip-path="url(#clip0_197_6351)">
<path d="M66.6622 20.0206C66.6619 20.2857 66.5565 20.5399 66.369 20.7274C66.1815 20.9148 65.9274 21.0203 65.6622 21.0206H62.452L62.5925 22.1456C63.0591 25.8981 64.7642 29.3878 67.4378 32.0618C70.1115 34.7359 73.6008 36.4417 77.3532 36.9089L78.4782 37.0494V33.8354C78.4782 33.5701 78.5836 33.3158 78.7711 33.1283C78.9587 32.9407 79.213 32.8354 79.4782 32.8354C79.7435 32.8354 79.9978 32.9407 80.1854 33.1283C80.3729 33.3158 80.4782 33.5701 80.4782 33.8354V37.0484L81.6032 36.9079C85.3557 36.4406 88.845 34.7349 91.5186 32.0608C94.1922 29.3867 95.8974 25.8971 96.364 22.1446L96.5045 21.0196H93.2897C93.0245 21.0196 92.7702 20.9143 92.5826 20.7267C92.3951 20.5392 92.2897 20.2848 92.2897 20.0196C92.2897 19.7544 92.3951 19.5 92.5826 19.3125C92.7702 19.125 93.0245 19.0196 93.2897 19.0196H96.5025L96.362 17.8946C95.8946 14.1426 94.189 10.6538 91.5151 7.98048C88.8413 5.30719 85.3521 3.60225 81.6 3.13562L80.475 2.99512V6.20812C80.475 6.47333 80.3696 6.72769 80.1821 6.91522C79.9946 7.10276 79.7402 7.20812 79.475 7.20812C79.2098 7.20812 78.9554 7.10276 78.7679 6.91522C78.5804 6.72769 78.475 6.47333 78.475 6.20812V2.99512L77.35 3.13562C73.5985 3.60326 70.1101 5.30887 67.4371 7.98243C64.7642 10.656 63.0593 14.1447 62.5925 17.8964L62.4518 19.0214H65.6622C65.9273 19.0214 66.1816 19.1266 66.3691 19.314C66.5566 19.5014 66.662 19.7555 66.6622 20.0206ZM70.1397 10.6856C70.3255 10.4997 70.5461 10.3521 70.7889 10.2515C71.0317 10.1508 71.2919 10.099 71.5547 10.099C71.8176 10.099 72.0778 10.1508 72.3206 10.2515C72.5634 10.3521 72.784 10.4997 72.9697 10.6856L79.4772 17.1931L85.2473 11.4206C85.6225 11.0453 86.1315 10.8345 86.6622 10.8345C87.1929 10.8344 87.7018 11.0452 88.0771 11.4205C88.4524 11.7957 88.6633 12.3047 88.6633 12.8354C88.6633 13.3661 88.4525 13.8751 88.0772 14.2504L80.8923 21.4354C80.5166 21.81 80.0078 22.0204 79.4772 22.0204C78.9467 22.0204 78.4379 21.81 78.0622 21.4354L70.1397 13.5129C69.765 13.1378 69.5546 12.6294 69.5546 12.0992C69.5546 11.5691 69.765 11.0606 70.1397 10.6856ZM96.2797 120.353C96.2797 121.271 96.0073 122.169 95.4969 122.933C94.9865 123.697 94.2611 124.292 93.4123 124.644C92.5636 124.996 91.6296 125.088 90.7286 124.908C89.8275 124.729 88.9999 124.287 88.3502 123.637C87.7006 122.988 87.2582 122.16 87.079 121.259C86.8998 120.358 86.9918 119.424 87.3433 118.575C87.6949 117.726 88.2903 117.001 89.0541 116.49C89.818 115.98 90.7161 115.708 91.6348 115.708C92.8663 115.709 94.047 116.199 94.9178 117.07C95.7886 117.94 96.2784 119.121 96.2797 120.353ZM66.6697 120.353C66.6697 121.271 66.3973 122.169 65.8869 122.933C65.3765 123.697 64.6511 124.292 63.8023 124.644C62.9536 124.996 62.0196 125.088 61.1186 124.908C60.2175 124.729 59.3899 124.287 58.7402 123.637C58.0906 122.988 57.6482 122.16 57.469 121.259C57.2898 120.358 57.3818 119.424 57.7333 118.575C58.0849 117.726 58.6803 117.001 59.4441 116.49C60.208 115.98 61.1061 115.708 62.0247 115.708C63.2563 115.709 64.437 116.199 65.3078 117.07C66.1786 117.94 66.6684 119.121 66.6697 120.353ZM124.535 49.1526C124.316 48.8604 124.032 48.6235 123.706 48.4611C123.379 48.2987 123.019 48.2153 122.655 48.2176H41.3573L48.285 88.3041L55.3413 94.4291H110.255C110.76 94.4367 111.255 94.277 111.66 93.9747C112.066 93.6725 112.36 93.2447 112.498 92.7579L124.898 51.2279C125.005 50.8778 125.028 50.5074 124.965 50.1468C124.902 49.7861 124.754 49.4456 124.535 49.1529V49.1526ZM98.4725 69.8941L75.9193 89.5576C75.7364 89.7169 75.5022 89.8047 75.2598 89.8051C75.0803 89.8043 74.9044 89.7554 74.7503 89.6634C74.5963 89.5714 74.4697 89.4397 74.3839 89.2821C74.2981 89.1245 74.2562 88.9467 74.2626 88.7674C74.2689 88.5881 74.3233 88.4138 74.42 88.2626L81.5855 77.1626H69.0872C68.8892 77.1629 68.6956 77.1044 68.5308 76.9946C68.3661 76.8847 68.2377 76.7284 68.1619 76.5454C68.0861 76.3625 68.0663 76.1612 68.105 75.967C68.1438 75.7728 68.2393 75.5945 68.3795 75.4546L89.6407 54.1936C89.7339 54.1002 89.8445 54.0261 89.9664 53.9757C90.0882 53.9252 90.2189 53.8994 90.3508 53.8996C90.5233 53.8998 90.6928 53.9447 90.8429 54.0298C90.993 54.115 91.1185 54.2375 91.2072 54.3855C91.2959 54.5335 91.3448 54.7019 91.3492 54.8744C91.3535 55.0469 91.3131 55.2176 91.232 55.3699L84.429 68.1404H97.8173C98.0207 68.1408 98.2192 68.2032 98.3862 68.3193C98.5533 68.4355 98.6809 68.5998 98.7521 68.7904C98.8233 68.9809 98.8347 69.1887 98.7847 69.3859C98.7348 69.5831 98.6258 69.7604 98.4725 69.8941ZM22.935 29.9731V34.5306C22.9341 35.0108 22.7427 35.471 22.4029 35.8102C22.0632 36.1495 21.6027 36.3402 21.1225 36.3404H6.59C5.6382 36.3393 4.72568 35.9607 4.05266 35.2877C3.37963 34.6147 3.00106 33.7022 3 32.7504V31.7504C3.00112 30.7986 3.37973 29.8862 4.05274 29.2132C4.72576 28.5402 5.63824 28.1617 6.59 28.1606H21.1225C21.603 28.1611 22.0638 28.3523 22.4035 28.6921C22.7433 29.0319 22.9345 29.4926 22.935 29.9731Z" fill="#39A5DF"/>
<path d="M79.4772 40.0379C83.4363 40.0379 87.3065 38.8639 90.5984 36.6644C93.8903 34.4648 96.456 31.3385 97.971 27.6807C99.4861 24.023 99.8825 19.9981 99.1101 16.1151C98.3377 12.2321 96.4312 8.66533 93.6317 5.86584C90.8321 3.06635 87.2654 1.15989 83.3823 0.387539C79.4993 -0.384813 75.4744 0.0116364 71.8167 1.52675C68.159 3.04187 65.0327 5.6076 62.8332 8.89949C60.6337 12.1914 59.4597 16.0616 59.4598 20.0207C59.4658 25.3278 61.5768 30.4157 65.3295 34.1684C69.0822 37.921 74.1702 40.0319 79.4772 40.0379ZM65.6622 18.0207H63.5848C64.0342 14.4932 65.6425 11.2149 68.157 8.70039C70.6714 6.18591 73.9498 4.57768 77.4772 4.12819V6.20819C77.4772 6.73862 77.688 7.24733 78.063 7.6224C78.4381 7.99748 78.9468 8.20819 79.4772 8.20819C80.0077 8.20819 80.5164 7.99748 80.8915 7.6224C81.2665 7.24733 81.4772 6.73862 81.4772 6.20819V4.12819C85.0047 4.57768 88.2831 6.18591 90.7976 8.70039C93.312 11.2149 94.9203 14.4932 95.3698 18.0207H93.2897C92.7593 18.0207 92.2506 18.2314 91.8755 18.6065C91.5005 18.9815 91.2897 19.4903 91.2897 20.0207C91.2897 20.5511 91.5005 21.0598 91.8755 21.4349C92.2506 21.81 92.7593 22.0207 93.2897 22.0207H95.3698C94.9207 25.5486 93.3127 28.8274 90.7982 31.3424C88.2837 33.8573 85.0051 35.4658 81.4772 35.9154V33.8354C81.4772 33.305 81.2665 32.7963 80.8915 32.4212C80.5164 32.0462 80.0077 31.8354 79.4772 31.8354C78.9468 31.8354 78.4381 32.0462 78.063 32.4212C77.688 32.7963 77.4772 33.305 77.4772 33.8354V35.9154C73.9494 35.4658 70.6708 33.8573 68.1563 31.3424C65.6418 28.8274 64.0338 25.5486 63.5848 22.0207H65.6622C66.1927 22.0207 66.7014 21.81 67.0765 21.4349C67.4515 21.0598 67.6622 20.5511 67.6622 20.0207C67.6622 19.4903 67.4515 18.9815 67.0765 18.6065C66.7014 18.2314 66.1927 18.0207 65.6622 18.0207ZM126.942 47.3629C126.446 46.6936 125.8 46.1506 125.055 45.778C124.31 45.4053 123.487 45.2134 122.655 45.2179H47.9045L46.607 37.6304C46.1175 34.7267 44.6138 32.0908 42.3634 30.1915C40.1131 28.2922 37.262 27.2528 34.3172 27.2582H25.095C24.6533 26.6119 24.0607 26.0831 23.3685 25.7176C22.6762 25.3521 21.9053 25.1609 21.1225 25.1607H6.59C4.84286 25.1626 3.16782 25.8575 1.93237 27.0929C0.696932 28.3283 0.00198517 30.0033 0 31.7504L0 32.7504C0.0015226 34.4977 0.696313 36.1731 1.93185 37.4086C3.16738 38.6441 4.84269 39.3389 6.59 39.3404H21.1225C21.9054 39.3407 22.6765 39.1498 23.3688 38.7843C24.0612 38.4187 24.6537 37.8896 25.095 37.2429H34.3175C34.9091 37.229 35.4854 37.4317 35.938 37.8129C36.3905 38.1941 36.6882 38.7276 36.775 39.3129L45.3872 89.1679C45.4673 89.6211 45.7002 90.0332 46.0472 90.3354C44.5636 91.954 43.5832 93.9695 43.2256 96.1359C42.868 98.3023 43.1488 100.526 44.0336 102.535C44.9185 104.545 46.3691 106.253 48.2085 107.452C50.0479 108.651 52.1966 109.289 54.3923 109.288H103.197C104.505 109.288 105.759 108.768 106.684 107.843C107.609 106.919 108.129 105.664 108.129 104.356C108.129 103.049 107.609 101.794 106.684 100.87C105.759 99.9447 104.505 99.4252 103.197 99.4252H54.3923C54.008 99.42 53.641 99.2651 53.3692 98.9934C53.0975 98.7217 52.9425 98.3547 52.9372 97.9704C52.9377 97.78 52.9759 97.5916 53.0497 97.4161C53.1235 97.2405 53.2314 97.0814 53.3672 96.9479C53.4147 96.9002 53.4572 96.8527 53.4997 96.8027L53.6572 96.9404C54.0218 97.2559 54.4877 97.4297 54.9697 97.4302H110.255C111.406 97.4356 112.528 97.0664 113.452 96.3783C114.376 95.6902 115.051 94.7205 115.375 93.6154L127.772 52.0854C128.015 51.2883 128.066 50.4455 127.921 49.625C127.777 48.8046 127.441 48.0296 126.942 47.3629ZM21.935 34.5304C21.9319 34.7447 21.8453 34.9494 21.6935 35.1007C21.5417 35.252 21.3368 35.338 21.1225 35.3404H6.59C5.90339 35.3394 5.24519 35.0663 4.75969 34.5807C4.27418 34.0952 4.00099 33.437 4 32.7504V31.7504C4.00106 31.0639 4.27428 30.4057 4.75978 29.9203C5.24527 29.4348 5.90344 29.1617 6.59 29.1607H21.1225C21.337 29.1639 21.5418 29.2506 21.6935 29.4022C21.8451 29.5539 21.9318 29.7587 21.935 29.9732V34.5304ZM40.7175 38.6354C40.4764 37.1177 39.697 35.7375 38.5218 34.7473C37.3466 33.7571 35.8541 33.2231 34.3175 33.2429H25.935V31.2582H34.3175C36.3179 31.2548 38.2546 31.9611 39.7831 33.2515C41.3116 34.542 42.3327 36.3328 42.6647 38.3054L43.8473 45.2179H41.8548L40.7175 38.6354ZM54.3925 103.425H103.198C103.444 103.425 103.681 103.523 103.856 103.698C104.031 103.873 104.129 104.109 104.129 104.356C104.129 104.603 104.031 104.84 103.856 105.015C103.681 105.19 103.444 105.288 103.198 105.288H54.3923C52.9636 105.289 51.5659 104.872 50.3718 104.087C49.1777 103.303 48.2396 102.186 47.6734 100.874C47.1072 99.5628 46.9377 98.1139 47.1858 96.707C47.434 95.3001 48.089 93.9967 49.0698 92.9579L50.4772 94.1804C49.7308 94.949 49.2276 95.9206 49.0304 96.9737C48.8333 98.0268 48.9509 99.1147 49.3687 100.101C49.7865 101.088 50.4859 101.929 51.3794 102.521C52.2729 103.112 53.3209 103.426 54.3923 103.425H54.3925ZM123.939 50.9429L111.539 92.4729C111.463 92.7532 111.295 92.9997 111.062 93.1732C110.829 93.3468 110.545 93.4373 110.255 93.4304H55.7147L49.2098 87.7829L42.5448 49.2179H122.655C122.864 49.2159 123.071 49.2634 123.259 49.3565C123.447 49.4497 123.61 49.5858 123.735 49.7539C123.861 49.9221 123.944 50.1174 123.98 50.324C124.015 50.5306 124.001 50.7427 123.939 50.9429ZM62.025 112.708C60.513 112.708 59.0349 113.156 57.7777 113.996C56.5205 114.836 55.5406 116.03 54.9619 117.427C54.3833 118.824 54.2319 120.361 54.5269 121.844C54.8219 123.327 55.55 124.689 56.6192 125.759C57.6883 126.828 59.0505 127.556 60.5335 127.851C62.0165 128.146 63.5537 127.994 64.9506 127.416C66.3476 126.837 67.5415 125.857 68.3816 124.6C69.2216 123.343 69.67 121.865 69.67 120.353C69.6675 118.326 68.8613 116.383 67.4281 114.95C65.9949 113.516 64.0518 112.71 62.025 112.708ZM62.025 123.998C61.3041 123.998 60.5994 123.784 59.9999 123.383C59.4005 122.983 58.9333 122.414 58.6575 121.748C58.3816 121.082 58.3094 120.349 58.45 119.642C58.5907 118.935 58.9378 118.285 59.4476 117.775C59.9574 117.266 60.6068 116.918 61.3139 116.778C62.021 116.637 62.7538 116.709 63.4199 116.985C64.0859 117.261 64.6552 117.728 65.0557 118.328C65.4562 118.927 65.67 119.632 65.67 120.353C65.6687 121.319 65.2842 122.245 64.6009 122.929C63.9177 123.612 62.9913 123.996 62.025 123.998ZM91.635 112.708C90.123 112.708 88.6449 113.156 87.3877 113.996C86.1304 114.836 85.1506 116.03 84.5719 117.427C83.9933 118.824 83.8419 120.361 84.1369 121.844C84.4319 123.327 85.16 124.689 86.2292 125.759C87.2983 126.828 88.6605 127.556 90.1435 127.851C91.6265 128.146 93.1637 127.994 94.5606 127.416C95.9576 126.837 97.1515 125.857 97.9916 124.6C98.8316 123.343 99.28 121.865 99.28 120.353C99.2775 118.326 98.4713 116.383 97.038 114.949C95.6048 113.516 93.6616 112.71 91.6348 112.708H91.635ZM91.635 123.998C90.9141 123.998 90.2094 123.784 89.6099 123.383C89.0105 122.983 88.5433 122.414 88.2675 121.748C87.9916 121.082 87.9194 120.349 88.06 119.642C88.2007 118.935 88.5478 118.285 89.0576 117.775C89.5674 117.266 90.2168 116.918 90.9239 116.778C91.631 116.637 92.3638 116.709 93.0299 116.985C93.6959 117.261 94.2652 117.728 94.6657 118.328C95.0662 118.927 95.28 119.632 95.28 120.353C95.2787 121.319 94.8942 122.245 94.2109 122.929C93.5275 123.612 92.6011 123.996 91.6348 123.998H91.635ZM97.8175 67.1404H86.095L92.115 55.8404C92.3411 55.4173 92.4076 54.9269 92.3023 54.4588C92.197 53.9907 91.9269 53.5761 91.5414 53.2905C91.1558 53.005 90.6804 52.8676 90.2019 52.9033C89.7235 52.9391 89.2738 53.1457 88.935 53.4854L67.6725 74.7479C67.3925 75.0276 67.2017 75.3842 67.1244 75.7723C67.0471 76.1605 67.0868 76.5629 67.2383 76.9285C67.3898 77.2942 67.6463 77.6066 67.9755 77.8264C68.3047 78.0461 68.6917 78.1633 69.0875 78.1629H79.75L73.58 87.7204C73.3181 88.1254 73.2113 88.6114 73.2794 89.0889C73.3475 89.5663 73.5858 90.0031 73.9504 90.3187C74.3151 90.6344 74.7815 90.8076 75.2638 90.8066C75.7461 90.8055 76.2117 90.6302 76.575 90.3129L99.13 70.6479C99.4368 70.3804 99.6547 70.0257 99.7546 69.6311C99.8544 69.2364 99.8315 68.8208 99.6888 68.4395C99.5462 68.0583 99.2906 67.7296 98.9562 67.4975C98.6218 67.2654 98.2246 67.1408 97.8175 67.1404ZM84.62 77.9904L85.1 77.2479C85.2955 76.946 85.4058 76.5969 85.4195 76.2375C85.4331 75.8781 85.3495 75.5217 85.1775 75.2058C85.0055 74.8899 84.7514 74.6263 84.4421 74.4428C84.1328 74.2592 83.7797 74.1625 83.42 74.1629H73.915L82.2725 65.8054L80.9975 68.2004C80.8352 68.5052 80.7546 68.8467 80.7635 69.1918C80.7724 69.5369 80.8704 69.8739 81.0481 70.1699C81.2258 70.4659 81.4771 70.7108 81.7775 70.8809C82.0779 71.051 82.4173 71.1404 82.7625 71.1404H92.48L84.62 77.9904Z" fill="#0155A0"/>
</g>
<defs>
<clipPath id="clip0_197_6351">
<rect width="128" height="128" fill="white"/>
</clipPath>
</defs>
</svg>
