<svg width="128" height="128" viewBox="0 0 128 128" fill="none" xmlns="http://www.w3.org/2000/svg">
<path d="M17.2245 44.6136C22.959 43.1849 30.6218 41.6864 37.8783 42.1899C46.7443 42.8049 53.2335 46.3139 57.1763 52.6231C57.8258 52.9319 58.4478 53.2274 59.0438 53.5109C57.5373 40.5716 46.4775 30.4731 33.1623 30.4731C25.6943 30.4731 18.6523 33.6699 13.7383 39.1601C15.71 39.4721 17.2245 41.1816 17.2245 43.2431V44.6136Z" fill="#39A5DF"/>
<path d="M107.338 89.2849V82.3896H93.965V89.2849C93.965 90.2517 93.1813 91.0354 92.2148 91.0354C91.2483 91.0354 90.4645 90.2517 90.4645 89.2849V82.3896H87.3348L80.3633 120.976H120.94L113.968 82.3896H110.838V89.2849C110.838 90.2517 110.055 91.0354 109.088 91.0354C108.122 91.0354 107.338 90.2517 107.338 89.2849H107.338Z" fill="#39A5DF"/>
<path d="M96.5789 41.7412C93.0029 41.7412 89.4617 42.4915 86.2109 43.9237C90.3437 48.4705 93.0779 54.3225 93.7264 60.8255C97.0279 60.2325 100.218 60.7372 102.828 62.2922C104.263 63.1467 105.486 64.305 106.424 65.6582H122.188C121.285 52.3185 110.144 41.7412 96.5789 41.7412Z" fill="#39A5DF"/>
<path d="M33.1624 26.4269C38.5079 26.4269 42.8569 22.0749 42.8569 16.7254C42.8569 11.3759 38.5079 7.02393 33.1624 7.02393C27.8169 7.02393 23.4609 11.3759 23.4609 16.7254C23.4609 22.0749 27.8129 26.4269 33.1624 26.4269Z" fill="#39A5DF"/>
<path d="M15.4486 99.9028L13.9834 96.8633L12.5141 99.9043C12.2589 100.432 11.7564 100.798 11.1756 100.877L7.82812 101.335L10.2639 103.669C10.6874 104.075 10.8796 104.666 10.7756 105.243L10.1771 108.567L13.1579 106.969C13.6746 106.692 14.2959 106.692 14.8129 106.969L17.7856 108.565L17.1874 105.243C17.0834 104.666 17.2756 104.075 17.6991 103.669L20.1351 101.335L16.7876 100.877C16.2061 100.798 15.7031 100.432 15.4484 99.903L15.4486 99.9028Z" fill="#39A5DF"/>
<path d="M96.5815 37.7017C101.841 37.7017 106.12 33.4228 106.12 28.1632C106.12 22.9037 101.841 18.625 96.5815 18.625C91.3217 18.625 87.043 22.9037 87.043 28.1632C87.043 33.4228 91.322 37.7017 96.5815 37.7017Z" fill="#39A5DF"/>
<path d="M67.0548 99.9043L65.5856 96.8633L64.1203 99.9028C63.8653 100.432 63.3626 100.797 62.7811 100.877L59.4336 101.335L61.8693 103.669C62.2931 104.074 62.4851 104.665 62.3811 105.243L61.7828 108.565L64.7556 106.969C65.0141 106.83 65.2988 106.761 65.5836 106.761C65.8683 106.761 66.1523 106.83 66.4108 106.969L69.3878 108.565L68.7866 105.245C68.6818 104.666 68.8743 104.074 69.2991 103.668L71.7378 101.335L68.3936 100.877C67.8126 100.798 67.3101 100.432 67.0551 99.904L67.0548 99.9043Z" fill="#39A5DF"/>
<path d="M41.2502 99.9043L39.7809 96.8633L38.3157 99.9028C38.0607 100.432 37.5579 100.797 36.9764 100.877L33.6289 101.335L36.0647 103.669C36.4884 104.074 36.6804 104.665 36.5764 105.243L35.9784 108.565L38.9512 106.969C39.2097 106.83 39.4944 106.761 39.7792 106.761C40.0639 106.761 40.3479 106.83 40.6064 106.969L43.5874 108.567L42.9889 105.243C42.8849 104.665 43.0772 104.074 43.5007 103.668L45.9367 101.335L42.5892 100.877C42.0082 100.798 41.5057 100.432 41.2507 99.904L41.2502 99.9043Z" fill="#39A5DF"/>
<path d="M24.2005 98.358L18.1938 97.5357L15.5618 92.0755C15.27 91.4702 14.6575 91.0855 13.9858 91.085H13.985C13.3135 91.085 12.701 91.4692 12.409 92.074L9.77029 97.5355L3.76279 98.358C3.09729 98.449 2.54279 98.9127 2.33554 99.5515C2.12829 100.19 2.30454 100.891 2.78954 101.356L7.16404 105.546L6.09054 111.51C5.97154 112.171 6.24104 112.841 6.78429 113.236C7.32754 113.631 8.04879 113.679 8.64029 113.363L13.985 110.497L19.323 113.362C19.5828 113.502 19.8673 113.571 20.1508 113.571C20.5135 113.571 20.8745 113.458 21.1795 113.236C21.7228 112.842 21.9925 112.171 21.8735 111.51L20.7998 105.546L25.1743 101.356C25.6593 100.892 25.8358 100.19 25.6283 99.5515C25.4208 98.9125 24.8663 98.449 24.201 98.358H24.2005ZM17.6995 103.668C17.2758 104.074 17.0838 104.665 17.1878 105.242L17.786 108.564L14.8133 106.969C14.2963 106.691 13.675 106.691 13.1583 106.968L10.1775 108.567L10.776 105.242C10.88 104.665 10.6878 104.074 10.2643 103.668L7.82854 101.335L11.176 100.876C11.757 100.797 12.2595 100.432 12.5145 99.9037L13.9838 96.8627L15.449 99.9022C15.704 100.431 16.2068 100.797 16.7883 100.876L20.1358 101.334L17.6998 103.668L17.6995 103.668Z" fill="#132638"/>
<path d="M51.4325 99.5515C51.225 98.9125 50.6705 98.449 50.0052 98.358L43.9975 97.5355L41.3587 92.074C41.0667 91.4692 40.4542 91.085 39.7827 91.085H39.782C39.1102 91.0855 38.4977 91.4702 38.206 92.0755L35.574 97.5357L29.5675 98.358C28.902 98.449 28.3475 98.9127 28.1402 99.5515C27.933 100.19 28.1092 100.891 28.5942 101.356L32.9687 105.546L31.8952 111.51C31.7762 112.171 32.046 112.842 32.5892 113.236C33.1327 113.631 33.854 113.68 34.4457 113.362L39.7837 110.497L45.1287 113.363C45.3882 113.502 45.6722 113.571 45.9555 113.571C46.3185 113.571 46.6795 113.458 46.9847 113.236C47.528 112.841 47.7975 112.171 47.6785 111.51L46.6047 105.546L50.9792 101.356C51.4642 100.892 51.6407 100.19 51.4332 99.5515H51.4325ZM43.504 103.668C43.0802 104.074 42.8882 104.665 42.9922 105.242L43.5907 108.567L40.6097 106.968C40.3512 106.83 40.067 106.76 39.7825 106.76C39.498 106.76 39.2132 106.83 38.9545 106.969L35.9817 108.564L36.5797 105.242C36.6837 104.665 36.4915 104.074 36.068 103.668L33.6322 101.335L36.9797 100.876C37.5612 100.797 38.0642 100.431 38.319 99.9025L39.7842 96.863L41.2535 99.904C41.5087 100.432 42.0112 100.797 42.592 100.877L45.9395 101.335L43.5035 103.668L43.504 103.668Z" fill="#132638"/>
<path d="M103.653 39.109C107.24 36.7832 109.619 32.747 109.619 28.163C109.619 20.973 103.77 15.1237 96.5798 15.1237C89.3897 15.1237 83.5405 20.973 83.5405 28.163C83.5405 32.7487 85.922 36.7862 89.511 39.1115C87.443 39.6267 85.434 40.367 83.5257 41.3212C80.0863 38.3845 75.9658 36.2267 71.4365 35.111C75.09 32.7602 77.5168 28.661 77.5168 24.003C77.5168 16.7232 71.5943 10.8005 64.3143 10.8005C57.0343 10.8005 51.112 16.723 51.112 24.003C51.112 28.6627 53.5407 32.7632 57.1962 35.1135C56.2477 35.3485 55.3107 35.6317 54.3865 35.9617C54.2595 35.8307 54.1325 35.6997 54.0028 35.5707C50.1502 31.74 45.4265 29.099 40.2812 27.8317C43.932 25.4807 46.3567 21.3822 46.3567 16.725C46.3567 9.44521 40.4373 3.52246 33.1615 3.52246C25.8857 3.52246 19.9592 9.44496 19.9592 16.725C19.9592 21.3875 22.391 25.4902 26.0505 27.8397C19.3778 29.493 13.419 33.4425 9.28125 39.1045H6.3885C4.1065 39.1045 2.25 40.9612 2.25 43.2432V69.74C2.25 72.022 4.1065 73.8787 6.3885 73.8787H13.0923C15.3703 73.8787 17.2238 72.022 17.2238 69.74V66.617L18.814 66.7955C23.4385 67.3157 24.3175 67.7392 28.017 69.5212C28.4463 69.7277 28.91 69.9515 29.4185 70.1935L36.0723 73.363C43.2015 76.7587 48.317 79.1955 52.485 81.1777C57.9802 83.797 60.556 84.96 63.3185 84.96C65.4725 84.96 67.7402 84.2522 71.5918 82.9755C72.6273 82.6325 73.801 82.2432 75.1308 81.8172L90.464 76.9072V78.8885H85.8717C85.025 78.8885 84.2998 79.4947 84.1493 80.3277L76.5452 122.415C76.453 122.926 76.592 123.451 76.9245 123.849C77.2572 124.247 77.749 124.477 78.2678 124.477H123.034C123.553 124.477 124.044 124.247 124.377 123.849C124.709 123.451 124.849 122.926 124.756 122.415L117.152 80.3277C117.002 79.4947 116.276 78.8885 115.43 78.8885H110.838V72.6452C110.838 71.4427 110.627 70.2667 110.221 69.1587H123.997C124.964 69.1587 125.748 68.375 125.748 67.4082C125.748 53.7632 116.329 42.278 103.652 39.1087L103.653 39.109ZM87.0413 28.163C87.0413 22.9035 91.3203 18.6247 96.5798 18.6247C101.839 18.6247 106.118 22.9035 106.118 28.163C106.118 33.4225 101.84 37.7015 96.5798 37.7015C91.32 37.7015 87.0413 33.4225 87.0413 28.163ZM54.613 24.003C54.613 18.6537 58.965 14.3015 64.3145 14.3015C69.664 14.3015 74.0163 18.6535 74.0163 24.003C74.0163 29.3525 69.664 33.7047 64.3145 33.7047C58.965 33.7047 54.613 29.3527 54.613 24.003ZM64.3145 37.7512C71.0842 37.7512 77.2633 40.322 81.9043 44.5595C82.0003 44.6755 82.1097 44.7757 82.2285 44.8612C86.7442 49.127 89.7335 55.0007 90.2825 61.6105L75.7638 64.9765L73.6475 65.4817C73.7665 64.318 73.6805 62.9962 73.1048 61.739C72.3495 60.0897 70.9443 58.902 68.9273 58.208C68.4788 57.9947 66.3988 57.0067 62.691 55.2445C62.4355 49.252 60.4025 43.578 56.846 38.8375C59.2565 38.1162 61.7592 37.7512 64.3147 37.7512H64.3145ZM23.4603 16.7252C23.4603 11.376 27.8122 7.02371 33.1617 7.02371C38.5112 7.02371 42.8562 11.3757 42.8562 16.7252C42.8562 22.0747 38.5072 26.4267 33.1617 26.4267C27.8162 26.4267 23.4603 22.0747 23.4603 16.7252ZM13.7232 69.7402C13.7232 70.086 13.4345 70.378 13.0925 70.378H6.38875C6.043 70.378 5.751 70.086 5.751 69.7402V43.2435C5.751 42.8977 6.043 42.6057 6.38875 42.6057H13.0925C13.4403 42.6057 13.7232 42.892 13.7232 43.2435V69.7402ZM13.7377 39.1605C18.6517 33.6702 25.6937 30.4735 33.1617 30.4735C46.477 30.4735 57.5367 40.572 59.0432 53.5112C58.4472 53.2277 57.8252 52.9322 57.1757 52.6235C53.233 46.3142 46.7438 42.8052 37.8778 42.1902C30.621 41.6867 22.9585 43.1852 17.224 44.614V43.2437C17.224 41.1822 15.7097 39.4727 13.7377 39.1607V39.1605ZM74.0633 78.4837C72.7165 78.9155 71.534 79.3072 70.4908 79.653C66.5423 80.9617 64.5597 81.6172 62.7025 81.4395C60.7822 81.2545 58.5127 80.1727 53.99 78.0172C49.821 76.0345 44.7062 73.5982 37.578 70.2027L30.9242 67.0335C30.421 66.7935 29.9615 66.5722 29.5365 66.3675C25.7108 64.5247 24.422 63.904 19.2052 63.3167L17.224 63.0942V48.2247C30.0128 44.954 47.1122 42.4945 54.4465 54.8722C54.6237 55.1715 54.8865 55.4112 55.201 55.5607C63.4145 59.4655 67.518 61.4145 67.518 61.4145C67.5828 61.4452 67.6493 61.472 67.7173 61.4945C68.848 61.8702 69.5693 62.427 69.922 63.1972C70.457 64.3657 70.0958 65.8607 69.8175 66.6807C69.3983 67.5307 68.6518 68.1735 67.7063 68.4915C66.7475 68.8137 65.6842 68.7547 64.7892 68.3295L46.8035 59.783C45.9302 59.368 44.8862 59.7397 44.4712 60.6127C44.0562 61.4857 44.4277 62.53 45.301 62.945L63.2867 71.4915C64.2822 71.9647 65.355 72.2032 66.4362 72.2032C67.2365 72.2032 68.041 72.0725 68.8225 71.8097C70.1968 71.3475 71.3617 70.5197 72.2113 69.4242L76.5655 68.3842L93.2262 64.522C93.246 64.5175 93.2658 64.5125 93.2853 64.5072C96.18 63.7297 98.861 64.0035 101.038 65.3C102.436 66.1325 103.548 67.3735 104.229 68.8245L91.6975 72.837C91.6948 72.838 91.692 72.8387 91.6893 72.8397L74.0633 78.484V78.4837ZM107 71.613C107.083 71.5862 107.162 71.5522 107.238 71.5147C107.302 71.886 107.338 72.2635 107.338 72.6457V78.889H93.965V75.7867L107 71.6127V71.613ZM110.838 89.2852V82.39H113.968L120.939 120.976H80.3633L87.3348 82.39H90.4645V89.2852C90.4645 90.252 91.2483 91.0357 92.2148 91.0357C93.1813 91.0357 93.965 90.252 93.965 89.2852V82.39H107.338V89.2852C107.338 90.252 108.121 91.0357 109.088 91.0357C110.054 91.0357 110.838 90.252 110.838 89.2852ZM106.425 65.6582C105.487 64.305 104.264 63.147 102.829 62.2922C100.219 60.737 97.0287 60.2322 93.7272 60.8255C93.0788 54.3227 90.3445 48.4705 86.2118 43.9237C89.4625 42.4915 93.0038 41.7412 96.5798 41.7412C110.145 41.7412 121.286 52.3185 122.188 65.6582H106.425Z" fill="#132638"/>
<path d="M77.2333 99.552C77.026 98.913 76.4713 98.449 75.8058 98.358L69.7983 97.5355L67.1595 92.074C66.8675 91.4692 66.255 91.085 65.5835 91.085H65.5828C64.911 91.0855 64.2985 91.4702 64.0068 92.0755L61.3748 97.5357L55.3683 98.358C54.7028 98.449 54.1483 98.9127 53.941 99.5515C53.7338 100.19 53.91 100.891 54.395 101.356L58.7695 105.546L57.6958 111.51C57.5768 112.171 57.8465 112.842 58.3898 113.236C58.6948 113.458 59.056 113.571 59.4185 113.571C59.702 113.571 59.9865 113.502 60.2463 113.362L65.5843 110.497L70.9293 113.363C71.5213 113.68 72.2428 113.631 72.786 113.236C73.3293 112.84 73.5985 112.169 73.4788 111.508L72.3993 105.546L76.779 101.357C77.2645 100.892 77.4413 100.191 77.234 99.5517L77.2333 99.552ZM69.2985 103.667C68.8738 104.073 68.6813 104.666 68.786 105.244L69.3873 108.564L66.4103 106.968C66.1518 106.83 65.8675 106.76 65.583 106.76C65.2985 106.76 65.0138 106.83 64.755 106.969L61.7823 108.564L62.3805 105.242C62.4845 104.665 62.2923 104.074 61.8688 103.668L59.433 101.335L62.7805 100.876C63.362 100.797 63.865 100.431 64.1198 99.9025L65.585 96.863L67.0543 99.904C67.3095 100.432 67.812 100.797 68.3928 100.877L71.737 101.334L69.2983 103.667L69.2985 103.667Z" fill="#132638"/>
</svg>
