<svg width="128" height="128" viewBox="0 0 128 128" fill="none" xmlns="http://www.w3.org/2000/svg">
<path d="M23.6938 112.782C24.6207 112.782 25.3721 112.031 25.3721 111.104C25.3721 110.177 24.6207 109.426 23.6938 109.426C22.767 109.426 22.0156 110.177 22.0156 111.104C22.0156 112.031 22.767 112.782 23.6938 112.782Z" fill="#39A5DF"/>
<path d="M23.6943 103.025C28.1316 103.025 31.7441 106.638 31.7441 111.104C31.7441 115.569 28.1316 119.182 23.6943 119.182C19.257 119.182 15.6445 115.569 15.6445 111.104C15.6445 106.638 19.2285 103.025 23.6943 103.025ZM28.2739 111.104C28.2739 108.572 26.2259 106.524 23.6943 106.524C21.1628 106.524 19.1148 108.572 19.1148 111.104C19.1148 113.635 21.1628 115.683 23.6943 115.683C26.2259 115.683 28.2739 113.635 28.2739 111.104Z" fill="#132638"/>
<path d="M52.1665 112.782C53.0934 112.782 53.8447 112.031 53.8447 111.104C53.8447 110.177 53.0934 109.426 52.1665 109.426C51.2396 109.426 50.4883 110.177 50.4883 111.104C50.4883 112.031 51.2396 112.782 52.1665 112.782Z" fill="#39A5DF"/>
<path d="M52.1681 103.025C56.6054 103.025 60.2463 106.638 60.2463 111.104C60.2463 115.569 56.6338 119.182 52.1681 119.182C47.7023 119.182 44.0898 115.541 44.0898 111.104C44.0898 106.666 47.7023 103.025 52.1681 103.025ZM56.7476 111.104C56.7476 108.572 54.6996 106.524 52.1681 106.524C49.6365 106.524 47.5885 108.572 47.5885 111.104C47.5885 113.635 49.6365 115.683 52.1681 115.683C54.6996 115.683 56.7476 113.635 56.7476 111.104Z" fill="#132638"/>
<path d="M105.385 112.782C106.312 112.782 107.063 112.031 107.063 111.104C107.063 110.177 106.312 109.426 105.385 109.426C104.458 109.426 103.707 110.177 103.707 111.104C103.707 112.031 104.458 112.782 105.385 112.782Z" fill="#39A5DF"/>
<path d="M105.387 103.025C109.824 103.025 113.465 106.638 113.465 111.104C113.465 115.569 109.853 119.182 105.387 119.182C100.921 119.182 97.3086 115.569 97.3086 111.104C97.3086 106.666 100.921 103.025 105.387 103.025ZM109.966 111.104C109.966 108.572 107.918 106.524 105.387 106.524C102.855 106.524 100.807 108.572 100.807 111.104C100.807 113.635 102.855 115.683 105.387 115.683C107.918 115.683 109.966 113.635 109.966 111.104Z" fill="#132638"/>
<path d="M115.058 60.0742H85.5898V109.653H94.493C95.2041 104.277 99.8121 100.124 105.387 100.124C110.934 100.124 115.542 104.277 116.281 109.653H125.156V85.02L115.058 60.0742ZM97.5934 93.468H92.5303C91.7338 93.468 91.0796 92.8138 91.0796 92.0173C91.0796 91.2209 91.7338 90.5667 92.5303 90.5667H97.5934C98.3898 90.5667 99.0441 91.2209 99.0441 92.0173C99.0441 92.8138 98.3898 93.468 97.5934 93.468ZM119.439 87.1818C119.154 87.58 118.728 87.836 118.244 87.836H92.5303C91.7338 87.836 91.0796 87.1818 91.0796 86.3853V67.0431C91.0796 66.2467 91.7338 65.5924 92.5303 65.5924H110.393C110.991 65.5924 111.531 65.9622 111.73 66.5027L119.553 85.8449C119.752 86.2715 119.695 86.7551 119.439 87.1818Z" fill="#132638"/>
<path d="M123.05 33.6782C123.846 33.6782 124.5 34.3324 124.5 35.1289C124.5 35.9253 123.846 36.5796 123.05 36.5796H78.1929C77.3964 36.5796 76.7422 35.9253 76.7422 35.1289C76.7422 34.3324 77.3964 33.6782 78.1929 33.6782H123.05Z" fill="#132638"/>
<path d="M116.053 84.9067H93.9805V68.4658H109.397L116.053 84.9067Z" fill="#39A5DF"/>
<path d="M113.804 25.4009C114.6 25.4009 115.254 26.0551 115.254 26.8515C115.254 27.648 114.6 28.3022 113.804 28.3022H68.9468C68.1503 28.3022 67.4961 27.648 67.4961 26.8515C67.4961 26.0551 68.1503 25.4009 68.9468 25.4009H113.804Z" fill="#132638"/>
<path d="M104.561 17.1235C105.358 17.1235 106.012 17.7778 106.012 18.5742C106.012 19.3706 105.358 20.0249 104.561 20.0249H59.7046C58.9081 20.0249 58.2539 19.3706 58.2539 18.5742C58.2539 17.7778 58.9081 17.1235 59.7046 17.1235H104.561Z" fill="#132638"/>
<path d="M95.3154 8.84619C96.1118 8.84619 96.766 9.50041 96.766 10.2969C96.766 11.0933 96.1118 11.7475 95.3154 11.7475H50.4585C49.662 11.7475 49.0078 11.0933 49.0078 10.2969C49.0078 9.50041 49.662 8.84619 50.4585 8.84619H95.3154Z" fill="#132638"/>
<path d="M82.6873 97.9053V109.653H63.0322C62.3211 104.277 57.7131 100.124 52.138 100.124C46.5629 100.124 41.9833 104.277 41.2438 109.653H34.5309C33.8198 104.277 29.2118 100.124 23.6651 100.124C18.1184 100.124 13.5104 104.277 12.7993 109.653H2.84375V97.9053H82.6873Z" fill="#132638"/>
<path d="M82.6873 44.999V95.0044H2.84375V44.999H12.5433C11.0926 48.6968 10.2677 52.7075 10.2677 56.9172C10.2677 74.8372 24.8313 89.4008 42.7513 89.4008C60.6713 89.4008 75.2349 74.8372 75.2349 56.9172C75.2349 52.7075 74.4384 48.6968 72.9593 44.999H82.6873Z" fill="#132638"/>
<path d="M69.4311 44.1172C64.6524 34.1901 54.4977 27.335 42.7786 27.335C31.0595 27.335 20.9049 34.1901 16.0977 44.1172C14.2204 47.9856 13.168 52.3376 13.168 56.9172C13.168 73.2159 26.4515 86.4994 42.7502 86.4994C59.0489 86.4994 72.3324 73.2159 72.3324 56.9172C72.3324 52.3376 71.28 48.0141 69.4311 44.1172ZM63.9697 69.063C63.9413 69.1199 63.9413 69.1199 63.9129 69.1483C63.9129 69.1767 63.8844 69.1767 63.8844 69.2052C61.7511 72.8461 58.736 75.8896 55.0951 78.023C55.0666 78.0514 55.0097 78.0798 54.9813 78.1083C54.9529 78.1083 54.9244 78.1367 54.9244 78.1367C54.9244 78.1367 54.896 78.1367 54.896 78.1652C51.312 80.2132 47.1875 81.3794 42.7786 81.3794C38.3697 81.3794 34.2453 80.2132 30.6613 78.1652C30.6613 78.1652 30.6329 78.1652 30.6329 78.1367C30.6044 78.1367 30.6044 78.1083 30.576 78.1083C30.5475 78.0798 30.4906 78.0514 30.4622 78.023C26.8213 75.8896 23.8062 72.8461 21.6729 69.2052C21.6444 69.1767 21.6444 69.1767 21.6444 69.1483C21.6444 69.1199 21.616 69.0914 21.616 69.0914C21.616 69.0914 21.616 69.0914 21.616 69.063C19.568 65.479 18.4017 61.3545 18.4017 56.9456C18.4017 52.5367 19.568 48.4123 21.616 44.8567C21.6444 44.8283 21.6444 44.7714 21.6729 44.743C21.7013 44.6861 21.7297 44.6576 21.7582 44.6007C23.8915 40.9883 26.9066 37.9732 30.5191 35.8399H30.5475C30.576 35.8114 30.6044 35.8114 30.6329 35.783C30.6613 35.783 30.6613 35.7545 30.6897 35.7545C30.6897 35.7545 30.7182 35.7545 30.7182 35.7261C34.3022 33.6781 38.4266 32.4834 42.8355 32.4834C47.2444 32.4834 51.3973 33.6496 54.9529 35.7261C54.9529 35.7261 54.9813 35.7261 54.9813 35.7545C55.0097 35.7545 55.0097 35.783 55.0382 35.783C55.0666 35.8114 55.0951 35.8114 55.1235 35.8399H55.152C58.7644 37.9447 61.7795 40.9883 63.9129 44.6007C63.9413 44.6292 63.9697 44.6861 63.9982 44.743C64.0266 44.7714 64.0551 44.8283 64.0551 44.8567C66.1031 48.4123 67.2693 52.5652 67.2693 56.9456C67.184 61.3261 66.0177 65.479 63.9697 69.063Z" fill="#132638"/>
<path d="M64.2285 55.4668H58.3405C57.544 55.4668 56.8898 56.121 56.8898 56.9175C56.8898 57.7139 57.544 58.3681 58.3405 58.3681H64.2285C64.0293 61.241 63.2898 63.9432 62.0667 66.3895L56.9751 63.4597C56.2925 63.0615 55.3822 63.289 54.984 64.0001C54.5858 64.6828 54.8133 65.593 55.5245 65.9912L60.616 68.921C59.0516 71.225 57.0605 73.2161 54.7565 74.7806L51.8267 69.689C51.4285 68.9779 50.5467 68.7503 49.8356 69.1486C49.1245 69.5468 48.8969 70.4286 49.2951 71.1397L52.2249 76.2312C49.7787 77.4259 47.0765 78.1939 44.2036 78.3646V72.4766C44.2036 71.6801 43.5493 71.0259 42.7529 71.0259C41.9565 71.0259 41.3022 71.6801 41.3022 72.4766V78.3646C38.4293 78.1655 35.7271 77.4259 33.2809 76.2312L36.2107 71.1397C36.6089 70.4286 36.3813 69.5468 35.6702 69.1486C34.9591 68.7503 34.0773 68.9779 33.6791 69.689L30.7493 74.7806C28.4453 73.2161 26.4258 71.225 24.8898 68.921L29.9813 65.9912C30.664 65.593 30.92 64.7112 30.5218 64.0001C30.1236 63.3175 29.2418 63.0615 28.5307 63.4597L23.4391 66.3895C22.2445 63.9432 21.4765 61.241 21.2773 58.3681H27.1653C27.9618 58.3681 28.616 57.7139 28.616 56.9175C28.616 56.121 27.9618 55.4668 27.1653 55.4668H21.3058C21.5049 52.5939 22.2445 49.8917 23.4676 47.4455L28.5591 50.3752C28.7867 50.5175 29.0427 50.5743 29.2987 50.5743C29.8107 50.5743 30.2942 50.3183 30.5502 49.8348C30.9485 49.1521 30.7209 48.2419 30.0098 47.8437L24.8898 44.9423C26.4542 42.6383 28.4453 40.6188 30.7493 39.0828L33.6791 44.1743C33.9351 44.6295 34.4471 44.9139 34.9307 44.9139C35.1867 44.9139 35.4427 44.857 35.6702 44.7148C36.3529 44.3166 36.6089 43.4348 36.2107 42.7237L33.2809 37.6037C35.7271 36.3806 38.4293 35.641 41.3022 35.4419V41.3299C41.3022 42.1263 41.9565 42.7806 42.7529 42.7806C43.5493 42.7806 44.2036 42.1263 44.2036 41.3299V35.4419C47.0765 35.641 49.7787 36.3806 52.2249 37.6037L49.2951 42.6952C48.8969 43.3779 49.1245 44.2881 49.8356 44.6863C50.0631 44.8286 50.3191 44.8855 50.5751 44.8855C51.0871 44.8855 51.5707 44.6294 51.8267 44.1459L54.7565 39.0543C57.0605 40.6188 59.08 42.6099 60.616 44.9139L55.5245 47.8437C54.8418 48.2419 54.5858 49.1237 54.984 49.8348C55.24 50.2899 55.752 50.5743 56.2356 50.5743C56.4916 50.5743 56.7191 50.5175 56.9751 50.3752L62.0667 47.4455C63.2898 49.8917 64.0293 52.6223 64.2285 55.4668ZM50.5467 56.9175C50.5467 56.121 49.8925 55.4668 49.096 55.4668H42.7813C42.5253 55.4668 42.2693 55.5237 42.0418 55.6659L32.1716 61.3548C31.4889 61.753 31.2329 62.6348 31.6311 63.3459C31.8871 63.801 32.3991 64.0855 32.8827 64.0855C33.1387 64.0855 33.3947 64.0286 33.6222 63.8863L43.1511 58.3681H49.096C49.8925 58.3966 50.5467 57.7423 50.5467 56.9175Z" fill="#39A5DF"/>
</svg>
