<svg width="500" height="500" viewBox="0 0 500 500" fill="none" xmlns="http://www.w3.org/2000/svg">
<g clip-path="url(#clip0_282_911)">
<mask id="mask0_282_911" style="mask-type:luminance" maskUnits="userSpaceOnUse" x="136" y="121" width="234" height="191">
<path d="M136 121.332H369.031V311.806H136V121.332Z" fill="white"/>
</mask>
<g mask="url(#mask0_282_911)">
<path d="M368.198 191.049L346.995 181.544C341.292 194.852 336.609 208.742 331.052 222.201C327.396 231.263 323.302 240.039 318.479 248.372C317.599 249.836 316.724 251.445 315.844 252.763C315.552 253.346 315.115 253.93 314.677 254.513L314.531 254.81C313.214 256.711 312.042 258.612 310.729 260.367C310.438 260.07 310.141 259.924 309.849 259.633C310.141 259.924 310.438 260.07 310.583 260.367C310.583 260.367 310.438 260.513 310.438 260.659C307.073 265.044 303.562 269.284 299.615 273.232C299.469 273.378 299.323 273.523 299.177 273.669C295.521 277.471 291.573 280.982 287.479 284.201C277.823 291.805 267.151 298.091 255.891 302.628C251.943 304.237 247.849 305.695 243.755 306.867C237.464 308.622 230.885 309.94 224.448 310.669C216.406 311.544 208.073 311.69 199.885 310.669C195.203 310.086 190.672 309.206 185.99 308.039C185.99 308.039 185.99 308.039 185.844 308.039C183.505 307.451 181.021 306.721 178.682 305.841C175.172 304.674 171.807 303.357 168.443 301.747C165.224 300.284 162.156 298.534 159.083 296.779C156.599 295.169 154.115 293.706 151.771 291.951C148.557 289.029 145.484 285.81 142.708 282.299C140.807 279.815 138.906 277.18 137.297 274.404C138.906 276.013 140.661 277.622 142.417 278.935C144.464 280.398 146.656 281.862 148.849 283.174C154.99 286.685 161.573 289.32 168.443 291.076C170.052 291.513 171.661 291.805 173.271 292.242C182.042 293.997 191.109 294.435 200.031 293.852C204.125 293.56 208.073 293.122 212.167 292.388C220.797 290.779 229.422 288.294 237.609 284.784C239.656 283.909 241.557 283.029 243.609 282.154C247.703 280.107 251.943 277.914 255.745 275.424C268.026 267.82 278.849 258.315 287.328 247.06C288.646 245.451 289.672 243.841 290.839 242.086C290.984 241.94 291.13 241.794 291.281 241.503C293.031 239.159 294.641 236.82 296.104 234.482C297.13 233.018 297.859 231.555 298.734 230.096C299.031 229.654 299.177 229.362 299.469 228.924C309.703 210.94 316.286 190.904 324.036 171.456L305.172 162.971C305.318 162.826 359.276 121.445 359.276 121.445L368.198 191.049Z" fill="#0056A2"/>
</g>
<mask id="mask1_282_911" style="mask-type:luminance" maskUnits="userSpaceOnUse" x="124" y="161" width="162" height="117">
<path d="M124.031 161.332H285.333V277.332H124.031V161.332Z" fill="white"/>
</mask>
<g mask="url(#mask1_282_911)">
<path d="M284.99 226.44C284.406 226.002 283.823 225.414 283.38 224.83C279.875 221.32 276.219 217.955 272.563 214.742L272.417 214.596C270.953 213.278 269.344 211.961 267.734 210.643C267.443 210.497 267.297 210.205 267.005 210.06C263.349 206.992 259.693 204.211 255.745 201.435C255.599 201.435 255.599 201.289 255.453 201.289C248.87 196.606 241.708 192.513 234.542 189.44C234.104 189.294 233.516 189.002 233.078 188.856C233.078 188.856 232.932 188.856 232.932 188.711C210.557 179.351 186.281 178.179 168.443 192.95C166.25 194.851 164.203 196.898 162.302 199.091C154.552 208.158 149.87 219.565 147.24 231.117C144.609 242.961 142.563 257.731 145.484 269.721C145.484 269.867 146.219 271.622 146.802 273.377C147.385 275.132 147.677 276.888 146.51 276.304L145.922 275.867C144.021 274.403 142.12 272.794 140.365 271.039C134.958 265.481 130.568 258.612 128.083 251.737C128.083 251.737 128.083 251.737 128.083 251.591C127.646 250.419 127.354 249.252 127.057 248.08C125.745 243.403 125.156 238.575 125.156 233.601C124.135 212.987 130.859 193.685 142.854 180.377C145.047 177.742 147.24 175.403 149.87 173.211C156.162 168.091 163.177 164.726 170.635 163.268H170.781C171.078 163.122 171.37 163.122 171.807 162.971C182.042 160.632 192.135 161.367 201.787 164.58C201.932 164.58 202.078 164.726 202.224 164.726C214.359 167.945 226.349 173.94 237.172 181.544C243.901 186.226 250.188 191.341 256.328 196.898C265.979 205.528 275.047 215.033 283.969 224.83C283.969 225.414 284.552 226.002 284.99 226.44Z" fill="#0056A2"/>
</g>
<path d="M199.885 223.078V286.688C197.396 286.833 194.911 286.979 192.427 286.979C186.281 286.979 180.286 286.396 174.438 285.229C172.391 284.786 170.344 284.349 168.297 283.766V230.245C177.802 229.807 188.333 227.755 199.885 223.078Z" fill="#46B9EA"/>
<path d="M243.608 196.027V274.116C240.681 275.574 237.905 276.892 234.832 278.21L233.952 278.501C226.79 281.428 219.478 283.621 212.02 285.079V217.376C220.65 212.845 229.712 206.996 239.217 199.392C240.681 198.366 242.145 197.194 243.608 196.027Z" fill="#46B9EA"/>
<path d="M315.115 174.822L299.469 167.801V213.572C304.146 203.775 307.948 193.389 312.042 182.717C313.068 180.082 314.089 177.452 315.115 174.822Z" fill="#46B9EA"/>
<mask id="mask2_282_911" style="mask-type:luminance" maskUnits="userSpaceOnUse" x="298" y="93" width="34" height="66">
<path d="M298.668 93.8086H332.001V158.668H298.668V93.8086Z" fill="white"/>
</mask>
<g mask="url(#mask2_282_911)">
<path d="M331.052 93.8086V137.095C323.01 142.507 314.823 147.772 309.12 151.574C305.755 153.767 301.516 156.689 300.781 157.277L299.469 158.298V137.387C309.557 124.517 320.089 110.043 331.052 93.8086Z" fill="#46B9EA"/>
</g>
<path d="M331.053 239.309C328.715 243.991 326.376 248.668 323.746 253.204C326.23 255.251 328.715 257.298 331.053 259.199V239.309Z" fill="#46B9EA"/>
<path d="M311.895 270.312L311.749 270.167C309.41 273.089 306.78 275.87 304.145 278.5C302.681 279.964 301.077 281.427 299.613 282.885V310.526H331.197V279.964C325.645 275.281 320.379 270.313 315.551 265.484L311.895 270.312Z" fill="#46B9EA"/>
<path d="M287.329 152.156V218.693C287.184 218.547 287.038 218.401 286.892 218.104C279.876 210.5 272.418 202.75 264.668 195.589C261.741 192.807 258.819 190.177 255.746 187.542V185.349C265.835 176.135 276.366 165.172 287.329 152.156Z" fill="#46B9EA"/>
<path d="M255.746 210.062V266.948C267.59 259.052 277.533 249.255 284.991 238.141C285.137 237.849 285.283 237.557 285.579 237.406L285.871 237.115L280.168 231.557C271.538 222.932 263.496 215.911 255.746 210.062Z" fill="#46B9EA"/>
<mask id="mask3_282_911" style="mask-type:luminance" maskUnits="userSpaceOnUse" x="254" y="292" width="34" height="20">
<path d="M254.668 292H288.001V311.807H254.668V292Z" fill="white"/>
</mask>
<g mask="url(#mask3_282_911)">
<path d="M255.746 310.673H287.329V292.98C277.533 300.142 266.861 305.845 255.746 310.09V310.673Z" fill="#46B9EA"/>
</g>
<mask id="mask4_282_911" style="mask-type:luminance" maskUnits="userSpaceOnUse" x="177" y="120" width="193" height="192">
<path d="M177.332 120H369.03V311.807H177.332V120Z" fill="white"/>
</mask>
<g mask="url(#mask4_282_911)">
<mask id="mask5_282_911" style="mask-type:luminance" maskUnits="userSpaceOnUse" x="0" y="0" width="500" height="500">
<path d="M500 0H0V500H500V0Z" fill="black" fill-opacity="0.2"/>
</mask>
<g mask="url(#mask5_282_911)">
<mask id="mask6_282_911" style="mask-type:luminance" maskUnits="userSpaceOnUse" x="177" y="120" width="193" height="192">
<path d="M369.332 120H177.332V312H369.332V120Z" fill="white"/>
</mask>
<g mask="url(#mask6_282_911)">
<mask id="mask7_282_911" style="mask-type:luminance" maskUnits="userSpaceOnUse" x="178" y="120" width="192" height="192">
<path d="M178.664 120.641H369.029V311.807H178.664V120.641Z" fill="white"/>
</mask>
<g mask="url(#mask7_282_911)">
<path d="M368.195 191.052L346.992 181.547C341.289 194.854 336.607 208.745 331.049 222.203C327.393 231.266 323.299 240.042 318.477 248.375C317.596 249.839 316.721 251.448 315.841 252.766C315.549 253.349 315.112 253.932 314.674 254.516L314.529 254.812C313.211 256.714 312.039 258.615 310.727 260.37C310.435 260.073 310.138 259.927 309.846 259.635C310.138 259.927 310.435 260.073 310.581 260.37C310.581 260.37 310.435 260.516 310.435 260.661C307.07 265.047 303.56 269.286 299.612 273.234C299.466 273.38 299.32 273.526 299.174 273.672C295.518 277.474 291.57 280.984 287.477 284.203C277.82 291.807 267.148 298.094 255.888 302.63C251.94 304.24 247.846 305.698 243.753 306.87C237.461 308.625 230.883 309.943 224.445 310.672C216.404 311.547 208.07 311.693 199.883 310.672C195.201 310.089 190.669 309.208 185.987 308.042C185.987 308.042 185.987 308.042 185.841 308.042C183.503 307.453 181.018 306.724 178.68 305.844C298.878 322.807 333.977 200.411 340.701 170.729C341.435 167.365 344.945 165.464 348.305 166.63L356.643 169.703L358.69 124.807L359.273 121.156L368.195 191.052Z" fill="#004AAD"/>
</g>
</g>
</g>
</g>
<mask id="mask8_282_911" style="mask-type:luminance" maskUnits="userSpaceOnUse" x="0" y="0" width="500" height="500">
<path d="M500 0H0V500H500V0Z" fill="black" fill-opacity="0.2"/>
</mask>
<g mask="url(#mask8_282_911)">
<mask id="mask9_282_911" style="mask-type:luminance" maskUnits="userSpaceOnUse" x="130" y="174" width="105" height="105">
<path d="M234.668 174.668H130.668V278.668H234.668V174.668Z" fill="white"/>
</mask>
<g mask="url(#mask9_282_911)">
<path d="M232.786 188.716C210.411 179.356 186.135 178.185 168.297 192.955C166.104 194.856 164.057 196.903 162.156 199.096C154.406 208.164 149.724 219.57 147.094 231.122C144.463 242.966 142.416 257.737 145.338 269.726C145.338 269.872 146.067 271.627 146.656 273.382C147.239 275.138 147.531 276.893 146.364 276.31L145.776 275.872C125.156 251.159 128.375 210.065 152.505 188.716C174.88 168.679 206.901 175.992 232.786 188.716Z" fill="#004AAD"/>
</g>
</g>
<mask id="mask10_282_911" style="mask-type:luminance" maskUnits="userSpaceOnUse" x="0" y="0" width="500" height="500">
<path d="M500 0H0V500H500V0Z" fill="black" fill-opacity="0.2"/>
</mask>
<g mask="url(#mask10_282_911)">
<mask id="mask11_282_911" style="mask-type:luminance" maskUnits="userSpaceOnUse" x="166" y="222" width="34" height="37">
<path d="M200.001 222.668H166.668V258.668H200.001V222.668Z" fill="white"/>
</mask>
<g mask="url(#mask11_282_911)">
<mask id="mask12_282_911" style="mask-type:luminance" maskUnits="userSpaceOnUse" x="168" y="223" width="32" height="36">
<path d="M168 223.043H200V258.241H168V223.043Z" fill="white"/>
</mask>
<g mask="url(#mask12_282_911)">
<path d="M168.297 230.245C177.802 229.953 188.333 227.755 199.885 223.078V243.406C190.083 248.667 179.557 253.641 168.297 258.172V230.245Z" fill="#004AAD"/>
</g>
</g>
</g>
<mask id="mask13_282_911" style="mask-type:luminance" maskUnits="userSpaceOnUse" x="0" y="0" width="500" height="500">
<path d="M500 0H0V500H500V0Z" fill="black" fill-opacity="0.2"/>
</mask>
<g mask="url(#mask13_282_911)">
<mask id="mask14_282_911" style="mask-type:luminance" maskUnits="userSpaceOnUse" x="210" y="194" width="34" height="45">
<path d="M244.001 194.668H210.668V238.668H244.001V194.668Z" fill="white"/>
</mask>
<g mask="url(#mask14_282_911)">
<mask id="mask15_282_911" style="mask-type:luminance" maskUnits="userSpaceOnUse" x="211" y="196" width="33" height="42">
<path d="M211.523 196H243.841V237.333H211.523V196Z" fill="white"/>
</mask>
<g mask="url(#mask15_282_911)">
<path d="M239.223 199.392C240.686 198.22 242.15 197.194 243.462 196.027V214.303C233.957 222.053 223.431 229.512 211.879 236.387V217.376C220.655 212.845 229.717 206.996 239.223 199.392Z" fill="#004AAD"/>
</g>
</g>
</g>
<mask id="mask16_282_911" style="mask-type:luminance" maskUnits="userSpaceOnUse" x="0" y="0" width="500" height="500">
<path d="M500 0H0V500H500V0Z" fill="black" fill-opacity="0.2"/>
</mask>
<g mask="url(#mask16_282_911)">
<mask id="mask17_282_911" style="mask-type:luminance" maskUnits="userSpaceOnUse" x="254" y="150" width="34" height="48">
<path d="M288.001 150.668H254.668V197.335H288.001V150.668Z" fill="white"/>
</mask>
<g mask="url(#mask17_282_911)">
<mask id="mask18_282_911" style="mask-type:luminance" maskUnits="userSpaceOnUse" x="255" y="152" width="33" height="44">
<path d="M255.359 152H287.682V196H255.359V152Z" fill="white"/>
</mask>
<g mask="url(#mask18_282_911)">
<path d="M287.329 152.156V170.578C280.605 178.771 273.147 187.25 264.668 195.589C261.741 192.807 258.819 190.177 255.746 187.542V185.349C265.835 176.135 276.366 165.172 287.329 152.156Z" fill="#004AAD"/>
</g>
</g>
</g>
<mask id="mask19_282_911" style="mask-type:luminance" maskUnits="userSpaceOnUse" x="298" y="93" width="34" height="62">
<path d="M298.668 93.8086H332.001V154.668H298.668V93.8086Z" fill="white"/>
</mask>
<g mask="url(#mask19_282_911)">
<mask id="mask20_282_911" style="mask-type:luminance" maskUnits="userSpaceOnUse" x="0" y="0" width="500" height="500">
<path d="M500 0H0V500H500V0Z" fill="black" fill-opacity="0.2"/>
</mask>
<g mask="url(#mask20_282_911)">
<mask id="mask21_282_911" style="mask-type:luminance" maskUnits="userSpaceOnUse" x="298" y="93" width="34" height="62">
<path d="M332.001 93.332H298.668V154.665H332.001V93.332Z" fill="white"/>
</mask>
<g mask="url(#mask21_282_911)">
<mask id="mask22_282_911" style="mask-type:luminance" maskUnits="userSpaceOnUse" x="299" y="93" width="33" height="62">
<path d="M299.199 93.8047H331.522V154.56H299.199V93.8047Z" fill="white"/>
</mask>
<g mask="url(#mask22_282_911)">
<path d="M331.055 93.9492C330.617 95.5586 322.138 121.882 299.617 154.345V137.382C309.56 124.512 320.091 110.038 331.055 93.9492Z" fill="#004AAD"/>
</g>
</g>
</g>
</g>
<path d="M134.958 337.646C134.958 339.604 134.458 341.427 133.458 343.104C132.458 344.771 131.073 346.073 129.312 347C126.922 348.333 123.49 349 119.021 349C117.839 349 116.484 348.948 114.958 348.833V359.542C114.958 361.698 115.297 363.099 115.979 363.75C116.672 364.406 118.172 364.766 120.479 364.833V365.958H104V364.833C106.234 364.641 107.615 364.224 108.146 363.583C108.672 362.932 108.938 361.37 108.938 358.896V333.417C108.938 331.292 108.656 329.938 108.104 329.354C107.562 328.76 106.193 328.349 104 328.125V327H119.542C122.333 327 124.901 327.385 127.25 328.146C129.609 328.911 131.375 329.938 132.542 331.229C134.151 332.969 134.958 335.104 134.958 337.646ZM128.542 338C128.542 334.99 127.594 332.766 125.708 331.333C123.833 329.891 120.917 329.167 116.958 329.167C116.167 329.167 115.63 329.307 115.354 329.583C115.089 329.865 114.958 330.391 114.958 331.167V346.479C116.333 346.594 117.448 346.646 118.312 346.646C125.13 346.646 128.542 343.766 128.542 338Z" fill="#0056A2"/>
<path d="M177.172 365.958H160.818V364.833C163.094 364.682 164.526 364.271 165.109 363.604C165.693 362.938 165.984 361.37 165.984 358.896V347.417H148.151V359.542C148.151 361.625 148.464 362.979 149.089 363.604C149.724 364.229 151.141 364.641 153.339 364.833V365.958H136.984V364.833C139.26 364.682 140.693 364.271 141.276 363.604C141.859 362.938 142.151 361.37 142.151 358.896V333.417C142.151 331.292 141.859 329.932 141.276 329.333C140.693 328.724 139.26 328.323 136.984 328.125V327H153.339V328.125C151.057 328.323 149.62 328.724 149.026 329.333C148.443 329.932 148.151 331.292 148.151 333.417V344.833H165.984V333.417C165.984 331.292 165.693 329.932 165.109 329.333C164.526 328.724 163.094 328.323 160.818 328.125V327H177.172V328.125C174.891 328.323 173.464 328.724 172.88 329.333C172.297 329.932 172.005 331.292 172.005 333.417V359.542C172.005 361.625 172.318 362.979 172.943 363.604C173.568 364.229 174.974 364.641 177.172 364.833V365.958Z" fill="#0056A2"/>
<path d="M217.484 346.542C217.484 352.474 215.661 357.307 212.026 361.042C208.401 364.766 203.682 366.625 197.88 366.625C195.281 366.625 192.755 366.083 190.297 365C187.849 363.917 185.766 362.453 184.047 360.604C182.474 358.927 181.24 356.823 180.339 354.292C179.432 351.766 178.984 349.104 178.984 346.312C178.984 340.385 180.786 335.516 184.401 331.708C188.01 327.906 192.62 326 198.234 326C203.995 326 208.76 328.062 212.526 332.188C215.828 335.802 217.484 340.583 217.484 346.542ZM210.776 346.479C210.776 339.229 209.099 334.094 205.755 331.062C203.557 329.104 201.052 328.125 198.234 328.125C194.943 328.125 192.135 329.406 189.818 331.958C188.552 333.333 187.547 335.349 186.797 338C186.057 340.641 185.693 343.453 185.693 346.438C185.693 349.688 186.141 352.698 187.047 355.458C187.948 358.224 189.161 360.271 190.693 361.604C192.859 363.536 195.328 364.5 198.109 364.5C201.245 364.5 203.859 363.458 205.943 361.375C207.359 360 208.318 358.573 208.818 357.083C210.12 353.708 210.776 350.177 210.776 346.479Z" fill="#0056A2"/>
<path d="M253.88 337H252.464C251.797 333.75 250.901 331.688 249.776 330.812C248.661 329.927 246.443 329.479 243.109 329.479H239.943V359.542C239.943 361.698 240.276 363.094 240.943 363.729C241.609 364.354 243.156 364.724 245.589 364.833V365.958H228.401V364.833C230.828 364.682 232.359 364.286 232.984 363.646C233.62 362.995 233.943 361.411 233.943 358.896V329.479H230.755C227.464 329.479 225.255 329.932 224.13 330.833C223.016 331.724 222.109 333.781 221.401 337H219.984L220.339 327H253.526L253.88 337Z" fill="#0056A2"/>
<path d="M296.651 365.667H281.651V364.542C283.26 364.542 284.359 364.37 284.943 364.021C285.495 363.745 285.776 363.271 285.776 362.604C285.776 361.661 285.401 360.328 284.651 358.604L282.234 352.958H266.818L264.109 359.833C263.802 360.667 263.651 361.438 263.651 362.146C263.651 363.745 264.984 364.542 267.651 364.542V365.667H255.984V364.542C257.401 364.474 258.495 363.917 259.276 362.875C260.068 361.833 261.406 359.177 263.297 354.896L275.526 326H276.714L291.359 359.438C292.385 361.635 293.193 363.016 293.776 363.583C294.359 364.156 295.318 364.474 296.651 364.542V365.667ZM281.422 350.542L274.589 334.354L267.818 350.542H281.422Z" fill="#0056A2"/>
<path d="M353.547 328.125C351.974 328.432 350.906 328.823 350.339 329.292C349.766 329.766 349.203 330.766 348.651 332.292L336.651 366.604H335.776L326.359 341.708L317.297 366.604H316.401L305.047 335C303.948 332.208 303.031 330.406 302.297 329.583C301.573 328.766 300.469 328.281 298.984 328.125V327H313.401V328.125C311.911 328.198 310.906 328.365 310.38 328.625C309.849 328.875 309.589 329.333 309.589 330C309.589 330.708 309.802 331.615 310.234 332.708L318.693 354.833L325.005 338.229L323.068 333.417C322.036 331.057 321.214 329.594 320.589 329.021C319.964 328.453 318.802 328.156 317.109 328.125V327H332.818V328.125C329.802 328.156 328.297 328.833 328.297 330.167C328.297 330.807 328.589 331.807 329.172 333.167L329.88 334.938L337.651 355.021L345.005 335.062C345.63 333.302 345.943 331.828 345.943 330.646C345.943 329.87 345.635 329.292 345.026 328.917C344.427 328.542 343.385 328.281 341.901 328.125V327H353.547V328.125Z" fill="#0056A2"/>
<path d="M396.88 328.125C395.005 328.323 393.714 328.667 393.005 329.167C391.865 329.958 391.297 332.12 391.297 335.646V366.604H390.297L364.276 334.229V357.312C364.276 360.286 364.63 362.26 365.339 363.229C366.047 364.188 367.536 364.724 369.818 364.833V365.958H355.984V364.833C358.411 364.682 359.969 364.146 360.651 363.229C361.344 362.302 361.693 360.328 361.693 357.312V331.354C360.51 329.979 359.573 329.099 358.88 328.708C358.198 328.323 357.234 328.125 355.984 328.125V327H366.047L388.714 355.479V335.646C388.714 332.036 388.141 329.844 387.005 329.062C386.172 328.594 384.849 328.281 383.047 328.125V327H396.88V328.125Z" fill="#0056A2"/>
<mask id="mask23_282_911" style="mask-type:luminance" maskUnits="userSpaceOnUse" x="135" y="376" width="105" height="3">
<path d="M135.156 376H240V378.667H135.156V376Z" fill="white"/>
</mask>
<g mask="url(#mask23_282_911)">
<path d="M135.156 376.973H238.786V377.452H135.156V376.973Z" fill="#0056A2"/>
</g>
<mask id="mask24_282_911" style="mask-type:luminance" maskUnits="userSpaceOnUse" x="261" y="376" width="105" height="3">
<path d="M261.332 376H365.155V378.667H261.332V376Z" fill="white"/>
</mask>
<g mask="url(#mask24_282_911)">
<path d="M261.531 376.973H365.156V377.452H261.531V376.973Z" fill="#0056A2"/>
</g>
<mask id="mask25_282_911" style="mask-type:luminance" maskUnits="userSpaceOnUse" x="248" y="375" width="6" height="5">
<path d="M248 375.215H253.333V379.215H248V375.215Z" fill="white"/>
</mask>
<g mask="url(#mask25_282_911)">
<path d="M252.146 377.215C252.146 377.303 252.146 377.387 252.13 377.454C252.01 378.434 251.182 379.184 250.167 379.184C249.151 379.184 248.323 378.434 248.203 377.454C248.187 377.371 248.188 377.303 248.188 377.215C248.188 377.132 248.187 377.043 248.203 376.975C248.307 376.001 249.135 375.246 250.151 375.246C251.167 375.246 251.99 376.001 252.115 376.975C252.13 377.064 252.146 377.147 252.146 377.215Z" fill="#0056A2"/>
</g>
<path d="M160.926 386.047H165.009V386.484C164.77 386.568 164.53 386.646 164.28 386.714C164.04 386.771 163.806 386.813 163.572 386.839V395.714H167.009L167.884 393.297H168.28C168.306 393.521 168.327 393.771 168.342 394.047C168.368 394.313 168.389 394.589 168.405 394.88C168.431 395.172 168.447 395.458 168.447 395.734C168.447 396.016 168.436 396.266 168.426 396.484H160.926V396.047C161.16 395.938 161.374 395.859 161.572 395.818C161.78 395.766 161.967 395.724 162.134 395.693V386.839C161.91 386.813 161.697 386.766 161.488 386.693C161.28 386.625 161.092 386.557 160.926 386.484V386.047Z" fill="#197FAB"/>
<path d="M176.794 396.484H172.961V396.047C173.346 395.87 173.753 395.75 174.169 395.693V386.839C173.961 386.813 173.758 386.766 173.565 386.693C173.367 386.625 173.169 386.557 172.961 386.484V386.047H176.794V386.484C176.612 386.557 176.419 386.625 176.211 386.693C176.003 386.766 175.794 386.813 175.586 386.839V395.693C175.794 395.734 176.003 395.792 176.211 395.859C176.419 395.917 176.612 395.979 176.794 396.047V396.484Z" fill="#197FAB"/>
<path d="M190.159 395.776C189.961 395.891 189.742 396 189.492 396.109C189.242 396.208 188.971 396.297 188.68 396.38C188.398 396.464 188.117 396.531 187.826 396.589C187.544 396.641 187.284 396.672 187.034 396.672C186.242 396.672 185.523 396.568 184.888 396.359C184.247 396.141 183.706 395.807 183.263 395.359C182.815 394.917 182.471 394.359 182.221 393.693C181.982 393.016 181.867 392.203 181.867 391.255C181.867 390.286 182.003 389.458 182.284 388.776C182.576 388.083 182.956 387.521 183.43 387.089C183.898 386.661 184.435 386.349 185.034 386.151C185.628 385.958 186.247 385.859 186.888 385.859C187.539 385.859 188.086 385.901 188.534 385.984C188.992 386.068 189.388 386.203 189.721 386.38C189.721 386.521 189.711 386.703 189.701 386.922C189.701 387.146 189.685 387.375 189.659 387.609C189.643 387.849 189.622 388.083 189.596 388.318C189.565 388.557 189.539 388.766 189.513 388.943H189.117L188.346 386.797C188.232 386.729 188.044 386.688 187.784 386.672C187.534 386.646 187.284 386.63 187.034 386.63C186.534 386.63 186.055 386.729 185.596 386.922C185.148 387.104 184.763 387.391 184.43 387.776C184.096 388.151 183.831 388.63 183.638 389.214C183.44 389.797 183.346 390.479 183.346 391.255C183.346 391.964 183.44 392.604 183.638 393.172C183.831 393.745 184.096 394.229 184.43 394.63C184.773 395.036 185.18 395.349 185.638 395.568C186.107 395.776 186.607 395.88 187.138 395.88C187.346 395.88 187.539 395.87 187.721 395.839C187.914 395.797 188.086 395.75 188.242 395.693C188.409 395.641 188.539 395.583 188.638 395.526C188.747 395.458 188.826 395.401 188.867 395.359V392.359C188.602 392.333 188.352 392.286 188.117 392.214C187.878 392.146 187.648 392.068 187.43 391.984V391.568H191.076V391.984C190.977 392.057 190.857 392.125 190.721 392.193C190.581 392.25 190.393 392.307 190.159 392.359V395.776Z" fill="#197FAB"/>
<path d="M199.122 396.484H195.352V396.047C195.737 395.896 196.143 395.776 196.56 395.693V386.839C196.102 386.771 195.695 386.651 195.352 386.484V386.047H199.122V386.484C198.956 386.568 198.773 386.646 198.581 386.714C198.398 386.771 198.206 386.813 197.997 386.839V390.734H202.685V386.839C202.477 386.797 202.279 386.75 202.102 386.693C201.919 386.625 201.737 386.557 201.56 386.484V386.047H205.331V386.484C205.164 386.583 204.966 386.661 204.747 386.714C204.539 386.771 204.331 386.813 204.122 386.839V395.693C204.341 395.734 204.56 395.792 204.768 395.859C204.977 395.917 205.164 395.979 205.331 396.047V396.484H201.56V396.047C201.919 395.896 202.294 395.776 202.685 395.693V391.526H197.997V395.693C198.206 395.734 198.398 395.792 198.581 395.859C198.773 395.917 198.956 395.979 199.122 396.047V396.484Z" fill="#197FAB"/>
<path d="M216.053 396.484H211.866V396.047C212.085 395.979 212.309 395.917 212.533 395.859C212.751 395.792 212.996 395.734 213.262 395.693V386.818H210.97L210.178 388.943H209.803C209.772 388.75 209.746 388.526 209.72 388.276C209.704 388.026 209.689 387.771 209.678 387.505C209.663 387.245 209.647 386.984 209.637 386.734C209.637 386.474 209.637 386.245 209.637 386.047H218.303C218.303 386.245 218.293 386.464 218.283 386.714C218.267 386.964 218.251 387.224 218.241 387.484C218.225 387.75 218.21 388.005 218.199 388.255C218.184 388.505 218.163 388.734 218.137 388.943H217.741L216.97 386.818H214.678V395.693C214.939 395.75 215.184 395.807 215.408 395.859C215.626 395.901 215.845 395.964 216.053 396.047V396.484Z" fill="#197FAB"/>
<path d="M229.648 386.047C229.633 386.438 229.612 386.833 229.586 387.234C229.57 387.641 229.534 388.047 229.482 388.464H229.107L228.482 386.818H225.232V390.776H227.669L228.253 389.672H228.628C228.68 390.661 228.68 391.661 228.628 392.672H228.253L227.669 391.547H225.232V395.714H228.669L229.398 393.922H229.773C229.841 394.339 229.888 394.766 229.919 395.193C229.945 395.609 229.951 396.042 229.94 396.484H222.586V396.047C222.93 395.896 223.336 395.776 223.794 395.693V386.839C223.596 386.813 223.398 386.766 223.19 386.693C222.982 386.625 222.779 386.557 222.586 386.484V386.047H229.648Z" fill="#197FAB"/>
<path d="M241.677 386.047H244.885V386.484C244.469 386.766 244.063 386.958 243.677 387.068V396.672H242.823L237.406 388.443L236.823 387.276H236.781L236.906 388.443V395.526C237.323 395.641 237.703 395.813 238.052 396.047V396.484H234.844V396.047C235.021 395.938 235.208 395.839 235.406 395.755C235.615 395.672 235.828 395.599 236.052 395.526V386.984C235.854 386.901 235.661 386.818 235.469 386.734C235.271 386.641 235.094 386.547 234.927 386.464V386.047H237.448L242.156 393.13L242.844 394.401H242.885L242.823 393.13V387.068C242.615 386.984 242.411 386.896 242.219 386.797C242.021 386.688 241.844 386.583 241.677 386.484V386.047Z" fill="#197FAB"/>
<path d="M253.439 396.484H249.605V396.047C249.991 395.87 250.397 395.75 250.814 395.693V386.839C250.605 386.813 250.402 386.766 250.21 386.693C250.012 386.625 249.814 386.557 249.605 386.484V386.047H253.439V386.484C253.257 386.557 253.064 386.625 252.855 386.693C252.647 386.766 252.439 386.813 252.23 386.839V395.693C252.439 395.734 252.647 395.792 252.855 395.859C253.064 395.917 253.257 395.979 253.439 396.047V396.484Z" fill="#197FAB"/>
<path d="M264.993 386.047H268.202V386.484C267.785 386.766 267.379 386.958 266.993 387.068V396.672H266.139L260.723 388.443L260.139 387.276H260.098L260.223 388.443V395.526C260.639 395.641 261.02 395.813 261.368 396.047V396.484H258.16V396.047C258.337 395.938 258.525 395.839 258.723 395.755C258.931 395.672 259.145 395.599 259.368 395.526V386.984C259.171 386.901 258.978 386.818 258.785 386.734C258.587 386.641 258.41 386.547 258.243 386.464V386.047H260.764L265.473 393.13L266.16 394.401H266.202L266.139 393.13V387.068C265.931 386.984 265.728 386.896 265.535 386.797C265.337 386.688 265.16 386.583 264.993 386.484V386.047Z" fill="#197FAB"/>
<path d="M281.296 395.776C281.098 395.891 280.879 396 280.629 396.109C280.379 396.208 280.108 396.297 279.816 396.38C279.535 396.464 279.254 396.531 278.962 396.589C278.681 396.641 278.421 396.672 278.171 396.672C277.379 396.672 276.66 396.568 276.025 396.359C275.384 396.141 274.842 395.807 274.4 395.359C273.952 394.917 273.608 394.359 273.358 393.693C273.118 393.016 273.004 392.203 273.004 391.255C273.004 390.286 273.139 389.458 273.421 388.776C273.712 388.083 274.092 387.521 274.566 387.089C275.035 386.661 275.572 386.349 276.171 386.151C276.764 385.958 277.384 385.859 278.025 385.859C278.676 385.859 279.223 385.901 279.671 385.984C280.129 386.068 280.525 386.203 280.858 386.38C280.858 386.521 280.848 386.703 280.837 386.922C280.837 387.146 280.822 387.375 280.796 387.609C280.78 387.849 280.759 388.083 280.733 388.318C280.702 388.557 280.676 388.766 280.65 388.943H280.254L279.483 386.797C279.368 386.729 279.181 386.688 278.921 386.672C278.671 386.646 278.421 386.63 278.171 386.63C277.671 386.63 277.191 386.729 276.733 386.922C276.285 387.104 275.9 387.391 275.566 387.776C275.233 388.151 274.967 388.63 274.775 389.214C274.577 389.797 274.483 390.479 274.483 391.255C274.483 391.964 274.577 392.604 274.775 393.172C274.967 393.745 275.233 394.229 275.566 394.63C275.91 395.036 276.316 395.349 276.775 395.568C277.243 395.776 277.743 395.88 278.275 395.88C278.483 395.88 278.676 395.87 278.858 395.839C279.051 395.797 279.223 395.75 279.379 395.693C279.546 395.641 279.676 395.583 279.775 395.526C279.884 395.458 279.962 395.401 280.004 395.359V392.359C279.738 392.333 279.488 392.286 279.254 392.214C279.014 392.146 278.785 392.068 278.566 391.984V391.568H282.212V391.984C282.113 392.057 281.993 392.125 281.858 392.193C281.717 392.25 281.53 392.307 281.296 392.359V395.776Z" fill="#197FAB"/>
<path d="M296.188 395.693C296.63 395.75 297.062 395.87 297.479 396.047V396.484H293.688V396.047C293.854 395.979 294.026 395.917 294.208 395.859C294.385 395.792 294.568 395.734 294.75 395.693V386.839C294.542 386.797 294.344 386.75 294.167 386.693C293.984 386.625 293.823 386.557 293.688 386.484V386.047H300.688C300.672 386.438 300.651 386.833 300.625 387.234C300.594 387.641 300.562 388.047 300.521 388.464H300.125L299.521 386.818H296.188V391.068H298.771L299.375 389.964H299.729C299.74 390.203 299.755 390.443 299.771 390.693C299.781 390.943 299.792 391.203 299.792 391.464C299.792 391.729 299.781 391.995 299.771 392.255C299.755 392.505 299.74 392.75 299.729 392.984H299.375L298.771 391.839H296.188V395.693Z" fill="#197FAB"/>
<path d="M308.25 396.484H304.938V396.047C305.297 395.896 305.656 395.776 306.021 395.693L309.792 385.859H310.208L314 395.693C314.193 395.734 314.385 395.786 314.583 395.839C314.776 395.88 314.958 395.953 315.125 396.047V396.484H311.312V396.047C311.505 395.979 311.708 395.917 311.917 395.859C312.125 395.792 312.323 395.734 312.521 395.693L311.521 392.964H307.958L306.958 395.693C307.375 395.75 307.802 395.87 308.25 396.047V396.484ZM308.25 392.193H311.271L310.083 389.026L309.792 387.734H309.771L309.396 389.047L308.25 392.193Z" fill="#197FAB"/>
<path d="M320.928 395.464C321.053 395.578 321.204 395.672 321.387 395.755C321.579 395.839 321.866 395.88 322.241 395.88C322.559 395.88 322.855 395.839 323.137 395.755C323.413 395.672 323.658 395.557 323.866 395.401C324.074 395.234 324.23 395.036 324.345 394.797C324.47 394.563 324.533 394.292 324.533 393.984C324.533 393.599 324.408 393.271 324.158 393.005C323.918 392.729 323.621 392.484 323.262 392.276C322.897 392.068 322.501 391.87 322.074 391.672C321.642 391.464 321.246 391.229 320.887 390.964C320.522 390.688 320.22 390.359 319.97 389.984C319.73 389.599 319.616 389.109 319.616 388.526C319.616 388.109 319.684 387.745 319.824 387.422C319.975 387.089 320.189 386.813 320.47 386.589C320.746 386.354 321.074 386.172 321.449 386.047C321.824 385.922 322.246 385.859 322.72 385.859C323.314 385.859 323.866 385.911 324.366 386.005C324.876 386.104 325.272 386.224 325.553 386.359C325.553 386.526 325.538 386.724 325.512 386.943C325.496 387.167 325.47 387.401 325.428 387.651C325.397 387.891 325.366 388.12 325.324 388.339C325.283 388.563 325.241 388.755 325.199 388.922H324.824L324.22 386.88C324.038 386.797 323.809 386.734 323.533 386.693C323.267 386.651 322.975 386.63 322.658 386.63C322.158 386.63 321.751 386.776 321.449 387.068C321.142 387.349 320.991 387.745 320.991 388.255C320.991 388.661 321.105 389 321.345 389.276C321.595 389.557 321.897 389.807 322.262 390.026C322.637 390.25 323.033 390.464 323.449 390.672C323.866 390.87 324.251 391.104 324.616 391.38C324.991 391.646 325.303 391.964 325.553 392.339C325.803 392.703 325.928 393.151 325.928 393.693C325.928 394.141 325.845 394.547 325.678 394.922C325.512 395.286 325.272 395.599 324.97 395.859C324.663 396.125 324.283 396.328 323.824 396.464C323.376 396.599 322.871 396.672 322.303 396.672C321.678 396.672 321.116 396.594 320.616 396.443C320.126 396.292 319.783 396.13 319.574 395.964C319.574 395.797 319.585 395.599 319.616 395.359C319.642 395.109 319.668 394.859 319.699 394.609C319.741 394.359 319.783 394.12 319.824 393.88C319.866 393.646 319.897 393.438 319.928 393.255H320.324L320.928 395.464Z" fill="#197FAB"/>
<path d="M336.979 396.484H332.792V396.047C333.01 395.979 333.234 395.917 333.458 395.859C333.677 395.792 333.922 395.734 334.188 395.693V386.818H331.896L331.104 388.943H330.729C330.698 388.75 330.672 388.526 330.646 388.276C330.63 388.026 330.615 387.771 330.604 387.505C330.589 387.245 330.573 386.984 330.562 386.734C330.562 386.474 330.562 386.245 330.562 386.047H339.229C339.229 386.245 339.219 386.464 339.208 386.714C339.193 386.964 339.177 387.224 339.167 387.484C339.151 387.75 339.135 388.005 339.125 388.255C339.109 388.505 339.089 388.734 339.062 388.943H338.667L337.896 386.818H335.604V395.693C335.865 395.75 336.109 395.807 336.333 395.859C336.552 395.901 336.771 395.964 336.979 396.047V396.484Z" fill="#197FAB"/>
<path d="M192.848 416.484V416.047C193.191 415.896 193.598 415.776 194.056 415.693V406.839C193.832 406.797 193.618 406.75 193.41 406.693C193.202 406.625 193.014 406.557 192.848 406.484V406.047H194.368C194.535 406.047 194.728 406.042 194.952 406.026C195.186 406.016 195.421 406 195.66 405.984C195.91 405.974 196.145 405.958 196.368 405.943C196.587 405.932 196.775 405.922 196.931 405.922C198.624 405.922 199.921 406.375 200.827 407.276C201.743 408.182 202.202 409.464 202.202 411.13C202.202 411.922 202.082 412.651 201.848 413.318C201.624 413.984 201.285 414.563 200.827 415.047C200.379 415.536 199.806 415.917 199.098 416.193C198.4 416.474 197.577 416.609 196.618 416.609C196.462 416.609 196.29 416.599 196.098 416.589C195.915 416.573 195.723 416.557 195.514 416.547C195.306 416.531 195.087 416.516 194.868 416.505C194.66 416.49 194.462 416.484 194.285 416.484H192.848ZM196.723 406.693C196.457 406.693 196.207 406.703 195.973 406.714C195.733 406.714 195.546 406.729 195.41 406.755V415.797C195.452 415.813 195.535 415.818 195.66 415.818C195.796 415.818 195.941 415.828 196.098 415.839C196.249 415.839 196.389 415.839 196.514 415.839C196.65 415.839 196.749 415.839 196.806 415.839C197.499 415.839 198.082 415.714 198.556 415.464C199.025 415.203 199.415 414.854 199.723 414.422C200.025 413.995 200.249 413.495 200.389 412.922C200.525 412.354 200.598 411.755 200.598 411.13C200.598 410.646 200.525 410.146 200.389 409.63C200.264 409.104 200.046 408.625 199.743 408.193C199.436 407.75 199.035 407.391 198.535 407.109C198.035 406.833 197.431 406.693 196.723 406.693Z" fill="#197FAB"/>
<path d="M214.043 406.047C214.027 406.438 214.007 406.833 213.98 407.234C213.965 407.641 213.928 408.047 213.876 408.464H213.501L212.876 406.818H209.626V410.776H212.064L212.647 409.672H213.022C213.074 410.661 213.074 411.661 213.022 412.672H212.647L212.064 411.547H209.626V415.714H213.064L213.793 413.922H214.168C214.236 414.339 214.283 414.766 214.314 415.193C214.34 415.609 214.345 416.042 214.335 416.484H206.98V416.047C207.324 415.896 207.73 415.776 208.189 415.693V406.839C207.991 406.813 207.793 406.766 207.585 406.693C207.376 406.625 207.173 406.557 206.98 406.484V406.047H214.043Z" fill="#197FAB"/>
<path d="M219.234 406.047H223.318V406.484C223.078 406.568 222.839 406.646 222.589 406.714C222.349 406.771 222.115 406.813 221.88 406.839V415.714H225.318L226.193 413.297H226.589C226.615 413.521 226.635 413.771 226.651 414.047C226.677 414.313 226.698 414.589 226.714 414.88C226.74 415.172 226.755 415.458 226.755 415.734C226.755 416.016 226.745 416.266 226.734 416.484H219.234V416.047C219.469 415.938 219.682 415.859 219.88 415.818C220.089 415.766 220.276 415.724 220.443 415.693V406.839C220.219 406.813 220.005 406.766 219.797 406.693C219.589 406.625 219.401 406.557 219.234 406.484V406.047Z" fill="#197FAB"/>
<path d="M235.103 416.484H231.27V416.047C231.655 415.87 232.061 415.75 232.478 415.693V406.839C232.27 406.813 232.066 406.766 231.874 406.693C231.676 406.625 231.478 406.557 231.27 406.484V406.047H235.103V406.484C234.921 406.557 234.728 406.625 234.52 406.693C234.311 406.766 234.103 406.813 233.895 406.839V415.693C234.103 415.734 234.311 415.792 234.52 415.859C234.728 415.917 234.921 415.979 235.103 416.047V416.484Z" fill="#197FAB"/>
<path d="M247.512 406.839C247.272 406.797 247.053 406.75 246.845 406.693C246.637 406.625 246.434 406.557 246.241 406.484V406.047H249.595V406.484C249.303 406.641 248.939 406.755 248.512 406.839L245.137 416.484L244.324 416.672L240.512 406.839C240.314 406.797 240.121 406.75 239.928 406.693C239.746 406.625 239.564 406.557 239.387 406.484V406.047H243.345V406.484C243.178 406.557 242.98 406.625 242.762 406.693C242.553 406.75 242.335 406.797 242.116 406.839L244.658 413.672L244.991 414.859H245.012L245.303 413.63L247.512 406.839Z" fill="#197FAB"/>
<path d="M260.664 406.047C260.648 406.438 260.628 406.833 260.602 407.234C260.586 407.641 260.549 408.047 260.497 408.464H260.122L259.497 406.818H256.247V410.776H258.685L259.268 409.672H259.643C259.695 410.661 259.695 411.661 259.643 412.672H259.268L258.685 411.547H256.247V415.714H259.685L260.414 413.922H260.789C260.857 414.339 260.904 414.766 260.935 415.193C260.961 415.609 260.966 416.042 260.956 416.484H253.602V416.047C253.945 415.896 254.352 415.776 254.81 415.693V406.839C254.612 406.813 254.414 406.766 254.206 406.693C253.997 406.625 253.794 406.557 253.602 406.484V406.047H260.664Z" fill="#197FAB"/>
<path d="M268.501 415.693C268.736 415.75 268.96 415.807 269.168 415.859C269.376 415.917 269.574 415.979 269.772 416.047V416.484H265.855V416.047C266.074 415.953 266.283 415.88 266.48 415.839C266.673 415.786 266.866 415.734 267.064 415.693V406.839C266.814 406.797 266.585 406.75 266.376 406.693C266.178 406.625 266.007 406.557 265.855 406.484V406.047H267.168C267.553 406.047 267.986 406.026 268.46 405.984C268.928 405.943 269.397 405.922 269.855 405.922C270.34 405.922 270.793 405.979 271.21 406.089C271.637 406.203 272.007 406.375 272.314 406.609C272.616 406.849 272.855 407.151 273.022 407.526C273.199 407.891 273.293 408.328 273.293 408.839C273.293 409.578 273.095 410.182 272.71 410.651C272.335 411.125 271.819 411.464 271.168 411.672C271.585 412.354 272.027 413.026 272.501 413.693C272.97 414.359 273.46 415.021 273.96 415.672L274.772 416.109V416.484H272.96L272.397 416.068C272.116 415.724 271.861 415.38 271.626 415.047C271.402 414.714 271.189 414.38 270.98 414.047C270.783 413.703 270.595 413.354 270.418 413.005C270.251 412.646 270.085 412.266 269.918 411.859H268.501V415.693ZM269.522 406.693C269.283 406.693 269.09 406.703 268.939 406.714C268.783 406.729 268.637 406.75 268.501 406.776V411.234H269.585C270.262 411.234 270.803 411.021 271.21 410.589C271.611 410.146 271.814 409.563 271.814 408.839C271.814 408.104 271.595 407.563 271.168 407.214C270.751 406.87 270.199 406.693 269.522 406.693Z" fill="#197FAB"/>
<path d="M283.033 416.484H279.199V416.047C279.585 415.87 279.991 415.75 280.408 415.693V406.839C280.199 406.813 279.996 406.766 279.803 406.693C279.605 406.625 279.408 406.557 279.199 406.484V406.047H283.033V406.484C282.85 406.557 282.658 406.625 282.449 406.693C282.241 406.766 282.033 406.813 281.824 406.839V415.693C282.033 415.734 282.241 415.792 282.449 415.859C282.658 415.917 282.85 415.979 283.033 416.047V416.484Z" fill="#197FAB"/>
<path d="M294.82 406.047C294.805 406.438 294.784 406.833 294.758 407.234C294.742 407.641 294.706 408.047 294.654 408.464H294.279L293.654 406.818H290.404V410.776H292.841L293.424 409.672H293.799C293.852 410.661 293.852 411.661 293.799 412.672H293.424L292.841 411.547H290.404V415.714H293.841L294.57 413.922H294.945C295.013 414.339 295.06 414.766 295.091 415.193C295.117 415.609 295.122 416.042 295.112 416.484H287.758V416.047C288.102 415.896 288.508 415.776 288.966 415.693V406.839C288.768 406.813 288.57 406.766 288.362 406.693C288.154 406.625 287.951 406.557 287.758 406.484V406.047H294.82Z" fill="#197FAB"/>
<path d="M301.803 415.464C301.928 415.578 302.079 415.672 302.262 415.755C302.454 415.839 302.741 415.88 303.116 415.88C303.434 415.88 303.73 415.839 304.012 415.755C304.288 415.672 304.533 415.557 304.741 415.401C304.949 415.234 305.105 415.036 305.22 414.797C305.345 414.563 305.408 414.292 305.408 413.984C305.408 413.599 305.283 413.271 305.033 413.005C304.793 412.729 304.496 412.484 304.137 412.276C303.772 412.068 303.376 411.87 302.949 411.672C302.517 411.464 302.121 411.229 301.762 410.964C301.397 410.688 301.095 410.359 300.845 409.984C300.605 409.599 300.491 409.109 300.491 408.526C300.491 408.109 300.559 407.745 300.699 407.422C300.85 407.089 301.064 406.813 301.345 406.589C301.621 406.354 301.949 406.172 302.324 406.047C302.699 405.922 303.121 405.859 303.595 405.859C304.189 405.859 304.741 405.911 305.241 406.005C305.751 406.104 306.147 406.224 306.428 406.359C306.428 406.526 306.413 406.724 306.387 406.943C306.371 407.167 306.345 407.401 306.303 407.651C306.272 407.891 306.241 408.12 306.199 408.339C306.158 408.563 306.116 408.755 306.074 408.922H305.699L305.095 406.88C304.913 406.797 304.684 406.734 304.408 406.693C304.142 406.651 303.85 406.63 303.533 406.63C303.033 406.63 302.626 406.776 302.324 407.068C302.017 407.349 301.866 407.745 301.866 408.255C301.866 408.661 301.98 409 302.22 409.276C302.47 409.557 302.772 409.807 303.137 410.026C303.512 410.25 303.908 410.464 304.324 410.672C304.741 410.87 305.126 411.104 305.491 411.38C305.866 411.646 306.178 411.964 306.428 412.339C306.678 412.703 306.803 413.151 306.803 413.693C306.803 414.141 306.72 414.547 306.553 414.922C306.387 415.286 306.147 415.599 305.845 415.859C305.538 416.125 305.158 416.328 304.699 416.464C304.251 416.599 303.746 416.672 303.178 416.672C302.553 416.672 301.991 416.594 301.491 416.443C301.001 416.292 300.658 416.13 300.449 415.964C300.449 415.797 300.46 415.599 300.491 415.359C300.517 415.109 300.543 414.859 300.574 414.609C300.616 414.359 300.658 414.12 300.699 413.88C300.741 413.646 300.772 413.438 300.803 413.255H301.199L301.803 415.464Z" fill="#197FAB"/>
</g>
<defs>
<clipPath id="clip0_282_911">
<rect width="500" height="500" fill="white"/>
</clipPath>
</defs>
</svg>
