<svg width="224" height="55" viewBox="0 0 224 55" fill="none" xmlns="http://www.w3.org/2000/svg">
<g clip-path="url(#clip0_314_2321)">
<g clip-path="url(#clip1_314_2321)">
<mask id="mask0_314_2321" style="mask-type:luminance" maskUnits="userSpaceOnUse" x="7" y="7" width="57" height="46">
<path d="M7.90234 7.11719H63.8504V52.8309H7.90234V7.11719Z" fill="white"/>
</mask>
<g mask="url(#mask0_314_2321)">
<path d="M63.6514 23.8495L58.5608 21.5683C57.1916 24.762 56.0674 28.0958 54.7332 31.3258C53.8553 33.5008 52.8725 35.607 51.7146 37.607C51.5032 37.9583 51.2932 38.3445 51.0818 38.6608C51.0118 38.8008 50.9068 38.9408 50.8017 39.0808L50.7667 39.152C50.4503 39.6083 50.169 40.0645 49.8539 40.4858C49.7838 40.4145 49.7126 40.3795 49.6425 40.3095C49.7126 40.3795 49.7838 40.4145 49.8189 40.4858C49.8189 40.4858 49.7838 40.5208 49.7838 40.5558C48.9761 41.6083 48.1332 42.6258 47.1854 43.5733C47.1504 43.6083 47.1154 43.6433 47.0804 43.6783C46.2025 44.5908 45.2547 45.4333 44.2718 46.2058C41.9535 48.0308 39.3913 49.5395 36.6878 50.6283C35.7399 51.0145 34.7571 51.3645 33.7742 51.6458C32.2637 52.067 30.6843 52.3833 29.1388 52.5583C27.2081 52.7683 25.2073 52.8033 23.2416 52.5583C22.1174 52.4183 21.0295 52.207 19.9054 51.927C19.9054 51.927 19.9054 51.927 19.8704 51.927C19.3089 51.7858 18.7124 51.6108 18.151 51.3995C17.3082 51.1195 16.5004 50.8033 15.6926 50.417C14.9198 50.0658 14.1833 49.6458 13.4455 49.2245C12.849 48.8383 12.2526 48.487 11.6899 48.0658C10.9183 47.3645 10.1806 46.592 9.51407 45.7495C9.05765 45.1533 8.60124 44.5208 8.21484 43.8545C8.60124 44.2408 9.02264 44.627 9.44404 44.942C9.93548 45.2933 10.4619 45.6445 10.9884 45.9595C12.4627 46.802 14.0432 47.4345 15.6926 47.8558C16.079 47.9608 16.4654 48.0308 16.8518 48.1358C18.9575 48.557 21.1346 48.662 23.2766 48.522C24.2595 48.452 25.2073 48.347 26.1902 48.1708C28.2622 47.7845 30.333 47.1883 32.2987 46.3458C32.7901 46.1358 33.2465 45.9245 33.7392 45.7145C34.7221 45.2233 35.7399 44.697 36.6528 44.0995C39.6014 42.2745 42.1998 39.9933 44.2356 37.292C44.5519 36.9058 44.7983 36.5195 45.0784 36.0983C45.1134 36.0633 45.1484 36.0283 45.1847 35.9583C45.6048 35.3958 45.9912 34.8345 46.3426 34.2733C46.5889 33.922 46.764 33.5708 46.9741 33.2208C47.0453 33.1145 47.0804 33.0445 47.1504 32.9395C49.6075 28.6233 51.1881 23.8145 53.0488 19.147L48.5196 17.1108C48.5546 17.0758 61.5094 7.14453 61.5094 7.14453L63.6514 23.8495Z" fill="#0056A2"/>
</g>
<mask id="mask1_314_2321" style="mask-type:luminance" maskUnits="userSpaceOnUse" x="5" y="16" width="39" height="29">
<path d="M5.02734 16.7188H43.7541V44.5588H5.02734V16.7188Z" fill="white"/>
</mask>
<g mask="url(#mask1_314_2321)">
<path d="M43.6719 32.3463C43.5319 32.2413 43.3918 32.1001 43.2855 31.9601C42.444 31.1176 41.5661 30.3101 40.6883 29.5388L40.6533 29.5038C40.3019 29.1876 39.9155 28.8713 39.5291 28.5551C39.4591 28.5201 39.4241 28.4501 39.3541 28.4151C38.4763 27.6788 37.5984 27.0113 36.6506 26.3451C36.6156 26.3451 36.6156 26.3101 36.5806 26.3101C35 25.1863 33.2806 24.2038 31.56 23.4663C31.4549 23.4313 31.3136 23.3613 31.2086 23.3263C31.2086 23.3263 31.1736 23.3263 31.1736 23.2913C25.8016 21.0451 19.9732 20.7638 15.6904 24.3088C15.164 24.7651 14.6725 25.2563 14.2161 25.7826C12.3554 27.9588 11.2313 30.6963 10.5998 33.4688C9.9683 36.3113 9.47687 39.8563 10.1784 42.7338C10.1784 42.7688 10.3547 43.1901 10.4947 43.6113C10.6348 44.0326 10.7048 44.4538 10.4247 44.3138L10.2834 44.2088C9.827 43.8576 9.37058 43.4713 8.94918 43.0501C7.6512 41.7163 6.59707 40.0676 6.0006 38.4176C6.0006 38.4176 6.0006 38.4176 6.0006 38.3826C5.89556 38.1013 5.82553 37.8213 5.75426 37.5401C5.43914 36.4176 5.29784 35.2588 5.29784 34.0651C5.05275 29.1176 6.66709 24.4851 9.5469 21.2913C10.0733 20.6588 10.5998 20.0976 11.2313 19.5713C12.7418 18.3426 14.4262 17.5351 16.2168 17.1851H16.2519C16.3231 17.1501 16.3932 17.1501 16.4982 17.1138C18.9553 16.5526 21.3787 16.7288 23.6958 17.5001C23.7309 17.5001 23.7659 17.5351 23.8009 17.5351C26.7144 18.3076 29.593 19.7463 32.1915 21.5713C33.807 22.6951 35.3164 23.9226 36.7906 25.2563C39.1077 27.3276 41.2848 29.6088 43.4268 31.9601C43.4268 32.1001 43.5669 32.2413 43.6719 32.3463Z" fill="#0056A2"/>
</g>
<path d="M23.2403 31.5391V46.8053C22.6426 46.8403 22.0461 46.8753 21.4496 46.8753C19.9741 46.8753 18.5348 46.7353 17.1305 46.4553C16.6391 46.3491 16.1477 46.2441 15.6562 46.1041V33.2591C17.9383 33.1541 20.4668 32.6616 23.2403 31.5391Z" fill="#46B9EA"/>
<path d="M33.7364 25.0469V43.7881C33.0336 44.1381 32.3671 44.4544 31.6294 44.7706L31.418 44.8406C29.6986 45.5431 27.943 46.0694 26.1523 46.4194V30.1706C28.2244 29.0831 30.4002 27.6794 32.6822 25.8544C33.0336 25.6081 33.385 25.3269 33.7364 25.0469Z" fill="#46B9EA"/>
<path d="M50.9048 19.9584L47.1484 18.2734V29.2584C48.2713 26.9072 49.1842 24.4147 50.167 21.8534C50.4134 21.2209 50.6585 20.5897 50.9048 19.9584Z" fill="#46B9EA"/>
<mask id="mask2_314_2321" style="mask-type:luminance" maskUnits="userSpaceOnUse" x="46" y="0" width="9" height="17">
<path d="M46.957 0.511719H54.96V16.078H46.957V0.511719Z" fill="white"/>
</mask>
<g mask="url(#mask2_314_2321)">
<path d="M54.7312 0.511719V10.9005C52.8005 12.1992 50.8348 13.463 49.4655 14.3755C48.6577 14.9017 47.6399 15.603 47.4636 15.7442L47.1484 15.9892V10.9705C49.5706 7.88172 52.099 4.40797 54.7312 0.511719Z" fill="#46B9EA"/>
</g>
<path d="M54.731 35.4336C54.1695 36.5573 53.608 37.6798 52.9766 38.7686C53.573 39.2598 54.1695 39.7511 54.731 40.2073V35.4336Z" fill="#46B9EA"/>
<path d="M50.1322 42.8736L50.0972 42.8386C49.5357 43.5398 48.9042 44.2073 48.2715 44.8386C47.9201 45.1898 47.535 45.5411 47.1836 45.8911V52.5248H54.7664V45.1898C53.4334 44.0661 52.1692 42.8736 51.01 41.7148L50.1322 42.8736Z" fill="#46B9EA"/>
<path d="M44.2351 14.5195V30.4883C44.2001 30.4533 44.1651 30.4183 44.1301 30.347C42.4457 28.522 40.6551 26.662 38.7944 24.9433C38.0916 24.2758 37.3901 23.6445 36.6523 23.012V22.4858C39.0745 20.2745 41.6029 17.6433 44.2351 14.5195Z" fill="#46B9EA"/>
<path d="M36.6523 28.4141V42.0666C39.4959 40.1716 41.883 37.8203 43.6737 35.1528C43.7087 35.0828 43.7437 35.0128 43.815 34.9766L43.885 34.9066L42.5157 33.5728C40.4437 31.5028 38.513 29.8178 36.6523 28.4141Z" fill="#46B9EA"/>
<mask id="mask3_314_2321" style="mask-type:luminance" maskUnits="userSpaceOnUse" x="36" y="48" width="9" height="5">
<path d="M36.3906 48.0781H44.3936V52.8319H36.3906V48.0781Z" fill="white"/>
</mask>
<g mask="url(#mask3_314_2321)">
<path d="M36.6484 52.5588H44.2312V48.3125C41.8791 50.0313 39.3169 51.4 36.6484 52.4188V52.5588Z" fill="#46B9EA"/>
</g>
<mask id="mask4_314_2321" style="mask-type:luminance" maskUnits="userSpaceOnUse" x="17" y="6" width="47" height="47">
<path d="M17.8242 6.80078H63.8486V52.8345H17.8242V6.80078Z" fill="white"/>
</mask>
<g mask="url(#mask4_314_2321)">
<mask id="mask5_314_2321" style="mask-type:luminance" maskUnits="userSpaceOnUse" x="-25" y="-22" width="121" height="120">
<path d="M95.294 -22H-24.75V98H95.294V-22Z" fill="black" fill-opacity="0.2"/>
</mask>
<g mask="url(#mask5_314_2321)">
<mask id="mask6_314_2321" style="mask-type:luminance" maskUnits="userSpaceOnUse" x="17" y="6" width="47" height="47">
<path d="M63.9211 6.80078H17.8242V52.8808H63.9211V6.80078Z" fill="white"/>
</mask>
<g mask="url(#mask6_314_2321)">
<mask id="mask7_314_2321" style="mask-type:luminance" maskUnits="userSpaceOnUse" x="18" y="6" width="46" height="47">
<path d="M18.1445 6.95703H63.8488V52.837H18.1445V6.95703Z" fill="white"/>
</mask>
<g mask="url(#mask7_314_2321)">
<path d="M63.6489 23.8531L58.5583 21.5719C57.189 24.7656 56.0648 28.0994 54.7306 31.3294C53.8528 33.5044 52.8699 35.6106 51.712 37.6106C51.5007 37.9619 51.2906 38.3481 51.0793 38.6644C51.0092 38.8044 50.9042 38.9444 50.7992 39.0844L50.7642 39.1556C50.4478 39.6119 50.1664 40.0681 49.8513 40.4894C49.7813 40.4181 49.71 40.3831 49.64 40.3131C49.71 40.3831 49.7813 40.4181 49.8163 40.4894C49.8163 40.4894 49.7813 40.5244 49.7813 40.5594C48.9735 41.6119 48.1307 42.6294 47.1828 43.5769C47.1478 43.6119 47.1128 43.6469 47.0778 43.6819C46.2 44.5944 45.2521 45.4369 44.2693 46.2094C41.9509 48.0344 39.3887 49.5431 36.6852 50.6319C35.7374 51.0181 34.7545 51.3681 33.7717 51.6494C32.2611 52.0706 30.6818 52.3869 29.1362 52.5619C27.2055 52.7719 25.2048 52.8069 23.2391 52.5619C22.1149 52.4219 21.027 52.2106 19.9028 51.9306C19.9028 51.9306 19.9028 51.9306 19.8678 51.9306C19.3064 51.7894 18.7099 51.6144 18.1484 51.4031C47.0065 55.4744 55.4334 26.0994 57.0477 18.9756C57.224 18.1681 58.0668 17.7119 58.8734 17.9919L60.8754 18.7294L61.3668 7.95437L61.5068 7.07812L63.6489 23.8531Z" fill="#004AAD"/>
</g>
</g>
</g>
</g>
<mask id="mask8_314_2321" style="mask-type:luminance" maskUnits="userSpaceOnUse" x="-25" y="-22" width="121" height="120">
<path d="M95.294 -22H-24.75V98H95.294V-22Z" fill="black" fill-opacity="0.2"/>
</mask>
<g mask="url(#mask8_314_2321)">
<mask id="mask9_314_2321" style="mask-type:luminance" maskUnits="userSpaceOnUse" x="6" y="19" width="26" height="26">
<path d="M31.5903 19.918H6.62109V44.878H31.5903V19.918Z" fill="white"/>
</mask>
<g mask="url(#mask9_314_2321)">
<path d="M31.1415 23.289C25.7695 21.0427 19.9411 20.7615 15.6583 24.3065C15.1318 24.7627 14.6404 25.254 14.184 25.7802C12.3233 27.9565 11.1992 30.694 10.5677 33.4665C9.93619 36.309 9.44476 39.854 10.1463 42.7315C10.1463 42.7665 10.3213 43.1877 10.4626 43.609C10.6027 44.0302 10.6727 44.4515 10.3926 44.3115L10.2513 44.2065C5.30074 38.2752 6.07352 28.4127 11.8669 23.289C17.2389 18.4802 24.9267 20.2352 31.1415 23.289Z" fill="#004AAD"/>
</g>
</g>
<mask id="mask10_314_2321" style="mask-type:luminance" maskUnits="userSpaceOnUse" x="-25" y="-22" width="121" height="120">
<path d="M95.294 -22H-24.75V98H95.294V-22Z" fill="black" fill-opacity="0.2"/>
</mask>
<g mask="url(#mask10_314_2321)">
<mask id="mask11_314_2321" style="mask-type:luminance" maskUnits="userSpaceOnUse" x="15" y="31" width="9" height="10">
<path d="M23.2686 31.4414H15.2656V40.0814H23.2686V31.4414Z" fill="white"/>
</mask>
<g mask="url(#mask11_314_2321)">
<mask id="mask12_314_2321" style="mask-type:luminance" maskUnits="userSpaceOnUse" x="15" y="31" width="9" height="9">
<path d="M15.5859 31.5312H23.2688V39.9788H15.5859V31.5312Z" fill="white"/>
</mask>
<g mask="url(#mask12_314_2321)">
<path d="M15.6562 33.2591C17.9383 33.1891 20.4668 32.6616 23.2403 31.5391V36.4178C20.8869 37.6803 18.3597 38.8741 15.6562 39.9616V33.2591Z" fill="#004AAD"/>
</g>
</g>
</g>
<mask id="mask13_314_2321" style="mask-type:luminance" maskUnits="userSpaceOnUse" x="-25" y="-22" width="121" height="120">
<path d="M95.294 -22H-24.75V98H95.294V-22Z" fill="black" fill-opacity="0.2"/>
</mask>
<g mask="url(#mask13_314_2321)">
<mask id="mask14_314_2321" style="mask-type:luminance" maskUnits="userSpaceOnUse" x="25" y="24" width="9" height="12">
<path d="M33.8311 24.7188H25.8281V35.2787H33.8311V24.7188Z" fill="white"/>
</mask>
<g mask="url(#mask14_314_2321)">
<mask id="mask15_314_2321" style="mask-type:luminance" maskUnits="userSpaceOnUse" x="26" y="25" width="8" height="10">
<path d="M26.0352 25.0391H33.7943V34.9591H26.0352V25.0391Z" fill="white"/>
</mask>
<g mask="url(#mask15_314_2321)">
<path d="M32.686 25.8544C33.0374 25.5731 33.3888 25.3269 33.7039 25.0469V29.4331C31.4218 31.2931 28.8946 33.0831 26.1211 34.7331V30.1706C28.2281 29.0831 30.4039 27.6794 32.686 25.8544Z" fill="#004AAD"/>
</g>
</g>
</g>
<mask id="mask16_314_2321" style="mask-type:luminance" maskUnits="userSpaceOnUse" x="-25" y="-22" width="121" height="120">
<path d="M95.294 -22H-24.75V98H95.294V-22Z" fill="black" fill-opacity="0.2"/>
</mask>
<g mask="url(#mask16_314_2321)">
<mask id="mask17_314_2321" style="mask-type:luminance" maskUnits="userSpaceOnUse" x="36" y="14" width="9" height="12">
<path d="M44.3975 14.1602H36.3945V25.3602H44.3975V14.1602Z" fill="white"/>
</mask>
<g mask="url(#mask17_314_2321)">
<mask id="mask18_314_2321" style="mask-type:luminance" maskUnits="userSpaceOnUse" x="36" y="14" width="9" height="12">
<path d="M36.5625 14.4805H44.3228V25.0405H36.5625V14.4805Z" fill="white"/>
</mask>
<g mask="url(#mask18_314_2321)">
<path d="M44.239 14.5195V18.9408C42.6247 20.907 40.834 22.942 38.7983 24.9433C38.0955 24.2758 37.394 23.6445 36.6562 23.012V22.4858C39.0784 20.2745 41.6068 17.6433 44.239 14.5195Z" fill="#004AAD"/>
</g>
</g>
</g>
<mask id="mask19_314_2321" style="mask-type:luminance" maskUnits="userSpaceOnUse" x="46" y="0" width="9" height="16">
<path d="M46.957 0.511719H54.96V15.118H46.957V0.511719Z" fill="white"/>
</mask>
<g mask="url(#mask19_314_2321)">
<mask id="mask20_314_2321" style="mask-type:luminance" maskUnits="userSpaceOnUse" x="-25" y="-22" width="121" height="120">
<path d="M95.294 -22H-24.75V98H95.294V-22Z" fill="black" fill-opacity="0.2"/>
</mask>
<g mask="url(#mask20_314_2321)">
<mask id="mask21_314_2321" style="mask-type:luminance" maskUnits="userSpaceOnUse" x="46" y="0" width="9" height="16">
<path d="M54.96 0.398438H46.957V15.1184H54.96V0.398438Z" fill="white"/>
</mask>
<g mask="url(#mask21_314_2321)">
<mask id="mask22_314_2321" style="mask-type:luminance" maskUnits="userSpaceOnUse" x="47" y="0" width="8" height="16">
<path d="M47.0859 0.511719H54.8463V15.093H47.0859V0.511719Z" fill="white"/>
</mask>
<g mask="url(#mask22_314_2321)">
<path d="M54.7353 0.546875C54.6302 0.933125 52.5945 7.25063 47.1875 15.0419V10.9706C49.5746 7.88188 52.1031 4.40813 54.7353 0.546875Z" fill="#004AAD"/>
</g>
</g>
</g>
</g>
<path d="M95.2762 19.1278C95.2762 19.9611 95.0634 20.7368 94.6377 21.4505C94.212 22.1597 93.6223 22.7138 92.8729 23.1083C91.8552 23.6757 90.3941 23.9594 88.4918 23.9594C87.9886 23.9594 87.4121 23.9372 86.7625 23.8884V28.4452C86.7625 29.3627 86.9066 29.9589 87.197 30.236C87.4919 30.5152 88.1305 30.6681 89.1126 30.6969V31.1757H82.0977V30.6969C83.0488 30.6149 83.6363 30.4376 83.8625 30.165C84.0864 29.888 84.1995 29.2231 84.1995 28.1704V17.3282C84.1995 16.4239 84.0798 15.8477 83.8448 15.5994C83.6142 15.3468 83.0311 15.1717 82.0977 15.0764V14.5977H88.7136C89.9019 14.5977 90.995 14.7617 91.9949 15.0852C92.9993 15.411 93.7509 15.8477 94.2475 16.3973C94.9326 17.1375 95.2762 18.0462 95.2762 19.1278ZM92.5448 19.2785C92.5448 17.9975 92.1412 17.0511 91.3386 16.4416C90.5405 15.8277 89.2989 15.5196 87.6139 15.5196C87.2769 15.5196 87.0485 15.5795 86.931 15.6969C86.8179 15.8166 86.7625 16.0405 86.7625 16.3707V22.8867C87.3478 22.9354 87.8223 22.9576 88.1903 22.9576C91.0925 22.9576 92.5448 21.732 92.5448 19.2785Z" fill="#0056A2"/>
<path d="M113.252 31.1757H106.29V30.6969C107.259 30.6327 107.869 30.4576 108.117 30.1739C108.365 29.8902 108.489 29.2231 108.489 28.1704V23.2856H100.898V28.4452C100.898 29.3317 101.031 29.9079 101.297 30.1739C101.568 30.4399 102.171 30.6149 103.106 30.6969V31.1757H96.1445V30.6969C97.1134 30.6327 97.7231 30.4576 97.9714 30.1739C98.2198 29.8902 98.3439 29.2231 98.3439 28.1704V17.3282C98.3439 16.4239 98.2198 15.8454 97.9714 15.5906C97.7231 15.3313 97.1134 15.1606 96.1445 15.0764V14.5977H103.106V15.0764C102.135 15.1606 101.523 15.3313 101.271 15.5906C101.022 15.8454 100.898 16.4239 100.898 17.3282V22.1863H108.489V17.3282C108.489 16.4239 108.365 15.8454 108.117 15.5906C107.869 15.3313 107.259 15.1606 106.29 15.0764V14.5977H113.252V15.0764C112.281 15.1606 111.673 15.3313 111.425 15.5906C111.177 15.8454 111.052 16.4239 111.052 17.3282V28.4452C111.052 29.3317 111.186 29.9079 111.452 30.1739C111.718 30.4399 112.316 30.6149 113.252 30.6969V31.1757Z" fill="#0056A2"/>
<path d="M130.412 22.913C130.412 25.4374 129.636 27.4941 128.089 29.0832C126.546 30.6679 124.537 31.4591 122.067 31.4591C120.961 31.4591 119.886 31.2286 118.839 30.7676C117.797 30.3066 116.91 29.6838 116.178 28.8971C115.509 28.1834 114.983 27.288 114.6 26.2109C114.214 25.136 114.023 24.0034 114.023 22.8155C114.023 20.2933 114.791 18.2211 116.329 16.601C117.866 14.983 119.828 14.1719 122.218 14.1719C124.67 14.1719 126.699 15.0495 128.302 16.8049C129.707 18.343 130.412 20.3775 130.412 22.913ZM127.557 22.8864C127.557 19.8013 126.843 17.616 125.419 16.3261C124.484 15.4928 123.417 15.0761 122.218 15.0761C120.817 15.0761 119.622 15.6213 118.635 16.7073C118.096 17.2924 117.668 18.1502 117.349 19.2783C117.034 20.4019 116.879 21.5987 116.879 22.8687C116.879 24.2517 117.07 25.5327 117.456 26.7073C117.839 27.8842 118.356 28.7552 119.008 29.3226C119.93 30.1448 120.981 30.5549 122.165 30.5549C123.499 30.5549 124.612 30.1116 125.499 29.2251C126.102 28.64 126.51 28.0327 126.723 27.3988C127.277 25.9627 127.557 24.46 127.557 22.8864Z" fill="#0056A2"/>
<path d="M145.906 18.853H145.303C145.019 17.47 144.637 16.5923 144.159 16.22C143.684 15.8432 142.74 15.6526 141.321 15.6526H139.973V28.4452C139.973 29.3627 140.114 29.9567 140.398 30.2271C140.682 30.493 141.341 30.6504 142.376 30.6969V31.1757H135.059V30.6969C136.093 30.6327 136.744 30.4642 137.011 30.1916C137.281 29.9146 137.418 29.2408 137.418 28.1704V15.6526H136.062C134.66 15.6526 133.72 15.8454 133.241 16.2289C132.767 16.6079 132.381 17.4833 132.08 18.853H131.477L131.627 14.5977H145.755L145.906 18.853Z" fill="#0056A2"/>
<path d="M164.112 31.0513H157.727V30.5726C158.412 30.5726 158.88 30.4994 159.128 30.351C159.363 30.2335 159.483 30.0318 159.483 29.7481C159.483 29.347 159.323 28.7796 159.004 28.046L157.975 25.6435H151.412L150.259 28.569C150.129 28.9236 150.064 29.2517 150.064 29.5531C150.064 30.2335 150.632 30.5726 151.767 30.5726V31.0513H146.801V30.5726C147.404 30.5438 147.869 30.3066 148.202 29.8634C148.539 29.4201 149.109 28.2898 149.914 26.468L155.119 14.1719H155.625L161.859 28.4006C162.296 29.3359 162.64 29.9232 162.888 30.1648C163.137 30.4086 163.545 30.5438 164.112 30.5726V31.0513ZM157.629 24.6151L154.72 17.7268L151.838 24.6151H157.629Z" fill="#0056A2"/>
<path d="M188.332 15.0764C187.663 15.2071 187.208 15.3734 186.966 15.5728C186.722 15.7745 186.483 16.2001 186.248 16.8494L181.14 31.4505H180.767L176.759 20.8565L172.901 31.4505H172.52L167.686 18.0019C167.218 16.814 166.828 16.0471 166.516 15.6969C166.207 15.349 165.737 15.1429 165.105 15.0764V14.5977H171.242V15.0764C170.608 15.1074 170.18 15.1783 169.957 15.2891C169.73 15.3955 169.62 15.5906 169.62 15.8743C169.62 16.1757 169.71 16.5613 169.894 17.0267L173.495 26.4416L176.182 19.376L175.357 17.3282C174.918 16.3242 174.568 15.7014 174.302 15.4576C174.036 15.216 173.542 15.0897 172.821 15.0764V14.5977H179.508V15.0764C178.224 15.0897 177.583 15.3778 177.583 15.9452C177.583 16.2178 177.708 16.6433 177.956 17.2218L178.257 17.9753L181.565 26.5214L184.696 18.0285C184.962 17.2794 185.095 16.6522 185.095 16.1491C185.095 15.8188 184.964 15.5728 184.705 15.4133C184.45 15.2537 184.006 15.1429 183.375 15.0764V14.5977H188.332V15.0764Z" fill="#0056A2"/>
<path d="M206.78 15.0764C205.982 15.1606 205.432 15.3069 205.13 15.5196C204.645 15.8565 204.403 16.7763 204.403 18.2767V31.4505H203.978L192.901 17.6739V27.4966C192.901 28.7621 193.052 29.6021 193.353 30.0143C193.655 30.4221 194.289 30.6504 195.26 30.6969V31.1757H189.371V30.6969C190.404 30.6327 191.067 30.4044 191.358 30.0143C191.653 29.6198 191.801 28.7798 191.801 27.4966V16.4505C191.298 15.8654 190.899 15.4908 190.604 15.3246C190.313 15.1606 189.903 15.0764 189.371 15.0764V14.5977H193.655L203.304 26.7165V18.2767C203.304 16.7408 203.06 15.8078 202.576 15.4753C202.222 15.2758 201.658 15.1429 200.891 15.0764V14.5977H206.78V15.0764Z" fill="#0056A2"/>
<mask id="mask23_314_2321" style="mask-type:luminance" maskUnits="userSpaceOnUse" x="95" y="35" width="45" height="2">
<path d="M95.3516 35.5312H139.982V36.666H95.3516V35.5312Z" fill="white"/>
</mask>
<g mask="url(#mask23_314_2321)">
<path d="M95.3516 35.9453H139.466V36.1492H95.3516V35.9453Z" fill="#0056A2"/>
</g>
<mask id="mask24_314_2321" style="mask-type:luminance" maskUnits="userSpaceOnUse" x="149" y="35" width="45" height="2">
<path d="M149.066 35.5312H193.263V36.666H149.066V35.5312Z" fill="white"/>
</mask>
<g mask="url(#mask24_314_2321)">
<path d="M149.152 35.9453H193.264V36.1492H149.152V35.9453Z" fill="#0056A2"/>
</g>
<mask id="mask25_314_2321" style="mask-type:luminance" maskUnits="userSpaceOnUse" x="143" y="35" width="3" height="2">
<path d="M143.391 35.1992H145.661V36.9013H143.391V35.1992Z" fill="white"/>
</mask>
<g mask="url(#mask25_314_2321)">
<path d="M145.154 36.0487C145.154 36.0864 145.154 36.1218 145.147 36.1507C145.096 36.5673 144.744 36.8865 144.311 36.8865C143.879 36.8865 143.526 36.5673 143.475 36.1507C143.469 36.1152 143.469 36.0864 143.469 36.0487C143.469 36.0132 143.469 35.9756 143.475 35.9468C143.52 35.5323 143.872 35.2109 144.305 35.2109C144.737 35.2109 145.087 35.5323 145.14 35.9468C145.147 35.9844 145.154 36.0199 145.154 36.0487Z" fill="#0056A2"/>
</g>
<path d="M106.324 39.8086H108.062V39.9948C107.96 40.0302 107.858 40.0635 107.752 40.0923C107.65 40.1167 107.55 40.1344 107.451 40.1455V43.9221H108.914L109.286 42.8937H109.455C109.466 42.989 109.475 43.0954 109.481 43.2128C109.492 43.3259 109.501 43.4433 109.508 43.5675C109.519 43.6916 109.526 43.8135 109.526 43.9309C109.526 44.0506 109.521 44.157 109.517 44.2501H106.324V44.0639C106.424 44.0174 106.515 43.9841 106.599 43.9664C106.688 43.9442 106.768 43.9265 106.839 43.9132V40.1455C106.743 40.1344 106.652 40.1144 106.564 40.0834C106.475 40.0546 106.395 40.0258 106.324 39.9948V39.8086Z" fill="#197FAB"/>
<path d="M113.077 44.2501H111.445V44.0639C111.609 43.9886 111.782 43.9376 111.96 43.9132V40.1455C111.871 40.1344 111.785 40.1144 111.702 40.0834C111.618 40.0546 111.534 40.0258 111.445 39.9948V39.8086H113.077V39.9948C113 40.0258 112.917 40.0546 112.829 40.0834C112.74 40.1144 112.651 40.1344 112.563 40.1455V43.9132C112.651 43.9309 112.74 43.9553 112.829 43.9841C112.917 44.0085 113 44.0351 113.077 44.0639V44.2501Z" fill="#197FAB"/>
<path d="M118.768 43.9464C118.684 43.9952 118.591 44.0417 118.484 44.0883C118.378 44.1304 118.262 44.1681 118.138 44.2035C118.019 44.239 117.899 44.2678 117.775 44.2922C117.655 44.3143 117.544 44.3276 117.438 44.3276C117.101 44.3276 116.795 44.2833 116.524 44.1946C116.252 44.1016 116.021 43.9597 115.832 43.7691C115.642 43.5807 115.495 43.3436 115.389 43.0599C115.287 42.7718 115.238 42.426 115.238 42.0227C115.238 41.6104 115.296 41.258 115.416 40.9677C115.54 40.6729 115.702 40.4336 115.903 40.2496C116.103 40.0679 116.331 39.9349 116.586 39.8507C116.839 39.7687 117.103 39.7266 117.376 39.7266C117.653 39.7266 117.886 39.7443 118.076 39.7798C118.271 39.8152 118.44 39.8728 118.582 39.9482C118.582 40.008 118.577 40.0856 118.573 40.1787C118.573 40.274 118.566 40.3715 118.555 40.4712C118.548 40.5732 118.54 40.6729 118.528 40.7727C118.515 40.8746 118.504 40.9633 118.493 41.0386H118.325L117.996 40.1255C117.948 40.0967 117.868 40.079 117.757 40.0723C117.651 40.0612 117.544 40.0546 117.438 40.0546C117.225 40.0546 117.021 40.0967 116.826 40.1787C116.635 40.2563 116.471 40.3782 116.329 40.5422C116.187 40.7017 116.074 40.9056 115.992 41.1539C115.908 41.4021 115.868 41.6924 115.868 42.0227C115.868 42.3241 115.908 42.5967 115.992 42.8383C116.074 43.0821 116.187 43.2882 116.329 43.4588C116.475 43.6317 116.648 43.7647 116.843 43.8578C117.043 43.9464 117.256 43.9907 117.482 43.9907C117.571 43.9907 117.653 43.9863 117.73 43.973C117.812 43.9553 117.886 43.9353 117.952 43.911C118.023 43.8888 118.078 43.8644 118.121 43.84C118.167 43.8112 118.2 43.7868 118.218 43.7691V42.4925C118.105 42.4814 117.999 42.4615 117.899 42.4305C117.797 42.4017 117.699 42.3684 117.606 42.3329V42.1556H119.158V42.3329C119.116 42.364 119.065 42.3928 119.007 42.4216C118.948 42.446 118.868 42.4704 118.768 42.4925V43.9464Z" fill="#197FAB"/>
<path d="M122.582 44.2501H120.977V44.0639C121.141 43.9996 121.314 43.9487 121.491 43.9132V40.1455C121.296 40.1167 121.123 40.0657 120.977 39.9948V39.8086H122.582V39.9948C122.511 40.0302 122.433 40.0635 122.351 40.0923C122.274 40.1167 122.192 40.1344 122.103 40.1455V41.8033H124.098V40.1455C124.01 40.1277 123.925 40.1078 123.85 40.0834C123.772 40.0546 123.695 40.0258 123.619 39.9948V39.8086H125.225V39.9948C125.154 40.0369 125.069 40.0701 124.976 40.0923C124.888 40.1167 124.799 40.1344 124.71 40.1455V43.9132C124.803 43.9309 124.896 43.9553 124.985 43.9841C125.074 44.0085 125.154 44.0351 125.225 44.0639V44.2501H123.619V44.0639C123.772 43.9996 123.932 43.9487 124.098 43.9132V42.1402H122.103V43.9132C122.192 43.9309 122.274 43.9553 122.351 43.9841C122.433 44.0085 122.511 44.0351 122.582 44.0639V44.2501Z" fill="#197FAB"/>
<path d="M129.79 44.2501H128.008V44.0639C128.101 44.0351 128.196 44.0085 128.291 43.9841C128.384 43.9553 128.489 43.9309 128.602 43.9132V40.1366H127.626L127.289 41.0409H127.13C127.116 40.9589 127.105 40.8636 127.094 40.7572C127.087 40.6508 127.081 40.5422 127.076 40.4292C127.07 40.3183 127.063 40.2075 127.059 40.1011C127.059 39.9903 127.059 39.8928 127.059 39.8086H130.748C130.748 39.8928 130.743 39.9859 130.739 40.0923C130.732 40.1987 130.726 40.3095 130.721 40.4203C130.715 40.5333 130.708 40.6419 130.704 40.7483C130.697 40.8547 130.688 40.9522 130.677 41.0409H130.508L130.18 40.1366H129.205V43.9132C129.316 43.9376 129.42 43.962 129.515 43.9841C129.608 44.0019 129.701 44.0285 129.79 44.0639V44.2501Z" fill="#197FAB"/>
<path d="M135.577 39.8086C135.57 39.9748 135.561 40.1433 135.55 40.3139C135.543 40.4868 135.528 40.6597 135.506 40.837H135.346L135.08 40.1366H133.697V41.821H134.734L134.983 41.3511H135.142C135.164 41.7722 135.164 42.1978 135.142 42.6277H134.983L134.734 42.149H133.697V43.9221H135.16L135.47 43.1597H135.63C135.659 43.337 135.679 43.5187 135.692 43.7004C135.703 43.8777 135.705 44.0617 135.701 44.2501H132.57V44.0639C132.717 43.9996 132.89 43.9487 133.085 43.9132V40.1455C133 40.1344 132.916 40.1144 132.827 40.0834C132.739 40.0546 132.652 40.0258 132.57 39.9948V39.8086H135.577Z" fill="#197FAB"/>
<path d="M140.698 39.8086H142.064V39.9948C141.886 40.1144 141.713 40.1964 141.549 40.243V44.3299H141.186L138.88 40.8281L138.632 40.3316H138.614L138.667 40.8281V43.8423C138.844 43.891 139.006 43.9642 139.155 44.0639V44.2501H137.789V44.0639C137.864 44.0174 137.944 43.9753 138.029 43.9398C138.117 43.9043 138.208 43.8733 138.303 43.8423V40.2075C138.219 40.1721 138.137 40.1366 138.055 40.1011C137.971 40.0613 137.895 40.0214 137.825 39.9859V39.8086H138.898L140.902 42.8228L141.195 43.3636H141.212L141.186 42.8228V40.243C141.097 40.2075 141.011 40.1699 140.929 40.1277C140.844 40.0812 140.769 40.0369 140.698 39.9948V39.8086Z" fill="#197FAB"/>
<path d="M145.706 44.2501H144.074V44.0639C144.238 43.9886 144.411 43.9376 144.589 43.9132V40.1455C144.5 40.1344 144.413 40.1144 144.331 40.0834C144.247 40.0546 144.163 40.0258 144.074 39.9948V39.8086H145.706V39.9948C145.628 40.0258 145.546 40.0546 145.458 40.0834C145.369 40.1144 145.28 40.1344 145.192 40.1455V43.9132C145.28 43.9309 145.369 43.9553 145.458 43.9841C145.546 44.0085 145.628 44.0351 145.706 44.0639V44.2501Z" fill="#197FAB"/>
<path d="M150.624 39.8086H151.989V39.9948C151.812 40.1144 151.639 40.1964 151.475 40.243V44.3299H151.111L148.806 40.8281L148.557 40.3316H148.54L148.593 40.8281V43.8423C148.77 43.891 148.932 43.9642 149.081 44.0639V44.2501H147.715V44.0639C147.79 44.0174 147.87 43.9753 147.954 43.9398C148.043 43.9043 148.134 43.8733 148.229 43.8423V40.2075C148.145 40.1721 148.063 40.1366 147.981 40.1011C147.897 40.0613 147.821 40.0214 147.75 39.9859V39.8086H148.823L150.828 42.8228L151.12 43.3636H151.138L151.111 42.8228V40.243C151.023 40.2075 150.936 40.1699 150.854 40.1277C150.77 40.0812 150.695 40.0369 150.624 39.9948V39.8086Z" fill="#197FAB"/>
<path d="M157.565 43.9464C157.481 43.9952 157.387 44.0417 157.281 44.0883C157.175 44.1304 157.059 44.1681 156.935 44.2035C156.815 44.239 156.696 44.2678 156.572 44.2922C156.452 44.3143 156.341 44.3276 156.235 44.3276C155.898 44.3276 155.592 44.2833 155.321 44.1946C155.048 44.1016 154.818 43.9597 154.629 43.7691C154.439 43.5807 154.292 43.3436 154.186 43.0599C154.084 42.7718 154.035 42.426 154.035 42.0227C154.035 41.6104 154.093 41.258 154.213 40.9677C154.337 40.6729 154.499 40.4336 154.7 40.2496C154.9 40.0679 155.128 39.9349 155.383 39.8507C155.636 39.7687 155.9 39.7266 156.172 39.7266C156.45 39.7266 156.682 39.7443 156.873 39.7798C157.068 39.8152 157.237 39.8728 157.379 39.9482C157.379 40.008 157.374 40.0856 157.37 40.1787C157.37 40.274 157.363 40.3715 157.352 40.4712C157.345 40.5732 157.336 40.6729 157.325 40.7727C157.312 40.8746 157.301 40.9633 157.29 41.0386H157.121L156.793 40.1255C156.744 40.0967 156.665 40.079 156.554 40.0723C156.447 40.0612 156.341 40.0546 156.235 40.0546C156.022 40.0546 155.818 40.0967 155.623 40.1787C155.432 40.2563 155.268 40.3782 155.126 40.5422C154.984 40.7017 154.871 40.9056 154.789 41.1539C154.705 41.4021 154.665 41.6924 154.665 42.0227C154.665 42.3241 154.705 42.5967 154.789 42.8383C154.871 43.0821 154.984 43.2882 155.126 43.4588C155.272 43.6317 155.445 43.7647 155.64 43.8578C155.84 43.9464 156.053 43.9907 156.279 43.9907C156.368 43.9907 156.45 43.9863 156.527 43.973C156.609 43.9553 156.682 43.9353 156.749 43.911C156.82 43.8888 156.875 43.8644 156.917 43.84C156.964 43.8112 156.997 43.7868 157.015 43.7691V42.4925C156.902 42.4814 156.795 42.4615 156.696 42.4305C156.594 42.4017 156.496 42.3684 156.403 42.3329V42.1556H157.955V42.3329C157.913 42.364 157.862 42.3928 157.804 42.4216C157.744 42.446 157.665 42.4704 157.565 42.4925V43.9464Z" fill="#197FAB"/>
<path d="M163.904 43.9132C164.093 43.9376 164.277 43.9886 164.454 44.0639V44.2501H162.84V44.0639C162.911 44.0351 162.984 44.0085 163.062 43.9841C163.137 43.9553 163.215 43.9309 163.292 43.9132V40.1455C163.203 40.1277 163.119 40.1078 163.044 40.0834C162.966 40.0546 162.897 40.0258 162.84 39.9948V39.8086H165.82C165.813 39.9748 165.804 40.1433 165.793 40.3139C165.78 40.4868 165.766 40.6597 165.749 40.837H165.58L165.323 40.1366H163.904V41.9451H165.004L165.261 41.4753H165.412C165.416 41.5772 165.423 41.6792 165.429 41.7855C165.434 41.8919 165.438 42.0027 165.438 42.1136C165.438 42.2266 165.434 42.3396 165.429 42.4504C165.423 42.5568 165.416 42.661 165.412 42.7607H165.261L165.004 42.2731H163.904V43.9132Z" fill="#197FAB"/>
<path d="M169.039 44.2478H167.629V44.0617C167.782 43.9974 167.935 43.9464 168.09 43.911L169.695 39.7266H169.873L171.487 43.911C171.569 43.9287 171.651 43.9509 171.735 43.973C171.817 43.9907 171.895 44.0218 171.966 44.0617V44.2478H170.343V44.0617C170.425 44.0329 170.511 44.0063 170.6 43.9819C170.689 43.9531 170.773 43.9287 170.857 43.911L170.431 42.7496H168.915L168.489 43.911C168.667 43.9353 168.848 43.9863 169.039 44.0617V44.2478ZM169.039 42.4216H170.325L169.819 41.0741L169.695 40.5244H169.686L169.527 41.0829L169.039 42.4216Z" fill="#197FAB"/>
<path d="M174.436 43.8134C174.489 43.8622 174.553 43.9021 174.631 43.9376C174.713 43.973 174.835 43.9907 174.995 43.9907C175.13 43.9907 175.256 43.973 175.376 43.9376C175.493 43.9021 175.598 43.8533 175.686 43.7868C175.775 43.7159 175.841 43.6317 175.89 43.5298C175.943 43.43 175.97 43.3148 175.97 43.184C175.97 43.02 175.917 42.8804 175.81 42.7673C175.708 42.6499 175.582 42.5457 175.429 42.4571C175.274 42.3684 175.105 42.2842 174.924 42.2C174.74 42.1113 174.571 42.0116 174.418 41.8985C174.263 41.7811 174.134 41.6415 174.028 41.4819C173.926 41.3179 173.877 41.1095 173.877 40.8613C173.877 40.684 173.906 40.5289 173.966 40.3915C174.03 40.2496 174.121 40.1321 174.241 40.0368C174.358 39.9371 174.498 39.8595 174.658 39.8063C174.817 39.7532 174.997 39.7266 175.199 39.7266C175.451 39.7266 175.686 39.7487 175.899 39.7886C176.116 39.8307 176.285 39.8817 176.405 39.9393C176.405 40.0103 176.398 40.0945 176.387 40.1876C176.38 40.2829 176.369 40.3826 176.351 40.489C176.338 40.5909 176.325 40.6884 176.307 40.7815C176.289 40.8768 176.272 40.9588 176.254 41.0298H176.094L175.837 40.161C175.759 40.1255 175.662 40.0989 175.544 40.0812C175.431 40.0634 175.307 40.0546 175.172 40.0546C174.959 40.0546 174.786 40.1166 174.658 40.2407C174.527 40.3604 174.462 40.5289 174.462 40.7461C174.462 40.9189 174.511 41.063 174.613 41.1805C174.72 41.3001 174.848 41.4065 175.003 41.4996C175.163 41.5949 175.332 41.6858 175.509 41.7744C175.686 41.8587 175.85 41.9584 176.006 42.0759C176.165 42.1889 176.298 42.3241 176.405 42.4837C176.511 42.6388 176.564 42.8294 176.564 43.0599C176.564 43.2505 176.529 43.4234 176.458 43.5829C176.387 43.7381 176.285 43.8711 176.156 43.9819C176.026 44.0949 175.864 44.1813 175.669 44.239C175.478 44.2966 175.263 44.3276 175.021 44.3276C174.755 44.3276 174.516 44.2944 174.303 44.2301C174.094 44.1658 173.948 44.0971 173.859 44.0262C173.859 43.9553 173.864 43.8711 173.877 43.7691C173.888 43.6627 173.899 43.5563 173.913 43.45C173.93 43.3436 173.948 43.2416 173.966 43.1397C173.984 43.0399 173.997 42.9513 174.01 42.8737H174.179L174.436 43.8134Z" fill="#197FAB"/>
<path d="M181.267 44.2501H179.484V44.0639C179.577 44.0351 179.673 44.0085 179.768 43.9841C179.861 43.9553 179.965 43.9309 180.078 43.9132V40.1366H179.103L178.766 41.0409H178.606C178.593 40.9589 178.582 40.8636 178.571 40.7572C178.564 40.6508 178.557 40.5422 178.553 40.4292C178.546 40.3183 178.54 40.2075 178.535 40.1011C178.535 39.9903 178.535 39.8928 178.535 39.8086H182.224C182.224 39.8928 182.22 39.9859 182.216 40.0923C182.209 40.1987 182.202 40.3095 182.198 40.4203C182.191 40.5333 182.185 40.6419 182.18 40.7483C182.173 40.8547 182.165 40.9522 182.154 41.0409H181.985L181.657 40.1366H180.681V43.9132C180.792 43.9376 180.896 43.962 180.992 43.9841C181.085 44.0019 181.178 44.0285 181.267 44.0639V44.2501Z" fill="#197FAB"/>
<path d="M119.91 52.7603V52.5741C120.056 52.5099 120.229 52.4589 120.425 52.4234V48.6557C120.329 48.638 120.238 48.618 120.15 48.5936C120.061 48.5648 119.981 48.536 119.91 48.505V48.3188H120.558C120.629 48.3188 120.711 48.3166 120.806 48.31C120.906 48.3055 121.005 48.2989 121.107 48.2922C121.214 48.2878 121.314 48.2811 121.409 48.2745C121.502 48.2701 121.582 48.2656 121.648 48.2656C122.369 48.2656 122.921 48.4584 123.307 48.8419C123.697 49.2275 123.892 49.7727 123.892 50.4819C123.892 50.8188 123.841 51.1291 123.741 51.4128C123.646 51.6965 123.502 51.9425 123.307 52.1486C123.116 52.3569 122.872 52.5187 122.571 52.6362C122.274 52.7559 121.923 52.8135 121.515 52.8135C121.449 52.8135 121.376 52.8091 121.294 52.8046C121.216 52.798 121.134 52.7913 121.045 52.7869C120.957 52.7803 120.864 52.7736 120.77 52.7692C120.682 52.7625 120.597 52.7603 120.522 52.7603H119.91ZM121.56 48.5936C121.447 48.5936 121.34 48.5981 121.24 48.6025C121.138 48.6025 121.059 48.6092 121.001 48.6202V52.4678C121.019 52.4744 121.054 52.4766 121.107 52.4766C121.165 52.4766 121.227 52.4811 121.294 52.4855C121.358 52.4855 121.418 52.4855 121.471 52.4855C121.529 52.4855 121.571 52.4855 121.595 52.4855C121.89 52.4855 122.138 52.4323 122.34 52.3259C122.54 52.2151 122.706 52.0666 122.837 51.8826C122.965 51.7009 123.061 51.4881 123.121 51.2443C123.178 51.0028 123.209 50.7479 123.209 50.4819C123.209 50.2758 123.178 50.0631 123.121 49.8436C123.067 49.6198 122.974 49.4159 122.846 49.2319C122.715 49.0436 122.544 48.8906 122.331 48.7709C122.118 48.6535 121.861 48.5936 121.56 48.5936Z" fill="#197FAB"/>
<path d="M128.936 48.3164C128.929 48.4826 128.921 48.6511 128.91 48.8217C128.903 48.9946 128.887 49.1675 128.865 49.3448H128.706L128.439 48.6444H127.056V50.3288H128.094L128.342 49.859H128.502C128.524 50.2801 128.524 50.7056 128.502 51.1356H128.342L128.094 50.6568H127.056V52.4299H128.519L128.83 51.6675H128.989C129.018 51.8448 129.038 52.0265 129.051 52.2082C129.062 52.3856 129.065 52.5695 129.06 52.7579H125.93V52.5717C126.076 52.5075 126.249 52.4565 126.444 52.421V48.6533C126.36 48.6422 126.276 48.6223 126.187 48.5912C126.098 48.5624 126.012 48.5336 125.93 48.5026V48.3164H128.936Z" fill="#197FAB"/>
<path d="M131.145 48.3164H132.883V48.5026C132.781 48.538 132.679 48.5713 132.572 48.6001C132.47 48.6245 132.371 48.6422 132.271 48.6533V52.4299H133.734L134.107 51.4015H134.275C134.286 51.4968 134.295 51.6032 134.302 51.7207C134.313 51.8337 134.322 51.9512 134.328 52.0753C134.339 52.1994 134.346 52.3213 134.346 52.4387C134.346 52.5584 134.342 52.6648 134.337 52.7579H131.145V52.5717C131.244 52.5252 131.335 52.4919 131.419 52.4742C131.508 52.452 131.588 52.4343 131.659 52.421V48.6533C131.564 48.6422 131.473 48.6223 131.384 48.5912C131.295 48.5624 131.215 48.5336 131.145 48.5026V48.3164Z" fill="#197FAB"/>
<path d="M137.901 52.7579H136.27V52.5717C136.434 52.4964 136.607 52.4454 136.784 52.421V48.6533C136.695 48.6422 136.609 48.6223 136.527 48.5912C136.442 48.5624 136.358 48.5336 136.27 48.5026V48.3164H137.901V48.5026C137.824 48.5336 137.742 48.5624 137.653 48.5912C137.564 48.6223 137.476 48.6422 137.387 48.6533V52.421C137.476 52.4387 137.564 52.4631 137.653 52.4919C137.742 52.5163 137.824 52.5429 137.901 52.5717V52.7579Z" fill="#197FAB"/>
<path d="M143.181 48.6533C143.079 48.6356 142.986 48.6156 142.898 48.5912C142.809 48.5624 142.722 48.5336 142.64 48.5026V48.3164H144.068V48.5026C143.944 48.5691 143.789 48.6178 143.607 48.6533L142.17 52.7579L141.824 52.8377L140.202 48.6533C140.117 48.6356 140.035 48.6156 139.953 48.5912C139.876 48.5624 139.798 48.5336 139.723 48.5026V48.3164H141.408V48.5026C141.337 48.5336 141.252 48.5624 141.159 48.5912C141.071 48.6156 140.978 48.6356 140.884 48.6533L141.966 51.5611L142.108 52.0664H142.117L142.241 51.5434L143.181 48.6533Z" fill="#197FAB"/>
<path d="M148.78 48.3164C148.773 48.4826 148.764 48.6511 148.753 48.8217C148.747 48.9946 148.731 49.1675 148.709 49.3448H148.549L148.283 48.6444H146.9V50.3288H147.937L148.186 49.859H148.345C148.367 50.2801 148.367 50.7056 148.345 51.1356H148.186L147.937 50.6568H146.9V52.4299H148.363L148.673 51.6675H148.833C148.862 51.8448 148.882 52.0265 148.895 52.2082C148.906 52.3856 148.908 52.5695 148.904 52.7579H145.773V52.5717C145.92 52.5075 146.093 52.4565 146.288 52.421V48.6533C146.204 48.6422 146.119 48.6223 146.031 48.5912C145.942 48.5624 145.855 48.5336 145.773 48.5026V48.3164H148.78Z" fill="#197FAB"/>
<path d="M152.118 52.4234C152.218 52.4478 152.314 52.4722 152.402 52.4943C152.491 52.5187 152.575 52.5453 152.659 52.5741V52.7603H150.992V52.5741C151.085 52.5342 151.174 52.5032 151.258 52.4855C151.34 52.4633 151.422 52.4412 151.507 52.4234V48.6557C151.4 48.638 151.303 48.618 151.214 48.5936C151.13 48.5648 151.056 48.536 150.992 48.505V48.3188H151.551C151.715 48.3188 151.899 48.31 152.101 48.2922C152.3 48.2745 152.5 48.2656 152.695 48.2656C152.901 48.2656 153.094 48.29 153.271 48.3365C153.453 48.3853 153.611 48.4584 153.741 48.5582C153.87 48.6601 153.972 48.7887 154.043 48.9482C154.118 49.1034 154.158 49.2896 154.158 49.5068C154.158 49.8215 154.074 50.0786 153.91 50.278C153.75 50.4797 153.531 50.6238 153.254 50.7124C153.431 51.0028 153.619 51.2887 153.821 51.5724C154.021 51.8561 154.229 52.1375 154.442 52.4146L154.788 52.6007V52.7603H154.016L153.777 52.583C153.657 52.4367 153.549 52.2904 153.449 52.1486C153.353 52.0068 153.263 51.8649 153.174 51.7231C153.09 51.5768 153.01 51.4283 152.934 51.2798C152.863 51.1269 152.792 50.9651 152.722 50.7922H152.118V52.4234ZM152.553 48.5936C152.451 48.5936 152.369 48.5981 152.305 48.6025C152.238 48.6092 152.176 48.618 152.118 48.6291V50.5263H152.58C152.868 50.5263 153.098 50.4354 153.271 50.2514C153.442 50.0631 153.529 49.8148 153.529 49.5068C153.529 49.1943 153.435 48.9638 153.254 48.8153C153.076 48.669 152.841 48.5936 152.553 48.5936Z" fill="#197FAB"/>
<path d="M158.304 52.7579H156.672V52.5717C156.836 52.4964 157.009 52.4454 157.186 52.421V48.6533C157.098 48.6422 157.011 48.6223 156.929 48.5912C156.845 48.5624 156.761 48.5336 156.672 48.5026V48.3164H158.304V48.5026C158.226 48.5336 158.144 48.5624 158.055 48.5912C157.967 48.6223 157.878 48.6422 157.789 48.6533V52.421C157.878 52.4387 157.967 52.4631 158.055 52.4919C158.144 52.5163 158.226 52.5429 158.304 52.5717V52.7579Z" fill="#197FAB"/>
<path d="M163.319 48.3164C163.312 48.4826 163.303 48.6511 163.292 48.8217C163.286 48.9946 163.27 49.1675 163.248 49.3448H163.088L162.822 48.6444H161.439V50.3288H162.476L162.725 49.859H162.884C162.907 50.2801 162.907 50.7056 162.884 51.1356H162.725L162.476 50.6568H161.439V52.4299H162.902L163.213 51.6675H163.372C163.401 51.8448 163.421 52.0265 163.434 52.2082C163.445 52.3856 163.448 52.5695 163.443 52.7579H160.312V52.5717C160.459 52.5075 160.632 52.4565 160.827 52.421V48.6533C160.743 48.6422 160.658 48.6223 160.57 48.5912C160.481 48.5624 160.395 48.5336 160.312 48.5026V48.3164H163.319Z" fill="#197FAB"/>
<path d="M166.291 52.3252C166.345 52.3739 166.409 52.4138 166.486 52.4493C166.568 52.4847 166.69 52.5025 166.85 52.5025C166.985 52.5025 167.112 52.4847 167.231 52.4493C167.349 52.4138 167.453 52.3651 167.542 52.2986C167.63 52.2276 167.697 52.1434 167.746 52.0415C167.799 51.9417 167.826 51.8265 167.826 51.6957C167.826 51.5317 167.772 51.3921 167.666 51.2791C167.564 51.1616 167.438 51.0574 167.285 50.9688C167.129 50.8801 166.961 50.7959 166.779 50.7117C166.595 50.623 166.427 50.5233 166.274 50.4103C166.118 50.2928 165.99 50.1532 165.883 49.9936C165.781 49.8296 165.733 49.6213 165.733 49.373C165.733 49.1957 165.761 49.0406 165.821 48.9032C165.886 48.7613 165.976 48.6439 166.096 48.5486C166.214 48.4488 166.353 48.3713 166.513 48.3181C166.673 48.2649 166.852 48.2383 167.054 48.2383C167.307 48.2383 167.542 48.2604 167.755 48.3003C167.972 48.3424 168.14 48.3934 168.26 48.451C168.26 48.522 168.253 48.6062 168.242 48.6993C168.236 48.7946 168.225 48.8943 168.207 49.0007C168.194 49.1026 168.18 49.2002 168.163 49.2932C168.145 49.3885 168.127 49.4706 168.109 49.5415H167.95L167.693 48.6727C167.615 48.6372 167.517 48.6106 167.4 48.5929C167.287 48.5752 167.163 48.5663 167.027 48.5663C166.815 48.5663 166.642 48.6284 166.513 48.7525C166.382 48.8721 166.318 49.0406 166.318 49.2578C166.318 49.4307 166.367 49.5747 166.469 49.6922C166.575 49.8119 166.704 49.9182 166.859 50.0113C167.019 50.1066 167.187 50.1975 167.364 50.2862C167.542 50.3704 167.706 50.4701 167.861 50.5876C168.021 50.7006 168.154 50.8358 168.26 50.9954C168.367 51.1505 168.42 51.3411 168.42 51.5716C168.42 51.7622 168.384 51.9351 168.313 52.0947C168.242 52.2498 168.14 52.3828 168.012 52.4936C167.881 52.6066 167.719 52.6931 167.524 52.7507C167.333 52.8083 167.118 52.8393 166.877 52.8393C166.611 52.8393 166.371 52.8061 166.158 52.7418C165.95 52.6776 165.804 52.6088 165.715 52.5379C165.715 52.467 165.719 52.3828 165.733 52.2808C165.744 52.1745 165.755 52.0681 165.768 51.9617C165.786 51.8553 165.804 51.7534 165.821 51.6514C165.839 51.5517 165.852 51.463 165.866 51.3854H166.034L166.291 52.3252Z" fill="#197FAB"/>
</g>
</g>
<defs>
<clipPath id="clip0_314_2321">
<rect width="224" height="55" fill="white"/>
</clipPath>
<clipPath id="clip1_314_2321">
<rect width="232" height="120" fill="white" transform="translate(-9 -22)"/>
</clipPath>
</defs>
</svg>
