<svg width="128" height="128" viewBox="0 0 128 128" fill="none" xmlns="http://www.w3.org/2000/svg">
<path d="M64.0781 36.0947C58.5403 36.0947 53.1267 37.7369 48.5222 40.8136C43.9176 43.8903 40.3288 48.2633 38.2095 53.3796C36.0903 58.4959 35.5358 64.1258 36.6161 69.5573C37.6965 74.9887 40.3633 79.9778 44.2791 83.8937C48.195 87.8096 53.1841 90.4763 58.6156 91.5567C64.0471 92.6371 69.6769 92.0826 74.7933 89.9634C79.9096 87.8441 84.2826 84.2553 87.3593 79.6507C90.436 75.0461 92.0781 69.6326 92.0781 64.0947C92.0781 56.6687 89.1281 49.5468 83.8771 44.2957C78.6261 39.0447 71.5042 36.0947 64.0781 36.0947ZM75.8356 80.2747L64.0781 73.0947L52.3231 80.2747L55.5206 66.8747L45.0581 57.9122L58.7881 56.8122L64.0781 44.0947L69.3681 56.8122L83.1006 57.9122L72.6381 66.8747L75.8356 80.2747Z" fill="#39A5DF"/>
<path d="M68.0781 14.3297V4.09473H60.0781V14.3297V24.0947H68.0781V14.3297Z" fill="#39A5DF"/>
<path d="M60.0781 113.857V124.095H68.0781V113.857V104.095H60.0781V113.857Z" fill="#39A5DF"/>
<path d="M113.843 60.0947H104.078V68.0947H113.843H124.078V60.0947H113.843Z" fill="#39A5DF"/>
<path d="M4.07812 60.0947V68.0947H14.3156H24.0781V60.0947H14.3156H4.07812Z" fill="#39A5DF"/>
<path d="M64 34C58.0666 34 52.2664 35.7595 47.3329 39.0559C42.3994 42.3524 38.5543 47.0377 36.2836 52.5195C34.013 58.0013 33.4189 64.0333 34.5765 69.8527C35.734 75.6721 38.5912 81.0176 42.7868 85.2132C46.9824 89.4088 52.3279 92.266 58.1473 93.4236C63.9667 94.5811 69.9987 93.987 75.4805 91.7164C80.9623 89.4458 85.6477 85.6006 88.9441 80.6671C92.2405 75.7336 94 69.9334 94 64C93.9911 56.0462 90.8276 48.4208 85.2034 42.7966C79.5792 37.1724 71.9538 34.0089 64 34ZM64 90C58.8577 90 53.8309 88.4751 49.5552 85.6182C45.2795 82.7613 41.947 78.7006 39.9791 73.9498C38.0113 69.1989 37.4964 63.9712 38.4996 58.9277C39.5028 53.8841 41.9791 49.2514 45.6152 45.6152C49.2514 41.9791 53.8842 39.5028 58.9277 38.4996C63.9712 37.4964 69.1989 38.0113 73.9498 39.9791C78.7007 41.947 82.7613 45.2795 85.6182 49.5552C88.4751 53.8309 90 58.8577 90 64C89.9926 70.8934 87.2509 77.5022 82.3766 82.3766C77.5023 87.2509 70.8934 89.9926 64 90Z" fill="#0155A0"/>
<path d="M124 58H115.655C114.302 46.3592 109.057 35.5167 100.77 27.23C92.4833 18.9433 81.6408 13.6982 70 12.345V4C70 3.46957 69.7893 2.96086 69.4142 2.58579C69.0391 2.21071 68.5304 2 68 2H60C59.4696 2 58.9609 2.21071 58.5858 2.58579C58.2107 2.96086 58 3.46957 58 4V12.345C46.3592 13.6982 35.5167 18.9433 27.23 27.23C18.9433 35.5167 13.6982 46.3592 12.345 58H4C3.46957 58 2.96086 58.2107 2.58579 58.5858C2.21071 58.9609 2 59.4696 2 60V68C2 68.5304 2.21071 69.0391 2.58579 69.4142C2.96086 69.7893 3.46957 70 4 70H12.345C13.6982 81.6408 18.9433 92.4833 27.23 100.77C35.5167 109.057 46.3592 114.302 58 115.655V124C58 124.53 58.2107 125.039 58.5858 125.414C58.9609 125.789 59.4696 126 60 126H68C68.5304 126 69.0391 125.789 69.4142 125.414C69.7893 125.039 70 124.53 70 124V115.655C81.6408 114.302 92.4833 109.057 100.77 100.77C109.057 92.4833 114.302 81.6408 115.655 70H124C124.53 70 125.039 69.7893 125.414 69.4142C125.789 69.0391 126 68.5304 126 68V60C126 59.4696 125.789 58.9609 125.414 58.5858C125.039 58.2107 124.53 58 124 58ZM62 6H66V22H62V6ZM6 66V62H22V66H6ZM66 122H62V106H66V122ZM97.9425 97.9425C90.4065 105.481 80.5754 110.295 70 111.628V104C70 103.47 69.7893 102.961 69.4142 102.586C69.0391 102.211 68.5304 102 68 102H60C59.4696 102 58.9609 102.211 58.5858 102.586C58.2107 102.961 58 103.47 58 104V111.628C47.425 110.294 37.5944 105.479 30.0575 97.9425C22.5206 90.4056 17.706 80.575 16.3725 70H24C24.5304 70 25.0391 69.7893 25.4142 69.4142C25.7893 69.0391 26 68.5304 26 68V60C26 59.4696 25.7893 58.9609 25.4142 58.5858C25.0391 58.2107 24.5304 58 24 58H16.3725C17.706 47.425 22.5206 37.5944 30.0575 30.0575C37.5944 22.5206 47.425 17.706 58 16.3725V24C58 24.5304 58.2107 25.0391 58.5858 25.4142C58.9609 25.7893 59.4696 26 60 26H68C68.5304 26 69.0391 25.7893 69.4142 25.4142C69.7893 25.0391 70 24.5304 70 24V16.3725C80.575 17.706 90.4056 22.5206 97.9425 30.0575C105.479 37.5944 110.294 47.425 111.628 58H104C103.47 58 102.961 58.2107 102.586 58.5858C102.211 58.9609 102 59.4696 102 60V68C102 68.5304 102.211 69.0391 102.586 69.4142C102.961 69.7893 103.47 70 104 70H111.628C110.295 80.5754 105.481 90.4065 97.9425 97.9425ZM122 66H106V62H122V66Z" fill="#0155A0"/>
<path d="M84.9223 57.2021C84.801 56.8256 84.5707 56.4937 84.2604 56.2484C83.9502 56.0032 83.574 55.8556 83.1798 55.8246L70.6673 54.8221L65.8473 43.2321C65.6958 42.8668 65.4395 42.5546 65.1106 42.3349C64.7818 42.1153 64.3952 41.998 63.9998 41.998C63.6043 41.998 63.2178 42.1153 62.8889 42.3349C62.5601 42.5546 62.3037 42.8668 62.1523 43.2321L57.3323 54.8221L44.8198 55.8246C44.4259 55.8559 44.0501 56.0033 43.7399 56.248C43.4296 56.4927 43.1988 56.8238 43.0766 57.1996C42.9544 57.5754 42.9462 57.9789 43.0531 58.3593C43.16 58.7397 43.3772 59.08 43.6773 59.3371L53.2123 67.5046L50.2998 79.7171C50.2084 80.1012 50.2328 80.5038 50.3699 80.8741C50.507 81.2445 50.7506 81.5659 51.0701 81.798C51.3896 82.03 51.7707 82.1623 52.1652 82.1782C52.5598 82.194 52.9502 82.0927 53.2873 81.8871L63.9998 75.3421L74.7123 81.8871C75.0265 82.078 75.3871 82.1792 75.7548 82.1796C76.0567 82.1794 76.3547 82.111 76.6263 81.9793C76.898 81.8476 77.1363 81.6561 77.3235 81.4192C77.5106 81.1823 77.6417 80.9061 77.7068 80.6113C77.772 80.3165 77.7696 80.0108 77.6998 79.7171L74.7873 67.5046L84.3223 59.3371C84.622 59.0803 84.839 58.7404 84.9457 58.3605C85.0525 57.9805 85.0444 57.5774 84.9223 57.2021ZM71.2573 65.2621C70.9783 65.5015 70.7708 65.8133 70.6574 66.163C70.5441 66.5128 70.5293 66.887 70.6148 67.2446L72.6948 75.9671L65.0423 71.2921C64.7282 71.1007 64.3675 70.9995 63.9998 70.9995C63.632 70.9995 63.2714 71.1007 62.9573 71.2921L55.3048 75.9671L57.3848 67.2446C57.4702 66.887 57.4555 66.5128 57.3422 66.163C57.2288 65.8133 57.0212 65.5015 56.7423 65.2621L49.9323 59.4296L58.8698 58.7121C59.2364 58.6825 59.5878 58.5525 59.8855 58.3364C60.1831 58.1204 60.4156 57.8265 60.5573 57.4871L63.9998 49.2071L67.4423 57.4871C67.584 57.8265 67.8164 58.1204 68.1141 58.3364C68.4117 58.5525 68.7631 58.6825 69.1298 58.7121L78.0673 59.4296L71.2573 65.2621Z" fill="#0155A0"/>
<path d="M82.9557 68H80.6726L80.687 66.3147H82.9557C83.5223 66.3147 84 66.1875 84.3889 65.933C84.7778 65.6737 85.0707 65.2968 85.2676 64.8022C85.4692 64.3077 85.5701 63.7099 85.5701 63.0089V62.4976C85.5701 61.9598 85.5125 61.4869 85.3972 61.0787C85.2868 60.6706 85.1211 60.3273 84.9003 60.0488C84.6794 59.7703 84.4081 59.5615 84.0864 59.4222C83.7647 59.2782 83.395 59.2062 82.9773 59.2062H80.6294V57.5137H82.9773C83.6783 57.5137 84.3193 57.6337 84.9003 57.8738C85.486 58.109 85.9926 58.4476 86.4199 58.8893C86.8472 59.331 87.1761 59.8592 87.4066 60.4738C87.6419 61.0835 87.7595 61.7629 87.7595 62.512V63.0089C87.7595 63.7531 87.6419 64.4325 87.4066 65.0471C87.1761 65.6617 86.8472 66.1899 86.4199 66.6316C85.9974 67.0685 85.4908 67.407 84.9003 67.6471C84.3145 67.8824 83.6663 68 82.9557 68ZM81.897 57.5137V68H79.7363V57.5137H81.897Z" fill="white"/>
<path d="M77.8568 57.5137V68H75.6962L71.4829 60.9707V68H69.3223V57.5137H71.4829L75.7034 64.5502V57.5137H77.8568Z" fill="white"/>
<path d="M63.6769 59.307L60.8248 68H58.5273L62.4237 57.5137H63.8857L63.6769 59.307ZM66.0464 68L63.1871 59.307L62.9567 57.5137H64.4331L68.3511 68H66.0464ZM65.9167 64.0964V65.7889H60.3783V64.0964H65.9167Z" fill="white"/>
<path d="M49.9629 57.5137H53.8737C54.6755 57.5137 55.3645 57.6337 55.9407 57.8738C56.5216 58.1139 56.9682 58.4692 57.2803 58.9397C57.5924 59.4102 57.7484 59.9888 57.7484 60.6754C57.7484 61.2372 57.6524 61.7197 57.4603 62.123C57.2731 62.5216 57.0066 62.8553 56.6609 63.1241C56.32 63.3882 55.9191 63.5995 55.4581 63.7579L54.7739 64.118H51.3745L51.3601 62.4327H53.8881C54.2674 62.4327 54.5819 62.3655 54.8315 62.2311C55.0812 62.0966 55.2685 61.9094 55.3933 61.6693C55.5229 61.4292 55.5878 61.1508 55.5878 60.8339C55.5878 60.4978 55.5254 60.2073 55.4005 59.9624C55.2757 59.7175 55.086 59.5303 54.8315 59.4006C54.5771 59.271 54.2578 59.2062 53.8737 59.2062H52.1235V68H49.9629V57.5137ZM55.8254 68L53.4343 63.3258L55.7174 63.3114L58.1373 67.8992V68H55.8254Z" fill="white"/>
<path d="M44.6482 63.3978H41.9546L41.9402 61.9142H44.2017C44.6002 61.9142 44.9267 61.8638 45.1812 61.7629C45.4356 61.6573 45.6253 61.5061 45.7501 61.3092C45.8798 61.1075 45.9446 60.8627 45.9446 60.5746C45.9446 60.2481 45.8822 59.984 45.7573 59.7823C45.6373 59.5807 45.4476 59.4342 45.1884 59.343C44.9339 59.2518 44.605 59.2062 44.2017 59.2062H42.7036V68H40.543V57.5137H44.2017C44.8114 57.5137 45.3564 57.5713 45.8365 57.6865C46.3215 57.8018 46.732 57.977 47.0681 58.2123C47.4042 58.4476 47.6611 58.7452 47.8387 59.1053C48.0164 59.4607 48.1052 59.8832 48.1052 60.3729C48.1052 60.8051 48.0068 61.2036 47.8099 61.5685C47.6179 61.9334 47.313 62.2311 46.8953 62.4615C46.4823 62.692 45.9422 62.8193 45.2748 62.8433L44.6482 63.3978ZM44.5546 68H41.364L42.2067 66.3147H44.5546C44.9339 66.3147 45.2436 66.2547 45.4836 66.1346C45.7237 66.0098 45.9014 65.8418 46.0166 65.6305C46.1318 65.4192 46.1895 65.1768 46.1895 64.9031C46.1895 64.5958 46.1366 64.3293 46.031 64.1036C45.9302 63.878 45.7669 63.7051 45.5413 63.5851C45.3156 63.4602 45.0179 63.3978 44.6482 63.3978H42.5668L42.5812 61.9142H45.174L45.6709 62.4976C46.3095 62.488 46.8232 62.6008 47.2122 62.8361C47.6059 63.0665 47.8916 63.3666 48.0692 63.7363C48.2517 64.106 48.3429 64.5022 48.3429 64.9247C48.3429 65.5969 48.1965 66.1635 47.9036 66.6244C47.6107 67.0805 47.1809 67.4238 46.6144 67.6543C46.0526 67.8848 45.366 68 44.5546 68Z" fill="white"/>
<path d="M78.7363 56.5137H82.9773V57.5137H79.7363V68H82.9556C83.6217 68 84.2331 67.8967 84.7896 67.6899L84.9001 67.6472C85.4907 67.4071 85.9974 67.0685 86.4199 66.6316C86.8472 66.1899 87.176 65.6617 87.4065 65.0471C87.6271 64.471 87.7443 63.8378 87.7581 63.1477L87.7595 63.009V62.512C87.7595 61.763 87.6417 61.0836 87.4065 60.4739C87.1904 59.8977 86.8879 59.3974 86.4988 58.9731L86.4199 58.8894C85.9926 58.4477 85.4859 58.109 84.9001 57.8738C84.3555 57.6487 83.7581 57.5292 83.1079 57.5151L82.9773 57.5137V56.5137C83.7907 56.5137 84.56 56.6531 85.2727 56.946L85.2729 56.9458C85.2743 56.9463 85.2755 56.947 85.2769 56.9475C85.2785 56.9482 85.2803 56.9488 85.282 56.9495L85.2817 56.9497C85.9906 57.2358 86.6129 57.6509 87.1384 58.1941L87.2363 58.2976C87.7172 58.8221 88.0847 59.4343 88.3428 60.1226H88.3425C88.6258 60.8603 88.7595 61.6609 88.7595 62.512V63.009C88.7595 63.8571 88.6251 64.6572 88.3425 65.3979L88.3428 65.3982C88.0675 66.1323 87.6674 66.7796 87.1384 67.3264L87.1387 67.3267C86.6147 67.8685 85.9897 68.2836 85.2766 68.5735L85.2749 68.5742L85.2729 68.575C84.5547 68.8634 83.7779 69 82.9556 69H78.7363V56.5137ZM84.5701 63.009V62.4976C84.5701 62.0284 84.5194 61.6503 84.4348 61.3506L84.4319 61.3398C84.3605 61.0761 84.2661 60.8789 84.1619 60.7307L84.1167 60.6702C83.9967 60.5189 83.8573 60.4127 83.689 60.3398L83.6777 60.335C83.5062 60.2581 83.2798 60.2063 82.9773 60.2063H82.897V65.3147H82.9556V66.3147H81.897V59.2063H82.9773C83.395 59.2063 83.7648 59.2783 84.0864 59.4224C84.4081 59.5616 84.6793 59.7704 84.9001 60.0488C85.121 60.3273 85.2868 60.6707 85.3972 61.0789C85.5124 61.4869 85.5701 61.9599 85.5701 62.4976V63.009L85.5688 63.1392C85.557 63.7842 85.4566 64.3386 85.2676 64.8022L85.2295 64.8936C85.0337 65.3434 84.7535 65.69 84.3889 65.9331L84.3149 65.9792C83.9399 66.2029 83.4868 66.3147 82.9556 66.3147V65.3147C83.367 65.3147 83.6426 65.2241 83.8359 65.0991C84.0325 64.9675 84.2062 64.7643 84.3384 64.4324L84.3398 64.4285L84.3416 64.4246C84.4816 64.081 84.5701 63.6189 84.5701 63.009Z" fill="#0155A0"/>
<path d="M77.8567 57.5137H75.7034V64.5503L71.4829 57.5137H69.3223V68H71.4829V60.9707L75.696 68H77.8567V57.5137ZM78.8567 69H75.1296L72.4829 64.5842V69H68.3223V68H68.3499L68.3223 67.926V56.5137H72.0491L74.7034 60.939V56.5137H78.8567V69Z" fill="#0155A0"/>
<path d="M65.126 56.5137L69.3225 67.7451V68H69.4177L69.7913 69H65.3215L64.5945 66.7891H62.2734L61.5481 69H57.0879L57.4595 68H58.1375V67.8992L57.7615 67.1865L61.7275 56.5137H65.126ZM62.4229 57.5137L58.5264 68H60.824L61.5493 65.7891H65.3181L66.0454 68H68.3501L64.4321 57.5137H62.4229ZM64.7615 64.0964H62.1047L63.4314 60.0525L64.7615 64.0964Z" fill="#0155A0"/>
<path d="M54.5876 60.834C54.5876 60.6211 54.5484 60.4928 54.5095 60.4165C54.4845 60.3674 54.4516 60.3295 54.3774 60.2917C54.3035 60.2541 54.1518 60.2063 53.8735 60.2063H53.1235V61.4329H53.8879C54.1554 61.4329 54.2943 61.3846 54.3574 61.3506C54.4393 61.3065 54.4782 61.2612 54.5059 61.208L54.5095 61.2009L54.5132 61.1941C54.5521 61.122 54.5876 61.0118 54.5876 60.834ZM58.5261 68H59.1372V69H55.2136L53.2278 65.1182H53.1235V69H48.9629V56.5137H53.8735V57.5137H49.9629V68H52.1235V64.1182H53.8396L55.8254 68H58.1372V67.8992L55.8669 63.5952C56.1601 63.4631 56.4251 63.3069 56.6609 63.1243C57.0066 62.8554 57.273 62.5216 57.4602 62.123C57.6403 61.7449 57.7358 61.2972 57.7471 60.7798L57.7483 60.6755C57.7483 60.0319 57.6112 59.4831 57.3369 59.0293L57.2803 58.9397C56.9877 58.4986 56.5768 58.1587 56.0479 57.9202L55.9407 57.8738C55.3645 57.6337 54.6754 57.5137 53.8735 57.5137V56.5137C54.7703 56.5137 55.5956 56.6475 56.3223 56.9497L56.3225 56.9495C57.0659 57.2567 57.679 57.7319 58.1135 58.387C58.5558 59.0538 58.7483 59.8352 58.7483 60.6755C58.7483 61.3469 58.6337 61.9817 58.365 62.5481L58.3652 62.5483C58.1114 63.0886 57.7454 63.5474 57.2747 63.9136L57.2732 63.9148C57.2479 63.9344 57.2222 63.9534 57.1965 63.9724L58.8545 67.1157L58.5261 68ZM55.5847 60.9509C55.5705 61.2198 55.5067 61.4594 55.3933 61.6694L55.3691 61.7136C55.2448 61.9325 55.0656 62.1051 54.8315 62.2312L54.7839 62.2556C54.5423 62.3738 54.2436 62.4329 53.8879 62.4329H52.1235V59.2063H53.8735C54.2576 59.2063 54.5771 59.271 54.8315 59.4006C55.086 59.5303 55.2756 59.7176 55.4004 59.9624C55.5252 60.2073 55.5876 60.4979 55.5876 60.834L55.5847 60.9509Z" fill="#0155A0"/>
<path d="M39.543 56.5137H44.2017V57.5137H40.543V68H44.5544C45.3659 68 46.0525 67.8848 46.6143 67.6543C47.1454 67.4382 47.5563 67.1229 47.8469 66.7085L47.9036 66.6245C48.1781 66.1924 48.3239 65.6673 48.3411 65.0496L48.3428 64.9248C48.3428 64.5023 48.2515 64.106 48.0691 63.7363C47.8915 63.3667 47.6058 63.0666 47.2122 62.8362C47.038 62.7308 46.8387 62.6502 46.6145 62.594C46.7137 62.5543 46.8075 62.5106 46.8953 62.4617C47.3129 62.2312 47.6178 61.9335 47.8098 61.5686C47.9944 61.2265 48.0925 60.8548 48.104 60.4536L48.1052 60.373C48.1052 59.8833 48.0162 59.4608 47.8386 59.1055C47.6721 58.7679 47.4359 58.485 47.1301 58.2571L47.0681 58.2124C46.732 57.9771 46.3214 57.8018 45.8364 57.6865C45.4163 57.5857 44.9466 57.529 44.4272 57.5164L44.2017 57.5137V56.5137C44.8724 56.5137 45.4979 56.5768 46.0698 56.7141L46.0696 56.7144C46.6508 56.8527 47.1828 57.0721 47.6414 57.3931L47.7285 57.4561C48.1565 57.7752 48.4952 58.1782 48.7329 58.6582H48.7332C48.9945 59.1809 49.1052 59.7636 49.1052 60.373C49.1052 60.9601 48.9702 61.5195 48.6946 62.0339L48.6948 62.0342C48.6083 62.1985 48.5076 62.3513 48.395 62.4932C48.6258 62.7243 48.8186 62.9907 48.9656 63.2937H48.9658C49.2179 63.8045 49.3428 64.3527 49.3428 64.9248C49.3428 65.7429 49.1635 66.506 48.7476 67.1606L48.7461 67.1626L48.7449 67.1648C48.3266 67.8162 47.723 68.2828 46.991 68.5806L46.9907 68.5803C46.2761 68.8729 45.4535 69 44.5544 69H39.543V56.5137ZM45.1895 64.9031C45.1895 64.7089 45.156 64.5933 45.1252 64.5276L45.1179 64.5115C45.1116 64.4973 45.1071 64.4929 45.1057 64.4915C45.1041 64.4897 45.0956 64.4808 45.0715 64.468L45.0642 64.4641L45.0571 64.4602C45.0335 64.4471 44.9442 64.4092 44.7419 64.3999L44.6482 64.3979H43.7036V65.3147H44.5544V66.3147H42.7036V63.3979H44.6482C45.0178 63.398 45.3156 63.4604 45.5413 63.5852C45.7669 63.7052 45.9302 63.8781 46.031 64.1038C46.1366 64.3294 46.1895 64.5959 46.1895 64.9031L46.1865 65.0042C46.1739 65.2368 46.1174 65.4457 46.0166 65.6306L45.9705 65.7078C45.856 65.8832 45.6937 66.0255 45.4836 66.1348L45.4377 66.1565C45.2045 66.262 44.9101 66.3147 44.5544 66.3147V65.3147C44.8273 65.3147 44.9687 65.2713 45.0291 65.2432C45.1096 65.2 45.1304 65.1667 45.1387 65.1516C45.1633 65.1064 45.1895 65.0326 45.1895 64.9031ZM44.9446 60.5747C44.9446 60.3676 44.904 60.3038 44.907 60.3086C44.8989 60.3039 44.8831 60.2958 44.8564 60.2864L44.8535 60.2854L44.8508 60.2844C44.744 60.2461 44.5409 60.2063 44.2017 60.2063H43.7036V60.9143H44.2017C44.5187 60.9143 44.7067 60.8733 44.8054 60.8357C44.8528 60.8153 44.8786 60.7979 44.8906 60.7883C44.9021 60.7791 44.905 60.7745 44.9055 60.7737L44.9072 60.771L44.9089 60.7686C44.9156 60.7582 44.9446 60.71 44.9446 60.5747ZM45.9414 60.6807C45.9272 60.9233 45.8634 61.1329 45.75 61.3093C45.6252 61.5061 45.4355 61.6573 45.1812 61.7629C44.9267 61.8638 44.6001 61.9143 44.2017 61.9143H42.7036V59.2063H44.2017C44.6049 59.2063 44.9338 59.2518 45.1882 59.343C45.4475 59.4342 45.6373 59.5808 45.7573 59.7825C45.8821 59.9841 45.9446 60.2483 45.9446 60.5747L45.9414 60.6807Z" fill="#0155A0"/>
</svg>
