<svg width="128" height="128" viewBox="0 0 128 128" fill="none" xmlns="http://www.w3.org/2000/svg">
<path fill-rule="evenodd" clip-rule="evenodd" d="M87.7331 40.9285C87.7331 47.5252 85.0098 52.853 79.6481 56.6997L78.0241 57.8647L77.7443 57.7017C76.0513 56.7157 74.4528 55.567 72.9423 54.321C72.0113 53.5527 70.9778 52.9142 69.8631 52.4487L68.7738 51.994L69.8586 51.5282C75.3236 49.181 78.8991 43.7995 78.8991 37.8312C78.8991 29.6157 72.2138 22.932 63.9986 22.932C55.7846 22.932 49.0983 29.6167 49.0983 37.8312C49.0983 44.599 53.6928 50.5332 60.2248 52.2445L61.3468 52.5385L60.3628 53.1525C59.9436 53.414 59.5433 53.7057 59.1638 54.0225L54.7493 57.7065H49.7496L48.3488 56.7C42.9906 52.8492 40.2631 47.527 40.2631 40.929V18.0445L40.5256 17.9027C58.1133 8.40572 69.8831 8.40522 87.4706 17.9027L87.7331 18.0445V40.9285ZM100.712 57.3592L111.317 55.2462L111.324 55.245C111.359 55.2392 111.393 55.2355 111.428 55.2355C111.549 55.2355 111.665 55.2712 111.767 55.3365C111.91 55.429 112.009 55.571 112.04 55.7387L120.314 97.272C120.379 97.6012 120.161 97.9287 119.831 97.9985L109.189 100.117C109.023 100.155 108.854 100.119 108.714 100.023C108.583 99.9365 108.493 99.8085 108.456 99.6562L108.453 99.646L100.176 58.097C100.144 57.9357 100.178 57.7695 100.27 57.6327L100.276 57.6237C100.365 57.497 100.489 57.409 100.64 57.3732L100.697 57.359L100.712 57.3592ZM15.9573 55.7387C15.9873 55.5757 16.0823 55.4367 16.2196 55.3435L16.2333 55.3345C16.3346 55.2705 16.4493 55.2357 16.5691 55.2357C16.6038 55.2357 16.6373 55.2392 16.6716 55.2452L16.6853 55.2477L27.3361 57.369C27.4978 57.4012 27.6366 57.497 27.7268 57.6345C27.8146 57.765 27.8486 57.9207 27.8246 58.076L27.8228 58.0867L19.5446 99.6425C19.4733 99.9725 19.1401 100.189 18.8141 100.119L8.15681 97.9972L8.14581 97.9945C7.99956 97.9585 7.87556 97.8722 7.78731 97.7497L7.78231 97.7425L7.77731 97.7352C7.68606 97.5987 7.65156 97.4332 7.68356 97.2722L15.9573 55.7387Z" fill="#39A5DF"/>
<path fill-rule="evenodd" clip-rule="evenodd" d="M71.7098 34.941L63.1921 43.5368C62.8018 43.9318 62.2866 44.13 61.7723 44.13C61.2666 44.13 60.7641 43.9403 60.3773 43.5618L56.3141 39.6035C55.5241 38.8325 55.5101 37.566 56.2798 36.775C57.0486 35.985 58.3161 35.9685 59.1061 36.7395L61.7461 39.3123L68.8666 32.1255C69.6448 31.3403 70.9123 31.3355 71.6941 32.1125C72.4798 32.8893 72.4868 34.1555 71.7098 34.941ZM119.731 97.509L109.082 99.629C109.052 99.6373 109.023 99.629 108.994 99.609C108.952 99.5818 108.945 99.5465 108.943 99.537L100.668 57.9995C100.662 57.9688 100.668 57.9393 100.687 57.911C100.717 57.8673 100.75 57.8615 100.76 57.859H100.762L111.409 55.7378C111.416 55.7365 111.425 55.7355 111.429 55.7355C111.452 55.7355 111.474 55.7425 111.497 55.7568C111.527 55.7768 111.545 55.8015 111.55 55.831L119.825 97.3698C119.836 97.429 119.793 97.496 119.731 97.509ZM97.9673 101.151L103.987 95.1343L97.6123 63.132C90.6191 65.331 81.5446 65.9535 70.7168 57.0208C67.8043 54.6165 64.0618 54.4915 61.4066 56.7083L53.8061 63.0553C53.8013 63.0588 53.7966 63.0623 53.7918 63.066L47.1298 68.6303C46.2466 69.366 45.2716 70.59 45.6348 72.2455L49.5071 89.99C56.5238 87.482 56.9896 82.215 57.6111 75.1393C57.6596 74.6098 57.7066 74.077 57.7561 73.544C57.7561 73.5275 57.7596 73.5123 57.7618 73.4968C57.9433 71.9368 58.8573 70.7423 60.2593 70.2188C63.1893 69.127 67.9388 71.2103 72.9666 75.7925C72.9948 75.8173 73.0196 75.842 73.0443 75.8668L97.9673 101.151ZM95.4678 109.722C93.8748 111.314 91.2843 111.314 89.6926 109.722L71.5743 91.6065C70.7951 90.8248 69.5273 90.8248 68.7468 91.6065C67.9651 92.387 67.9651 93.6545 68.7468 94.434L86.8613 112.549L86.8648 112.552C86.8648 112.552 86.8671 112.554 86.8671 112.557C88.4543 114.15 88.4518 116.734 86.8613 118.326C86.0973 119.091 85.0691 119.515 83.9748 119.515C82.8793 119.515 81.8548 119.091 81.0871 118.326L61.9443 99.1843C61.1613 98.4013 59.8973 98.4038 59.1168 99.1843C58.3338 99.9638 58.3338 101.231 59.1168 102.012L73.5643 116.459V116.462C75.1573 118.055 75.1573 120.644 73.5643 122.236C71.9713 123.829 69.3821 123.829 67.7891 122.236L52.3146 106.761C51.5316 105.982 50.2676 105.982 49.4848 106.761C48.7043 107.544 48.7043 108.809 49.4848 109.589L56.6798 116.784C57.4451 117.551 57.8671 118.577 57.8671 119.671C57.8671 120.767 57.4448 121.791 56.6761 122.559C55.0843 124.152 52.4951 124.152 50.9021 122.559L23.9241 95.5825L30.7723 61.2068H48.6241L49.2443 61.6525L44.5668 65.56C42.1543 67.5728 41.1191 70.32 41.7276 73.0993L46.0573 92.9473C46.1718 93.4743 46.4946 93.9318 46.9546 94.217C47.4121 94.5025 47.9651 94.592 48.4898 94.4623C53.7298 93.17 57.2353 90.6421 59.2043 86.732C60.9046 83.3598 61.2571 79.359 61.5968 75.4915C61.6416 74.9798 61.6876 74.4645 61.7348 73.9493C61.7373 73.9468 61.7373 73.9423 61.7373 73.9398C62.5026 73.7415 65.5728 74.4763 70.2351 78.7115L96.2993 105.157C96.9816 106.69 96.6563 108.531 95.4678 109.722ZM18.9166 99.629C18.9768 99.642 19.0438 99.5973 19.0568 99.537L27.3318 57.9995C27.3366 57.9688 27.3318 57.9393 27.3118 57.911C27.2941 57.8828 27.2693 57.865 27.2398 57.859L16.5891 55.7378C16.5821 55.7365 16.5748 55.7355 16.5703 55.7355C16.5468 55.7355 16.5243 55.7425 16.5021 55.7568C16.4726 55.7768 16.4548 55.8015 16.4501 55.831L8.17508 97.3698C8.16908 97.3993 8.17508 97.4288 8.19408 97.457C8.22458 97.4995 8.25783 97.5065 8.26708 97.509L18.9166 99.629ZM79.4001 37.831C79.4001 44.1733 75.5443 49.6303 70.0568 51.9873C71.1723 52.453 72.2523 53.1015 73.2616 53.9353C74.8946 55.2818 76.4723 56.3818 77.9968 57.2698L79.3576 56.2935C84.5846 52.5358 87.2341 47.3653 87.2341 40.9285V18.3425C69.7926 8.9238 58.2068 8.9238 40.7643 18.3425V40.9283C40.7643 47.3663 43.4151 52.5355 48.6418 56.2933L49.9118 57.2058H54.5693L58.8448 53.6378C59.2468 53.3005 59.6666 52.9975 60.0993 52.7275C53.4916 50.9965 48.5996 44.9748 48.5996 37.8308C48.5996 29.34 55.5103 22.4315 63.9998 22.4315C72.4916 22.4318 79.4001 29.3403 79.4001 37.831ZM63.9996 49.2305C70.2843 49.2305 75.3991 44.1168 75.3991 37.831C75.3991 31.5453 70.2843 26.4325 63.9996 26.4325C57.7151 26.4325 52.6001 31.5453 52.6001 37.831C52.6001 44.1168 57.7151 49.2305 63.9996 49.2305ZM33.7638 40.9285C33.7638 47.2155 35.6671 52.6865 39.4118 57.206H43.4891C39.0248 52.9295 36.7646 47.4703 36.7646 40.9285V17.1578C36.7646 16.4303 37.1596 15.7593 37.7941 15.408C57.3873 4.5603 70.6121 4.5603 90.2041 15.408C90.8396 15.7605 91.2346 16.4303 91.2346 17.1578V40.9285C91.2346 48.549 88.1666 54.7018 82.1201 59.2248C83.3416 59.6728 84.5266 59.99 85.6798 60.1975C91.2793 55.27 94.2343 48.627 94.2343 40.9285V14.25C71.4893 0.999297 56.5123 0.999297 33.7638 14.25V40.9285ZM123.747 96.587L115.472 55.0495C115.257 53.973 114.634 53.0428 113.719 52.4318C112.802 51.8188 111.705 51.5995 110.627 51.815L99.9788 53.9363C98.9023 54.1508 97.9721 54.7735 97.3601 55.6895C96.7493 56.6068 96.5301 57.7045 96.7446 58.78L96.8248 59.1833C95.0291 59.7715 93.1271 60.2373 91.1048 60.4235C95.7848 55.0988 98.2338 48.4463 98.2338 40.9283V13.1063C98.2338 12.4 97.8623 11.7455 97.2551 11.386C84.2721 3.6828 74.0173 0.248047 63.9996 0.248047C53.9843 0.248047 43.7248 3.6838 30.7441 11.3858C30.1368 11.7455 29.7643 12.3998 29.7643 13.106V40.9283C29.7643 46.9453 31.3738 52.4965 34.4501 57.2058H31.2618C31.1593 56.6718 30.9518 56.1565 30.6393 55.6895C30.0273 54.7733 29.0971 54.1508 28.0193 53.9363L17.3721 51.815C16.2943 51.6005 15.1978 51.8185 14.2793 52.4318C13.3643 53.0425 12.7428 53.973 12.5271 55.0495L4.25208 96.587C4.03758 97.6648 4.25683 98.7625 4.86758 99.6763C5.47958 100.595 6.40983 101.217 7.48633 101.432L18.1373 103.555C18.4073 103.607 18.6773 103.632 18.9426 103.632C20.8646 103.632 22.5896 102.274 22.9798 100.317L22.9846 100.299L48.0746 125.387C49.6498 126.965 51.7193 127.752 53.7898 127.752C55.8593 127.752 57.9296 126.965 59.5073 125.387C60.5368 124.358 61.2548 123.095 61.6098 121.715L64.9596 125.067C68.1126 128.217 73.2416 128.217 76.3946 125.065C77.4476 124.012 78.1491 122.734 78.4993 121.384C79.9921 122.762 81.9223 123.514 83.9751 123.514C86.1398 123.514 88.1691 122.677 89.6926 121.155C91.4046 119.44 92.1876 117.141 92.0378 114.896C94.2841 115.044 96.5821 114.264 98.2953 112.549C100.41 110.437 101.142 107.287 100.3 104.476L104.928 99.8518L105.02 100.316C105.234 101.394 105.857 102.324 106.772 102.936C107.46 103.394 108.25 103.634 109.055 103.634C109.323 103.634 109.595 103.606 109.865 103.554L120.512 101.432C122.739 100.988 124.192 98.8143 123.747 96.587Z" fill="#132638"/>
</svg>
